<svg width="458" height="330" xmlns="http://www.w3.org/2000/svg">
  <g fill="#FFF">
    <path d="M438.438 77.57v-4.677h3.433c2.285 0 2.903.705 2.903 2.072 0 1.4-.618 2.528-3.31 2.605h-3.026Zm2.408 2.853c.987.087 1.937 0 2.653.749.82.868.82 2.322 1.026 3.895.13 1.075.418 2.235.624 3.266h3.645c-.624-1.649-.83-3.558-1.08-5.295-.292-1.986-.575-3.103-3.103-3.602v-.087c2.447-.499 3.728-2.148 3.728-4.264 0-4.134-3.484-5.046-6.831-5.046h-5.925v18.294h2.855v-7.91h2.408Zm.907 14.573c8.62 0 15.526-6.945 15.526-15.604 0-8.572-6.906-15.527-15.526-15.527-8.654 0-15.61 6.955-15.61 15.527a15.559 15.559 0 0 0 15.61 15.604Zm0-2.724c-7.12 0-12.87-5.761-12.87-12.88 0-7.03 5.75-12.792 12.87-12.792 7.085 0 12.803 5.761 12.803 12.792 0 7.119-5.718 12.88-12.803 12.88"/>
    <path d="M364.434 106.733h-25.005v24.979h25.005c5.935 0 10.71 4.834 10.71 10.734a10.684 10.684 0 0 1-10.71 10.715h-25.005v25h25.005c19.732 0 35.715-16 35.715-35.715 0-19.721-15.983-35.713-35.715-35.713ZM221.932 238.908c29.932 0 55.728-17.529 67.779-42.898h31.874v42.898h17.844V196.01h25.005c29.606 0 53.591-23.985 53.591-53.564 0-29.587-23.985-53.58-53.591-53.58h-42.85v64.295h-25.429c-5.186-36.336-36.441-64.296-74.223-64.296h-87.934l-87.47 150.043h20.866l25-42.898h89.89v42.898h39.648Zm221.098-96.462c0 43.392-35.194 78.564-78.596 78.564v42.855H296.59v-33.431c-18.354 20.519-44.976 33.431-74.658 33.431h-64.654V221.01h-50.532l-25 42.855H2.387l116.65-200h102.895c29.682 0 56.304 12.948 74.658 33.469V63.865h67.844c43.402 0 78.596 35.2 78.596 78.58Zm-285.752-35.713v46.428h-39.884l-14.568 25h79.457v-71.428h-25.005Zm121.815 57.132c0 31.565-25.602 57.145-57.161 57.145h-21.794v-25h21.794c17.768 0 32.166-14.372 32.166-32.145 0-17.735-14.398-32.153-32.166-32.153h-21.794v-24.979h21.794c31.559 0 57.161 25.581 57.161 57.132"/>
    <path d="M364.434 106.733h-25.005v24.979h25.005c5.935 0 10.71 4.834 10.71 10.734a10.684 10.684 0 0 1-10.71 10.715h-25.005v25h25.005c19.732 0 35.715-16 35.715-35.715 0-19.721-15.983-35.713-35.715-35.713ZM221.932 238.908c29.932 0 55.728-17.529 67.779-42.898h31.874v42.898h17.844V196.01h25.005c29.606 0 53.591-23.985 53.591-53.564 0-29.587-23.985-53.58-53.591-53.58h-42.85v64.295h-25.429c-5.186-36.336-36.441-64.296-74.223-64.296h-87.934l-87.47 150.043h20.866l25-42.898h89.89v42.898h39.648Zm221.098-96.462c0 43.392-35.194 78.564-78.596 78.564v42.855H296.59v-33.431c-18.354 20.519-44.976 33.431-74.658 33.431h-64.654V221.01h-50.532l-25 42.855H2.387l116.65-200h102.895c29.682 0 56.304 12.948 74.658 33.469V63.865h67.844c43.402 0 78.596 35.2 78.596 78.58Zm-285.752-35.713v46.428h-39.884l-14.568 25h79.457v-71.428h-25.005Zm121.815 57.132c0 31.565-25.602 57.145-57.161 57.145h-21.794v-25h21.794c17.768 0 32.166-14.372 32.166-32.145 0-17.735-14.398-32.153-32.166-32.153h-21.794v-24.979h21.794c31.559 0 57.161 25.581 57.161 57.132"/>
    <path d="M364.434 106.733h-25.005v24.979h25.005c5.935 0 10.71 4.834 10.71 10.734a10.684 10.684 0 0 1-10.71 10.715h-25.005v25h25.005c19.732 0 35.715-16 35.715-35.715 0-19.721-15.983-35.713-35.715-35.713ZM221.932 238.908c29.932 0 55.728-17.529 67.779-42.898h31.874v42.898h17.844V196.01h25.005c29.606 0 53.591-23.985 53.591-53.564 0-29.587-23.985-53.58-53.591-53.58h-42.85v64.295h-25.429c-5.186-36.336-36.441-64.296-74.223-64.296h-87.934l-87.47 150.043h20.866l25-42.898h89.89v42.898h39.648Zm221.098-96.462c0 43.392-35.194 78.564-78.596 78.564v42.855H296.59v-33.431c-18.354 20.519-44.976 33.431-74.658 33.431h-64.654V221.01h-50.532l-25 42.855H2.387l116.65-200h102.895c29.682 0 56.304 12.948 74.658 33.469V63.865h67.844c43.402 0 78.596 35.2 78.596 78.58Zm-285.752-35.713v46.428h-39.884l-14.568 25h79.457v-71.428h-25.005Zm121.815 57.132c0 31.565-25.602 57.145-57.161 57.145h-21.794v-25h21.794c17.768 0 32.166-14.372 32.166-32.145 0-17.735-14.398-32.153-32.166-32.153h-21.794v-24.979h21.794c31.559 0 57.161 25.581 57.161 57.132"/>
  </g>
</svg>
