<svg width="380" height="330" xmlns="http://www.w3.org/2000/svg">
  <path d="M107.895 198.016h16.842v65.79h-16.842v-65.79Zm150.525 18.947c-.526-.526-5.79-3.684-14.21-3.684-10.527 0-18.421 7.369-18.421 17.368 0 10 7.368 17.369 18.42 17.369 7.895 0 13.158-3.158 14.211-3.684v17.894c-2.105.527-7.895 2.105-15.263 2.105-18.947 0-35.263-12.631-35.263-34.21 0-19.473 14.737-34.21 35.263-34.21 7.895 0 13.684 2.105 15.263 2.105v18.947Zm-173.683 0c-.526-.526-5.79-3.684-14.21-3.684-10.527 0-18.421 7.369-18.421 17.368 0 10 7.368 17.369 18.42 17.369 7.895 0 13.158-3.158 14.211-3.684v17.894c-2.105.527-7.895 2.105-15.263 2.105-18.421 0-35.263-12.631-35.263-34.21 0-19.473 14.737-34.21 35.263-34.21 7.895 0 13.684 2.105 15.263 2.105v18.947Zm260.525 14.21c0 18.948-14.737 34.211-34.737 34.211s-34.737-15.263-34.737-34.21c0-18.947 14.737-34.21 34.737-34.21 20.526 0 34.737 15.263 34.737 34.21Zm-34.737-17.368c-10 0-17.368 7.895-17.368 17.369 0 9.473 7.368 17.368 17.368 17.368 10 0 17.368-7.895 17.368-17.368 0-9.474-7.368-17.369-17.368-17.369Zm-123.157-.526s-7.369-2.105-13.158-2.105c-6.842 0-10.526 2.105-10.526 5.263 0 4.21 4.737 5.263 7.368 6.316l4.737 1.579c10.526 3.684 15.79 11.052 15.79 18.947 0 16.316-14.737 22.105-27.369 22.105-8.947 0-17.368-1.579-17.895-1.579v-15.263c1.58.526 8.421 2.632 15.79 2.632 8.42 0 12.105-2.632 12.105-6.316 0-3.158-3.158-5.263-7.368-6.316-1.053-.526-2.632-1.052-3.685-1.052-9.473-3.158-16.842-8.421-16.842-19.474 0-12.105 9.474-20.526 24.737-20.526 7.895 0 15.79 2.105 16.316 2.105v13.684ZM16.843 127.49a8.316 8.316 0 0 0-8.421-8.42A8.316 8.316 0 0 0 0 127.49v17.369a8.316 8.316 0 0 0 8.42 8.42 8.316 8.316 0 0 0 8.422-8.42V127.49Zm45.263-22.631a8.316 8.316 0 0 0-8.421-8.421c-4.737 0-7.895 3.684-7.895 8.42v40a8.316 8.316 0 0 0 8.42 8.422 8.316 8.316 0 0 0 8.422-8.421v-40h-.526Zm45.789-31.053a8.316 8.316 0 0 0-8.421-8.421 8.32 8.32 0 0 0-8.421 8.421v87.368a8.316 8.316 0 0 0 8.42 8.422 8.32 8.32 0 0 0 8.422-8.422V73.806Zm45.263 31.053a8.316 8.316 0 0 0-8.421-8.421 8.316 8.316 0 0 0-8.421 8.42v40a8.316 8.316 0 0 0 8.42 8.422 8.316 8.316 0 0 0 8.422-8.421v-40Zm45.262 22.631a8.316 8.316 0 0 0-8.42-8.42 8.316 8.316 0 0 0-8.422 8.42v17.369a8.316 8.316 0 0 0 8.421 8.42 8.316 8.316 0 0 0 8.421-8.42V127.49Zm45.263-22.631a8.421 8.421 0 1 0-16.842 0v40a8.421 8.421 0 0 0 16.842 0v-40Zm45.263-31.053a8.421 8.421 0 0 0-16.842 0v87.368a8.421 8.421 0 0 0 16.842 0V73.806Zm45.263 31.053a8.421 8.421 0 0 0-16.842 0v40a8.421 8.421 0 1 0 16.842 0v-40Zm45.263 22.631a8.421 8.421 0 0 0-16.842 0v17.369a8.421 8.421 0 1 0 16.842 0V127.49Z" fill="#FFF"/>
</svg>
