<svg width="234" height="330" xmlns="http://www.w3.org/2000/svg">
  <path d="m127.526 297.211 93.764-39.283c1.942-.782 3.116-1.404 4.838-2.248 0 0 3.2-2.381 3.507-2.746 3.134-3.718 3.2-6.984 3.552-10.355a47.94 47.94 0 0 0 .225-4.874V51.383c0-15.44-5.696-21.137-21.13-21.137H21.865c-15.434 0-21.13 5.696-21.13 21.137v186.322c0 1.747.07 3.37.225 4.874.351 3.37.418 6.637 3.552 10.355.131.156.789.679 1.5 1.227l.39.3c.715.546 1.397 1.055 1.573 1.187l.044.032c1.721.844 2.897 1.466 4.838 2.248l93.764 39.283c4.716 2.162 6.773 3.046 10.111 3.035l.328-.003h.027c3.536.07 5.571-.8 10.44-3.032Zm52.427-126.675h-7.801c-12.666 0-18.998-6.224-19.13-18.818l-.003-.408V84.465c0-12.73 6.197-19.09 18.726-19.224l.407-.002h7.655c12.665 0 18.85 6.08 18.981 18.668l.002.409v21.15h-15.452V85.203c0-4.049-1.83-5.976-5.626-6.06l-.262-.002h-2.65c-4.03 0-5.95 1.839-6.03 5.795l-.004.267v65.369c0 4.051 1.832 5.978 5.77 6.06l.265.002h2.945c3.883 0 5.8-1.837 5.883-5.79l.003-.272v-23.367h15.453v24.105c0 12.868-6.327 19.226-19.132 19.226Zm-109.569-.888H35.062V66.127H70.09V80.47H50.809v29.283h18.543v14.344H50.81v31.206h19.575v14.344Zm74.313 0h-15.75V66.128h15.75V169.65Zm-50.963 0H77.986V66.127h24.725c12.668 0 18.997 6.224 19.13 18.818l.002.408v27.509c0 12.728-6.194 19.087-18.726 19.22l-.406.003h-8.977v37.565Zm6.476-51.463c3.886 0 5.8-1.84 5.883-5.793l.003-.272V86.09c0-4.048-1.828-5.975-5.624-6.059l-.262-.003h-6.476v38.157h6.476ZM52.331 226.763h-1.84l-.428-.043-.47-.043-.854-.086-.43-.043-.427-.086-.428-.086-.384-.086-.43-.086-.384-.129-.427-.085-.387-.13-.384-.172-.385-.128-.426-.173-.387-.171-.385-.172-.384-.172-.387-.215-.341-.212-.384-.215-.344-.215-.341-.215-.344-.258-.341-.258-.342-.257-.3-.258-.299-.258-.301-.301-.298-.258-.301-.3-.298-.302-.258-.3-.256-.344-.258-.301-.215-.344-.255-.344-.214-.343-.213-.345-.215-.386-.215-.344-.169-.387-.172-.387-.172-.387-.17-.386-.128-.344-.172-.387-.086-.387-.127-.386-.086-.43-.128-.387-.086-.43-.043-.387-.087-.43-.042-.386-.044-.43-.04-.43-.042-.43v-1.418l.042-.473v-.43l.04-.43.044-.472.086-.427.043-.43.085-.387.13-.43.086-.43.126-.386.129-.43.129-.386.172-.43.17-.387.171-.387.172-.387.17-.386.214-.387.215-.344.213-.344.214-.344.215-.344.255-.343.258-.344.256-.344.258-.301.298-.3.258-.302.298-.3.3-.302.299-.257.344-.301.298-.258.342-.258.343-.215.342-.257.344-.215.34-.215.385-.215.387-.215.384-.215.385-.172.386-.171.427-.216.342-.128.427-.13.387-.171.384-.086.384-.13.43-.085.384-.13.427-.085.428-.043.43-.086 1.281-.129.43-.043h1.838l.473.043.47.043h.427l.427.043.47.086.388.043.854.172.387.086.384.086.385.086.386.129.384.086.342.129.387.129.384.171.384.172.387.172.384.215.384.172.344.215.384.215.342.214.387.216.34.257.342.215.344.258.341.258.344.3.341.259-.258.344-.298.3-.258.344-.298.344-.258.344-.255.3-.301.344-.255.344-.258.302-.299.343-.257.344-.299.344-.258.3-.255.344-.3.344-.256.344-.301.3-.256.345-.343-.258-.342-.3-.343-.216-.342-.258-.34-.215-.345-.215-.341-.214-.384-.216-.344-.171-.341-.172-.344-.13-.769-.257-.386-.086-.855-.172-.427-.043-.47-.043-.473-.042h-.898l-.427.042-.387.043-.427.086-.384.086-.387.129-.384.129-.384.172-.385.172-.344.214-.34.216-.345.215-.298.257-.3.258-.299.258-.258.3-.298.302-.258.343-.213.301-.215.344-.211.387-.216.344-.171.387-.13.386-.169.387-.129.43-.086.427-.086.387-.086.473-.043.43-.04.429v.989l.04.43.043.386.043.43.086.387.086.387.086.386.13.387.126.344.172.43.171.387.213.387.215.343.214.344.256.344.258.3.298.302.258.3.298.258.344.258.341.258.341.215.344.215.385.172.384.172.386.171.428.13.427.128.43.087.427.085.427.043.47.043h.984l.473-.043.47-.043.427-.043.427-.086.43-.086.428-.128.383-.087.385-.171.344-.172.384-.172.3-.172.342-.215v-3.91h-6.247v-6.273h14.12v13.965l-.298.258-.344.257-.299.216-.343.258-.342.214-.341.258-.344.215-.341.215-.387.215-.384.215-.385.215-.386.169-.385.215-.427.172-.384.172-.43.171-.384.172-.385.13-.386.128-.385.13-.427.128-.384.13-.43.085-.384.086-.427.086-.43.086-.427.043-.47.043-.428.043-.47.043-.43.043-.47.043Zm135.773-.086h-1.798l-.427-.043h-.47l-.428-.043-.429-.043-.47-.043-.427-.086-.428-.043-.43-.086-.427-.086-.854-.172-.43-.128-.384-.087-.428-.129-.427-.128-.386-.173-.428-.129-.384-.128-.428-.172-.386-.172-.385-.172-.384-.212-.386-.172-.385-.215-.341-.215-.387-.215-.341-.215-.344-.215-.683-.515-.343-.258-.342-.258-.3-.258-.342-.3.258-.344.298-.301.258-.345.299-.343.258-.3.255-.345.3-.344.256-.3.3-.344.256-.301.3-.344.256-.344.258-.3.298-.344.258-.344.298-.301.258-.344.342.258.384.258.344.258.384.258.344.215.384.257.341.215.388.172.34.215.385.172.387.172.384.172.385.129.386.172.427.128.428.13.384.128.43.087.427.085.427.086.47.043.43.086h.427l.47.043h.94l.471-.043.43-.086.384-.086.384-.086.344-.129.299-.171.343-.258.256-.301.172-.344.129-.387.042-.43v-.086l-.042-.515-.172-.43-.215-.3-.298-.259-.345-.258-.341-.171-.384-.172-.43-.173-.513-.214-.299-.086-.34-.086-.387-.13-.385-.085-.427-.13-.43-.085-.47-.129-.427-.086-.47-.129-.428-.085-.43-.13-.426-.086-.428-.129-.387-.128-.426-.086-.385-.13-.384-.128-.387-.13-.47-.171-.428-.172-.427-.172-.43-.172-.384-.215-.427-.215-.344-.214-.384-.215-.342-.258-.343-.215-.299-.258-.3-.3-.299-.302-.258-.3-.255-.301-.215-.301-.212-.344-.215-.387-.172-.298-.13-.344-.125-.387-.13-.344-.085-.43-.086-.386-.086-.86-.043-.472v-.99l.043-.429.043-.386.043-.43.172-.774.129-.387.086-.386.169-.387.172-.387.172-.386.212-.388.215-.386.255-.344.259-.344.298-.344.3-.3.299-.345.344-.3.298-.215.344-.258.341-.258.341-.215.387-.215.384-.172.384-.215.387-.171.427-.13.428-.171.386-.13.342-.085.385-.086.386-.086.427-.086.385-.086.427-.043.43-.043.854-.086h1.84l.94.086h.428l.473.043.427.086.47.043.428.086.386.086.855.172.384.086.43.129.384.129.385.086.43.171.384.13.384.171.384.172.43.172.384.215.341.172.387.215.385.215.341.215.386.258.342.214.344.258.341.258.341.258-.255.344-.215.344-.255.343-.258.345-.255.386-.215.344-.258.344-.256.344-.214.343-.256.344-.258.344-.215.344-.255.387-.258.343-.255.344-.215.344-.256.344-.343-.258-.384-.215-.342-.215-.344-.258-.384-.171-.344-.216-.384-.172-.341-.171-.387-.172-.341-.172-.384-.129-.344-.172-.47-.129-.428-.129-.427-.128-.43-.087-.427-.086-.427-.086-.427-.043-.43-.043-.384-.043h-.94l-.471.086-.43.086-.384.086-.341.172-.302.172-.384.344-.258.387-.169.387-.043.43v.086l.043.558.212.473.172.258.299.3.386.215.342.215.427.172.472.172.514.172.341.086.342.129.386.086.384.128.427.087.474.129.47.128.47.13.47.085.427.13.47.128.43.086.855.258.384.129.43.129.384.129.384.129.473.169.427.215.427.172.428.215.387.215.384.215.341.214.344.258.342.215.341.301.344.3.298.345.3.3.256.345.258.386.212.344.215.387.172.344.129.386.127.387.085.387.086.43.086.43.043.43.043.472v1.032l-.043.472-.043.43-.043.473-.086.43-.128.429-.084.387-.13.43-.17.387-.173.344-.17.386-.429.688-.255.344-.215.344-.256.3-.3.301-.256.258-.343.301-.299.258-.344.258-.341.212-.341.258-.387.215-.385.172-.384.214-.43.173-.427.172-.427.128-.427.13-.387.128-.427.086-.768.172-.43.086-.428.043-.384.043-.43.043-.47.043-.427.043Zm-111.425-.515h-8.641l.17-.388.171-.387.172-.386.17-.43.128-.384.173-.387.171-.387.17-.386.172-.387.172-.43.169-.387.172-.387.128-.386.172-.387.17-.387.172-.43.171-.387.17-.387.172-.386.172-.387.129-.387.169-.43.172-.386.172-.387.17-.387.344-.774.169-.43.129-.386.343-.774.17-.387.172-.387.171-.43.17-.386.172-.387.129-.387.172-.386.169-.387.172-.43.172-.387.17-.387.171-.386.172-.387.13-.387.169-.384.171-.43.172-.386.17-.388.171-.387.172-.386.17-.387.129-.43.172-.386.171-.387.17-.387.344-.774.17-.43.171-.386.129-.387.172-.387.17-.387.17-.387.173-.429.17-.387.171-.387.172-.387.126-.386.173-.387.172-.43.172-.387.169-.387.344-.773.169-.387.13-.43.171-.386.172-.387.17-.387h7.915l.343.774.17.386.172.43.129.387.169.387.172.386.172.387.172.387.169.43.344.773.126.387.172.387.172.387.173.43.169.386.343.774.17.387.129.386.171.43.17.387.516 1.16.169.387.172.43.129.387.17.386.17.387.173.388.172.386.17.43.171.384.172.387.127.387.171.386.172.387.17.387.172.43.172.387.172.386.169.387.129.387.172.387.17.43.17.386.345.774.17.387.171.386.129.43.17.387.171.387.172.387.17.387.172.386.172.43.172.387.126.387.172.386.172.387.17.387.17.43.345.774.169.386.13.387.171.387.17.43.171.387.172.386.17.387.171.387.172.384.13.43.168.386.172.387.172.388h-8.815l-.17-.388-.128-.387-.172-.386-.172-.43-.127-.384-.343-.774-.127-.386-.172-.387-.172-.387-.128-.387-.17-.43-.172-.386-.129-.387-.172-.387H79.032l-.169.387-.129.387-.172.386-.172.43-.126.387-.172.387-.172.387-.129.386-.169.387-.172.387-.129.384-.17.43-.171.386-.13.387-.171.388Zm93.27 0h-24.944v-31.283h24.73v7.091h-16.56v5.114h14.891v6.66h-14.89v5.328h16.774v7.09Zm-55.862 0h-8.13v-31.283h8.772l.212.344.215.386.255.341.215.387.215.344.213.387.214.341.256.388.215.343.215.344.212.384.215.344.255.386.215.345.215.384.212.343.258.344.215.385.212.343.215.387.213.344.258.384.215.344.212.387.215.341.212.344.258.387.215.344.212.387.215.341.212.387.259.344.214.384.213.344.215-.344.214-.384.256-.344.214-.387.213-.341.215-.387.255-.344.215-.387.215-.344.212-.341.258-.387.212-.344.216-.384.214-.344.255-.387.215-.343.215-.385.212-.344.216-.343.255-.384.215-.345.215-.386.212-.344.258-.384.213-.344.214-.343.215-.388.255-.34.215-.388.212-.344.216-.387.257-.34.213-.387.215-.344h8.77v31.283h-8.258v-18.499l-.214.344-.255.39-.216.343-.255.344-.214.387-.259.344-.212.344-.215.389-.255.344-.215.343-.258.345-.212.389-.258.343-.212.344-.215.387-.258.346-.213.344-.258.387-.211.344-.258.344-.213.389-.215.344-.257.344-.213.387-.258.346-.212.343-.258.345-.215.386-.213.346-.257.344-.212.387-.258.344-.215.344-.255.39-.215.343h-.17l-.257-.387-.216-.346-.255-.387-.215-.344-.255-.386-.215-.347-.255-.387-.215-.344-.258-.386-.213-.344-.258-.39-.211-.344-.258-.386-.216-.344-.255-.39-.215-.343-.255-.387-.258-.344-.215-.389-.255-.344-.215-.386-.255-.344-.215-.39-.256-.344-.214-.386-.258-.344-.213-.387-.258-.347-.212-.386-.258-.344-.215-.387-.255-.343-.215-.39-.255-.344v18.413Zm-25.299-12.504-.171-.387-.13-.39-.169-.43-.172-.386-.129-.39-.169-.386-.172-.43-.129-.39-.172-.387-.169-.386-.13-.39-.171-.43-.126-.386-.173-.39-.172-.386-.128-.387-.17-.432-.171-.387-.13-.387-.171-.389-.17-.43-.129-.39-.172-.386-.169.387-.128.39-.172.43-.173.388-.126.387-.172.387-.172.432-.17.387-.129.387-.171.389-.172.387-.127.43-.171.389-.172.386-.129.387-.17.39-.172.43-.171.386-.126.39-.173.386-.172.43-.129.39-.169.387h7.23Zm27.559 64.769-44.135-15.174h90.148l-46.013 15.174Z" fill="#FFF" fill-rule="evenodd"/>
</svg>
