<svg width="825" height="330" xmlns="http://www.w3.org/2000/svg">
  <path d="M83.688 82H34.974v4.031h15.613v80c0 23.876-6.87 30.698-21.858 30.698a10.167 10.167 0 0 1-11.242-8.993v-1.86c0-8.682-.625-13.954-8.431-13.954-7.807 0-9.056 8.062-9.056 10.543C0 193.628 4.996 202 27.167 202c26.543 0 40.595-8.682 40.595-38.14V86.031H84L83.688 82ZM89.5 183c-2.452 0-4.903.934-6.742 2.803-1.839 1.87-2.758 4.36-2.758 6.853 0 2.492.92 4.983 2.758 6.54 1.839 1.87 4.29 2.804 6.742 2.804s4.903-.934 6.742-2.803c1.839-1.87 2.758-4.05 2.758-6.541 0-5.295-3.984-9.345-9.194-9.345H89.5m108.341 0c-5.08 0-9.524 4.05-9.841 9.033v.312c0 2.492 1.27 4.983 3.175 6.54 1.904 1.87 4.444 2.804 6.984 2.804s5.08-.934 6.984-2.803c1.905-1.558 2.857-4.05 2.857-6.541 0-2.492-.952-4.984-2.857-6.853-1.905-1.869-4.127-2.803-6.667-2.803M164.28 82h-48.094v4.034h14.053v91.242c.312 3.724 0 7.448-1.249 11.172-1.25 2.483-3.435 4.655-5.934 5.276-2.81.931-5.933 1.552-9.056 1.552V199h50.904v-3.724c-3.436 0-6.558-.31-9.681-1.242-2.811-.93-4.997-2.793-5.934-5.275-.937-2.483-1.561-4.966-1.25-7.449v-31.655h12.805c36.85 0 47.156-14.586 47.156-34.138C208 95.966 201.442 82 164.28 82m-6.871 63h-9.681V86.655h8.744c28.418 0 35.289 11.483 35.289 30.104 0 18.62-11.243 28.862-33.728 28.862m201.015 42.488c-.93-2.49-1.24-5.29-.93-8.09V85.734h12.712V82h-30.075l-36.585 89.306c0 .311-.31.622-.62.622s-.62-.311-.93-.622c0 0-37.825-88.372-38.135-89.306H231v3.734h14.572v99.263c0 2.179-.93 4.046-1.86 5.913-1.24 1.867-3.1 3.111-5.271 3.734-2.17.622-4.65.622-6.82.622V199h33.174v-3.734c-2.17 0-4.03-.311-5.891-.934-2.48-.622-4.34-1.867-5.89-3.734-1.241-1.867-1.861-3.734-2.171-5.912l-.31-8.401V97.87h1.86s43.096 99.885 43.096 101.13h4.03l40.616-100.197h.93v80.593c0 2.8-.31 5.601-.93 8.402-.93 2.49-2.79 4.356-4.96 5.29-2.79.933-5.581 1.556-8.372 1.556v3.734H373v-3.734c-2.79 0-5.89-.623-8.681-1.556-2.48-1.245-4.34-3.423-5.271-5.912M421.31 114c-24.806 0-40.31 16.125-40.31 44.655C381 200.52 413.558 203 420.69 203c13.953 0 40.31-8.683 40.31-45.275-.31-28.53-17.054-43.725-39.69-43.725m-.31 83.728c-18.605 0-21.395-9.303-21.395-38.763 0-22.948 1.55-40.313 21.395-40.313 21.395 0 21.705 17.986 21.705 38.453 0 30.08-5.27 40.623-21.705 40.623M525.96 115c-15.022 0-19.404 8.718-23.786 17.747h-1.251s-2.191-12.765-2.817-16.813H469v4.359h15.648v58.223c.313 4.048-.313 8.096-1.877 11.832-1.565 2.802-5.32 4.359-10.954 4.359h-2.504V200h48.197v-5.293h-2.19c-6.26 0-9.077-1.245-10.642-4.048-1.565-3.736-2.504-8.095-1.878-12.143v-30.201c0-9.963 7.825-21.795 16.9-21.795 9.39 0 9.39 14.634 20.343 8.718 5.634-3.425 4.382-20.238-14.083-20.238m190.726 76.076c-5.314 0-6.876-2.807-7.189-7.485v-46.16c.625-6.238-1.563-12.787-5.938-17.466-4.376-4.366-13.127-6.861-25.63-6.861-9.376-.624-18.44 1.56-26.566 6.55-4.689 2.807-7.501 8.109-7.501 13.41-.313 2.184.625 4.367 2.187 5.927a8.499 8.499 0 0 0 5.314 1.871c4.688 0 7.5-2.495 8.439-8.733 0-3.743 1.562-7.173 3.75-9.98 3.126-2.807 7.501-4.367 11.565-3.743 4.688-.624 9.689 1.248 12.814 4.99 2.5 3.743 3.438 7.797 3.438 12.164v14.659c-15.315 1.247-51.883 4.366-50.32 31.812 1.25 11.54 11.251 20.273 22.816 19.96 10.939-.311 21.253-5.301 28.13-14.034 1.562 7.797 8.438 13.1 16.252 12.787 11.252 0 18.128-5.614 18.753-19.025h-2.813c-.625 6.238-4.376 9.357-7.501 9.357m-25.317-9.045v.936c-5 5.614-11.877 9.045-19.378 9.98-7.189.312-13.44-5.302-13.752-12.787v-1.872c0-15.594 21.566-23.391 33.443-23.391l-.313 27.134Zm123.975 8.353c-2.18-3.722-3.114-8.064-3.114-12.407v-37.841c.311-4.963-.623-9.616-2.804-13.958-1.869-3.412-4.983-6.514-8.41-8.375a30.575 30.575 0 0 0-12.77-2.792c-11.525-.31-22.115 5.894-27.41 16.13h-1.869l-3.115-15.2H730v4.343h13.082v57.693c0 3.412-.312 6.514-.934 9.926-.623 2.481-2.492 4.653-4.984 5.273-2.18.93-4.672 1.24-7.164 1.24v5.274h41.426v-5.273c-3.115.31-6.23-1.24-8.41-3.412-1.868-3.722-2.803-7.755-2.18-11.787v-22.023c-.934-8.064.312-16.129 3.115-23.883 3.426-5.894 9.967-9.616 16.82-9.306 4.672-.62 9.344 1.861 11.524 5.894 2.18 6.203 3.115 13.027 2.803 19.54v27.297a56.18 56.18 0 0 1 0 10.236c-.311 2.48-1.557 4.652-3.737 5.893-2.18 1.24-4.361 1.861-6.541 1.861V200H825v-5.273c-4.984-.62-8.098-1.861-9.656-4.343m-187.608-80.009c-2.801 1.24-4.669 3.72-4.98 6.51-.622 3.41-1.867 5.271-3.735 5.891-1.867.62-4.046.31-5.913-.31-7.47-6.51-17.43-9.611-27.077-8.991-17.118-1.24-32.369 11.471-33.613 28.523v3.72c0 17.983 6.847 26.044 21.786 29.454.934 0 .934 1.24 0 1.24-12.76 2.17-23.965 5.891-23.965 18.293 0 5.89 3.735 11.161 9.337 13.021a68.46 68.46 0 0 0 24.898 3.72c6.536 0 13.383.31 19.92.931 3.734.31 7.469 1.55 10.892 3.72 2.802 2.48 4.358 5.891 4.046 9.612 0 5.89-3.734 11.161-9.025 13.331a48.263 48.263 0 0 1-22.72 4.65c-7.159.62-14.628-.93-20.853-4.65-3.735-2.79-5.602-7.44-4.357-11.781 1.245-3.41-.622-7.441-4.357-8.681h-.934c-2.801-.31-5.602.93-7.158 3.1-1.245 2.17-2.179 4.96-1.868 7.751.312 8.061 5.914 14.572 14.006 16.122 7.47 2.48 15.25 3.41 23.03 3.41 9.027.31 18.052-1.24 26.456-4.96 9.96-4.34 16.806-13.952 16.806-24.803.311-5.27-1.245-10.231-4.046-14.572-8.403-11.471-20.23-9.921-46.996-11.161-12.76 0-15.25-2.17-15.25-5.891 0-5.89 4.668-8.061 23.03-10.851 18.364-2.79 35.481-9.612 35.481-31.624 0-5.27-.933-10.852-3.423-15.812 3.423.93 7.158.93 10.582 0 3.112-.93 5.913-3.1 7.47-5.89 1.555-2.171 2.178-5.271 1.555-7.752-1.556-4.65-4.668-6.51-9.025-5.27m-41.394 61.077c-10.893 0-17.43-4.03-17.43-26.043 0-15.502 5.292-26.973 17.43-26.973 13.694 0 17.429 10.54 17.429 26.663-.311 22.943-7.47 26.353-17.43 26.353" fill="#FFF"/>
</svg>
