<svg xmlns="http://www.w3.org/2000/svg" viewBox="0 0 36 36">
  <path fill="#FFF" fill-rule="nonzero" d="M5 22.429c.143 2.742 2.286 4.857 5.286 4.857 3.171 0 5.285-2.115 5.285-5.857V9.143h-1v12.286c0 3.171-1.685 4.857-4.285 4.857-2.429 0-4.143-1.715-4.286-3.857H5Zm14.564-.286c.314 2.971 2.4 5.143 5.857 5.143 3.428 0 5.571-2.143 5.571-5 0-6.429-10-3.857-10-8.715 0-1.857 1.714-3.571 4.429-3.571 2.285 0 4.143 1.886 4.285 3.857h1C30.392 11.114 28.306 9 25.421 9c-3.143 0-5.429 2-5.429 4.571 0 5.858 10 3.286 10 8.715 0 2.285-1.714 4-4.571 4-2.857 0-4.543-1.715-4.857-4.143h-1Z"/>
</svg>
