<svg xmlns="http://www.w3.org/2000/svg" viewBox="0 0 75 70">
  <path fill="#056DFF" fill-rule="nonzero" d="M74.425 35.993 63.81 42.577a1.165 1.165 0 0 0-.473 1.45l4.63 11.405c.315.82-.283 1.67-1.165 1.607l-12.598-.788a1.221 1.221 0 0 0-1.229.883l-3.118 11.972c-.22.82-1.228 1.166-1.89.63l-9.763-7.908a1.184 1.184 0 0 0-1.48 0l-9.764 7.908c-.662.536-1.67.22-1.89-.63l-3.118-11.972a1.221 1.221 0 0 0-1.229-.883L8.19 57.04c-.85.063-1.48-.82-1.165-1.607l4.63-11.405a1.165 1.165 0 0 0-.473-1.45L.567 35.993a1.18 1.18 0 0 1 0-2.017l10.614-6.553c.504-.315.693-.914.473-1.45l-4.63-11.405c-.315-.82.283-1.67 1.165-1.607l12.598.788a1.221 1.221 0 0 0 1.229-.882L25.134.894c.22-.82 1.228-1.166 1.89-.63l9.763 7.908c.441.347 1.04.347 1.48 0L48.032.264a1.182 1.182 0 0 1 1.89.63l3.118 11.973c.158.535.662.913 1.229.882l12.598-.788c.85-.063 1.48.82 1.165 1.607l-4.63 11.405a1.165 1.165 0 0 0 .473 1.45l10.614 6.585c.693.44.693 1.543-.063 1.985Z"/>
</svg>
