<svg viewBox="0 0 209.94 48.63" xmlns="http://www.w3.org/2000/svg" xmlns:xlink="http://www.w3.org/1999/xlink"><clipPath id="a" transform="translate(.18 3.04)"><path d="m38 19a18.83 18.83 0 0 1 -2.12 8.73c-3.17 4.89 2.38 9 2.38 9s-11.06-.4-13.47.37a19 19 0 1 1 13.21-18.1z"/></clipPath><linearGradient id="b"><stop offset="0" stop-color="#4b97b5"/><stop offset=".36" stop-color="#4fbbdc"/><stop offset="1" stop-color="#72d0f6"/></linearGradient><linearGradient id="c" gradientUnits="userSpaceOnUse" x1="34.37" x2=".06" xlink:href="#b" y1="30.64" y2="30.64"/><linearGradient id="d" gradientUnits="userSpaceOnUse" x1="8.5" x2="-3.92" y1="31.96" y2="10.44"><stop offset="0" stop-color="#4b97b5"/><stop offset=".32" stop-color="#4fbbdc"/><stop offset="1" stop-color="#72d0f6"/></linearGradient><linearGradient id="e" gradientUnits="userSpaceOnUse" x1="3.43" x2="21.89" xlink:href="#b" y1="21.35" y2="-.66"/><linearGradient id="f" gradientUnits="userSpaceOnUse" x1="25.19" x2="30.43" y1="5.07" y2="32.04"><stop offset="0" stop-color="#4b97b5"/><stop offset=".45" stop-color="#4fbbdc"/><stop offset="1" stop-color="#72d0f6"/></linearGradient><linearGradient id="g" x1="43.83" x2="30.17" xlink:href="#f" y1="27.6" y2="48.64"/><linearGradient id="h" x1="18.2" x2="28.24" xlink:href="#f" y1="-2.19" y2="13.88"/><g fill="#323a47" transform="translate(.18 3.04)"><path d="m48.13 13.06a.78.78 0 0 1 0-.14.48.48 0 0 1 .07-.21.37.37 0 0 1 .32-.14h1.87a.35.35 0 0 1 .22.09.39.39 0 0 1 .14.2l2.1 8.06h.08l3.21-8.33a.32.32 0 0 1 .35-.22h.36a.32.32 0 0 1 .35.22l3.24 8.33h.08l2.06-8.06a.44.44 0 0 1 .13-.2.35.35 0 0 1 .23-.09h1.86a.39.39 0 0 1 .33.14.31.31 0 0 1 .06.21.78.78 0 0 1 0 .14l-3.86 13.59a.35.35 0 0 1 -.14.2.4.4 0 0 1 -.23.08h-.32a.32.32 0 0 1 -.35-.22l-3.61-9.16h-.11l-3.57 9.16a.35.35 0 0 1 -.34.22h-.33a.43.43 0 0 1 -.23-.08.3.3 0 0 1 -.13-.2z"/><path d="m69.53 26.35v-13.35a.4.4 0 0 1 .11-.27.38.38 0 0 1 .28-.11h8.23a.39.39 0 0 1 .28.11.4.4 0 0 1 .11.27v1.66a.41.41 0 0 1 -.11.28.39.39 0 0 1 -.28.11h-6v3.34h5a.4.4 0 0 1 .27.11.37.37 0 0 1 .12.27v1.66a.39.39 0 0 1 -.11.28.41.41 0 0 1 -.28.11h-5v3.48h6a.39.39 0 0 1 .28.11.41.41 0 0 1 .11.28v1.66a.4.4 0 0 1 -.11.27.39.39 0 0 1 -.28.11h-8.23a.38.38 0 0 1 -.28-.11.4.4 0 0 1 -.11-.27z"/><path d="m83.44 26.35v-13.35a.4.4 0 0 1 .11-.27.37.37 0 0 1 .27-.11h4.6a4.4 4.4 0 0 1 3 1.08 3.44 3.44 0 0 1 1.22 2.67 3.12 3.12 0 0 1 -.64 1.88 4 4 0 0 1 -1.47 1.27 3.7 3.7 0 0 1 .83.4 5.27 5.27 0 0 1 .8.66 3.06 3.06 0 0 1 .63 1 3.17 3.17 0 0 1 .21 1.21 3.65 3.65 0 0 1 -1.25 2.82 4.48 4.48 0 0 1 -3.1 1.12h-4.83a.37.37 0 0 1 -.27-.11.4.4 0 0 1 -.11-.27zm2.64-7.83h2.16a1.61 1.61 0 0 0 1.24-.52 1.81 1.81 0 0 0 .52-1.29 1.63 1.63 0 0 0 -.48-1.23 1.7 1.7 0 0 0 -1.28-.48h-2.16zm0 5.78h2.43a1.83 1.83 0 0 0 1.83-1.83 1.56 1.56 0 0 0 -.63-1.25 2.24 2.24 0 0 0 -1.43-.5h-2.2z"/><path d="m97.94 26.35v-13.35a.37.37 0 0 1 .12-.26.34.34 0 0 1 .26-.12h1.87a.37.37 0 0 1 .27.12.36.36 0 0 1 .11.26v13.4a.36.36 0 0 1 -.11.26.37.37 0 0 1 -.27.12h-1.87a.34.34 0 0 1 -.26-.12.37.37 0 0 1 -.12-.31z"/><path d="m106.29 26.35v-13.61a.34.34 0 0 1 .12-.26.4.4 0 0 1 .27-.11h.51l8.41 8.94v-8.31a.4.4 0 0 1 .11-.27.39.39 0 0 1 .28-.11h1.86a.37.37 0 0 1 .27.12.37.37 0 0 1 .12.26v13.57a.32.32 0 0 1 -.12.25.4.4 0 0 1 -.27.11h-.48l-8.37-9.28v8.7a.4.4 0 0 1 -.11.27.41.41 0 0 1 -.28.11h-1.86a.37.37 0 0 1 -.27-.12.37.37 0 0 1 -.19-.26z"/><path d="m122.11 26.2 6.29-13.61a.35.35 0 0 1 .34-.22h.2a.37.37 0 0 1 .35.22l6.23 13.61a.39.39 0 0 1 0 .18.31.31 0 0 1 -.06.19.36.36 0 0 1 -.33.16h-1.76a.52.52 0 0 1 -.35-.1.73.73 0 0 1 -.24-.31l-1-2.23h-6l-1 2.23a.58.58 0 0 1 -.58.41h-1.76a.33.33 0 0 1 -.32-.16.33.33 0 0 1 -.06-.19.39.39 0 0 1 .05-.18zm4.67-4.3h4.07l-2-4.45h-.06z"/><path d="m139.37 26.35v-13.35a.36.36 0 0 1 .11-.27.37.37 0 0 1 .27-.11h5.8a4.26 4.26 0 0 1 3.11 1.27 4.18 4.18 0 0 1 1.34 3.03 4 4 0 0 1 -.82 2.47 4.94 4.94 0 0 1 -2.18 1.61l2.79 5.12a.39.39 0 0 1 0 .39.37.37 0 0 1 -.35.19h-2.13a.33.33 0 0 1 -.32-.18l-2.69-5.33h-2.3v5.13a.34.34 0 0 1 -.11.26.37.37 0 0 1 -.27.12h-1.87a.37.37 0 0 1 -.27-.11.36.36 0 0 1 -.11-.24zm2.63-7.35h3.29a1.9 1.9 0 0 0 1.41-.61 2 2 0 0 0 .6-1.46 1.86 1.86 0 0 0 -.6-1.38 2 2 0 0 0 -1.41-.58h-3.29z"/><path d="m156.18 24.82a7 7 0 0 1 -2.18-5.15 7.29 7.29 0 0 1 7.31-7.3 7.38 7.38 0 0 1 4.89 1.88.37.37 0 0 1 0 .57l-.57.56c-.15.17-.32.16-.52 0a6.87 6.87 0 0 0 -1.83-1.14 5.09 5.09 0 0 0 -2-.43 5.32 5.32 0 0 0 -4 1.71 5.74 5.74 0 0 0 -1.63 4.09 5.84 5.84 0 0 0 1.63 4.11 5.27 5.27 0 0 0 4 1.74 7.91 7.91 0 0 0 1.9-.22 5.5 5.5 0 0 0 1.31-.43l.43-.2v-2.85h-2.33a.37.37 0 0 1 -.27-.11.3.3 0 0 1 -.11-.26v-.75a.33.33 0 0 1 .38-.38h3.5a.36.36 0 0 1 .25.11.33.33 0 0 1 .11.27v4.63a.38.38 0 0 1 -.16.33l-.59.32a8 8 0 0 1 -1.86.68 9.89 9.89 0 0 1 -2.54.33 7.05 7.05 0 0 1 -5.12-2.11z"/><path d="m171.9 26.35v-13.35a.38.38 0 0 1 .39-.39h8a.4.4 0 0 1 .27.11.41.41 0 0 1 .11.28v.58a.41.41 0 0 1 -.11.28.4.4 0 0 1 -.27.11h-6.8v4.93h5.8a.38.38 0 0 1 .39.39v.58a.38.38 0 0 1 -.39.39h-5.8v5.15h6.8a.37.37 0 0 1 .27.12.37.37 0 0 1 .11.27v.59a.38.38 0 0 1 -.38.38h-8a.41.41 0 0 1 -.28-.11.4.4 0 0 1 -.11-.31z"/><path d="m185.9 26.35v-13.35a.38.38 0 0 1 .38-.39h8a.38.38 0 0 1 .38.39v.58a.38.38 0 0 1 -.38.39h-6.8v4.93h5.81a.38.38 0 0 1 .38.39v.58a.38.38 0 0 1 -.38.39h-5.81v5.15h6.8a.34.34 0 0 1 .27.12.33.33 0 0 1 .11.27v.59a.36.36 0 0 1 -.11.27.37.37 0 0 1 -.27.11h-8a.37.37 0 0 1 -.27-.11.36.36 0 0 1 -.11-.31z"/><path d="m199.89 26.25v-13.19a.48.48 0 0 1 .49-.49h.62a.48.48 0 0 1 .49.49v5.72l6.31-6a.48.48 0 0 1 .38-.21h1a.36.36 0 0 1 .37.25.41.41 0 0 1 -.13.46l-6.39 6 6.69 6.85c.1.07.11.19 0 .37a.37.37 0 0 1 -.39.26h-1a.44.44 0 0 1 -.37-.14l-6.49-6.78v6.44a.49.49 0 0 1 -.14.34.5.5 0 0 1 -.35.14h-.58a.5.5 0 0 1 -.35-.14.49.49 0 0 1 -.16-.37z"/></g><g clip-path="url(#a)"><path d="m.06 30.91a42.87 42.87 0 0 0 11.78-2.91c0 .74.41 1.19 1 1.19a1.63 1.63 0 0 0 .75-.22l16-8.54c.47-.25.73-.58.73-.92a.57.57 0 0 0 0-.18l4 2.48-7.01 14.35-7.75 5.84z" fill="url(#c)" transform="translate(.18 3.04)"/><path d="m30.42 19.44 3.81 2.33-7 14.33-7.7 5.8-19.23-10.9a43.65 43.65 0 0 0 11.47-2.89c.06.71.47 1.16 1.07 1.16a1.71 1.71 0 0 0 .78-.22l16-8.55a1.19 1.19 0 0 0 .77-1m-.26-.32a.66.66 0 0 1 .11.36c0 .32-.24.62-.68.86l-16 8.54a1.54 1.54 0 0 1 -.72.21c-.58 0-.93-.46-.93-1.2a42.71 42.71 0 0 1 -12.09 3l19.75 11.12 7.81-5.88 7-14.47-4.25-2.6z" fill="#8bd7f7" transform="translate(.18 3.04)"/><path d="m13.74 28.89a2.23 2.23 0 0 1 -.9.2c-.58 0-.93-.46-.93-1.2v-1.16a3.17 3.17 0 0 0 -.54-.16l-11.45-18.34v22.56a22.31 22.31 0 0 0 14.53-2.26z" fill="url(#d)" stroke="#8bd7f7" stroke-linecap="round" stroke-linejoin="round" stroke-width=".14" transform="translate(.18 3.04)"/><path d="m11.94 28.49c-8.23-7.49-11.94-15.77-11.94-20.33l19.28-11-6.68 12.71c-.46.07-.76.52-.76 1.19v16.83a1.57 1.57 0 0 0 .1.6z" fill="url(#e)" transform="translate(.18 3.04)"/><path d="m19.09-2.68-6.53 12.46a1.2 1.2 0 0 0 -.79 1.28v16.83a2.13 2.13 0 0 0 0 .37c-5.72-5.33-11.68-13.66-11.72-20.02l19-10.92m.39-.32-19.53 11.16c0 5.2 4.41 13.61 12.37 20.73a1.23 1.23 0 0 1 -.37-1v-16.83c0-.65.29-1.06.75-1.15z" fill="#8bd7f7" transform="translate(.18 3.04)"/><path d="m39.15 30.35a20.9 20.9 0 0 0 -8.95-11.28 1.37 1.37 0 0 0 -.58-.52l-16.03-8.55a1.58 1.58 0 0 0 -.75-.21c5.22-4.16 13.16-4.79 13.27-4.79a11.83 11.83 0 0 1 1.89-.12c5.35 0 11 3.33 11.05 3.36z" fill="url(#f)" transform="translate(.18 3.04)"/><path d="m28 5c5 0 10.3 2.88 11 3.26l.12 21.68a20.88 20.88 0 0 0 -8.85-10.94 1.59 1.59 0 0 0 -.62-.54l-16.03-8.46a1.83 1.83 0 0 0 -.62-.26c5.2-4 13-4.63 13.1-4.64a11.49 11.49 0 0 1 1.9-.1m0-.14a12.1 12.1 0 0 0 -1.89.14s-8.25.57-13.54 5a1.17 1.17 0 0 1 .27-.05 1.64 1.64 0 0 1 .72.2l16 8.54a1.5 1.5 0 0 1 .58.52 20.79 20.79 0 0 1 9 11.63l-.04-22.66s-5.64-3.37-11.1-3.37z" fill="#8bd7f7" transform="translate(.18 3.04)"/><path d="m19.71 41.84c12.76-14.61 11.67-20.6 10.61-22.5a1.09 1.09 0 0 0 -.48-.65c9 4.52 9.34 12 9.34 12.11l16.42 9.2-9.67 5.48z" fill="url(#g)" transform="translate(.18 3.04)"/><path d="m30.21 18.94a17.23 17.23 0 0 1 7.59 7.44 11.83 11.83 0 0 1 1.28 4.39.15.15 0 0 0 .07.12l16.31 9.11-9.55 5.41-26.06-3.62c12.66-14.53 11.61-20.54 10.54-22.47a1 1 0 0 0 -.18-.38m-.63-.48a2.19 2.19 0 0 0 .22.29 1 1 0 0 1 .46.62c1 1.88 2.16 7.85-10.69 22.53l26.37 3.69 9.81-5.59-16.53-9.24s-.23-7.71-9.64-12.3z" fill="#8bd7f7" transform="translate(.18 3.04)"/><path d="m12.14 10.11c.43-1.7 2-6.48 7.35-13.11l18.63 10.7a29 29 0 0 0 -9.98-1.7 33.59 33.59 0 0 0 -15.33 3.8.82.82 0 0 0 -.67.31z" fill="url(#h)" transform="translate(.18 3.04)"/><path d="m19.47-2.86 17.92 10.23a29.72 29.72 0 0 0 -9.25-1.45 33.46 33.46 0 0 0 -15.33 3.81 1 1 0 0 0 -.54.16c.51-1.87 2.16-6.47 7.2-12.75m0-.18c-6.84 8.46-7.52 13.85-7.52 13.85.06-.6.38-1 .9-1a33.4 33.4 0 0 1 15.3-3.81 27 27 0 0 1 11 2.12l-19.71-11.12z" fill="#8bd7f7" transform="translate(.18 3.04)"/></g></svg>