<svg width="18" height="18" viewBox="0 0 18 18" fill="none" xmlns="http://www.w3.org/2000/svg"><path fill-rule="evenodd" clip-rule="evenodd" d="M12.9518 2.20778C11.7451 1.48574 10.4289 1.12473 8.99939 1.12473C7.5711 1.12473 6.25365 1.48574 5.04645 2.20778C3.84107 2.9292 2.88523 3.90847 2.18138 5.145C1.47631 6.38278 1.125 7.73252 1.125 9.19735C1.125 10.9559 1.62593 12.5371 2.62719 13.9421C3.62845 15.3448 4.92167 16.3196 6.50806 16.8573C6.6922 16.8925 6.82909 16.868 6.91752 16.7838C7.00657 16.6989 7.05078 16.5951 7.05078 16.4693L7.04594 15.9001C7.04231 15.5429 7.03988 15.2315 7.03988 14.9649L6.80487 15.0064C6.65464 15.0347 6.46444 15.0466 6.23548 15.0428C6.00713 15.0397 5.76908 15.0151 5.52315 14.9692C5.27905 14.924 5.05069 14.8196 4.83868 14.6548C4.62669 14.49 4.47646 14.2742 4.38742 14.0083L4.28445 13.7655C4.21661 13.6044 4.10879 13.4259 3.96221 13.2308C3.81501 13.0334 3.66661 12.9 3.51639 12.8302L3.4437 12.778C3.39646 12.7428 3.35285 12.7012 3.31045 12.6522C3.26987 12.6031 3.23957 12.5541 3.21959 12.505C3.19899 12.4546 3.21535 12.415 3.26987 12.3837C3.32437 12.3509 3.42371 12.3364 3.56667 12.3364L3.77261 12.3679C3.9083 12.3956 4.0779 12.4799 4.2796 12.6195C4.48131 12.7604 4.64727 12.9421 4.7763 13.1667C4.93379 13.4535 5.12337 13.6724 5.34567 13.8233C5.56797 13.9743 5.7921 14.0497 6.01803 14.0497C6.24214 14.0497 6.43779 14.0309 6.60194 13.9969C6.76549 13.9617 6.91995 13.9088 7.06229 13.8396C7.12529 13.3692 7.29246 13.0082 7.56504 12.7559C7.17617 12.7132 6.82606 12.6503 6.51532 12.566C6.20398 12.4823 5.88295 12.3459 5.55222 12.156C5.21908 11.9673 4.94469 11.7333 4.72602 11.4515C4.50797 11.1735 4.32807 10.8037 4.18875 10.3509C4.04943 9.8936 3.97856 9.36969 3.97856 8.77344C3.97856 7.92623 4.2475 7.2042 4.78781 6.60795C4.53462 5.97018 4.55763 5.2557 4.86049 4.46321C5.05735 4.40031 5.35113 4.44749 5.74121 4.60473C6.13069 4.76197 6.41538 4.89719 6.59649 5.00851C6.7782 5.12173 6.92359 5.21607 7.03261 5.2928C7.66681 5.11418 8.3222 5.02424 8.99939 5.02424C9.6766 5.02424 10.332 5.11544 10.968 5.29721L11.3574 5.04437C11.6239 4.87644 11.9389 4.7236 12.3012 4.58209C12.6646 4.44246 12.942 4.40409 13.1335 4.46699C13.4406 5.25946 13.4684 5.97333 13.2153 6.61171C13.7544 7.20672 14.0245 7.92875 14.0245 8.77658C14.0245 9.37158 13.9542 9.89927 13.8143 10.3584C13.6749 10.8175 13.4933 11.1874 13.2704 11.4635C13.0487 11.7402 12.7725 11.9729 12.4405 12.1628C12.1092 12.3516 11.7863 12.4881 11.4774 12.5716C11.1661 12.656 10.8172 12.7189 10.4259 12.7604C10.7814 13.0749 10.9589 13.5718 10.9589 14.2528V16.4712C10.9589 16.597 11.0013 16.7014 11.0873 16.7857C11.1721 16.8694 11.3072 16.8945 11.492 16.8593C13.0789 16.3184 14.3715 15.3473 15.3728 13.9409C16.374 12.5384 16.875 10.9553 16.875 9.19735C16.875 7.73315 16.5224 6.38278 15.8186 5.14563C15.1141 3.90911 14.1589 2.92983 12.9536 2.20841L12.9518 2.20778Z" fill="#fff"/></svg>