<svg width="80" height="19" viewBox="0 0 80 19" fill="none" xmlns="http://www.w3.org/2000/svg">
<g clip-path="url(#clip0_12_99)">
<path d="M39.7074 11.2414C40.6692 11.2414 41.4489 10.4617 41.4489 9.4999C41.4489 8.53811 40.6692 7.75842 39.7074 7.75842C38.7456 7.75842 37.9659 8.53811 37.9659 9.4999C37.9659 10.4617 38.7456 11.2414 39.7074 11.2414Z" fill="white"/>
<path d="M39.7074 13.4183C44.5164 13.4183 48.4148 11.664 48.4148 9.5C48.4148 7.33596 44.5164 5.58167 39.7074 5.58167C34.8984 5.58167 31 7.33596 31 9.5C31 11.664 34.8984 13.4183 39.7074 13.4183Z" stroke="white"/>
<path d="M36.314 11.4592C38.7185 15.6239 42.187 18.1228 44.0611 17.0408C45.9352 15.9588 45.5053 11.7055 43.1008 7.54083C40.6963 3.37615 37.2278 0.877149 35.3537 1.95917C33.4796 3.04118 33.9095 7.29448 36.314 11.4592Z" stroke="white"/>
<path d="M36.314 7.54084C33.9095 11.7055 33.4796 15.9588 35.3537 17.0408C37.2278 18.1229 40.6963 15.6239 43.1008 11.4592C45.5053 7.29448 45.9352 3.04119 44.0611 1.95917C42.187 0.877151 38.7185 3.37615 36.314 7.54084Z" stroke="white"/>
<path fill-rule="evenodd" clip-rule="evenodd" d="M0.712499 0H18.2875C18.681 0 19 0.318997 19 0.7125V18.2875C19 18.681 18.681 19 18.2875 19H0.712499C0.318997 19 0 18.681 0 18.2875V0.7125C0 0.318997 0.318997 0 0.712499 0ZM10.562 10.1083V8.55H3.79999V10.1083H6.21414V17.0467H8.13599V10.1083H10.562ZM11.3282 16.8634C11.6381 17.0214 12.0046 17.14 12.4278 17.219C12.851 17.298 13.2969 17.3375 13.7658 17.3375C14.2227 17.3375 14.6568 17.294 15.0681 17.2071C15.4793 17.1202 15.8398 16.977 16.1497 16.7775C16.4596 16.578 16.705 16.3173 16.8858 15.9954C17.0666 15.6734 17.157 15.2754 17.157 14.8014C17.157 14.4577 17.1053 14.1565 17.002 13.8978C16.8987 13.639 16.7497 13.4089 16.555 13.2074C16.3604 13.0059 16.1269 12.8252 15.8547 12.6653C15.5825 12.5053 15.2757 12.3542 14.934 12.212C14.6836 12.1092 14.4591 12.0095 14.2605 11.9127C14.0618 11.816 13.8929 11.7172 13.7539 11.6165C13.6148 11.5157 13.5076 11.4091 13.432 11.2964C13.3565 11.1839 13.3188 11.0565 13.3188 10.9143C13.3188 10.7839 13.3526 10.6664 13.4201 10.5617C13.4877 10.457 13.583 10.3671 13.7062 10.2921C13.8294 10.217 13.9803 10.1588 14.1592 10.1173C14.3379 10.0758 14.5366 10.0551 14.7551 10.0551C14.9141 10.0551 15.0819 10.0669 15.2587 10.0906C15.4356 10.1144 15.6134 10.1509 15.7921 10.2002C15.971 10.2496 16.1448 10.3118 16.3137 10.3869C16.4825 10.462 16.6385 10.5489 16.7815 10.6476V8.87592C16.4914 8.76528 16.1746 8.68329 15.8309 8.63002C15.4872 8.57667 15.0928 8.55 14.6478 8.55C14.1949 8.55 13.7658 8.59838 13.3605 8.6952C12.9552 8.79196 12.5986 8.94308 12.2907 9.1485C11.9827 9.35392 11.7394 9.61561 11.5606 9.93357C11.3818 10.2516 11.2924 10.6318 11.2924 11.0742C11.2924 11.6392 11.4563 12.1211 11.7841 12.52C12.1119 12.919 12.6096 13.2568 13.2771 13.5333C13.5393 13.64 13.7836 13.7447 14.0102 13.8474C14.2366 13.9501 14.4323 14.0568 14.5972 14.1673C14.7621 14.278 14.8922 14.3984 14.9876 14.5288C15.0829 14.6592 15.1306 14.8073 15.1306 14.9732C15.1306 15.0957 15.1008 15.2093 15.0412 15.3139C14.9816 15.4186 14.8912 15.5095 14.77 15.5865C14.6488 15.6635 14.4979 15.7238 14.3171 15.7672C14.1363 15.8107 13.9247 15.8324 13.6823 15.8324C13.2691 15.8324 12.8599 15.7604 12.4546 15.6162C12.0494 15.472 11.6738 15.2557 11.3282 14.9673V16.8634Z" fill="white"/>
<path d="M72.1181 1L69.8421 4.92545L67.5661 1H60L69.8421 18L79.6842 1H72.1181Z" fill="white"/>
<path d="M72.256 1L69.8421 4.78772L67.4282 1H63.5789L69.8421 10.8421L76.1053 1H72.256Z" fill="#A3B7CC"/>
</g>
<defs>
<clipPath id="clip0_12_99">
<rect width="80" height="19" fill="white"/>
</clipPath>
</defs>
</svg>
