<svg width="21" height="19" viewBox="0 0 21 19" fill="none" xmlns="http://www.w3.org/2000/svg">
<g clip-path="url(#clip0_11_70)">
<path d="M10.5 11.45C11.6046 11.45 12.5 10.5545 12.5 9.44995C12.5 8.34538 11.6046 7.44995 10.5 7.44995C9.39543 7.44995 8.5 8.34538 8.5 9.44995C8.5 10.5545 9.39543 11.45 10.5 11.45Z" fill="white"/>
<path d="M10.5 13.9501C16.0228 13.9501 20.5 11.9354 20.5 9.45007C20.5 6.96479 16.0228 4.95007 10.5 4.95007C4.97715 4.95007 0.5 6.96479 0.5 9.45007C0.5 11.9354 4.97715 13.9501 10.5 13.9501Z" stroke="white"/>
<path d="M6.60288 11.7C9.36431 16.483 13.3477 19.3529 15.5 18.1103C17.6523 16.8677 17.1585 11.983 14.3971 7.20005C11.6357 2.41712 7.65231 -0.452846 5.5 0.789795C3.34768 2.03244 3.84146 6.91712 6.60288 11.7Z" stroke="white"/>
<path d="M6.60288 7.20005C3.84146 11.983 3.34768 16.8677 5.5 18.1103C7.65231 19.3529 11.6357 16.483 14.3971 11.7C17.1585 6.91712 17.6523 2.03244 15.5 0.789795C13.3477 -0.452846 9.36431 2.41712 6.60288 7.20005Z" stroke="white"/>
</g>
<defs>
<clipPath id="clip0_11_70">
<rect width="21" height="18.9" fill="white"/>
</clipPath>
</defs>
</svg>
