<svg width="889" height="121" viewBox="0 0 889 121" fill="none" xmlns="http://www.w3.org/2000/svg"><rect width="223" height="116" rx="20" fill="#19296E"/><rect x="1" y="1" width="221" height="114" rx="19" stroke="#fff" stroke-opacity=".11" stroke-width="2"/><path d="M56.2393 55.674C56.1882 55.1584 55.9688 54.7578 55.581 54.4723C55.1932 54.1868 54.6669 54.044 54.0021 54.044C53.5504 54.044 53.169 54.108 52.858 54.2358C52.5469 54.3594 52.3082 54.532 52.142 54.7536C51.9801 54.9751 51.8991 55.2266 51.8991 55.5078C51.8906 55.7422 51.9396 55.9467 52.0462 56.1214C52.157 56.2962 52.3082 56.4474 52.5 56.5753C52.6918 56.6989 52.9134 56.8075 53.1648 56.9013C53.4162 56.9908 53.6847 57.0675 53.9702 57.1314L55.1463 57.4126C55.7173 57.5405 56.2415 57.7109 56.7188 57.924C57.196 58.1371 57.6094 58.3991 57.9588 58.7102C58.3082 59.0213 58.5788 59.3878 58.7706 59.8097C58.9666 60.2315 59.0668 60.7152 59.071 61.2607C59.0668 62.0618 58.8622 62.7564 58.4574 63.3445C58.0568 63.9283 57.4773 64.3821 56.7188 64.706C55.9645 65.0256 55.0547 65.1854 53.9893 65.1854C52.9325 65.1854 52.0121 65.0234 51.228 64.6996C50.4482 64.3757 49.8388 63.8963 49.3999 63.2614C48.9652 62.6222 48.7372 61.8317 48.7159 60.8899H51.3942C51.424 61.3288 51.5497 61.6953 51.7713 61.9893C51.9972 62.2791 52.2976 62.4986 52.6726 62.6477C53.0518 62.7926 53.4801 62.8651 53.9574 62.8651C54.4261 62.8651 54.8331 62.7969 55.1783 62.6605C55.5277 62.5241 55.7983 62.3345 55.9901 62.0916C56.1818 61.8487 56.2777 61.5696 56.2777 61.2543C56.2777 60.9602 56.1903 60.7131 56.0156 60.5128C55.8452 60.3125 55.5938 60.142 55.2614 60.0014C54.9332 59.8608 54.5305 59.733 54.0533 59.6179L52.6278 59.2599C51.5241 58.9915 50.6527 58.5717 50.0135 58.0007C49.3743 57.4297 49.0568 56.6605 49.0611 55.6932C49.0568 54.9006 49.2678 54.2081 49.6939 53.6158C50.1243 53.0234 50.7145 52.5611 51.4645 52.2287C52.2145 51.8963 53.0668 51.7301 54.0213 51.7301C54.9929 51.7301 55.8409 51.8963 56.5653 52.2287C57.294 52.5611 57.8608 53.0234 58.2656 53.6158C58.6705 54.2081 58.8793 54.8942 58.892 55.674H56.2393ZM66.2839 55.1818V57.2273H60.3712V55.1818H66.2839ZM61.7136 52.8295H64.4366V61.983C64.4366 62.2344 64.4749 62.4304 64.5516 62.571C64.6283 62.7074 64.7349 62.8033 64.8712 62.8587C65.0119 62.9141 65.1738 62.9418 65.357 62.9418C65.4849 62.9418 65.6127 62.9311 65.7405 62.9098C65.8684 62.8842 65.9664 62.8651 66.0346 62.8523L66.4628 64.8786C66.3265 64.9212 66.1347 64.9702 65.8876 65.0256C65.6404 65.0852 65.34 65.1214 64.9863 65.1342C64.33 65.1598 63.7548 65.0724 63.2604 64.8722C62.7704 64.6719 62.389 64.3608 62.1163 63.9389C61.8435 63.517 61.7093 62.9844 61.7136 62.3409V52.8295ZM71.0374 65.1854C70.411 65.1854 69.8527 65.0767 69.3627 64.8594C68.8726 64.6378 68.4848 64.3118 68.1993 63.8814C67.9181 63.4467 67.7774 62.9055 67.7774 62.2578C67.7774 61.7124 67.8776 61.2543 68.0779 60.8835C68.2781 60.5128 68.5509 60.2145 68.896 59.9886C69.2412 59.7628 69.6333 59.5923 70.0722 59.4773C70.5154 59.3622 70.9799 59.2812 71.4656 59.2344C72.0367 59.1747 72.4969 59.1193 72.8463 59.0682C73.1958 59.0128 73.4493 58.9318 73.607 58.8253C73.7647 58.7187 73.8435 58.5611 73.8435 58.3523V58.3139C73.8435 57.9091 73.7156 57.5959 73.46 57.3743C73.2085 57.1527 72.8506 57.0419 72.3861 57.0419C71.896 57.0419 71.5061 57.1506 71.2164 57.3679C70.9266 57.581 70.7348 57.8494 70.6411 58.1733L68.1226 57.9688C68.2504 57.3722 68.5019 56.8565 68.8769 56.4219C69.2519 55.983 69.7355 55.6463 70.3279 55.4119C70.9245 55.1733 71.6148 55.054 72.3989 55.054C72.9443 55.054 73.4664 55.1179 73.9649 55.2457C74.4678 55.3736 74.9131 55.5717 75.3009 55.8402C75.6929 56.1087 76.0019 56.4538 76.2277 56.8757C76.4536 57.2933 76.5665 57.794 76.5665 58.3778V65H73.9841V63.6385H73.9074C73.7497 63.9453 73.5388 64.2159 73.2746 64.4503C73.0104 64.6804 72.6929 64.8615 72.3222 64.9936C71.9514 65.1214 71.5232 65.1854 71.0374 65.1854ZM71.8172 63.3061C72.2178 63.3061 72.5715 63.2273 72.8783 63.0696C73.1851 62.9077 73.4259 62.6903 73.6006 62.4176C73.7753 62.1449 73.8627 61.8359 73.8627 61.4908V60.4489C73.7774 60.5043 73.6602 60.5554 73.5111 60.6023C73.3662 60.6449 73.2022 60.6854 73.0189 60.7237C72.8357 60.7578 72.6524 60.7898 72.4692 60.8196C72.286 60.8452 72.1198 60.8686 71.9706 60.8899C71.651 60.9368 71.3719 61.0114 71.1333 61.1136C70.8946 61.2159 70.7093 61.3544 70.5772 61.5291C70.4451 61.6996 70.379 61.9126 70.379 62.1683C70.379 62.5391 70.5132 62.8224 70.7817 63.0185C71.0544 63.2102 71.3996 63.3061 71.8172 63.3061ZM84.0814 55.1818V57.2273H78.1687V55.1818H84.0814ZM79.5111 52.8295H82.2341V61.983C82.2341 62.2344 82.2724 62.4304 82.3491 62.571C82.4258 62.7074 82.5324 62.8033 82.6687 62.8587C82.8094 62.9141 82.9713 62.9418 83.1545 62.9418C83.2824 62.9418 83.4102 62.9311 83.538 62.9098C83.6659 62.8842 83.7639 62.8651 83.8321 62.8523L84.2603 64.8786C84.124 64.9212 83.9322 64.9702 83.6851 65.0256C83.4379 65.0852 83.1375 65.1214 82.7838 65.1342C82.1275 65.1598 81.5523 65.0724 81.0579 64.8722C80.5679 64.6719 80.1865 64.3608 79.9138 63.9389C79.641 63.517 79.5068 62.9844 79.5111 62.3409V52.8295ZM90.4041 65.1918C89.3942 65.1918 88.5249 64.9872 87.7962 64.5781C87.0717 64.1648 86.5135 63.581 86.1215 62.8267C85.7294 62.0682 85.5334 61.1712 85.5334 60.1357C85.5334 59.1257 85.7294 58.2393 86.1215 57.4766C86.5135 56.7138 87.0653 56.1193 87.777 55.6932C88.4929 55.267 89.3324 55.054 90.2955 55.054C90.9432 55.054 91.5462 55.1584 92.1044 55.3672C92.6669 55.5717 93.157 55.8807 93.5746 56.294C93.9965 56.7074 94.3246 57.2273 94.559 57.8537C94.7933 58.4759 94.9105 59.2045 94.9105 60.0398V60.7876H86.62V59.1001H92.3473C92.3473 58.7081 92.2621 58.3608 92.0916 58.0582C91.9212 57.7557 91.6847 57.5192 91.3821 57.3487C91.0838 57.174 90.7365 57.0866 90.3402 57.0866C89.9269 57.0866 89.5604 57.1825 89.2408 57.3743C88.9254 57.5618 88.6783 57.8153 88.4993 58.1349C88.3203 58.4503 88.2287 58.8018 88.2244 59.1896V60.794C88.2244 61.2798 88.3139 61.6996 88.4929 62.0533C88.6761 62.407 88.934 62.6797 89.2663 62.8714C89.5987 63.0632 89.9929 63.1591 90.4489 63.1591C90.7514 63.1591 91.0284 63.1165 91.2798 63.0312C91.5313 62.946 91.7465 62.8182 91.9254 62.6477C92.1044 62.4773 92.2408 62.2685 92.3345 62.0213L94.853 62.1875C94.7252 62.7926 94.4631 63.321 94.0668 63.7727C93.6747 64.2202 93.1676 64.5696 92.5455 64.821C91.9276 65.0682 91.2138 65.1918 90.4041 65.1918ZM99.5905 51.9091V65H96.8675V51.9091H99.5905ZM103.633 68.6818C103.288 68.6818 102.964 68.6541 102.661 68.5987C102.363 68.5476 102.116 68.4815 101.92 68.4006L102.533 66.3679C102.853 66.4659 103.141 66.5192 103.396 66.5277C103.656 66.5362 103.88 66.4766 104.068 66.3487C104.259 66.2209 104.415 66.0036 104.534 65.6967L104.694 65.2812L101.172 55.1818H104.036L106.068 62.392H106.171L108.222 55.1818H111.105L107.289 66.0611C107.106 66.5895 106.857 67.0497 106.541 67.4418C106.23 67.8381 105.836 68.1428 105.359 68.3558C104.881 68.5732 104.306 68.6818 103.633 68.6818ZM124.177 55.674C124.126 55.1584 123.907 54.7578 123.519 54.4723C123.131 54.1868 122.605 54.044 121.94 54.044C121.488 54.044 121.107 54.108 120.796 54.2358C120.485 54.3594 120.246 54.532 120.08 54.7536C119.918 54.9751 119.837 55.2266 119.837 55.5078C119.829 55.7422 119.878 55.9467 119.984 56.1214C120.095 56.2962 120.246 56.4474 120.438 56.5753C120.63 56.6989 120.851 56.8075 121.103 56.9013C121.354 56.9908 121.623 57.0675 121.908 57.1314L123.084 57.4126C123.655 57.5405 124.18 57.7109 124.657 57.924C125.134 58.1371 125.547 58.3991 125.897 58.7102C126.246 59.0213 126.517 59.3878 126.709 59.8097C126.905 60.2315 127.005 60.7152 127.009 61.2607C127.005 62.0618 126.8 62.7564 126.395 63.3445C125.995 63.9283 125.415 64.3821 124.657 64.706C123.903 65.0256 122.993 65.1854 121.927 65.1854C120.871 65.1854 119.95 65.0234 119.166 64.6996C118.386 64.3757 117.777 63.8963 117.338 63.2614C116.903 62.6222 116.675 61.8317 116.654 60.8899H119.332C119.362 61.3288 119.488 61.6953 119.709 61.9893C119.935 62.2791 120.236 62.4986 120.611 62.6477C120.99 62.7926 121.418 62.8651 121.895 62.8651C122.364 62.8651 122.771 62.7969 123.116 62.6605C123.466 62.5241 123.736 62.3345 123.928 62.0916C124.12 61.8487 124.216 61.5696 124.216 61.2543C124.216 60.9602 124.128 60.7131 123.954 60.5128C123.783 60.3125 123.532 60.142 123.199 60.0014C122.871 59.8608 122.469 59.733 121.991 59.6179L120.566 59.2599C119.462 58.9915 118.591 58.5717 117.952 58.0007C117.312 57.4297 116.995 56.6605 116.999 55.6932C116.995 54.9006 117.206 54.2081 117.632 53.6158C118.062 53.0234 118.653 52.5611 119.403 52.2287C120.153 51.8963 121.005 51.7301 121.959 51.7301C122.931 51.7301 123.779 51.8963 124.503 52.2287C125.232 52.5611 125.799 53.0234 126.204 53.6158C126.609 54.2081 126.817 54.8942 126.83 55.674H124.177ZM134.222 55.1818V57.2273H128.309V55.1818H134.222ZM129.652 52.8295H132.375V61.983C132.375 62.2344 132.413 62.4304 132.49 62.571C132.566 62.7074 132.673 62.8033 132.809 62.8587C132.95 62.9141 133.112 62.9418 133.295 62.9418C133.423 62.9418 133.551 62.9311 133.679 62.9098C133.806 62.8842 133.904 62.8651 133.973 62.8523L134.401 64.8786C134.265 64.9212 134.073 64.9702 133.826 65.0256C133.578 65.0852 133.278 65.1214 132.924 65.1342C132.268 65.1598 131.693 65.0724 131.198 64.8722C130.708 64.6719 130.327 64.3608 130.054 63.9389C129.782 63.517 129.647 62.9844 129.652 62.3409V52.8295ZM142.472 60.8196V55.1818H145.195V65H142.581V63.2166H142.478C142.257 63.7919 141.888 64.2543 141.372 64.6037C140.861 64.9531 140.237 65.1278 139.5 65.1278C138.843 65.1278 138.266 64.9787 137.767 64.6804C137.269 64.3821 136.879 63.9581 136.598 63.4084C136.321 62.8587 136.18 62.2003 136.176 61.4332V55.1818H138.899V60.9474C138.903 61.527 139.059 61.9851 139.365 62.3217C139.672 62.6584 140.083 62.8267 140.599 62.8267C140.927 62.8267 141.234 62.7521 141.519 62.603C141.805 62.4496 142.035 62.2237 142.21 61.9254C142.389 61.6271 142.476 61.2585 142.472 60.8196ZM151.171 65.1598C150.425 65.1598 149.75 64.968 149.145 64.5845C148.544 64.1967 148.066 63.6278 147.713 62.8778C147.363 62.1236 147.189 61.1989 147.189 60.1037C147.189 58.9787 147.37 58.0433 147.732 57.2976C148.094 56.5476 148.576 55.9872 149.177 55.6165C149.782 55.2415 150.444 55.054 151.164 55.054C151.714 55.054 152.172 55.1477 152.539 55.3352C152.91 55.5185 153.208 55.7486 153.434 56.0256C153.664 56.2983 153.838 56.5668 153.958 56.831H154.041V51.9091H156.758V65H154.073V63.4276H153.958C153.83 63.7003 153.649 63.9709 153.414 64.2393C153.184 64.5036 152.884 64.723 152.513 64.8977C152.147 65.0724 151.699 65.1598 151.171 65.1598ZM152.034 62.9929C152.473 62.9929 152.843 62.8736 153.146 62.6349C153.453 62.392 153.687 62.0533 153.849 61.6186C154.015 61.1839 154.098 60.6747 154.098 60.0909C154.098 59.5071 154.017 59 153.856 58.5696C153.694 58.1392 153.459 57.8068 153.152 57.5724C152.846 57.3381 152.473 57.2209 152.034 57.2209C151.586 57.2209 151.209 57.3423 150.902 57.5852C150.596 57.8281 150.363 58.1648 150.206 58.5952C150.048 59.0256 149.969 59.5241 149.969 60.0909C149.969 60.6619 150.048 61.1669 150.206 61.6058C150.368 62.0405 150.6 62.3814 150.902 62.6286C151.209 62.8714 151.586 62.9929 152.034 62.9929ZM159.176 65V55.1818H161.899V65H159.176ZM160.544 53.9162C160.139 53.9162 159.792 53.782 159.502 53.5135C159.217 53.2408 159.074 52.9148 159.074 52.5355C159.074 52.1605 159.217 51.8388 159.502 51.5703C159.792 51.2976 160.139 51.1612 160.544 51.1612C160.949 51.1612 161.294 51.2976 161.58 51.5703C161.87 51.8388 162.014 52.1605 162.014 52.5355C162.014 52.9148 161.87 53.2408 161.58 53.5135C161.294 53.782 160.949 53.9162 160.544 53.9162ZM168.697 65.1918C167.704 65.1918 166.845 64.9808 166.121 64.5589C165.401 64.1328 164.844 63.5405 164.452 62.782C164.06 62.0192 163.864 61.1349 163.864 60.1293C163.864 59.1151 164.06 58.2287 164.452 57.4702C164.844 56.7074 165.401 56.1151 166.121 55.6932C166.845 55.267 167.704 55.054 168.697 55.054C169.69 55.054 170.546 55.267 171.266 55.6932C171.991 56.1151 172.549 56.7074 172.941 57.4702C173.333 58.2287 173.529 59.1151 173.529 60.1293C173.529 61.1349 173.333 62.0192 172.941 62.782C172.549 63.5405 171.991 64.1328 171.266 64.5589C170.546 64.9808 169.69 65.1918 168.697 65.1918ZM168.709 63.0824C169.161 63.0824 169.538 62.9545 169.841 62.6989C170.143 62.4389 170.371 62.0852 170.525 61.6378C170.683 61.1903 170.761 60.6811 170.761 60.1101C170.761 59.5391 170.683 59.0298 170.525 58.5824C170.371 58.1349 170.143 57.7812 169.841 57.5213C169.538 57.2614 169.161 57.1314 168.709 57.1314C168.254 57.1314 167.87 57.2614 167.559 57.5213C167.252 57.7812 167.02 58.1349 166.862 58.5824C166.709 59.0298 166.632 59.5391 166.632 60.1101C166.632 60.6811 166.709 61.1903 166.862 61.6378C167.02 62.0852 167.252 62.4389 167.559 62.6989C167.87 62.9545 168.254 63.0824 168.709 63.0824Z" fill="#fff"/><rect x="335" width="198" height="116" rx="20" fill="#19296E"/><rect x="336" y="1" width="196" height="114" rx="19" stroke="#fff" stroke-opacity=".11" stroke-width="2"/><path d="M391.239 55.674C391.188 55.1584 390.969 54.7578 390.581 54.4723C390.193 54.1868 389.667 54.044 389.002 54.044C388.55 54.044 388.169 54.108 387.858 54.2358C387.547 54.3594 387.308 54.532 387.142 54.7536C386.98 54.9751 386.899 55.2266 386.899 55.5078C386.891 55.7422 386.94 55.9467 387.046 56.1214C387.157 56.2962 387.308 56.4474 387.5 56.5753C387.692 56.6989 387.913 56.8075 388.165 56.9013C388.416 56.9908 388.685 57.0675 388.97 57.1314L390.146 57.4126C390.717 57.5405 391.241 57.7109 391.719 57.924C392.196 58.1371 392.609 58.3991 392.959 58.7102C393.308 59.0213 393.579 59.3878 393.771 59.8097C393.967 60.2315 394.067 60.7152 394.071 61.2607C394.067 62.0618 393.862 62.7564 393.457 63.3445C393.057 63.9283 392.477 64.3821 391.719 64.706C390.964 65.0256 390.055 65.1854 388.989 65.1854C387.933 65.1854 387.012 65.0234 386.228 64.6996C385.448 64.3757 384.839 63.8963 384.4 63.2614C383.965 62.6222 383.737 61.8317 383.716 60.8899H386.394C386.424 61.3288 386.55 61.6953 386.771 61.9893C386.997 62.2791 387.298 62.4986 387.673 62.6477C388.052 62.7926 388.48 62.8651 388.957 62.8651C389.426 62.8651 389.833 62.7969 390.178 62.6605C390.528 62.5241 390.798 62.3345 390.99 62.0916C391.182 61.8487 391.278 61.5696 391.278 61.2543C391.278 60.9602 391.19 60.7131 391.016 60.5128C390.845 60.3125 390.594 60.142 390.261 60.0014C389.933 59.8608 389.531 59.733 389.053 59.6179L387.628 59.2599C386.524 58.9915 385.653 58.5717 385.013 58.0007C384.374 57.4297 384.057 56.6605 384.061 55.6932C384.057 54.9006 384.268 54.2081 384.694 53.6158C385.124 53.0234 385.714 52.5611 386.464 52.2287C387.214 51.8963 388.067 51.7301 389.021 51.7301C389.993 51.7301 390.841 51.8963 391.565 52.2287C392.294 52.5611 392.861 53.0234 393.266 53.6158C393.67 54.2081 393.879 54.8942 393.892 55.674H391.239ZM401.284 55.1818V57.2273H395.371V55.1818H401.284ZM396.714 52.8295H399.437V61.983C399.437 62.2344 399.475 62.4304 399.552 62.571C399.628 62.7074 399.735 62.8033 399.871 62.8587C400.012 62.9141 400.174 62.9418 400.357 62.9418C400.485 62.9418 400.613 62.9311 400.741 62.9098C400.868 62.8842 400.966 62.8651 401.035 62.8523L401.463 64.8786C401.326 64.9212 401.135 64.9702 400.888 65.0256C400.64 65.0852 400.34 65.1214 399.986 65.1342C399.33 65.1598 398.755 65.0724 398.26 64.8722C397.77 64.6719 397.389 64.3608 397.116 63.9389C396.844 63.517 396.709 62.9844 396.714 62.3409V52.8295ZM406.037 65.1854C405.411 65.1854 404.853 65.0767 404.363 64.8594C403.873 64.6378 403.485 64.3118 403.199 63.8814C402.918 63.4467 402.777 62.9055 402.777 62.2578C402.777 61.7124 402.878 61.2543 403.078 60.8835C403.278 60.5128 403.551 60.2145 403.896 59.9886C404.241 59.7628 404.633 59.5923 405.072 59.4773C405.515 59.3622 405.98 59.2812 406.466 59.2344C407.037 59.1747 407.497 59.1193 407.846 59.0682C408.196 59.0128 408.449 58.9318 408.607 58.8253C408.765 58.7187 408.843 58.5611 408.843 58.3523V58.3139C408.843 57.9091 408.716 57.5959 408.46 57.3743C408.209 57.1527 407.851 57.0419 407.386 57.0419C406.896 57.0419 406.506 57.1506 406.216 57.3679C405.927 57.581 405.735 57.8494 405.641 58.1733L403.123 57.9688C403.25 57.3722 403.502 56.8565 403.877 56.4219C404.252 55.983 404.736 55.6463 405.328 55.4119C405.924 55.1733 406.615 55.054 407.399 55.054C407.944 55.054 408.466 55.1179 408.965 55.2457C409.468 55.3736 409.913 55.5717 410.301 55.8402C410.693 56.1087 411.002 56.4538 411.228 56.8757C411.454 57.2933 411.566 57.794 411.566 58.3778V65H408.984V63.6385H408.907C408.75 63.9453 408.539 64.2159 408.275 64.4503C408.01 64.6804 407.693 64.8615 407.322 64.9936C406.951 65.1214 406.523 65.1854 406.037 65.1854ZM406.817 63.3061C407.218 63.3061 407.571 63.2273 407.878 63.0696C408.185 62.9077 408.426 62.6903 408.601 62.4176C408.775 62.1449 408.863 61.8359 408.863 61.4908V60.4489C408.777 60.5043 408.66 60.5554 408.511 60.6023C408.366 60.6449 408.202 60.6854 408.019 60.7237C407.836 60.7578 407.652 60.7898 407.469 60.8196C407.286 60.8452 407.12 60.8686 406.971 60.8899C406.651 60.9368 406.372 61.0114 406.133 61.1136C405.895 61.2159 405.709 61.3544 405.577 61.5291C405.445 61.6996 405.379 61.9126 405.379 62.1683C405.379 62.5391 405.513 62.8224 405.782 63.0185C406.054 63.2102 406.4 63.3061 406.817 63.3061ZM419.081 55.1818V57.2273H413.169V55.1818H419.081ZM414.511 52.8295H417.234V61.983C417.234 62.2344 417.272 62.4304 417.349 62.571C417.426 62.7074 417.532 62.8033 417.669 62.8587C417.809 62.9141 417.971 62.9418 418.155 62.9418C418.282 62.9418 418.41 62.9311 418.538 62.9098C418.666 62.8842 418.764 62.8651 418.832 62.8523L419.26 64.8786C419.124 64.9212 418.932 64.9702 418.685 65.0256C418.438 65.0852 418.137 65.1214 417.784 65.1342C417.128 65.1598 416.552 65.0724 416.058 64.8722C415.568 64.6719 415.186 64.3608 414.914 63.9389C414.641 63.517 414.507 62.9844 414.511 62.3409V52.8295ZM425.404 65.1918C424.394 65.1918 423.525 64.9872 422.796 64.5781C422.072 64.1648 421.514 63.581 421.121 62.8267C420.729 62.0682 420.533 61.1712 420.533 60.1357C420.533 59.1257 420.729 58.2393 421.121 57.4766C421.514 56.7138 422.065 56.1193 422.777 55.6932C423.493 55.267 424.332 55.054 425.295 55.054C425.943 55.054 426.546 55.1584 427.104 55.3672C427.667 55.5717 428.157 55.8807 428.575 56.294C428.996 56.7074 429.325 57.2273 429.559 57.8537C429.793 58.4759 429.911 59.2045 429.911 60.0398V60.7876H421.62V59.1001H427.347C427.347 58.7081 427.262 58.3608 427.092 58.0582C426.921 57.7557 426.685 57.5192 426.382 57.3487C426.084 57.174 425.737 57.0866 425.34 57.0866C424.927 57.0866 424.56 57.1825 424.241 57.3743C423.925 57.5618 423.678 57.8153 423.499 58.1349C423.32 58.4503 423.229 58.8018 423.224 59.1896V60.794C423.224 61.2798 423.314 61.6996 423.493 62.0533C423.676 62.407 423.934 62.6797 424.266 62.8714C424.599 63.0632 424.993 63.1591 425.449 63.1591C425.751 63.1591 426.028 63.1165 426.28 63.0312C426.531 62.946 426.746 62.8182 426.925 62.6477C427.104 62.4773 427.241 62.2685 427.335 62.0213L429.853 62.1875C429.725 62.7926 429.463 63.321 429.067 63.7727C428.675 64.2202 428.168 64.5696 427.545 64.821C426.928 65.0682 426.214 65.1918 425.404 65.1918ZM434.591 51.9091V65H431.868V51.9091H434.591ZM438.633 68.6818C438.288 68.6818 437.964 68.6541 437.661 68.5987C437.363 68.5476 437.116 68.4815 436.92 68.4006L437.533 66.3679C437.853 66.4659 438.141 66.5192 438.396 66.5277C438.656 66.5362 438.88 66.4766 439.068 66.3487C439.259 66.2209 439.415 66.0036 439.534 65.6967L439.694 65.2812L436.172 55.1818H439.036L441.068 62.392H441.171L443.222 55.1818H446.105L442.289 66.0611C442.106 66.5895 441.857 67.0497 441.541 67.4418C441.23 67.8381 440.836 68.1428 440.359 68.3558C439.881 68.5732 439.306 68.6818 438.633 68.6818ZM459.177 55.674C459.126 55.1584 458.907 54.7578 458.519 54.4723C458.131 54.1868 457.605 54.044 456.94 54.044C456.488 54.044 456.107 54.108 455.796 54.2358C455.485 54.3594 455.246 54.532 455.08 54.7536C454.918 54.9751 454.837 55.2266 454.837 55.5078C454.829 55.7422 454.878 55.9467 454.984 56.1214C455.095 56.2962 455.246 56.4474 455.438 56.5753C455.63 56.6989 455.851 56.8075 456.103 56.9013C456.354 56.9908 456.623 57.0675 456.908 57.1314L458.084 57.4126C458.655 57.5405 459.18 57.7109 459.657 57.924C460.134 58.1371 460.547 58.3991 460.897 58.7102C461.246 59.0213 461.517 59.3878 461.709 59.8097C461.905 60.2315 462.005 60.7152 462.009 61.2607C462.005 62.0618 461.8 62.7564 461.395 63.3445C460.995 63.9283 460.415 64.3821 459.657 64.706C458.903 65.0256 457.993 65.1854 456.927 65.1854C455.871 65.1854 454.95 65.0234 454.166 64.6996C453.386 64.3757 452.777 63.8963 452.338 63.2614C451.903 62.6222 451.675 61.8317 451.654 60.8899H454.332C454.362 61.3288 454.488 61.6953 454.709 61.9893C454.935 62.2791 455.236 62.4986 455.611 62.6477C455.99 62.7926 456.418 62.8651 456.895 62.8651C457.364 62.8651 457.771 62.7969 458.116 62.6605C458.466 62.5241 458.736 62.3345 458.928 62.0916C459.12 61.8487 459.216 61.5696 459.216 61.2543C459.216 60.9602 459.128 60.7131 458.954 60.5128C458.783 60.3125 458.532 60.142 458.199 60.0014C457.871 59.8608 457.469 59.733 456.991 59.6179L455.566 59.2599C454.462 58.9915 453.591 58.5717 452.952 58.0007C452.312 57.4297 451.995 56.6605 451.999 55.6932C451.995 54.9006 452.206 54.2081 452.632 53.6158C453.062 53.0234 453.653 52.5611 454.403 52.2287C455.153 51.8963 456.005 51.7301 456.959 51.7301C457.931 51.7301 458.779 51.8963 459.503 52.2287C460.232 52.5611 460.799 53.0234 461.204 53.6158C461.609 54.2081 461.817 54.8942 461.83 55.674H459.177ZM466.467 62.1747L466.473 58.9084H466.87L470.015 55.1818H473.14L468.915 60.1165H468.27L466.467 62.1747ZM464 65V51.9091H466.723V65H464ZM470.136 65L467.247 60.7237L469.062 58.7997L473.326 65H470.136ZM476.495 68.6818C476.15 68.6818 475.826 68.6541 475.524 68.5987C475.226 68.5476 474.978 68.4815 474.782 68.4006L475.396 66.3679C475.716 66.4659 476.003 66.5192 476.259 66.5277C476.519 66.5362 476.743 66.4766 476.93 66.3487C477.122 66.2209 477.277 66.0036 477.397 65.6967L477.557 65.2812L474.035 55.1818H476.898L478.931 62.392H479.033L481.085 55.1818H483.968L480.152 66.0611C479.969 66.5895 479.719 67.0497 479.404 67.4418C479.093 67.8381 478.699 68.1428 478.221 68.3558C477.744 68.5732 477.169 68.6818 476.495 68.6818Z" fill="#fff"/><rect x="649" width="240" height="116" rx="20" fill="#19296E"/><rect x="650" y="1" width="238" height="114" rx="19" stroke="#fff" stroke-opacity=".11" stroke-width="2"/><path d="M705.239 55.674C705.188 55.1584 704.969 54.7578 704.581 54.4723C704.193 54.1868 703.667 54.044 703.002 54.044C702.55 54.044 702.169 54.108 701.858 54.2358C701.547 54.3594 701.308 54.532 701.142 54.7536C700.98 54.9751 700.899 55.2266 700.899 55.5078C700.891 55.7422 700.94 55.9467 701.046 56.1214C701.157 56.2962 701.308 56.4474 701.5 56.5753C701.692 56.6989 701.913 56.8075 702.165 56.9013C702.416 56.9908 702.685 57.0675 702.97 57.1314L704.146 57.4126C704.717 57.5405 705.241 57.7109 705.719 57.924C706.196 58.1371 706.609 58.3991 706.959 58.7102C707.308 59.0213 707.579 59.3878 707.771 59.8097C707.967 60.2315 708.067 60.7152 708.071 61.2607C708.067 62.0618 707.862 62.7564 707.457 63.3445C707.057 63.9283 706.477 64.3821 705.719 64.706C704.964 65.0256 704.055 65.1854 702.989 65.1854C701.933 65.1854 701.012 65.0234 700.228 64.6996C699.448 64.3757 698.839 63.8963 698.4 63.2614C697.965 62.6222 697.737 61.8317 697.716 60.8899H700.394C700.424 61.3288 700.55 61.6953 700.771 61.9893C700.997 62.2791 701.298 62.4986 701.673 62.6477C702.052 62.7926 702.48 62.8651 702.957 62.8651C703.426 62.8651 703.833 62.7969 704.178 62.6605C704.528 62.5241 704.798 62.3345 704.99 62.0916C705.182 61.8487 705.278 61.5696 705.278 61.2543C705.278 60.9602 705.19 60.7131 705.016 60.5128C704.845 60.3125 704.594 60.142 704.261 60.0014C703.933 59.8608 703.531 59.733 703.053 59.6179L701.628 59.2599C700.524 58.9915 699.653 58.5717 699.013 58.0007C698.374 57.4297 698.057 56.6605 698.061 55.6932C698.057 54.9006 698.268 54.2081 698.694 53.6158C699.124 53.0234 699.714 52.5611 700.464 52.2287C701.214 51.8963 702.067 51.7301 703.021 51.7301C703.993 51.7301 704.841 51.8963 705.565 52.2287C706.294 52.5611 706.861 53.0234 707.266 53.6158C707.67 54.2081 707.879 54.8942 707.892 55.674H705.239ZM715.284 55.1818V57.2273H709.371V55.1818H715.284ZM710.714 52.8295H713.437V61.983C713.437 62.2344 713.475 62.4304 713.552 62.571C713.628 62.7074 713.735 62.8033 713.871 62.8587C714.012 62.9141 714.174 62.9418 714.357 62.9418C714.485 62.9418 714.613 62.9311 714.741 62.9098C714.868 62.8842 714.966 62.8651 715.035 62.8523L715.463 64.8786C715.326 64.9212 715.135 64.9702 714.888 65.0256C714.64 65.0852 714.34 65.1214 713.986 65.1342C713.33 65.1598 712.755 65.0724 712.26 64.8722C711.77 64.6719 711.389 64.3608 711.116 63.9389C710.844 63.517 710.709 62.9844 710.714 62.3409V52.8295ZM720.037 65.1854C719.411 65.1854 718.853 65.0767 718.363 64.8594C717.873 64.6378 717.485 64.3118 717.199 63.8814C716.918 63.4467 716.777 62.9055 716.777 62.2578C716.777 61.7124 716.878 61.2543 717.078 60.8835C717.278 60.5128 717.551 60.2145 717.896 59.9886C718.241 59.7628 718.633 59.5923 719.072 59.4773C719.515 59.3622 719.98 59.2812 720.466 59.2344C721.037 59.1747 721.497 59.1193 721.846 59.0682C722.196 59.0128 722.449 58.9318 722.607 58.8253C722.765 58.7187 722.843 58.5611 722.843 58.3523V58.3139C722.843 57.9091 722.716 57.5959 722.46 57.3743C722.209 57.1527 721.851 57.0419 721.386 57.0419C720.896 57.0419 720.506 57.1506 720.216 57.3679C719.927 57.581 719.735 57.8494 719.641 58.1733L717.123 57.9688C717.25 57.3722 717.502 56.8565 717.877 56.4219C718.252 55.983 718.736 55.6463 719.328 55.4119C719.924 55.1733 720.615 55.054 721.399 55.054C721.944 55.054 722.466 55.1179 722.965 55.2457C723.468 55.3736 723.913 55.5717 724.301 55.8402C724.693 56.1087 725.002 56.4538 725.228 56.8757C725.454 57.2933 725.566 57.794 725.566 58.3778V65H722.984V63.6385H722.907C722.75 63.9453 722.539 64.2159 722.275 64.4503C722.01 64.6804 721.693 64.8615 721.322 64.9936C720.951 65.1214 720.523 65.1854 720.037 65.1854ZM720.817 63.3061C721.218 63.3061 721.571 63.2273 721.878 63.0696C722.185 62.9077 722.426 62.6903 722.601 62.4176C722.775 62.1449 722.863 61.8359 722.863 61.4908V60.4489C722.777 60.5043 722.66 60.5554 722.511 60.6023C722.366 60.6449 722.202 60.6854 722.019 60.7237C721.836 60.7578 721.652 60.7898 721.469 60.8196C721.286 60.8452 721.12 60.8686 720.971 60.8899C720.651 60.9368 720.372 61.0114 720.133 61.1136C719.895 61.2159 719.709 61.3544 719.577 61.5291C719.445 61.6996 719.379 61.9126 719.379 62.1683C719.379 62.5391 719.513 62.8224 719.782 63.0185C720.054 63.2102 720.4 63.3061 720.817 63.3061ZM733.081 55.1818V57.2273H727.169V55.1818H733.081ZM728.511 52.8295H731.234V61.983C731.234 62.2344 731.272 62.4304 731.349 62.571C731.426 62.7074 731.532 62.8033 731.669 62.8587C731.809 62.9141 731.971 62.9418 732.155 62.9418C732.282 62.9418 732.41 62.9311 732.538 62.9098C732.666 62.8842 732.764 62.8651 732.832 62.8523L733.26 64.8786C733.124 64.9212 732.932 64.9702 732.685 65.0256C732.438 65.0852 732.137 65.1214 731.784 65.1342C731.128 65.1598 730.552 65.0724 730.058 64.8722C729.568 64.6719 729.186 64.3608 728.914 63.9389C728.641 63.517 728.507 62.9844 728.511 62.3409V52.8295ZM739.404 65.1918C738.394 65.1918 737.525 64.9872 736.796 64.5781C736.072 64.1648 735.514 63.581 735.121 62.8267C734.729 62.0682 734.533 61.1712 734.533 60.1357C734.533 59.1257 734.729 58.2393 735.121 57.4766C735.514 56.7138 736.065 56.1193 736.777 55.6932C737.493 55.267 738.332 55.054 739.295 55.054C739.943 55.054 740.546 55.1584 741.104 55.3672C741.667 55.5717 742.157 55.8807 742.575 56.294C742.996 56.7074 743.325 57.2273 743.559 57.8537C743.793 58.4759 743.911 59.2045 743.911 60.0398V60.7876H735.62V59.1001H741.347C741.347 58.7081 741.262 58.3608 741.092 58.0582C740.921 57.7557 740.685 57.5192 740.382 57.3487C740.084 57.174 739.737 57.0866 739.34 57.0866C738.927 57.0866 738.56 57.1825 738.241 57.3743C737.925 57.5618 737.678 57.8153 737.499 58.1349C737.32 58.4503 737.229 58.8018 737.224 59.1896V60.794C737.224 61.2798 737.314 61.6996 737.493 62.0533C737.676 62.407 737.934 62.6797 738.266 62.8714C738.599 63.0632 738.993 63.1591 739.449 63.1591C739.751 63.1591 740.028 63.1165 740.28 63.0312C740.531 62.946 740.746 62.8182 740.925 62.6477C741.104 62.4773 741.241 62.2685 741.335 62.0213L743.853 62.1875C743.725 62.7926 743.463 63.321 743.067 63.7727C742.675 64.2202 742.168 64.5696 741.545 64.821C740.928 65.0682 740.214 65.1918 739.404 65.1918ZM748.591 51.9091V65H745.868V51.9091H748.591ZM752.633 68.6818C752.288 68.6818 751.964 68.6541 751.661 68.5987C751.363 68.5476 751.116 68.4815 750.92 68.4006L751.533 66.3679C751.853 66.4659 752.141 66.5192 752.396 66.5277C752.656 66.5362 752.88 66.4766 753.068 66.3487C753.259 66.2209 753.415 66.0036 753.534 65.6967L753.694 65.2812L750.172 55.1818H753.036L755.068 62.392H755.171L757.222 55.1818H760.105L756.289 66.0611C756.106 66.5895 755.857 67.0497 755.541 67.4418C755.23 67.8381 754.836 68.1428 754.359 68.3558C753.881 68.5732 753.306 68.6818 752.633 68.6818ZM773.177 55.674C773.126 55.1584 772.907 54.7578 772.519 54.4723C772.131 54.1868 771.605 54.044 770.94 54.044C770.488 54.044 770.107 54.108 769.796 54.2358C769.485 54.3594 769.246 54.532 769.08 54.7536C768.918 54.9751 768.837 55.2266 768.837 55.5078C768.829 55.7422 768.878 55.9467 768.984 56.1214C769.095 56.2962 769.246 56.4474 769.438 56.5753C769.63 56.6989 769.851 56.8075 770.103 56.9013C770.354 56.9908 770.623 57.0675 770.908 57.1314L772.084 57.4126C772.655 57.5405 773.18 57.7109 773.657 57.924C774.134 58.1371 774.547 58.3991 774.897 58.7102C775.246 59.0213 775.517 59.3878 775.709 59.8097C775.905 60.2315 776.005 60.7152 776.009 61.2607C776.005 62.0618 775.8 62.7564 775.395 63.3445C774.995 63.9283 774.415 64.3821 773.657 64.706C772.903 65.0256 771.993 65.1854 770.927 65.1854C769.871 65.1854 768.95 65.0234 768.166 64.6996C767.386 64.3757 766.777 63.8963 766.338 63.2614C765.903 62.6222 765.675 61.8317 765.654 60.8899H768.332C768.362 61.3288 768.488 61.6953 768.709 61.9893C768.935 62.2791 769.236 62.4986 769.611 62.6477C769.99 62.7926 770.418 62.8651 770.895 62.8651C771.364 62.8651 771.771 62.7969 772.116 62.6605C772.466 62.5241 772.736 62.3345 772.928 62.0916C773.12 61.8487 773.216 61.5696 773.216 61.2543C773.216 60.9602 773.128 60.7131 772.954 60.5128C772.783 60.3125 772.532 60.142 772.199 60.0014C771.871 59.8608 771.469 59.733 770.991 59.6179L769.566 59.2599C768.462 58.9915 767.591 58.5717 766.952 58.0007C766.312 57.4297 765.995 56.6605 765.999 55.6932C765.995 54.9006 766.206 54.2081 766.632 53.6158C767.062 53.0234 767.653 52.5611 768.403 52.2287C769.153 51.8963 770.005 51.7301 770.959 51.7301C771.931 51.7301 772.779 51.8963 773.503 52.2287C774.232 52.5611 774.799 53.0234 775.204 53.6158C775.609 54.2081 775.817 54.8942 775.83 55.674H773.177ZM780.467 62.1747L780.473 58.9084H780.87L784.015 55.1818H787.14L782.915 60.1165H782.27L780.467 62.1747ZM778 65V51.9091H780.723V65H778ZM784.136 65L781.247 60.7237L783.062 58.7997L787.326 65H784.136ZM790.495 68.6818C790.15 68.6818 789.826 68.6541 789.524 68.5987C789.226 68.5476 788.978 68.4815 788.782 68.4006L789.396 66.3679C789.716 66.4659 790.003 66.5192 790.259 66.5277C790.519 66.5362 790.743 66.4766 790.93 66.3487C791.122 66.2209 791.277 66.0036 791.397 65.6967L791.557 65.2812L788.035 55.1818H790.898L792.931 62.392H793.033L795.085 55.1818H797.968L794.152 66.0611C793.969 66.5895 793.719 67.0497 793.404 67.4418C793.093 67.8381 792.699 68.1428 792.221 68.3558C791.744 68.5732 791.169 68.6818 790.495 68.6818ZM811.04 55.674C810.989 55.1584 810.769 54.7578 810.382 54.4723C809.994 54.1868 809.468 54.044 808.803 54.044C808.351 54.044 807.97 54.108 807.659 54.2358C807.348 54.3594 807.109 54.532 806.943 54.7536C806.781 54.9751 806.7 55.2266 806.7 55.5078C806.691 55.7422 806.74 55.9467 806.847 56.1214C806.958 56.2962 807.109 56.4474 807.301 56.5753C807.492 56.6989 807.714 56.8075 807.965 56.9013C808.217 56.9908 808.485 57.0675 808.771 57.1314L809.947 57.4126C810.518 57.5405 811.042 57.7109 811.519 57.924C811.997 58.1371 812.41 58.3991 812.759 58.7102C813.109 59.0213 813.379 59.3878 813.571 59.8097C813.767 60.2315 813.867 60.7152 813.872 61.2607C813.867 62.0618 813.663 62.7564 813.258 63.3445C812.857 63.9283 812.278 64.3821 811.519 64.706C810.765 65.0256 809.855 65.1854 808.79 65.1854C807.733 65.1854 806.813 65.0234 806.029 64.6996C805.249 64.3757 804.639 63.8963 804.2 63.2614C803.766 62.6222 803.538 61.8317 803.517 60.8899H806.195C806.225 61.3288 806.35 61.6953 806.572 61.9893C806.798 62.2791 807.098 62.4986 807.473 62.6477C807.852 62.7926 808.281 62.8651 808.758 62.8651C809.227 62.8651 809.634 62.7969 809.979 62.6605C810.328 62.5241 810.599 62.3345 810.791 62.0916C810.982 61.8487 811.078 61.5696 811.078 61.2543C811.078 60.9602 810.991 60.7131 810.816 60.5128C810.646 60.3125 810.394 60.142 810.062 60.0014C809.734 59.8608 809.331 59.733 808.854 59.6179L807.428 59.2599C806.325 58.9915 805.453 58.5717 804.814 58.0007C804.175 57.4297 803.857 56.6605 803.862 55.6932C803.857 54.9006 804.068 54.2081 804.495 53.6158C804.925 53.0234 805.515 52.5611 806.265 52.2287C807.015 51.8963 807.867 51.7301 808.822 51.7301C809.794 51.7301 810.642 51.8963 811.366 52.2287C812.095 52.5611 812.661 53.0234 813.066 53.6158C813.471 54.2081 813.68 54.8942 813.693 55.674H811.04ZM820.554 65H815.913V51.9091H820.592C821.909 51.9091 823.043 52.1712 823.993 52.6953C824.943 53.2152 825.674 53.9631 826.185 54.9389C826.701 55.9148 826.959 57.0824 826.959 58.4418C826.959 59.8054 826.701 60.9773 826.185 61.9574C825.674 62.9375 824.939 63.6896 823.98 64.2138C823.026 64.7379 821.883 65 820.554 65ZM818.681 62.6286H820.439C821.257 62.6286 821.945 62.4837 822.504 62.1939C823.066 61.8999 823.488 61.446 823.769 60.8324C824.055 60.2145 824.197 59.4176 824.197 58.4418C824.197 57.4744 824.055 56.6839 823.769 56.0703C823.488 55.4567 823.068 55.005 822.51 54.7152C821.952 54.4254 821.263 54.2805 820.445 54.2805H818.681V62.6286ZM829.189 65V51.9091H831.957V57.6811H832.129L836.84 51.9091H840.158L835.3 57.7706L840.215 65H836.904L833.318 59.6179L831.957 61.2798V65H829.189Z" fill="#fff"/><path d="M236.582 91.1385C236.01 91.1385 235.499 90.9923 235.05 90.6999C234.603 90.4045 234.253 89.9844 233.997 89.4396C233.745 88.8918 233.619 88.2347 233.619 87.4684C233.619 86.7021 233.746 86.0465 234.002 85.5018C234.26 84.957 234.614 84.54 235.064 84.2507C235.513 83.9614 236.022 83.8168 236.592 83.8168C237.032 83.8168 237.386 83.8906 237.653 84.0384C237.924 84.183 238.134 84.3523 238.281 84.5462C238.432 84.7401 238.549 84.9109 238.632 85.0586H238.715V81.5455H240.096V91H238.748V89.8967H238.632C238.549 90.0475 238.429 90.2198 238.272 90.4137C238.118 90.6076 237.906 90.7769 237.635 90.9215C237.364 91.0662 237.013 91.1385 236.582 91.1385ZM236.887 89.9613C237.284 89.9613 237.62 89.8567 237.893 89.6474C238.17 89.435 238.38 89.1411 238.521 88.7656C238.666 88.3902 238.738 87.9531 238.738 87.4545C238.738 86.9621 238.667 86.5312 238.526 86.1619C238.384 85.7926 238.177 85.5049 237.903 85.2987C237.629 85.0924 237.29 84.9893 236.887 84.9893C236.472 84.9893 236.125 85.0971 235.848 85.3125C235.571 85.5279 235.362 85.8219 235.221 86.1942C235.082 86.5666 235.013 86.9867 235.013 87.4545C235.013 87.9285 235.084 88.3548 235.225 88.7333C235.367 89.1119 235.576 89.4119 235.853 89.6335C236.133 89.852 236.478 89.9613 236.887 89.9613ZM245.252 91.1431C244.553 91.1431 243.951 90.9938 243.447 90.6953C242.945 90.3937 242.557 89.9705 242.283 89.4258C242.012 88.878 241.877 88.2363 241.877 87.5007C241.877 86.7744 242.012 86.1342 242.283 85.5803C242.557 85.0263 242.939 84.5939 243.428 84.283C243.921 83.9722 244.496 83.8168 245.155 83.8168C245.555 83.8168 245.943 83.8829 246.318 84.0153C246.694 84.1476 247.031 84.3554 247.329 84.6385C247.628 84.9216 247.863 85.2894 248.035 85.7418C248.208 86.1912 248.294 86.7375 248.294 87.3807V87.87H242.657V86.8359H246.941C246.941 86.4728 246.867 86.1512 246.72 85.8711C246.572 85.5879 246.364 85.3648 246.097 85.2017C245.832 85.0386 245.521 84.957 245.164 84.957C244.776 84.957 244.438 85.0524 244.148 85.2433C243.862 85.431 243.641 85.6772 243.484 85.9819C243.33 86.2835 243.253 86.6113 243.253 86.9652V87.7731C243.253 88.247 243.336 88.6502 243.502 88.9826C243.671 89.315 243.907 89.5689 244.208 89.7443C244.51 89.9167 244.862 90.0028 245.266 90.0028C245.527 90.0028 245.766 89.9659 245.981 89.892C246.197 89.8151 246.383 89.7012 246.54 89.5504C246.697 89.3996 246.817 89.2134 246.9 88.9918L248.206 89.2273C248.102 89.612 247.914 89.949 247.643 90.2383C247.375 90.5245 247.038 90.7476 246.632 90.9077C246.229 91.0646 245.769 91.1431 245.252 91.1431ZM249.955 93.6591V83.9091H251.304V85.0586H251.419C251.499 84.9109 251.614 84.7401 251.765 84.5462C251.916 84.3523 252.125 84.183 252.393 84.0384C252.661 83.8906 253.015 83.8168 253.455 83.8168C254.027 83.8168 254.538 83.9614 254.987 84.2507C255.437 84.54 255.789 84.957 256.045 85.5018C256.303 86.0465 256.432 86.7021 256.432 87.4684C256.432 88.2347 256.305 88.8918 256.049 89.4396C255.794 89.9844 255.443 90.4045 254.997 90.6999C254.55 90.9923 254.041 91.1385 253.469 91.1385C253.038 91.1385 252.685 91.0662 252.411 90.9215C252.141 90.7769 251.928 90.6076 251.774 90.4137C251.62 90.2198 251.502 90.0475 251.419 89.8967H251.336V93.6591H249.955ZM251.308 87.4545C251.308 87.9531 251.38 88.3902 251.525 88.7656C251.67 89.1411 251.879 89.435 252.153 89.6474C252.427 89.8567 252.762 89.9613 253.159 89.9613C253.572 89.9613 253.916 89.852 254.193 89.6335C254.47 89.4119 254.68 89.1119 254.821 88.7333C254.966 88.3548 255.038 87.9285 255.038 87.4545C255.038 86.9867 254.967 86.5666 254.826 86.1942C254.687 85.8219 254.478 85.5279 254.198 85.3125C253.921 85.0971 253.575 84.9893 253.159 84.9893C252.759 84.9893 252.421 85.0924 252.144 85.2987C251.87 85.5049 251.662 85.7926 251.52 86.1619C251.379 86.5312 251.308 86.9621 251.308 87.4545ZM259.489 81.5455V91H258.109V81.5455H259.489ZM264.463 91.1431C263.798 91.1431 263.218 90.9908 262.723 90.6861C262.227 90.3814 261.842 89.9551 261.569 89.4073C261.295 88.8595 261.158 88.2193 261.158 87.4869C261.158 86.7513 261.295 86.1081 261.569 85.5572C261.842 85.0063 262.227 84.5785 262.723 84.2738C263.218 83.9691 263.798 83.8168 264.463 83.8168C265.128 83.8168 265.708 83.9691 266.204 84.2738C266.699 84.5785 267.084 85.0063 267.358 85.5572C267.632 86.1081 267.768 86.7513 267.768 87.4869C267.768 88.2193 267.632 88.8595 267.358 89.4073C267.084 89.9551 266.699 90.3814 266.204 90.6861C265.708 90.9908 265.128 91.1431 264.463 91.1431ZM264.468 89.9844C264.899 89.9844 265.256 89.8705 265.539 89.6428C265.822 89.415 266.031 89.1119 266.167 88.7333C266.305 88.3548 266.374 87.9377 266.374 87.4822C266.374 87.0298 266.305 86.6143 266.167 86.2358C266.031 85.8542 265.822 85.5479 265.539 85.3171C265.256 85.0863 264.899 84.9709 264.468 84.9709C264.034 84.9709 263.674 85.0863 263.387 85.3171C263.104 85.5479 262.893 85.8542 262.755 86.2358C262.62 86.6143 262.552 87.0298 262.552 87.4822C262.552 87.9377 262.62 88.3548 262.755 88.7333C262.893 89.1119 263.104 89.415 263.387 89.6428C263.674 89.8705 264.034 89.9844 264.468 89.9844ZM270.071 93.6591C269.864 93.6591 269.677 93.6422 269.507 93.6083C269.338 93.5775 269.212 93.5437 269.129 93.5067L269.461 92.3757C269.714 92.4434 269.938 92.4727 270.135 92.4634C270.332 92.4542 270.506 92.3803 270.657 92.2418C270.811 92.1033 270.946 91.8771 271.063 91.5632L271.234 91.0923L268.639 83.9091H270.117L271.913 89.4119H271.986L273.782 83.9091H275.264L272.342 91.9464C272.206 92.3157 272.034 92.6281 271.825 92.8835C271.616 93.142 271.366 93.3359 271.077 93.4652C270.788 93.5945 270.452 93.6591 270.071 93.6591ZM282.325 91.157C281.876 91.157 281.47 91.0739 281.107 90.9077C280.743 90.7384 280.456 90.4937 280.243 90.1737C280.034 89.8536 279.929 89.4612 279.929 88.9964C279.929 88.5964 280.006 88.267 280.16 88.0085C280.314 87.75 280.522 87.5453 280.783 87.3945C281.045 87.2437 281.337 87.1299 281.661 87.0529C281.984 86.976 282.313 86.9175 282.648 86.8775C283.073 86.8282 283.418 86.7882 283.683 86.7575C283.947 86.7236 284.14 86.6697 284.26 86.5959C284.38 86.522 284.44 86.402 284.44 86.2358V86.2035C284.44 85.8003 284.326 85.4879 284.098 85.2663C283.873 85.0447 283.538 84.9339 283.092 84.9339C282.627 84.9339 282.261 85.037 281.993 85.2433C281.728 85.4464 281.545 85.6726 281.444 85.9219L280.146 85.6264C280.3 85.1955 280.525 84.8478 280.82 84.5831C281.119 84.3153 281.462 84.1214 281.85 84.0014C282.238 83.8783 282.645 83.8168 283.073 83.8168C283.356 83.8168 283.656 83.8506 283.973 83.9183C284.293 83.983 284.592 84.103 284.869 84.2784C285.149 84.4538 285.378 84.7047 285.557 85.0309C285.735 85.354 285.825 85.7741 285.825 86.2912V91H284.477V90.0305H284.421C284.332 90.209 284.198 90.3845 284.02 90.5568C283.841 90.7292 283.612 90.8723 283.332 90.9862C283.052 91.1 282.716 91.157 282.325 91.157ZM282.625 90.049C283.007 90.049 283.333 89.9736 283.604 89.8228C283.878 89.672 284.086 89.475 284.227 89.2319C284.372 88.9857 284.444 88.7225 284.444 88.4425V87.5284C284.395 87.5777 284.3 87.6238 284.158 87.6669C284.02 87.7069 283.861 87.7423 283.683 87.7731C283.504 87.8008 283.33 87.8269 283.161 87.8516C282.992 87.8731 282.85 87.8916 282.736 87.907C282.468 87.9408 282.224 87.9978 282.002 88.0778C281.784 88.1578 281.608 88.2732 281.476 88.424C281.347 88.5717 281.282 88.7687 281.282 89.0149C281.282 89.3565 281.408 89.6151 281.661 89.7905C281.913 89.9628 282.235 90.049 282.625 90.049ZM290.78 91.1431C290.094 91.1431 289.503 90.9877 289.007 90.6768C288.515 90.3629 288.136 89.9305 287.872 89.3796C287.607 88.8287 287.475 88.1978 287.475 87.4869C287.475 86.7667 287.61 86.1312 287.881 85.5803C288.152 85.0263 288.533 84.5939 289.026 84.283C289.518 83.9722 290.098 83.8168 290.766 83.8168C291.305 83.8168 291.785 83.9168 292.206 84.1168C292.628 84.3138 292.968 84.5908 293.227 84.9478C293.488 85.3048 293.644 85.7218 293.693 86.1989H292.35C292.276 85.8665 292.106 85.5803 291.842 85.3402C291.58 85.1001 291.229 84.9801 290.789 84.9801C290.404 84.9801 290.067 85.0817 289.778 85.2848C289.492 85.4848 289.269 85.7711 289.109 86.1435C288.949 86.5128 288.869 86.9498 288.869 87.4545C288.869 87.9716 288.947 88.4179 289.104 88.7933C289.261 89.1688 289.483 89.4596 289.769 89.6658C290.058 89.872 290.398 89.9751 290.789 89.9751C291.051 89.9751 291.288 89.9274 291.5 89.832C291.716 89.7335 291.896 89.5935 292.04 89.4119C292.188 89.2304 292.291 89.0118 292.35 88.7564H293.693C293.644 89.215 293.494 89.6243 293.245 89.9844C292.996 90.3445 292.662 90.6276 292.243 90.8338C291.828 91.04 291.34 91.1431 290.78 91.1431ZM298.609 83.9091V85.017H294.736V83.9091H298.609ZM295.775 82.2102H297.155V88.918C297.155 89.1857 297.195 89.3873 297.275 89.5227C297.355 89.6551 297.458 89.7459 297.584 89.7951C297.713 89.8413 297.854 89.8643 298.004 89.8643C298.115 89.8643 298.212 89.8567 298.295 89.8413C298.378 89.8259 298.443 89.8136 298.489 89.8043L298.738 90.9446C298.658 90.9754 298.544 91.0062 298.397 91.0369C298.249 91.0708 298.064 91.0893 297.843 91.0923C297.48 91.0985 297.141 91.0339 296.827 90.8984C296.513 90.763 296.259 90.5537 296.065 90.2706C295.872 89.9875 295.775 89.632 295.775 89.2042V82.2102ZM303.177 91.1431C302.512 91.1431 301.932 90.9908 301.436 90.6861C300.941 90.3814 300.556 89.9551 300.282 89.4073C300.008 88.8595 299.871 88.2193 299.871 87.4869C299.871 86.7513 300.008 86.1081 300.282 85.5572C300.556 85.0063 300.941 84.5785 301.436 84.2738C301.932 83.9691 302.512 83.8168 303.177 83.8168C303.841 83.8168 304.422 83.9691 304.917 84.2738C305.413 84.5785 305.797 85.0063 306.071 85.5572C306.345 86.1081 306.482 86.7513 306.482 87.4869C306.482 88.2193 306.345 88.8595 306.071 89.4073C305.797 89.9551 305.413 90.3814 304.917 90.6861C304.422 90.9908 303.841 91.1431 303.177 91.1431ZM303.181 89.9844C303.612 89.9844 303.969 89.8705 304.252 89.6428C304.535 89.415 304.745 89.1119 304.88 88.7333C305.019 88.3548 305.088 87.9377 305.088 87.4822C305.088 87.0298 305.019 86.6143 304.88 86.2358C304.745 85.8542 304.535 85.5479 304.252 85.3171C303.969 85.0863 303.612 84.9709 303.181 84.9709C302.747 84.9709 302.387 85.0863 302.101 85.3171C301.818 85.5479 301.607 85.8542 301.469 86.2358C301.333 86.6143 301.265 87.0298 301.265 87.4822C301.265 87.9377 301.333 88.3548 301.469 88.7333C301.607 89.1119 301.818 89.415 302.101 89.6428C302.387 89.8705 302.747 89.9844 303.181 89.9844ZM308.153 91V83.9091H309.487V85.0355H309.561C309.69 84.6539 309.918 84.3538 310.244 84.1353C310.573 83.9137 310.946 83.8029 311.361 83.8029C311.447 83.8029 311.549 83.806 311.666 83.8121C311.786 83.8183 311.88 83.826 311.948 83.8352V85.1555C311.892 85.1402 311.794 85.1232 311.652 85.1048C311.511 85.0832 311.369 85.0724 311.227 85.0724C310.901 85.0724 310.61 85.1417 310.355 85.2802C310.103 85.4156 309.902 85.6049 309.755 85.848C309.607 86.0881 309.533 86.362 309.533 86.6697V91H308.153Z" fill="#FFB255"/><path d="M581.984 43.1431C581.285 43.1431 580.684 42.9938 580.179 42.6953C579.677 42.3937 579.29 41.9705 579.016 41.4258C578.745 40.878 578.609 40.2363 578.609 39.5007C578.609 38.7744 578.745 38.1342 579.016 37.5803C579.29 37.0263 579.671 36.5939 580.161 36.283C580.653 35.9722 581.228 35.8168 581.887 35.8168C582.287 35.8168 582.675 35.8829 583.05 36.0153C583.426 36.1476 583.763 36.3554 584.061 36.6385C584.36 36.9216 584.595 37.2894 584.768 37.7418C584.94 38.1912 585.026 38.7375 585.026 39.3807V39.87H579.39V38.8359H583.674C583.674 38.4728 583.6 38.1512 583.452 37.8711C583.304 37.5879 583.097 37.3648 582.829 37.2017C582.564 37.0386 582.253 36.957 581.896 36.957C581.509 36.957 581.17 37.0524 580.881 37.2433C580.594 37.431 580.373 37.6772 580.216 37.9819C580.062 38.2835 579.985 38.6113 579.985 38.9652V39.7731C579.985 40.247 580.068 40.6502 580.234 40.9826C580.404 41.315 580.639 41.5689 580.941 41.7443C581.242 41.9167 581.595 42.0028 581.998 42.0028C582.259 42.0028 582.498 41.9659 582.713 41.892C582.929 41.8151 583.115 41.7012 583.272 41.5504C583.429 41.3996 583.549 41.2134 583.632 40.9918L584.939 41.2273C584.834 41.612 584.646 41.949 584.375 42.2383C584.108 42.5245 583.771 42.7476 583.364 42.9077C582.961 43.0646 582.501 43.1431 581.984 43.1431ZM592.551 35.9091L589.979 43H588.502L585.926 35.9091H587.408L589.204 41.3658H589.278L591.069 35.9091H592.551ZM596.793 43.1431C596.094 43.1431 595.493 42.9938 594.988 42.6953C594.486 42.3937 594.098 41.9705 593.824 41.4258C593.554 40.878 593.418 40.2363 593.418 39.5007C593.418 38.7744 593.554 38.1342 593.824 37.5803C594.098 37.0263 594.48 36.5939 594.969 36.283C595.462 35.9722 596.037 35.8168 596.696 35.8168C597.096 35.8168 597.484 35.8829 597.859 36.0153C598.235 36.1476 598.572 36.3554 598.87 36.6385C599.169 36.9216 599.404 37.2894 599.577 37.7418C599.749 38.1912 599.835 38.7375 599.835 39.3807V39.87H594.198V38.8359H598.482C598.482 38.4728 598.409 38.1512 598.261 37.8711C598.113 37.5879 597.905 37.3648 597.638 37.2017C597.373 37.0386 597.062 36.957 596.705 36.957C596.317 36.957 595.979 37.0524 595.69 37.2433C595.403 37.431 595.182 37.6772 595.025 37.9819C594.871 38.2835 594.794 38.6113 594.794 38.9652V39.7731C594.794 40.247 594.877 40.6502 595.043 40.9826C595.212 41.315 595.448 41.5689 595.75 41.7443C596.051 41.9167 596.404 42.0028 596.807 42.0028C597.068 42.0028 597.307 41.9659 597.522 41.892C597.738 41.8151 597.924 41.7012 598.081 41.5504C598.238 41.3996 598.358 41.2134 598.441 40.9918L599.747 41.2273C599.643 41.612 599.455 41.949 599.184 42.2383C598.916 42.5245 598.579 42.7476 598.173 42.9077C597.77 43.0646 597.31 43.1431 596.793 43.1431ZM602.877 38.7898V43H601.497V35.9091H602.822V37.0632H602.909C603.072 36.6877 603.328 36.3861 603.676 36.1584C604.026 35.9306 604.468 35.8168 605.001 35.8168C605.484 35.8168 605.907 35.9183 606.27 36.1214C606.633 36.3215 606.915 36.62 607.115 37.017C607.315 37.4141 607.415 37.9049 607.415 38.4897V43H606.035V38.6559C606.035 38.1419 605.901 37.7403 605.633 37.451C605.365 37.1586 604.997 37.0124 604.53 37.0124C604.21 37.0124 603.925 37.0817 603.676 37.2202C603.429 37.3587 603.234 37.5618 603.089 37.8295C602.948 38.0942 602.877 38.4143 602.877 38.7898ZM612.706 35.9091V37.017H608.833V35.9091H612.706ZM609.872 34.2102H611.252V40.918C611.252 41.1857 611.292 41.3873 611.372 41.5227C611.452 41.6551 611.555 41.7459 611.681 41.7951C611.811 41.8413 611.951 41.8643 612.101 41.8643C612.212 41.8643 612.309 41.8567 612.392 41.8413C612.475 41.8259 612.54 41.8136 612.586 41.8043L612.835 42.9446C612.755 42.9754 612.642 43.0062 612.494 43.0369C612.346 43.0708 612.161 43.0893 611.94 43.0923C611.577 43.0985 611.238 43.0339 610.924 42.8984C610.61 42.763 610.356 42.5537 610.162 42.2706C609.969 41.9875 609.872 41.632 609.872 41.2042V34.2102ZM619.562 37.6403L618.311 37.8619C618.259 37.7018 618.176 37.5495 618.062 37.4048C617.951 37.2602 617.8 37.1417 617.61 37.0494C617.419 36.957 617.18 36.9109 616.894 36.9109C616.503 36.9109 616.177 36.9986 615.915 37.174C615.654 37.3464 615.523 37.5695 615.523 37.8434C615.523 38.0804 615.611 38.2712 615.786 38.4158C615.962 38.5605 616.245 38.679 616.636 38.7713L617.762 39.0298C618.414 39.1806 618.901 39.413 619.221 39.7269C619.541 40.0408 619.701 40.4486 619.701 40.9503C619.701 41.375 619.578 41.7536 619.332 42.0859C619.088 42.4152 618.748 42.6738 618.311 42.8615C617.877 43.0492 617.374 43.1431 616.802 43.1431C616.008 43.1431 615.36 42.9738 614.858 42.6353C614.357 42.2937 614.049 41.8089 613.935 41.1811L615.269 40.978C615.352 41.3258 615.523 41.5889 615.781 41.7674C616.04 41.9428 616.377 42.0305 616.792 42.0305C617.245 42.0305 617.607 41.9367 617.877 41.7489C618.148 41.5581 618.284 41.3258 618.284 41.0518C618.284 40.8303 618.201 40.6441 618.034 40.4933C617.871 40.3424 617.62 40.2286 617.282 40.1516L616.082 39.8885C615.42 39.7377 614.931 39.4976 614.614 39.1683C614.3 38.839 614.143 38.422 614.143 37.9173C614.143 37.4987 614.26 37.1325 614.493 36.8185C614.727 36.5046 615.051 36.2599 615.463 36.0845C615.875 35.906 616.348 35.8168 616.88 35.8168C617.647 35.8168 618.25 35.983 618.69 36.3153C619.13 36.6446 619.421 37.0863 619.562 37.6403Z" fill="#fff" fill-opacity=".6"/><path d="M581.241 59.6403L579.99 59.8619C579.938 59.7018 579.855 59.5495 579.741 59.4048C579.63 59.2602 579.48 59.1417 579.289 59.0494C579.098 58.957 578.859 58.9109 578.573 58.9109C578.182 58.9109 577.856 58.9986 577.594 59.174C577.333 59.3464 577.202 59.5695 577.202 59.8434C577.202 60.0804 577.29 60.2712 577.465 60.4158C577.641 60.5605 577.924 60.679 578.315 60.7713L579.441 61.0298C580.094 61.1806 580.58 61.413 580.9 61.7269C581.22 62.0408 581.38 62.4486 581.38 62.9503C581.38 63.375 581.257 63.7536 581.011 64.0859C580.768 64.4152 580.427 64.6738 579.99 64.8615C579.556 65.0492 579.053 65.1431 578.481 65.1431C577.687 65.1431 577.039 64.9738 576.537 64.6353C576.036 64.2937 575.728 63.8089 575.614 63.1811L576.948 62.978C577.031 63.3258 577.202 63.5889 577.461 63.7674C577.719 63.9428 578.056 64.0305 578.472 64.0305C578.924 64.0305 579.286 63.9367 579.556 63.7489C579.827 63.5581 579.963 63.3258 579.963 63.0518C579.963 62.8303 579.88 62.6441 579.713 62.4933C579.55 62.3424 579.299 62.2286 578.961 62.1516L577.761 61.8885C577.099 61.7377 576.61 61.4976 576.293 61.1683C575.979 60.839 575.822 60.422 575.822 59.9173C575.822 59.4987 575.939 59.1325 576.173 58.8185C576.406 58.5046 576.73 58.2599 577.142 58.0845C577.554 57.906 578.027 57.8168 578.559 57.8168C579.326 57.8168 579.929 57.983 580.369 58.3153C580.809 58.6446 581.1 59.0863 581.241 59.6403ZM586.338 57.9091V59.017H582.464V57.9091H586.338ZM583.503 56.2102H584.883V62.918C584.883 63.1857 584.923 63.3873 585.003 63.5227C585.084 63.6551 585.187 63.7459 585.313 63.7951C585.442 63.8413 585.582 63.8643 585.733 63.8643C585.844 63.8643 585.941 63.8567 586.024 63.8413C586.107 63.8259 586.171 63.8136 586.218 63.8043L586.467 64.9446C586.387 64.9754 586.273 65.0062 586.125 65.0369C585.978 65.0708 585.793 65.0893 585.571 65.0923C585.208 65.0985 584.87 65.0339 584.556 64.8984C584.242 64.763 583.988 64.5537 583.794 64.2706C583.6 63.9875 583.503 63.632 583.503 63.2042V56.2102ZM590.058 65.157C589.609 65.157 589.203 65.0739 588.839 64.9077C588.476 64.7384 588.188 64.4937 587.976 64.1737C587.767 63.8536 587.662 63.4612 587.662 62.9964C587.662 62.5964 587.739 62.267 587.893 62.0085C588.047 61.75 588.255 61.5453 588.516 61.3945C588.778 61.2437 589.07 61.1299 589.393 61.0529C589.716 60.976 590.046 60.9175 590.381 60.8775C590.806 60.8282 591.151 60.7882 591.415 60.7575C591.68 60.7236 591.872 60.6697 591.992 60.5959C592.112 60.522 592.172 60.402 592.172 60.2358V60.2035C592.172 59.8003 592.059 59.4879 591.831 59.2663C591.606 59.0447 591.271 58.9339 590.824 58.9339C590.36 58.9339 589.993 59.037 589.726 59.2433C589.461 59.4464 589.278 59.6726 589.176 59.9219L587.879 59.6264C588.033 59.1955 588.258 58.8478 588.553 58.5831C588.852 58.3153 589.195 58.1214 589.583 58.0014C589.97 57.8783 590.378 57.8168 590.806 57.8168C591.089 57.8168 591.389 57.8506 591.706 57.9183C592.026 57.983 592.325 58.103 592.602 58.2784C592.882 58.4538 593.111 58.7047 593.29 59.0309C593.468 59.354 593.557 59.7741 593.557 60.2912V65H592.209V64.0305H592.154C592.065 64.209 591.931 64.3845 591.752 64.5568C591.574 64.7292 591.345 64.8723 591.065 64.9862C590.784 65.1 590.449 65.157 590.058 65.157ZM590.358 64.049C590.74 64.049 591.066 63.9736 591.337 63.8228C591.611 63.672 591.819 63.475 591.96 63.2319C592.105 62.9857 592.177 62.7225 592.177 62.4425V61.5284C592.128 61.5777 592.032 61.6238 591.891 61.6669C591.752 61.7069 591.594 61.7423 591.415 61.7731C591.237 61.8008 591.063 61.8269 590.894 61.8516C590.724 61.8731 590.583 61.8916 590.469 61.907C590.201 61.9408 589.957 61.9978 589.735 62.0778C589.516 62.1578 589.341 62.2732 589.209 62.424C589.079 62.5717 589.015 62.7687 589.015 63.0149C589.015 63.3565 589.141 63.6151 589.393 63.7905C589.646 63.9628 589.967 64.049 590.358 64.049ZM598.836 57.9091V59.017H594.963V57.9091H598.836ZM596.001 56.2102H597.382V62.918C597.382 63.1857 597.422 63.3873 597.502 63.5227C597.582 63.6551 597.685 63.7459 597.811 63.7951C597.94 63.8413 598.08 63.8643 598.231 63.8643C598.342 63.8643 598.439 63.8567 598.522 63.8413C598.605 63.8259 598.67 63.8136 598.716 63.8043L598.965 64.9446C598.885 64.9754 598.771 65.0062 598.624 65.0369C598.476 65.0708 598.291 65.0893 598.07 65.0923C597.706 65.0985 597.368 65.0339 597.054 64.8984C596.74 64.763 596.486 64.5537 596.292 64.2706C596.098 63.9875 596.001 63.632 596.001 63.2042V56.2102ZM603.473 65.1431C602.774 65.1431 602.172 64.9938 601.668 64.6953C601.166 64.3937 600.778 63.9705 600.504 63.4258C600.234 62.878 600.098 62.2363 600.098 61.5007C600.098 60.7744 600.234 60.1342 600.504 59.5803C600.778 59.0263 601.16 58.5939 601.649 58.283C602.142 57.9722 602.717 57.8168 603.376 57.8168C603.776 57.8168 604.164 57.8829 604.539 58.0153C604.915 58.1476 605.252 58.3554 605.55 58.6385C605.849 58.9216 606.084 59.2894 606.257 59.7418C606.429 60.1912 606.515 60.7375 606.515 61.3807V61.87H600.878V60.8359H605.162C605.162 60.4728 605.089 60.1512 604.941 59.8711C604.793 59.5879 604.585 59.3648 604.318 59.2017C604.053 59.0386 603.742 58.957 603.385 58.957C602.997 58.957 602.659 59.0524 602.369 59.2433C602.083 59.431 601.862 59.6772 601.705 59.9819C601.551 60.2835 601.474 60.6113 601.474 60.9652V61.7731C601.474 62.247 601.557 62.6502 601.723 62.9826C601.892 63.315 602.128 63.5689 602.429 63.7443C602.731 63.9167 603.083 64.0028 603.487 64.0028C603.748 64.0028 603.987 63.9659 604.202 63.892C604.418 63.8151 604.604 63.7012 604.761 63.5504C604.918 63.3996 605.038 63.2134 605.121 62.9918L606.427 63.2273C606.323 63.612 606.135 63.949 605.864 64.2383C605.596 64.5245 605.259 64.7476 604.853 64.9077C604.45 65.0646 603.99 65.1431 603.473 65.1431Z" fill="#fff" fill-opacity=".6"/><path d="M543.915 106.143C543.228 106.143 542.638 105.988 542.142 105.677C541.65 105.363 541.271 104.931 541.006 104.38C540.742 103.829 540.609 103.198 540.609 102.487C540.609 101.767 540.745 101.131 541.016 100.58C541.286 100.026 541.668 99.5939 542.161 99.283C542.653 98.9722 543.233 98.8168 543.901 98.8168C544.44 98.8168 544.92 98.9168 545.341 99.1168C545.763 99.3138 546.103 99.5908 546.362 99.9478C546.623 100.305 546.779 100.722 546.828 101.199H545.484C545.411 100.866 545.241 100.58 544.977 100.34C544.715 100.1 544.364 99.9801 543.924 99.9801C543.539 99.9801 543.202 100.082 542.913 100.285C542.627 100.485 542.404 100.771 542.244 101.143C542.084 101.513 542.004 101.95 542.004 102.455C542.004 102.972 542.082 103.418 542.239 103.793C542.396 104.169 542.618 104.46 542.904 104.666C543.193 104.872 543.533 104.975 543.924 104.975C544.186 104.975 544.423 104.927 544.635 104.832C544.85 104.734 545.03 104.594 545.175 104.412C545.323 104.23 545.426 104.012 545.484 103.756H546.828C546.779 104.215 546.629 104.624 546.38 104.984C546.131 105.344 545.797 105.628 545.378 105.834C544.963 106.04 544.475 106.143 543.915 106.143ZM551.421 106.143C550.756 106.143 550.176 105.991 549.68 105.686C549.185 105.381 548.8 104.955 548.526 104.407C548.252 103.859 548.115 103.219 548.115 102.487C548.115 101.751 548.252 101.108 548.526 100.557C548.8 100.006 549.185 99.5785 549.68 99.2738C550.176 98.9691 550.756 98.8168 551.421 98.8168C552.086 98.8168 552.666 98.9691 553.161 99.2738C553.657 99.5785 554.041 100.006 554.315 100.557C554.589 101.108 554.726 101.751 554.726 102.487C554.726 103.219 554.589 103.859 554.315 104.407C554.041 104.955 553.657 105.381 553.161 105.686C552.666 105.991 552.086 106.143 551.421 106.143ZM551.425 104.984C551.856 104.984 552.213 104.871 552.496 104.643C552.78 104.415 552.989 104.112 553.124 103.733C553.263 103.355 553.332 102.938 553.332 102.482C553.332 102.03 553.263 101.614 553.124 101.236C552.989 100.854 552.78 100.548 552.496 100.317C552.213 100.086 551.856 99.9709 551.425 99.9709C550.991 99.9709 550.631 100.086 550.345 100.317C550.062 100.548 549.851 100.854 549.713 101.236C549.577 101.614 549.51 102.03 549.51 102.482C549.51 102.938 549.577 103.355 549.713 103.733C549.851 104.112 550.062 104.415 550.345 104.643C550.631 104.871 550.991 104.984 551.425 104.984ZM557.777 101.79V106H556.397V98.9091H557.722V100.063H557.81C557.973 99.6877 558.228 99.3861 558.576 99.1584C558.927 98.9306 559.368 98.8168 559.901 98.8168C560.384 98.8168 560.807 98.9183 561.17 99.1214C561.533 99.3215 561.815 99.62 562.015 100.017C562.215 100.414 562.315 100.905 562.315 101.49V106H560.935V101.656C560.935 101.142 560.801 100.74 560.533 100.451C560.266 100.159 559.898 100.012 559.43 100.012C559.11 100.012 558.825 100.082 558.576 100.22C558.33 100.359 558.134 100.562 557.99 100.83C557.848 101.094 557.777 101.414 557.777 101.79ZM567.671 98.9091V100.017H563.664V98.9091H567.671ZM564.763 106V98.0874C564.763 97.6442 564.86 97.2764 565.054 96.984C565.247 96.6886 565.504 96.4685 565.824 96.3239C566.145 96.1761 566.492 96.1023 566.868 96.1023C567.145 96.1023 567.382 96.1254 567.579 96.1715C567.776 96.2146 567.922 96.2546 568.017 96.2915L567.694 97.4087C567.63 97.3903 567.546 97.3687 567.445 97.3441C567.343 97.3164 567.22 97.3026 567.076 97.3026C566.74 97.3026 566.5 97.3857 566.355 97.5518C566.214 97.718 566.143 97.9581 566.143 98.272V106H564.763ZM569.225 106V98.9091H570.606V106H569.225ZM569.922 97.815C569.682 97.815 569.476 97.735 569.304 97.5749C569.134 97.4118 569.05 97.2179 569.05 96.9933C569.05 96.7655 569.134 96.5716 569.304 96.4116C569.476 96.2485 569.682 96.1669 569.922 96.1669C570.162 96.1669 570.367 96.2485 570.536 96.4116C570.709 96.5716 570.795 96.7655 570.795 96.9933C570.795 97.2179 570.709 97.4118 570.536 97.5749C570.367 97.735 570.162 97.815 569.922 97.815ZM575.566 108.807C575.002 108.807 574.518 108.733 574.111 108.585C573.708 108.438 573.379 108.242 573.123 107.999C572.868 107.756 572.677 107.49 572.551 107.2L573.737 106.711C573.821 106.846 573.931 106.989 574.07 107.14C574.211 107.294 574.402 107.425 574.642 107.533C574.885 107.64 575.198 107.694 575.579 107.694C576.103 107.694 576.535 107.567 576.877 107.311C577.218 107.059 577.389 106.656 577.389 106.102V104.707H577.301C577.218 104.858 577.098 105.026 576.941 105.211C576.787 105.395 576.575 105.555 576.304 105.691C576.033 105.826 575.681 105.894 575.247 105.894C574.687 105.894 574.182 105.763 573.733 105.501C573.287 105.237 572.933 104.847 572.671 104.333C572.413 103.816 572.283 103.181 572.283 102.427C572.283 101.673 572.411 101.027 572.666 100.488C572.925 99.9493 573.279 99.5369 573.728 99.2507C574.178 98.9614 574.687 98.8168 575.256 98.8168C575.696 98.8168 576.052 98.8906 576.323 99.0384C576.594 99.183 576.804 99.3523 576.955 99.5462C577.109 99.7401 577.228 99.9109 577.311 100.059H577.412V98.9091H578.765V106.157C578.765 106.766 578.623 107.266 578.34 107.657C578.057 108.048 577.674 108.337 577.191 108.525C576.71 108.713 576.169 108.807 575.566 108.807ZM575.552 104.749C575.949 104.749 576.284 104.657 576.558 104.472C576.835 104.284 577.044 104.016 577.186 103.669C577.331 103.318 577.403 102.898 577.403 102.408C577.403 101.931 577.332 101.511 577.191 101.148C577.049 100.785 576.841 100.502 576.567 100.299C576.293 100.092 575.955 99.9893 575.552 99.9893C575.136 99.9893 574.79 100.097 574.513 100.312C574.236 100.525 574.027 100.814 573.885 101.18C573.747 101.547 573.677 101.956 573.677 102.408C573.677 102.873 573.748 103.281 573.89 103.632C574.031 103.983 574.241 104.257 574.518 104.453C574.798 104.65 575.142 104.749 575.552 104.749Z" fill="#FFB255"/><path d="M549 17L569 28.547V5.45299L549 17ZM567 19H649V15H567V19Z" fill="#fff"/><path d="M633 86L613 74.453L613 97.547L633 86ZM533 88L615 88L615 84L533 84L533 88Z" fill="#FFB255"/><path d="M323 61L303 49.453L303 72.547L323 61ZM223 63L305 63L305 59L223 59L223 63Z" fill="#FFB255"/></svg>