<svg xmlns="http://www.w3.org/2000/svg" width="95" height="90" fill="none"><g clip-path="url(#a)"><path fill="#7CBFE7" d="M57.094 16.974c5.178-.628 9.492-2.981 13.885-5.256 3.295-1.647 6.511-3.295 9.885-4.864 2.04-.941 4.157-1.49 6.432-1.333 4.08.314 6.747 2.98 6.747 7.138 0 5.57-2.668 9.806-7.374 12.63-5.178 3.138-10.59 3.138-16.082.785-4.393-1.883-8.159-4.785-11.846-7.766-.47-.314-1.02-.785-1.647-1.334Z"/><path fill="#fff" fill-rule="evenodd" d="M67.214 40.587c8.864.784 16.081-2.275 21.494-9.728-.392.157-.549.236-.706.314-5.02 1.883-10.12 2.275-15.297 1.098-5.177-1.176-9.649-3.687-13.885-6.59-6.119-4.157-11.61-9.099-17.102-14.041-3.608-3.216-7.374-6.198-11.688-8.472C25.95.97 21.636-.206 16.93.03 7.985.579.768 7.639.062 16.582c-.47 6.276 1.726 11.689 5.57 16.552l.706.706c.157-2.98.863-5.648 2.667-7.923 3.844-4.864 8.864-6.04 14.67-4.864 3.844.706 7.217 2.668 10.512 4.629.832.505 1.665 1.011 2.498 1.519 4.349 2.645 8.715 5.302 13.19 7.738 5.414 2.98 11.14 5.099 17.338 5.648ZM53.642 50.942a50.64 50.64 0 0 0 15.847-4.707c-.59-.076-1.18-.148-1.77-.22-1.838-.222-3.665-.443-5.447-.8-6.355-1.177-12.081-3.844-17.572-6.982-3.452-1.987-6.834-4.044-10.216-6.101a984.482 984.482 0 0 0-5.082-3.077c-2.432-1.412-4.942-2.51-7.766-2.981-4.628-.706-8.55 1.412-9.727 5.413-.942 3.138.078 5.883 1.96 8.394 1.57 2.04 3.61 3.451 5.806 4.706 10.669 5.806 21.965 7.924 33.967 6.355ZM37.112 77.923c.105 0 .225-.016.354-.033.15-.02.31-.041.47-.041.15 0 .3-.019.45-.037.15-.02.3-.038.45-.038h1.722c1.05 0 1.948.15 2.697.448.75.298 1.348.67 1.798 1.267.45.522.824 1.193 1.049 1.864.225.745.3 1.565.3 2.385 0 .82-.075 1.565-.3 2.31-.225.746-.525 1.417-1.049 2.014-.45.596-1.124 1.043-1.873 1.416-.749.373-1.723.522-2.846.522h-.75c-.3 0-.599 0-.899-.075-.3 0-.599 0-.898-.074-.3 0-.525 0-.675-.075V77.923Zm3.671 1.939h-.75c-.224 0-.449 0-.598.074v7.902h1.198c.674 0 1.199-.15 1.648-.373.45-.223.75-.522 1.049-.894.3-.373.45-.82.524-1.342.075-.522.15-1.044.15-1.566 0-.39-.057-.78-.121-1.22v-.002l-.029-.194c-.075-.522-.224-.894-.524-1.267-.225-.373-.6-.671-.974-.895-.374-.149-.899-.223-1.573-.223Zm-8.915-1.938h-2.322v11.852h2.323V77.924ZM21.756 80.01H25.276v-2.087h-9.289v2.087h3.446v9.766h2.322v-9.766Zm36.407-2.087h-7.041V89.85h7.116v-2.087h-4.794v-2.908h4.27V82.77h-4.27v-2.758h4.72v-2.087Zm4.795 0h7.041v2.087H65.28v2.907h4.345v2.087h-4.345v4.771h-2.322V77.924Zm14.158 0h-2.322v11.852h2.322V77.924Z" clip-rule="evenodd"/></g><defs><clipPath id="a"><path fill="#fff" d="M0 0h95v90H0z"/></clipPath></defs></svg>