<?xml version="1.0" encoding="UTF-8"?><svg width="400" height="400" viewBox="0 0 400 400" xmlns="http://www.w3.org/2000/svg"><g fill="none" fillRule="evenodd"><path fill="#FFF" d="M0 0h400v400H0z"/><path fill="#000" d="M0 0h400v400H0z"/><path d="m89.542 82 47.061.383a14.927 14.927 0 0 1 11.677 5.78L316.417 304.95c3.81 4.909.31 12.051-5.895 12.051h-49.27a14.938 14.938 0 0 1-11.87-5.87l-46.892-64.218-51.899 64.418a14.935 14.935 0 0 1-11.714 5.67H89.48c-6.24 0-9.727-7.207-5.857-12.106L165.95 200.56l-82.4-106.55c-3.77-4.94-.218-12.058 5.994-12.006L89.542 82Zm220.89 0c6.293-.048 9.84 7.188 5.937 12.108L242.653 187c-5.259-4.126-46.065-38.197-6.697-83.815 0 0 2.943-3.433 6.043-7.059l.736-.86c2.699-3.158 5.35-6.268 6.13-7.209 3.893-4.698 7.098-5.636 11.638-5.67l49.93-.387Z" fill="#FFF"/></g></svg>