<svg width="796" height="330" xmlns="http://www.w3.org/2000/svg">
  <path d="m280.794 183.989-4.743 13.491h-.395c-.79-3.042-2.24-7.672-4.61-13.227l-25.428-64.15h-24.9v102.244h16.468v-63.093l-.131-14.02c-.132-2.778-.396-4.894-.527-6.482h.395c.79 3.968 1.713 6.878 2.371 8.73l30.565 74.6h11.594l30.302-75.261c.658-1.72 1.317-5.159 1.976-8.069h.395l-.79 18.386v64.812h17.522V119.838H306.88l-26.086 64.15Zm66.664-35.316h17.127v73.277h-17.127v-73.277Zm8.695-30.952c-2.899 0-5.27 1.059-7.246 2.91-1.976 1.852-3.03 4.233-3.03 7.143a9.316 9.316 0 0 0 3.03 7.01c1.976 1.852 4.347 2.778 7.246 2.778 2.898 0 5.401-1.058 7.246-2.778a9.316 9.316 0 0 0 3.03-7.01c0-2.778-1.054-5.159-3.03-7.143-1.713-1.851-4.216-2.91-7.246-2.91m69.166 30.29c-3.162-.661-6.455-1.058-9.617-1.058-7.773 0-14.887 1.72-20.816 5.159-5.928 3.439-10.671 8.2-13.701 14.152-3.162 6.085-4.743 13.095-4.743 21.164 0 7.01 1.58 13.227 4.61 18.914 3.03 5.555 7.247 10.053 12.912 13.095 5.401 3.042 11.725 4.63 18.84 4.63 8.168 0 15.15-1.72 20.684-4.895l.131-.132v-15.872l-.658.529c-2.504 1.852-5.402 3.439-8.3 4.365-3.03 1.058-5.797 1.587-8.169 1.587-6.85 0-12.252-1.984-16.073-6.35-3.952-4.232-5.928-10.052-5.928-17.326 0-7.54 1.976-13.492 6.06-17.857 4.084-4.365 9.486-6.613 16.073-6.613 5.533 0 11.199 1.851 16.337 5.555l.658.53v-16.8l-.131-.131c-2.24-.926-4.743-1.984-8.169-2.646m56.52-.529c-4.217 0-8.169 1.323-11.594 4.1-2.899 2.381-4.875 5.82-6.588 9.92h-.131v-12.83h-17.127v73.278h17.127v-37.432c0-6.35 1.317-11.64 4.215-15.476 2.899-3.968 6.588-5.952 11.067-5.952 1.581 0 3.162.397 5.138.661 1.845.53 3.162 1.058 4.084 1.72l.66.529v-17.195l-.396-.132c-1.186-.794-3.557-1.19-6.456-1.19m46.638-.398c-11.989 0-21.606 3.572-28.325 10.582-6.85 7.01-10.144 16.666-10.144 28.835 0 11.375 3.425 20.634 10.012 27.38 6.587 6.613 15.546 10.052 26.745 10.052 11.725 0 21.079-3.571 27.798-10.714 6.85-7.142 10.144-16.666 10.144-28.438 0-11.64-3.162-20.898-9.617-27.644-6.192-6.746-15.283-10.053-26.613-10.053m13.702 56.347c-3.162 4.1-8.168 6.085-14.36 6.085-6.193 0-11.199-1.984-14.756-6.35-3.557-4.1-5.27-10.052-5.27-17.591 0-7.804 1.845-13.756 5.27-17.989 3.557-4.233 8.432-6.349 14.624-6.349 6.06 0 10.803 1.984 14.228 6.085 3.426 4.1 5.27 10.052 5.27 17.856-.263 7.936-1.713 14.153-5.006 18.253m60.735-24.337c-5.402-2.249-8.827-3.969-10.408-5.423-1.318-1.323-1.976-3.175-1.976-5.556 0-1.984.79-3.968 2.766-5.29 1.976-1.323 4.216-1.985 7.51-1.985 2.898 0 5.928.53 8.827 1.323 2.898.794 5.533 1.984 7.64 3.571l.66.53v-16.138l-.396-.132c-1.976-.793-4.61-1.587-7.773-2.248-3.162-.53-6.06-.794-8.431-.794-8.169 0-14.888 1.984-20.157 6.349-5.27 4.1-7.773 9.656-7.773 16.137 0 3.439.527 6.481 1.712 8.994 1.186 2.513 2.899 4.894 5.27 6.878 2.372 1.852 5.797 3.968 10.54 5.952 3.952 1.72 6.982 3.043 8.827 4.1 1.844 1.059 3.03 2.25 3.952 3.175.659 1.058 1.054 2.381 1.054 4.1 0 4.895-3.689 7.275-11.198 7.275-2.899 0-5.929-.529-9.486-1.72-3.557-1.19-6.85-2.909-9.617-4.893l-.66-.53v16.8l.396.131c2.503 1.19 5.533 1.984 9.222 2.91 3.69.662 6.983 1.19 9.881 1.19 8.827 0 16.073-1.983 21.211-6.348 5.27-4.233 8.037-9.656 8.037-16.666 0-4.894-1.318-9.26-4.216-12.566-3.82-3.174-8.564-6.481-15.414-9.126m64.819-32.01c-11.99 0-21.607 3.572-28.326 10.582-6.719 7.01-10.144 16.666-10.144 28.835 0 11.375 3.425 20.634 10.012 27.38 6.588 6.613 15.546 10.052 26.745 10.052 11.725 0 21.08-3.571 27.798-10.714 6.85-7.142 10.145-16.666 10.145-28.438 0-11.64-3.162-20.898-9.618-27.644-6.192-6.746-15.282-10.053-26.612-10.053m13.57 56.347c-3.163 4.1-8.169 6.085-14.361 6.085-6.324 0-11.198-1.984-14.755-6.35-3.558-4.1-5.27-10.052-5.27-17.591 0-7.804 1.844-13.756 5.27-17.989 3.557-4.233 8.431-6.349 14.623-6.349 5.929 0 10.803 1.984 14.229 6.085 3.425 4.1 5.27 10.052 5.27 17.856 0 7.936-1.713 14.153-5.007 18.253m114.224-40.607v-14.152h-17.259V126.98l-.527.133-16.336 4.894-.396.132v16.534h-25.822v-9.26c0-4.232 1.054-7.539 2.899-9.655 1.844-2.116 4.61-3.175 8.036-3.175 2.372 0 4.875.53 7.641 1.72l.66.397v-14.947l-.396-.132c-2.371-.794-5.533-1.323-9.617-1.323-5.139 0-9.618 1.19-13.702 3.175-4.084 2.248-7.114 5.29-9.354 9.391-2.24 3.968-3.425 8.465-3.425 13.624v10.185h-11.99v14.02h11.99v59.257h17.258v-59.125h25.822v37.697c0 15.476 7.246 23.28 21.739 23.28 2.37 0 4.874-.397 7.246-.794 2.503-.529 4.347-1.19 5.401-1.72l.132-.132v-14.153l-.659.53c-1.054.66-1.976 1.19-3.557 1.587a12.005 12.005 0 0 1-3.425.529c-3.426 0-5.797-.794-7.51-2.778-1.58-1.852-2.371-4.894-2.371-9.39v-34.656h17.522ZM0 86h80.773v80.773H0zm89.227 0H170v80.773H89.227zM0 175.227h80.773V256H0zm89.227 0H170V256H89.227z" fill="#FFF"/>
</svg>
