<svg width="335" height="330" xmlns="http://www.w3.org/2000/svg">
  <g fill="#FFF" fill-rule="evenodd">
    <path d="M94.251 137.672c0 4.115.445 7.453 1.224 9.9.89 2.447 2.002 5.116 3.56 8.009.556.89.778 1.78.778 2.558 0 1.112-.667 2.225-2.113 3.337l-7.008 4.672c-1.001.667-2.002 1.001-2.892 1.001-1.113 0-2.225-.556-3.337-1.557a34.412 34.412 0 0 1-4.005-5.228c-1.112-1.891-2.224-4.005-3.448-6.563-8.676 10.233-19.577 15.35-32.703 15.35-9.344 0-16.796-2.67-22.247-8.009-5.45-5.339-8.231-12.458-8.231-21.357 0-9.455 3.337-17.13 10.122-22.914 6.785-5.784 15.795-8.676 27.253-8.676 3.782 0 7.675.333 11.79.89 4.116.556 8.343 1.446 12.792 2.447v-8.12c0-8.454-1.78-14.35-5.228-17.798-3.56-3.448-9.566-5.117-18.13-5.117a50.61 50.61 0 0 0-12.014 1.446c-4.116 1.001-8.12 2.225-12.014 3.782-1.78.779-3.114 1.224-3.893 1.446-.778.223-1.335.334-1.78.334-1.557 0-2.335-1.112-2.335-3.448v-5.45c0-1.78.222-3.115.778-3.894.556-.779 1.557-1.557 3.115-2.336 3.893-2.002 8.565-3.67 14.015-5.006 5.45-1.446 11.235-2.113 17.353-2.113 13.237 0 22.914 3.003 29.143 9.01 6.118 6.007 9.233 15.128 9.233 27.364v36.04h.222Zm-45.16 16.907c3.67 0 7.452-.667 11.456-2.002 4.005-1.335 7.564-3.782 10.568-7.119 1.78-2.113 3.114-4.45 3.782-7.119.667-2.67 1.112-5.895 1.112-9.677v-4.672a92.894 92.894 0 0 0-10.234-1.891 83.817 83.817 0 0 0-10.456-.667c-7.452 0-12.903 1.446-16.574 4.449-3.67 3.003-5.45 7.23-5.45 12.792 0 5.228 1.335 9.121 4.115 11.79 2.67 2.782 6.563 4.116 11.68 4.116Zm89.32 12.014c-2.002 0-3.336-.334-4.226-1.113-.89-.667-1.669-2.224-2.336-4.338l-26.14-85.984c-.668-2.225-1.002-3.67-1.002-4.45 0-1.78.89-2.78 2.67-2.78h10.901c2.114 0 3.56.333 4.338 1.112.89.667 1.558 2.225 2.225 4.338l18.687 73.637 17.353-73.637c.556-2.225 1.224-3.67 2.113-4.338.89-.667 2.448-1.112 4.45-1.112h8.899c2.113 0 3.56.333 4.449 1.112.89.667 1.669 2.225 2.113 4.338l17.576 74.527 19.243-74.527c.668-2.225 1.446-3.67 2.225-4.338.89-.667 2.336-1.112 4.338-1.112h10.345c1.78 0 2.78.89 2.78 2.78 0 .557-.11 1.113-.222 1.78-.111.668-.333 1.558-.778 2.781l-26.808 85.985c-.667 2.224-1.446 3.67-2.336 4.338-.89.667-2.336 1.112-4.227 1.112h-9.566c-2.113 0-3.56-.334-4.45-1.112-.89-.779-1.668-2.225-2.113-4.45l-17.241-71.746-17.13 71.635c-.557 2.225-1.224 3.67-2.114 4.45-.89.778-2.447 1.112-4.45 1.112h-9.565Zm142.937 3.003c-5.784 0-11.568-.667-17.13-2.002-5.562-1.335-9.9-2.78-12.792-4.45-1.78-1-3.003-2.113-3.448-3.114a7.851 7.851 0 0 1-.668-3.115v-5.673c0-2.336.89-3.448 2.559-3.448.667 0 1.335.111 2.002.334.667.222 1.669.667 2.78 1.112a60.505 60.505 0 0 0 12.237 3.893c4.45.89 8.787 1.335 13.237 1.335 7.007 0 12.458-1.223 16.24-3.67 3.782-2.448 5.784-6.007 5.784-10.568 0-3.114-1.001-5.673-3.003-7.786-2.002-2.114-5.784-4.005-11.235-5.784l-16.129-5.006c-8.12-2.558-14.127-6.34-17.798-11.346-3.67-4.894-5.561-10.345-5.561-16.129 0-4.672 1-8.788 3.003-12.347 2.002-3.56 4.672-6.674 8.009-9.121 3.337-2.559 7.119-4.45 11.568-5.784 4.45-1.335 9.122-1.891 14.016-1.891 2.447 0 5.005.11 7.453.444 2.558.334 4.894.78 7.23 1.224 2.225.556 4.338 1.112 6.34 1.78 2.003.667 3.56 1.335 4.672 2.002 1.557.89 2.67 1.78 3.337 2.78.668.89 1.001 2.114 1.001 3.672v5.228c0 2.336-.89 3.56-2.558 3.56-.89 0-2.336-.446-4.227-1.336-6.34-2.892-13.46-4.338-21.357-4.338-6.34 0-11.346 1.001-14.794 3.115-3.449 2.113-5.228 5.339-5.228 9.9 0 3.114 1.112 5.784 3.337 7.897 2.224 2.114 6.34 4.227 12.236 6.118l15.795 5.006c8.009 2.558 13.793 6.118 17.241 10.678 3.449 4.561 5.117 9.789 5.117 15.573 0 4.783-1.001 9.121-2.892 12.903-2.002 3.782-4.672 7.12-8.12 9.79-3.448 2.78-7.564 4.782-12.347 6.228-5.006 1.557-10.234 2.336-15.907 2.336Z" fill-rule="nonzero"/>
    <path d="M302.372 223.656c-36.597 27.03-89.767 41.38-135.484 41.38-64.072 0-121.802-23.693-165.406-63.07-3.449-3.115-.334-7.342 3.782-4.895 47.163 27.364 105.339 43.938 165.517 43.938 40.6 0 85.206-8.454 126.251-25.807 6.118-2.78 11.346 4.005 5.34 8.454Z"/>
    <path d="M317.61 206.304c-4.671-6.007-30.923-2.893-42.825-1.446-3.56.444-4.115-2.67-.89-5.006 20.913-14.683 55.284-10.456 59.289-5.562 4.004 5.006-1.113 39.377-20.69 55.84-3.003 2.558-5.896 1.224-4.56-2.113 4.449-11.013 14.349-35.818 9.677-41.713Z"/>
  </g>
</svg>
