<svg width="179" height="124" viewBox="0 0 179 124" fill="none" xmlns="http://www.w3.org/2000/svg">
<path d="M15.1681 124C10.3686 124 6.63657 122.559 3.97201 119.677C1.324 116.794 0 112.045 0 105.429C0 98.9108 1.34055 94.1697 4.02166 91.2055C6.70277 88.2413 10.5507 86.7592 15.5653 86.7592C18.2464 86.7592 20.8944 87.1441 23.5093 87.9138V89.5842C20.9606 88.7818 18.2712 88.3805 15.4412 88.3805C12.4622 88.3805 9.9714 88.9373 7.96884 90.051C5.96629 91.1482 4.43541 92.9415 3.37621 95.4307C2.31701 97.92 1.7874 101.22 1.7874 105.33C1.7874 109.556 2.32528 112.929 3.40103 115.451C4.47679 117.957 5.99111 119.742 7.94402 120.807C9.91347 121.855 12.3215 122.379 15.1681 122.379C16.608 122.379 17.9733 122.264 19.2642 122.035C20.5717 121.806 21.9867 121.429 23.5093 120.905V122.575C20.8944 123.525 18.114 124 15.1681 124Z" fill="white"/>
<path d="M45.3736 111.03H27.6733C27.7561 115.058 28.6167 117.957 30.2551 119.726C31.9102 121.494 34.3265 122.379 37.5041 122.379C39.3908 122.379 41.6002 121.977 44.1324 121.175V122.845C41.8153 123.615 39.5728 124 37.4048 124C33.6314 124 30.7682 122.911 28.8153 120.733C26.8624 118.538 25.8859 115.058 25.8859 110.293C25.8859 105.642 26.7631 102.203 28.5174 99.9753C30.2717 97.748 32.6963 96.6344 35.7911 96.6344C42.1795 96.6344 45.3736 101.187 45.3736 110.293V111.03ZM35.7911 98.2557C33.259 98.2557 31.2895 99.1319 29.8828 100.884C28.476 102.637 27.7395 105.478 27.6733 109.408H43.611C43.5448 105.461 42.8497 102.62 41.5257 100.884C40.2017 99.1319 38.2902 98.2557 35.7911 98.2557Z" fill="white"/>
<path d="M51.8623 97.0275H53.3518L53.5007 100.196H53.6993C54.8578 99.05 56.1901 98.1738 57.6961 97.5679C59.2022 96.9456 60.7827 96.6344 62.4377 96.6344C67.982 96.6344 70.7541 99.5659 70.7541 105.429V123.558H69.066V105.429C69.066 102.874 68.4868 101.04 67.3283 99.9261C66.1863 98.8125 64.5396 98.2557 62.3881 98.2557C60.8158 98.2557 59.227 98.6078 57.6217 99.312C56.0163 99.9998 54.6592 101.097 53.5504 102.604V123.558H51.8623V97.0275Z" fill="white"/>
<path d="M88.2034 122.379C89.2295 122.379 90.4046 122.223 91.7286 121.912V123.582C90.5039 123.861 89.2957 124 88.1041 124C82.8909 124 80.2842 121.314 80.2842 115.943V98.5996H74.8227V97.0275H80.2842L80.4828 87.2014H81.9723V97.0275H91.1824V98.5996H81.9723V115.648C81.9723 118.039 82.4854 119.758 83.5115 120.807C84.5541 121.855 86.1181 122.379 88.2034 122.379Z" fill="white"/>
<path d="M113.739 111.03H96.0392C96.122 115.058 96.9826 117.957 98.621 119.726C100.276 121.494 102.692 122.379 105.87 122.379C107.757 122.379 109.966 121.977 112.498 121.175V122.845C110.181 123.615 107.939 124 105.771 124C101.997 124 99.1341 122.911 97.1812 120.733C95.2283 118.538 94.2518 115.058 94.2518 110.293C94.2518 105.642 95.129 102.203 96.8833 99.9753C98.6376 97.748 101.062 96.6344 104.157 96.6344C110.545 96.6344 113.739 101.187 113.739 110.293V111.03ZM104.157 98.2557C101.625 98.2557 99.6554 99.1319 98.2487 100.884C96.8419 102.637 96.1054 105.478 96.0392 109.408H111.977C111.911 105.461 111.216 102.62 109.892 100.884C108.568 99.1319 106.656 98.2557 104.157 98.2557Z" fill="white"/>
<path d="M120.228 97.0275H121.718L121.867 100.639H122.065C123.058 99.443 124.291 98.5096 125.764 97.8381C127.254 97.1667 128.768 96.8309 130.307 96.8309C131.068 96.8309 131.764 96.8883 132.392 97.0029V98.6733C131.813 98.5914 131.11 98.5505 130.282 98.5505C128.76 98.5505 127.221 98.9354 125.665 99.7051C124.126 100.475 122.876 101.58 121.916 103.021V123.558H120.228V97.0275Z" fill="white"/>
<path d="M153.983 111.03H136.283C136.366 115.058 137.226 117.957 138.865 119.726C140.52 121.494 142.936 122.379 146.114 122.379C148 122.379 150.21 121.977 152.742 121.175V122.845C150.425 123.615 148.182 124 146.014 124C142.241 124 139.378 122.911 137.425 120.733C135.472 118.538 134.496 115.058 134.496 110.293C134.496 105.642 135.373 102.203 137.127 99.9753C138.881 97.748 141.306 96.6344 144.401 96.6344C150.789 96.6344 153.983 101.187 153.983 110.293V111.03ZM144.401 98.2557C141.869 98.2557 139.899 99.1319 138.492 100.884C137.086 102.637 136.349 105.478 136.283 109.408H152.221C152.154 105.461 151.459 102.62 150.135 100.884C148.811 99.1319 146.9 98.2557 144.401 98.2557Z" fill="white"/>
<path d="M169.235 124C166.091 124 163.583 122.952 161.713 120.856C159.86 118.759 158.933 115.419 158.933 110.833C158.933 106.018 160.017 102.448 162.185 100.123C164.353 97.7972 167.564 96.6344 171.817 96.6344C173.439 96.6344 175.144 96.7818 176.931 97.0766V83.8605H178.619V123.558H177.13L176.981 120.635H176.782C175.921 121.666 174.837 122.485 173.53 123.091C172.222 123.697 170.791 124 169.235 124ZM169.31 122.379C170.816 122.379 172.239 122.035 173.579 121.347C174.937 120.659 176.054 119.619 176.931 118.227V98.8207C176.236 98.6406 175.417 98.5014 174.473 98.4031C173.546 98.3048 172.636 98.2557 171.742 98.2557C168.035 98.2557 165.271 99.2465 163.451 101.228C161.63 103.193 160.72 106.329 160.72 110.637C160.72 114.911 161.465 117.941 162.954 119.726C164.46 121.494 166.579 122.379 169.31 122.379Z" fill="white"/>
<g clip-path="url(#clip0_1_138)">
<path opacity="0.2" d="M119.3 52.7824C107.258 64.6965 87.8141 64.7724 87.8141 64.7724C87.8141 64.7724 87.8141 45.5353 99.8947 33.6212C111.975 21.7071 131.381 21.6692 131.381 21.6692C131.381 21.6692 131.304 40.9063 119.3 52.7824Z" fill="white"/>
<path opacity="0.3" d="M109.022 38.8194C104.612 55.097 87.8142 64.7724 87.8142 64.7724C87.8142 64.7724 78.1497 48.0775 82.5601 31.8C86.9705 15.5225 103.615 6.03674 103.615 6.03674C103.615 6.03674 113.433 22.5799 109.022 38.8194Z" fill="white"/>
<path opacity="0.5" d="M93.1066 31.8C97.5169 48.0775 87.8141 64.7724 87.8141 64.7724C87.8141 64.7724 71.0164 55.097 66.606 38.8194C62.1956 22.5419 71.8984 6.03674 71.8984 6.03674C71.8984 6.03674 88.6962 15.5604 93.1066 31.8Z" fill="white"/>
<path opacity="0.8" d="M75.7336 33.6212C87.7758 45.5353 87.8141 64.7724 87.8141 64.7724C87.8141 64.7724 68.3702 64.7724 56.3663 52.7824C44.3624 40.7924 44.2857 21.6692 44.2857 21.6692C44.2857 21.6692 63.7297 21.7451 75.7336 33.6212Z" fill="white"/>
</g>
<defs>
<clipPath id="clip0_1_138">
<rect width="87.0952" height="58.8495" fill="white" transform="translate(44.2857 5.88495)"/>
</clipPath>
</defs>
</svg>