<svg width="733" height="330" xmlns="http://www.w3.org/2000/svg">
  <path d="M262.766 212.608V174.32H229.09v38.29h-17.144v-90.79h17.144v37.343h33.676V121.82h17.144v90.788m62.85 0h-13.606l-1.235-4.49a36.282 36.282 0 0 1-19.768 5.867c-12.14 0-17.318-8.318-17.318-19.768 0-13.497 5.867-18.669 19.299-18.669h15.954v-6.96c0-7.353-2.04-9.946-12.673-9.946a92.763 92.763 0 0 0-18.399 1.975l-2.039-12.673a86.476 86.476 0 0 1 22.773-3.139c20.843 0 26.986 7.353 26.986 23.995l.026 43.808Zm-16.63-25.088h-12.26c-5.456 0-6.948 1.492-6.948 6.549 0 4.631 1.492 6.69 6.69 6.69 4.4-.07 8.71-1.249 12.531-3.429l-.012-9.81Zm48.814 26.375a78.932 78.932 0 0 1-22.902-3.821l2.316-12.673a74.3 74.3 0 0 0 19.769 2.862c7.353 0 8.453-1.717 8.453-6.69 0-4.078-.824-6.137-11.593-8.73-16.21-3.962-18.121-8.04-18.121-20.842 0-13.355 5.867-19.222 24.812-19.222 6.703.007 13.38.785 19.903 2.316l-1.653 13.278a116.758 116.758 0 0 0-18.257-1.904c-7.217 0-8.453 1.717-8.453 5.79 0 5.313.412 5.789 9.412 8.04 18.655 4.922 20.366 7.373 20.366 20.933 0 12.879-3.962 20.779-23.994 20.779l-.058-.116Zm73.464-1.287v-46.291c0-3.551-1.493-5.314-5.314-5.314-4.078 0-11.322 2.445-17.317 5.597v46.021h-16.63v-93.47l16.63-2.316v34.48a58.75 58.75 0 0 1 24.252-6.413c11.039 0 14.989 7.764 14.989 19.633v48.118l-16.61-.045Zm28.948-75.78v-19.17h16.63v19.222l-16.63-.052Zm0 75.78V146.35h16.63v66.388l-16.63-.129Zm28.221-65.84c0-16.63 9.67-26.299 32.294-26.299a102.863 102.863 0 0 1 24.67 2.998l-1.93 14.905a133.805 133.805 0 0 0-22.29-2.316c-11.862 0-15.67 4.098-15.67 13.715v34.893c0 9.668 3.82 13.715 15.67 13.715a133.805 133.805 0 0 0 22.29-2.316l1.904 14.796c-8.073 1.93-16.359 2.997-24.67 2.997-22.631 0-32.293-9.668-32.293-26.298l.025-40.79Zm91.09 67.191c-22.772 0-28.947-12.531-28.947-26.163v-16.77c0-13.638 6.137-26.163 28.948-26.163 22.81 0 28.948 12.531 28.948 26.163v16.77c-.052 13.638-6.176 26.163-28.948 26.163Zm0-54.873c-8.864 0-12.26 3.963-12.26 11.45v17.8c0 7.495 3.428 11.451 12.26 11.451 8.833 0 12.262-3.962 12.262-11.45v-17.8c-.032-7.495-3.448-11.45-12.261-11.45Zm73.015 1.03a130.507 130.507 0 0 0-17.595 9.668v42.863h-16.629V146.22h14.043l1.094 7.353a74.107 74.107 0 0 1 17.453-8.73l1.634 15.273Zm63.062 30.395c0 14.796-6.55 23.435-21.95 23.435-5.956-.064-11.9-.643-17.729-1.93v27.43l-16.629 2.316V146.22h13.22l1.717 5.597a34.932 34.932 0 0 1 20.985-6.941c13.354 0 20.437 7.912 20.437 23.043l-.051 22.592Zm-39.66 7.495a74.172 74.172 0 0 0 14.732 1.717c6.002 0 8.318-2.863 8.318-8.864V167.32c0-5.455-2.04-8.452-8.17-8.452a23.416 23.416 0 0 0-14.86 6.001l-.02 33.137ZM78.74 65.455 0 110.87v109.084l29.592 17.08V127.898L78.739 99.51m31.348-34.12v86.876H78.668v-32.422l-29.591 17.08v111.309l29.591 17.111V178.72h31.419v32.196l29.591-17.06V82.406M110.087 265.39l78.739-45.417V110.871l-29.592-17.08v109.104l-49.147 28.388" fill="#FFF"/>
</svg>
