<svg viewBox="0 0 498 115.36" xmlns="http://www.w3.org/2000/svg" xmlns:xlink="http://www.w3.org/1999/xlink"><clipPath id="a" transform="translate(.42 7.22)"><path d="m90.05 45a44.82 44.82 0 0 1 -5 20.71c-7.53 11.58 5.65 21.32 5.65 21.32s-26.24-1-32 .87a45 45 0 1 1 31.35-42.9z"/></clipPath><linearGradient id="b"><stop offset="0" stop-color="#4b97b5"/><stop offset=".36" stop-color="#4fbbdc"/><stop offset="1" stop-color="#72d0f6"/></linearGradient><linearGradient id="c" gradientUnits="userSpaceOnUse" x1="81.58" x2="-.18" xlink:href="#b" y1="72.62" y2="72.62"/><linearGradient id="d" gradientUnits="userSpaceOnUse" x1="20.17" x2="-9.3" y1="75.8" y2="24.77"><stop offset="0" stop-color="#4b97b5"/><stop offset=".32" stop-color="#4fbbdc"/><stop offset="1" stop-color="#72d0f6"/></linearGradient><linearGradient id="e" gradientUnits="userSpaceOnUse" x1="8.22" x2="52.31" xlink:href="#b" y1="50.86" y2="-1.69"/><linearGradient id="f" gradientUnits="userSpaceOnUse" x1="59.59" x2="72.15" y1="11.96" y2="76.6"><stop offset="0" stop-color="#4b97b5"/><stop offset=".45" stop-color="#4fbbdc"/><stop offset="1" stop-color="#72d0f6"/></linearGradient><linearGradient id="g" x1="103.93" x2="71.38" xlink:href="#f" y1="65.33" y2="115.45"/><linearGradient id="h" x1="43.23" x2="67.67" xlink:href="#f" y1="-5.35" y2="33.77"/><g fill="#fff" transform="translate(.42 7.22)"><path d="m114.18 31a1.14 1.14 0 0 1 -.05-.35 1 1 0 0 1 .16-.5.86.86 0 0 1 .75-.32h4.43a.84.84 0 0 1 .53.17 1 1 0 0 1 .33.46l5 19.14h.18l7.62-19.77a.76.76 0 0 1 .82-.51h.86a.76.76 0 0 1 .82.51l7.69 19.77h.18l4.9-19.14a.92.92 0 0 1 .32-.46.79.79 0 0 1 .52-.21h4.43a.86.86 0 0 1 .77.32.67.67 0 0 1 .14.5 1.5 1.5 0 0 1 0 .35l-9.07 32.23a.81.81 0 0 1 -.33.47.93.93 0 0 1 -.54.19h-.77a.76.76 0 0 1 -.82-.52l-8.57-21.74h-.26l-8.52 21.77a.86.86 0 0 1 -.82.52h-.77a.93.93 0 0 1 -.54-.19.85.85 0 0 1 -.33-.47z"/><path d="m164.93 62.49v-31.76a.9.9 0 0 1 .26-.64.87.87 0 0 1 .66-.27h19.53a.87.87 0 0 1 .66.27.9.9 0 0 1 .26.64v3.94a.9.9 0 0 1 -.26.64.87.87 0 0 1 -.66.27h-14.19v7.92h11.81a.9.9 0 0 1 .63.27.87.87 0 0 1 .28.63v4a.85.85 0 0 1 -.27.65.9.9 0 0 1 -.64.26h-11.81v8.38h14.19a.87.87 0 0 1 .66.27.92.92 0 0 1 .26.65v3.93a.92.92 0 0 1 -.26.65.87.87 0 0 1 -.66.27h-19.53a.87.87 0 0 1 -.66-.27.92.92 0 0 1 -.26-.7z"/><path d="m197.93 62.49v-31.76a.9.9 0 0 1 .26-.64.86.86 0 0 1 .65-.27h10.89a10.36 10.36 0 0 1 7.14 2.56 8.14 8.14 0 0 1 2.9 6.34 7.38 7.38 0 0 1 -1.58 4.58 9.94 9.94 0 0 1 -3.5 3 9.09 9.09 0 0 1 2 1 10.83 10.83 0 0 1 1.9 1.57 7.15 7.15 0 0 1 1.5 2.32 7.54 7.54 0 0 1 .57 2.93 8.6 8.6 0 0 1 -3 6.68 10.63 10.63 0 0 1 -7.35 2.66h-11.47a.85.85 0 0 1 -.65-.27.92.92 0 0 1 -.26-.7zm6.26-18.55h5.11a3.83 3.83 0 0 0 3-1.25 4.34 4.34 0 0 0 1.16-3.06 3.9 3.9 0 0 0 -1.15-2.92 4.05 4.05 0 0 0 -3-1.13h-5.11zm0 13.7h5.81a4.29 4.29 0 0 0 4.32-4.34 3.68 3.68 0 0 0 -1.48-3 5.25 5.25 0 0 0 -3.4-1.2h-5.21z"/><path d="m232.32 62.49v-31.76a.94.94 0 0 1 .9-.91h4.44a.85.85 0 0 1 .63.28.84.84 0 0 1 .28.63v31.76a.84.84 0 0 1 -.28.63.86.86 0 0 1 -.63.29h-4.44a.88.88 0 0 1 -.63-.29.86.86 0 0 1 -.27-.63z"/><path d="m252.13 62.49v-32.28a.78.78 0 0 1 .28-.6.89.89 0 0 1 .64-.26h1.2l20 21.2v-19.82a.9.9 0 0 1 .26-.64.87.87 0 0 1 .66-.27h4.42a1 1 0 0 1 .92.91v32.27a.79.79 0 0 1 -.28.6 1 1 0 0 1 -.64.25h-1.14l-20-22h-.05v20.64a.88.88 0 0 1 -.26.65.87.87 0 0 1 -.66.27h-4.41a.88.88 0 0 1 -.64-.29.84.84 0 0 1 -.3-.63z"/><path d="m289.65 62.15 14.92-32.29a.86.86 0 0 1 .82-.51h.47a.86.86 0 0 1 .82.51l14.78 32.29a1.06 1.06 0 0 1 .09.42.67.67 0 0 1 -.14.45.82.82 0 0 1 -.77.39h-4.17a1.38 1.38 0 0 1 -.84-.23 1.93 1.93 0 0 1 -.56-.75l-2.35-5.28h-14.33l-2.39 5.28a1.38 1.38 0 0 1 -1.38 1h-4.17a.82.82 0 0 1 -.77-.39.75.75 0 0 1 -.14-.45 1.06 1.06 0 0 1 .11-.44zm11.08-10.15h9.65l-4.8-10.56h-.14z"/><path d="m330.59 62.49v-31.76a.9.9 0 0 1 .26-.64.87.87 0 0 1 .66-.27h13.74a10.11 10.11 0 0 1 7.39 3 9.89 9.89 0 0 1 3.06 7.31 9.49 9.49 0 0 1 -1.95 5.87 11.79 11.79 0 0 1 -5.17 3.89l6.6 12.11a.9.9 0 0 1 -.81 1.38h-5.05a.79.79 0 0 1 -.77-.42l-6.39-12.65h-5.31v12.19a1 1 0 0 1 -.92.91h-4.42a.87.87 0 0 1 -.66-.27.92.92 0 0 1 -.26-.65zm6.3-17.35h7.8a4.54 4.54 0 0 0 3.31-1.45 4.73 4.73 0 0 0 1.42-3.45 4.42 4.42 0 0 0 -1.42-3.24 4.63 4.63 0 0 0 -3.34-1.38h-7.8z"/><path d="m370.47 58.87a16.51 16.51 0 0 1 -5.06-12.21 17.29 17.29 0 0 1 17.31-17.32 17.42 17.42 0 0 1 11.61 4.47.85.85 0 0 1 .05 1.34l-1.38 1.34c-.35.39-.77.37-1.25 0a16 16 0 0 0 -4.34-2.71 12.12 12.12 0 0 0 -4.77-1 12.55 12.55 0 0 0 -9.48 4.06 13.6 13.6 0 0 0 -3.86 9.71 13.8 13.8 0 0 0 3.86 9.74 12.47 12.47 0 0 0 9.48 4.13 19.61 19.61 0 0 0 4.51-.51 13 13 0 0 0 3.11-1l1-.48v-6.82h-5.52a.91.91 0 0 1 -.64-.24.8.8 0 0 1 -.27-.63v-1.74a.81.81 0 0 1 .91-.92h8.3a.8.8 0 0 1 .6.27.88.88 0 0 1 .36.65v11a.91.91 0 0 1 -.39.77l-1.39.77a19.62 19.62 0 0 1 -4.41 1.6 23.32 23.32 0 0 1 -6 .8 16.78 16.78 0 0 1 -12.34-5.07z"/><path d="m407.77 62.5v-31.76a.89.89 0 0 1 .91-.91h18.9a.88.88 0 0 1 .65.26.91.91 0 0 1 .26.65v1.39a.89.89 0 0 1 -.91.91h-16.12v11.71h13.77a.89.89 0 0 1 .91.91v1.39a.89.89 0 0 1 -.91.91h-13.77v12.23h16.12a.9.9 0 0 1 .91.91v1.4a.9.9 0 0 1 -.91.91h-18.9a.88.88 0 0 1 -.65-.27.84.84 0 0 1 -.26-.64z"/><path d="m441 62.5v-31.76a.88.88 0 0 1 .27-.65.84.84 0 0 1 .64-.26h18.91a.84.84 0 0 1 .64.26.88.88 0 0 1 .27.65v1.39a.9.9 0 0 1 -.91.91h-16.16v11.71h13.77a.84.84 0 0 1 .64.26.86.86 0 0 1 .27.65v1.39a.9.9 0 0 1 -.91.91h-13.77v12.23h16.12a.92.92 0 0 1 .91.91v1.4a.92.92 0 0 1 -.91.91h-18.91a.92.92 0 0 1 -.91-.91z"/><path d="m474.16 62.26v-31.26a1.14 1.14 0 0 1 1.15-1.15h1.39a1.13 1.13 0 0 1 1.15 1.15v13.55l15-14.25a1.13 1.13 0 0 1 .91-.47h2.35a.85.85 0 0 1 .89.57 1 1 0 0 1 -.31 1.1l-15.19 14.16 15.88 16.26c.22.16.26.45.12.86a.89.89 0 0 1 -.93.63h-2.45a1 1 0 0 1 -.87-.34l-15.4-16.07v15.26a1.1 1.1 0 0 1 -.33.81 1.15 1.15 0 0 1 -.82.34h-1.39a1.11 1.11 0 0 1 -.81-.34 1.07 1.07 0 0 1 -.34-.81z"/></g><g clip-path="url(#a)"><path d="m-.18 73.24c8.27-.61 17.81-3 28.36-7 0 1.78.89 2.86 2.27 2.86a3.71 3.71 0 0 0 1.74-.5l38-20.26c1.08-.58 1.68-1.33 1.68-2.11a1.5 1.5 0 0 0 -.17-.65l9.86 6-16.69 34.23-18.46 13.89z" fill="url(#c)" transform="translate(.42 7.22)"/><path d="m71.87 45.72 9.57 5.86-16.62 34.17-18.41 13.86-46.35-26.32c8.2-.63 17.63-3 28.05-7 0 1.75.93 2.83 2.34 2.83a3.69 3.69 0 0 0 1.77-.51l38-20.26c1.13-.57 1.78-1.35 1.78-2.15a1.4 1.4 0 0 0 -.09-.48m-.33-.37a1.73 1.73 0 0 1 .27.85c0 .76-.58 1.48-1.63 2l-38 20.26a3.64 3.64 0 0 1 -1.7.48c-1.36 0-2.2-1.08-2.2-2.83v-.01c-9.4 3.63-19.34 6.44-28.67 7.08l46.84 26.6 18.45-13.94 16.68-34.32-10.08-6.17z" fill="#8bd7f7" transform="translate(.42 7.22)"/><path d="m32.58 68.53a5.36 5.36 0 0 1 -2.13.46c-1.36 0-2.2-1.08-2.2-2.83v-2.75a7.45 7.45 0 0 0 -1.25-.41l-27.18-43.49-.03 53.49c15.75 2.56 27.91-1.63 34.46-5.37z" fill="url(#d)" stroke="#8bd7f7" stroke-linecap="round" stroke-linejoin="round" stroke-width=".14" transform="translate(.42 7.22)"/><path d="m28.64 68c-17.01-15.41-28.81-35.33-28.78-48.65l46.07-26.35-15.93 30.47c-1.11.19-1.79 1.24-1.79 2.77v39.92a3.4 3.4 0 0 0 .43 1.84z" fill="url(#e)" transform="translate(.42 7.22)"/><path d="m45.76-6.86-15.83 30.23c-1.14.26-1.83 1.33-1.83 2.87v39.92a3.78 3.78 0 0 0 .29 1.52c-16.8-15.33-28.45-35.03-28.46-48.25zm.35-.36-46.32 26.57c0 12.33 10.46 32.29 29.33 49.18v-.07a2.93 2.93 0 0 1 -.87-2.3v-39.92c0-1.55.69-2.53 1.78-2.74z" fill="#8bd7f7" transform="translate(.42 7.22)"/><path d="m93 72.55c-4.36-12.22-11.35-21.13-21.41-27.23a3.31 3.31 0 0 0 -1.38-1.23l-38-20.26a3.71 3.71 0 0 0 -1.74-.5 1.65 1.65 0 0 0 -.32 0c12.4-10.08 31.61-11.51 31.8-11.53a27.66 27.66 0 0 1 4.54-.36c12.72 0 26.12 7.91 26.25 8z" fill="url(#f)" transform="translate(.42 7.22)"/><path d="m66.47 11.55c12.23 0 25.09 7.32 26.14 7.94l.28 52.64c-4.33-12-11.28-20.81-21.23-26.85a3.57 3.57 0 0 0 -1.41-1.28l-38-20.26a3.72 3.72 0 0 0 -1.77-.51h-.07c12.35-9.89 31.33-11.3 31.59-11.32a27.23 27.23 0 0 1 4.52-.36m0-.14a27.65 27.65 0 0 0 -4.55.36s-19.55 1.35-32.1 11.77a2.14 2.14 0 0 1 .63-.13 3.64 3.64 0 0 1 1.7.48l38 20.26a3.41 3.41 0 0 1 1.37 1.23c8.57 5.2 16.52 13.31 21.43 27.62l-.25-53.6s-13.39-8-26.28-8z" fill="#8bd7f7" transform="translate(.42 7.22)"/><path d="m46.56 99.33c30.37-34.73 27.79-48.92 25.27-53.41a2.46 2.46 0 0 0 -1.1-1.5 5.62 5.62 0 0 1 -.35-.44c11.34 5.6 16.88 13.15 19.52 18.51a28.68 28.68 0 0 1 3.1 10.51l39.1 22-23.1 13.06z" fill="url(#g)" transform="translate(.42 7.22)"/><path d="m70.62 44.18c11.14 5.57 16.6 13 19.22 18.33a28.33 28.33 0 0 1 3 10.47.16.16 0 0 0 .08.12l39.08 21.9-23 13-62.3-8.72c30.3-34.64 27.72-48.85 25.2-53.38a2.51 2.51 0 0 0 -1.11-1.52 1.25 1.25 0 0 1 -.17-.2m-.45-.38a6.55 6.55 0 0 0 .52.68 2.38 2.38 0 0 1 1.08 1.52c2.5 4.46 5.13 18.61-25.35 53.43l62.58 8.7 23.24-13.13-39.24-22s-.51-18.32-22.83-29.2z" fill="#8bd7f7" transform="translate(.42 7.22)"/><path d="m28.6 24.48c.82-3.65 4.34-15.28 17.56-31.66l45.44 26a67.78 67.78 0 0 0 -24.86-4.51 79.25 79.25 0 0 0 -36.31 9 2 2 0 0 0 -1.83 1.17z" fill="url(#h)" transform="translate(.42 7.22)"/><path d="m46.14-7 44.56 25.39a68.94 68.94 0 0 0 -24-4.15 79.4 79.4 0 0 0 -36.3 9 2.07 2.07 0 0 0 -1.7.85 46.47 46.47 0 0 1 2.51-7.31c2.24-5.17 6.62-13.5 14.93-23.78m0-.18c-16.24 20.04-17.86 32.82-17.86 32.82v.1c.16-1.44.92-2.33 2.14-2.33a79.21 79.21 0 0 1 36.27-9c15.77 0 26 5 26 5l-46.58-26.63z" fill="#8bd7f7" transform="translate(.42 7.22)"/></g></svg>