<svg xmlns="http://www.w3.org/2000/svg" viewBox="0 0 1000 405"><g fill="#1A1919" fill-rule="evenodd"><path d="M220 137a23 23 0 1 0 0-46 23 23 0 0 0 0 46M275 214 152 91a46 46 0 0 0 0 64l39 40 22 22 2 3-2 3-26 26c-1 2-4 2-6 0l-26-26c-2-2-2-4 0-6 18-19 5-42-4-49l-5-6-52 52c-4 3-4 9 0 12l84 85c3 3 9 3 12 0l84-84a8 8 0 0 0 1-13M392 195c-21-2-24-7-24-15 0-9 8-14 20-14 14 0 21 5 24 15v1h12v-1c-2-16-15-24-36-24-19 0-33 10-33 24 0 18 17 22 35 25 18 2 24 6 24 16 0 9-10 16-23 16-21 0-25-9-26-19h-13c2 13 10 29 39 29 20 0 35-12 35-27 0-17-13-23-34-26M511 158h-72v11h29v78h13v-78h30v-11M538 211l17-43 16 43h-33Zm9-53-35 89h12l10-26h41l10 26h13l-35-89h-16ZM600 169h29v78h14v-78h29v-11h-72v11M704 207h25v-11h-25v-27h50v-11h-63v89h63v-12h-50v-28M788 158h-13v89h59v-12h-46v-77M895 158l-25 40-26-40h-15l34 50v39h13v-39l33-50h-14"/></g></svg>