<svg xmlns="http://www.w3.org/2000/svg" width="96" height="105"><defs><linearGradient id="a" x1="80.642%" x2="54.454%" y1="40.26%" y2="64.353%"><stop offset="0%" stop-color="#4E25C3"/><stop offset="100%" stop-color="#351285"/></linearGradient><linearGradient id="b" x1="108.683%" x2="65.004%" y1="45.265%" y2="62.373%"><stop offset="0%" stop-color="#4363EC"/><stop offset="100%" stop-color="#2342C0"/></linearGradient><linearGradient id="c" x1="123.14%" x2="33.061%" y1="48.308%" y2="61.766%"><stop offset="0%" stop-color="#99F3F1"/><stop offset="100%" stop-color="#00D7D7"/></linearGradient><linearGradient id="d" x1="10.378%" x2="58.391%" y1="31.574%" y2="78.686%"><stop offset="0%" stop-color="#99F3F1" stop-opacity="0"/><stop offset="100%" stop-color="#00D7D7"/></linearGradient></defs><g fill="none" fill-rule="evenodd"><path fill="#7048E6" fill-rule="nonzero" d="M65.952.056c2.837 0 5.138 2.307 5.138 5.151s-2.301 5.151-5.138 5.151a5.14 5.14 0 0 1-4.992-3.942c-2.732.33-4.525 1.354-5.473 3.023-.633 1.11-.941 2.565-.908 4.361h13.737c7.165 0 12.132 7.468 9.689 14.533l-8.234 23.793c-1.287 3.713-4.374 6.35-8 6.983a6.98 6.98 0 0 1 2.008 2.506c.388.858.588 1.79.588 2.732 0 3.99-15.727 3.99-15.727 0 0-1.98.877-3.785 2.295-5.093h-6.96a7.046 7.046 0 0 1 1.83 2.361c.388.858.588 1.79.588 2.732 0 3.99-15.73 3.99-15.73 0 0-2.053.941-3.913 2.449-5.23-3.648-.618-6.754-3.26-8.044-6.993l-8.235-23.791C14.39 21.264 19.365 13.8 26.52 13.8h11.607c.032-1.794-.276-3.25-.909-4.36-.795-1.396-2.176-2.34-4.204-2.805a5.141 5.141 0 0 1-4.938 3.725c-2.837 0-5.136-2.307-5.136-5.151 0-2.846 2.301-5.153 5.136-5.153a5.14 5.14 0 0 1 4.907 3.62c5.386.959 8.083 4.424 8.007 10.124h10.726C51.633 7.63 54.8 4.08 61.11 3.49A5.137 5.137 0 0 1 65.952.056Z"/><path fill="url(#a)" d="M70.264 13.922h.006c-11.68.431-18.136 13.159-19.494 17.587-1.707 5.562-6.135 25.275-25.884 18.412l-.6-.213.078.033c2.916 1.238 19.439 7.557 28.032-11.071C58.14 26.233 66.766 21.516 78.28 24.52l.35.093a8.89 8.89 0 0 0-.005-.394l.002.056c0-.071-.004-.145-.007-.217l.005.161-.002-.095-.003-.066-.01-.21.01.183-.008-.118-.004-.064-.012-.192.01.135-.008-.097-.008-.095c-.011-.14-.025-.28-.042-.419l.006.058-.024-.194.018.136-.025-.184.007.048-.035-.234.028.186-.016-.105-.012-.081-.029-.179.025.155-.034-.205.01.05-.04-.202.03.152-.016-.092-.012-.06-.042-.21.037.18-.047-.222.01.043-.04-.18.03.135-.021-.097-.022-.095-.1-.396.011.045-.052-.188.038.143-.05-.182.012.039-.062-.208.05.169c-.02-.072-.043-.142-.064-.212l.014.043-.059-.18.045.137-.03-.09-.015-.047-.066-.198.05.153-.028-.087-.022-.066-.067-.188.06.168-.078-.219.018.05-.065-.17.045.12-.033-.09-.033-.085-.159-.384-.05-.114-.097-.21.073.16-.044-.096-.031-.064-.078-.159.064.13-.09-.184.028.054-.091-.178.064.124-.082-.155.018.03-.1-.188.082.156-.103-.194.02.038-.09-.164.069.126-.045-.084-.047-.081a9.353 9.353 0 0 0-.21-.353l.03.046-.101-.163.072.117-.049-.078-.023-.039-.118-.18.095.143-.123-.184.028.04-.105-.153.077.113-.052-.078-.025-.035-.118-.168.09.128-.052-.074-.038-.054-.115-.156.1.136-.135-.184.035.047-.114-.152.077.105-.107-.142.03.04-.14-.177.11.137-.06-.077-.05-.06-.11-.136.096.12-.132-.161.035.039-.128-.15.093.11-.058-.069-.035-.039-.141-.163.118.136-.072-.083-.046-.053-.119-.13.091.101-.064-.07-.027-.03-.138-.144.101.105-.062-.064-.039-.041-.143-.148.12.125-.155-.16.035.035-.128-.124.093.09-.068-.067-.068-.064a7.728 7.728 0 0 0-.297-.271l.043.037-.15-.13.107.093-.064-.058-.042-.035-.161-.136.135.114-.166-.14.03.026-.14-.115.11.09-.148-.119.039.03-.151-.117.112.087-.072-.058-.04-.03-.171-.127.14.103-.086-.064-.054-.04a2.887 2.887 0 0 0-.155-.11l.122.088-.074-.055-.078-.054a12.943 12.943 0 0 0-.341-.229l.047.03-.156-.098.109.068-.078-.049-.03-.019-.195-.116.15.089c-.058-.039-.12-.074-.18-.109l.032.02-.155-.09.122.07-.083-.05-.039-.02c-.064-.038-.13-.073-.196-.11l.15.081-.078-.04-.072-.041-.165-.086.161.084-.198-.103.039.02c-.056-.03-.11-.059-.165-.084l.126.064c-.056-.03-.11-.058-.167-.083l.04.019-.203-.097.163.078-.087-.043-.077-.035-.156-.072.146.066-.204-.091-.081-.035-.033-.013-.21-.086.16.064-.102-.04-.058-.024-.169-.066.126.049-.09-.035-.036-.014-.203-.074.147.055-.083-.031-.066-.024-.189-.062.173.059-.213-.072.038.013-.176-.058.136.045-.091-.03-.045-.013c-.072-.023-.146-.043-.217-.064l.17.049-.102-.03-.068-.019-.175-.047.14.04a3.707 3.707 0 0 0-.198-.055l.058.015c-.068-.019-.134-.034-.2-.05l.142.035-.175-.043.033.008-.213-.048.18.04-.109-.023-.106-.023-.101-.02v-.002Z" transform="translate(.001 .056)"/><path fill="url(#b)" fill-rule="nonzero" d="M52.402 38.669c-8.73 18.928-25.65 12.1-28.16 11.016 5.578 3.023 22.24 6.01 31.426-6.065 5.498-7.23 12.076-10.083 19.732-8.56l.233.048L78 28.263c.42-1.218.623-2.449.63-3.65-11.69-3.191-20.432 1.494-26.228 14.056Z" transform="translate(.001 .056)"/><path fill="url(#c)" d="M55.668 43.622c-9.183 12.074-25.848 9.086-31.426 6.065l.82 2.371c1.485 4.28 5.355 7.129 9.69 7.129H60.08c4.334 0 8.207-2.848 9.685-7.129l5.868-16.95c-7.755-1.627-14.41 1.211-19.965 8.514Z" transform="translate(.001 .056)"/><path fill="url(#d)" d="m19.424 16.706.062-.058.062-.062.058-.056.196-.183.086-.073.025-.026.097-.083.043-.035.1-.085.057-.047.093-.076.056-.042.103-.082.046-.035.125-.091.042-.033.1-.07.04-.029.229-.155.124-.08.097-.064.06-.035.134-.081.047-.027.106-.062.111-.062.091-.049.144-.078.07-.034.099-.049.071-.035.144-.07.142-.064.071-.03.084-.036.033-.015.062-.025.147-.059.055-.023.114-.043.072-.027.132-.046.027-.01.142-.047.077-.025.123-.039.064-.02.153-.042.054-.015.138-.037.054-.014.136-.033.047-.011.135-.03.059-.013.097-.02.345.018c11.461.667 17.8 13.184 19.144 17.569 1.708 5.562 6.137 25.275 25.887 18.413l.6-.214.05-.023c-2.507 1.358-2.472 1.339 0 0l-.82 2.373c-1.483 4.28-5.354 7.128-9.69 7.128H34.748c-4.333 0-8.207-2.848-9.686-7.128l-8.234-23.795a11.385 11.385 0 0 1-.63-3.65l.349-.093-.35.093v-.264l.006-.145.006-.146.006-.145.004-.064.007-.097.006-.082.006-.07c.008-.093.016-.186.027-.279l.014-.116.004-.043.017-.13.008-.054.025-.167.008-.047.02-.116.005-.04.008-.046.025-.133.025-.127-.02.097.036-.166.015-.074.024-.103.015-.072c.02-.09.043-.176.066-.264l.031-.114.008-.035.039-.14.015-.046.039-.13.023-.078.04-.12.022-.068.045-.13.012-.033.05-.14.03-.081.034-.091.027-.07c.05-.128.105-.256.16-.383l.05-.114.029-.064.068-.146.039-.08.03-.065.041-.08.059-.114.03-.058.057-.107.043-.078.056-.1.025-.047.14-.237.062-.1.017-.03.064-.103.031-.046.078-.117.04-.064.073-.106.036-.053.084-.116.02-.03.087-.118.054-.071.064-.084.045-.058.097-.124.025-.03.081-.098.055-.064.077-.093.039-.043.105-.117.04-.048.078-.083.049-.053.089-.093.039-.039.093-.097Z" opacity=".637" transform="translate(.001 .056)"/><path fill="#FFF" fill-rule="nonzero" d="M56.294 75.757a8.35 8.35 0 0 1 3.903.908 6.419 6.419 0 0 1 2.68 2.512v-.419c0-.897.29-1.607.865-2.129.578-.523 1.346-.782 2.306-.78.949-.005 1.712.266 2.29.816.585.566.899 1.357.863 2.171v15.9c0 3.352-.97 5.881-2.91 7.593-1.941 1.71-4.783 2.569-8.525 2.573-3.15 0-5.736-.562-7.753-1.686a3.423 3.423 0 0 1-1.182-1.035 2.366 2.366 0 0 1-.419-1.37 2.803 2.803 0 0 1 .505-1.729c.31-.437.817-.69 1.352-.677.373.012.742.077 1.096.191.419.128.855.277 1.307.442.817.312 1.647.58 2.492.803.795.201 1.614.301 2.435.297 1.8 0 3.135-.409 4.009-1.223.872-.817 1.308-2.053 1.307-3.712v-2.28a6.253 6.253 0 0 1-2.659 2.53 8.418 8.418 0 0 1-3.966.93 9.083 9.083 0 0 1-4.784-1.272 8.667 8.667 0 0 1-3.272-3.607c-.788-1.56-1.182-3.368-1.182-5.421 0-2.053.396-3.858 1.182-5.418a8.814 8.814 0 0 1 3.272-3.622 8.924 8.924 0 0 1 4.788-1.286Zm27.766.01c2.195 0 4.121.435 5.779 1.308a9.178 9.178 0 0 1 3.84 3.732c.9 1.617 1.35 3.522 1.351 5.716.001 2.194-.45 4.098-1.35 5.714a9.326 9.326 0 0 1-3.841 3.756c-1.66.882-3.585 1.326-5.78 1.328-2.192 0-4.12-.446-5.785-1.339a9.332 9.332 0 0 1-3.84-3.755c-.897-1.618-1.345-3.518-1.345-5.704 0-2.185.448-4.091 1.348-5.716a9.184 9.184 0 0 1 3.841-3.732c1.66-.871 3.588-1.308 5.782-1.308Zm-44.1.074c.992 0 1.772.268 2.343.803.577.533.865 1.265.865 2.192v15.48a2.679 2.679 0 0 1-.908 2.107 3.414 3.414 0 0 1-2.342.804c-.902 0-1.618-.254-2.152-.761a2.66 2.66 0 0 1-.804-2.026v-.419a6.524 6.524 0 0 1-2.55 2.447c-1.1.57-2.325.86-3.563.838-2.618 0-4.567-.724-5.847-2.172-1.279-1.449-1.92-3.634-1.92-6.56v-9.738c0-.929.29-1.66.866-2.192.577-.534 1.358-.801 2.34-.804.983 0 1.76.269 2.32.804.562.533.839 1.257.839 2.192v9.869c0 1.239.26 2.152.781 2.742.522.591 1.315.887 2.382.887a3.906 3.906 0 0 0 3.018-1.257c.774-.838 1.162-1.95 1.162-3.334v-8.907c0-.929.279-1.66.838-2.192.558-.534 1.336-.801 2.332-.804v.001Zm-22.366-8.604c1.068 0 1.857.21 2.363.628.508.419.76 1.08.76 1.981 0 .874-.252 1.52-.76 1.942-.507.423-1.295.629-2.363.629H6.488v6.832h10.254c1.07 0 1.857.21 2.363.628.505.419.759 1.08.76 1.982 0 .873-.253 1.518-.76 1.94-.507.425-1.293.629-2.363.629H6.5v9.49c0 1.013-.29 1.815-.865 2.405-.577.59-1.357.886-2.342.886-.984.012-1.778-.285-2.384-.89C.3 95.715-.002 94.92 0 93.935V70.317c0-.985.268-1.744.804-2.28.533-.533 1.292-.801 2.277-.798h14.512v-.002Zm66.46 13.337c-3.093 0-4.641 1.983-4.643 5.949-.001 3.966 1.546 5.948 4.644 5.946 3.092-.006 4.64-1.99 4.641-5.946 0-1.995-.401-3.486-1.203-4.472-.802-.985-1.948-1.478-3.438-1.476v-.001Zm-25.905.032c-1.493 0-2.66.483-3.502 1.456-.838.97-1.257 2.312-1.257 4.028 0 1.715.419 3.051 1.257 4.006.838.957 2.005 1.435 3.502 1.435 1.496 0 2.655-.478 3.479-1.435h.004c.828-.955 1.242-2.291 1.243-4.006.003-1.716-.412-3.059-1.243-4.028-.83-.969-1.991-1.455-3.483-1.456Z"/></g></svg>