<svg xmlns="http://www.w3.org/2000/svg" width="101" height="32"><g fill="#fff"><path d="M34 16.974c0-1.156.4-2.155 1.2-2.943.8-.84 1.75-1.208 2.9-1.208s2.1.42 2.9 1.208c.8.841 1.2 1.84 1.2 3.048s-.4 2.206-1.2 3.047c-.8.788-1.8 1.208-2.95 1.208-1.15 0-2.1-.42-2.9-1.26-.75-.841-1.15-1.892-1.15-3.1Zm1.8.052c0 .788.2 1.419.6 1.892.4.472.95.735 1.65.735s1.25-.21 1.65-.683c.4-.473.6-1.103.6-1.891s-.2-1.419-.6-1.892c-.4-.473-.95-.735-1.65-.735s-1.2.262-1.65.735c-.4.473-.6 1.051-.6 1.84Zm6.85-.052c0-1.156.4-2.155 1.2-2.943.8-.84 1.75-1.208 2.9-1.208s2.1.42 2.9 1.208c.8.841 1.2 1.84 1.2 3.048s-.4 2.206-1.2 3.047c-.8.788-1.8 1.208-2.95 1.208-1.15 0-2.1-.42-2.9-1.26-.75-.841-1.15-1.892-1.15-3.1Zm1.8.052c0 .788.2 1.419.6 1.892.4.472.95.735 1.65.735s1.25-.21 1.65-.683c.4-.473.6-1.103.6-1.891s-.2-1.419-.6-1.892c-.4-.473-.95-.735-1.65-.735s-1.2.262-1.65.735c-.4.473-.6 1.051-.6 1.84Zm8.7-4.045v.735c.35-.368.6-.578.85-.735.25-.158.55-.21.9-.21.45 0 .95.157 1.45.472l-.8 1.682c-.35-.263-.65-.368-1-.368-.95 0-1.45.788-1.45 2.312v4.15h-1.75v-8.038h1.8Zm8.8-5.885h1.8v13.976h-1.8v-.84c-.7.735-1.5 1.05-2.35 1.05-1.05 0-1.9-.42-2.6-1.209-.7-.84-1.05-1.838-1.05-3.1 0-1.208.35-2.206 1.05-2.994.7-.788 1.55-1.208 2.55-1.208.9 0 1.7.367 2.4 1.155v-6.83Zm-4.2 9.93c0 .788.2 1.419.6 1.892.4.472.9.735 1.55.735s1.2-.263 1.6-.735c.4-.473.6-1.104.6-1.892 0-.735-.2-1.366-.6-1.891-.4-.473-.95-.736-1.55-.736-.6 0-1.1.263-1.55.736-.45.525-.65 1.156-.65 1.891Zm6.5-7.355c0-.316.1-.63.35-.841.25-.263.5-.368.8-.368.3 0 .6.105.8.368.25.21.35.525.35.84 0 .316-.1.631-.35.841-.2.263-.5.368-.8.368-.3 0-.6-.105-.8-.368a1.27 1.27 0 0 1-.35-.84Zm2.05 3.31v8.038h-1.75v-8.038h1.75Zm.85 0h1.8v.735c.6-.63 1.3-.945 2.1-.945.9 0 1.6.315 2.1.893.45.525.65 1.313.65 2.469v4.939H72v-4.466c0-.788-.1-1.366-.3-1.629-.2-.315-.6-.473-1.1-.473-.6 0-1 .21-1.25.63-.25.421-.35 1.104-.35 2.102v3.888h-1.8v-8.143h-.05Zm13.2 0h1.8v8.038h-1.8v-.84c-.75.735-1.5 1.05-2.35 1.05-1.05 0-1.95-.42-2.65-1.208-.7-.84-1.05-1.839-1.05-3.1 0-1.208.35-2.207 1.05-2.995.7-.788 1.55-1.208 2.6-1.208.9 0 1.7.368 2.4 1.156v-.893Zm-4.2 4.045c0 .788.2 1.419.6 1.892.4.472.9.735 1.55.735s1.2-.263 1.6-.735c.4-.473.6-1.104.6-1.892 0-.735-.2-1.366-.6-1.891a2.06 2.06 0 0 0-.699-.545 1.966 1.966 0 0 0-.851-.19c-.6 0-1.1.262-1.55.735-.45.525-.65 1.156-.65 1.891Zm9.15-2.312v6.305h-1.75v-6.305h-.75v-1.733h.75v-2.943h1.75v2.943h1.4v1.733h-1.4Zm8.85 2.732h-5.5c.05.683.25 1.209.6 1.577.35.367.85.578 1.4.578.45 0 .8-.105 1.1-.316.3-.21.6-.63.95-1.208l1.5.893c-.25.42-.45.788-.75 1.05-.25.316-.55.526-.85.736-.3.21-.6.316-.95.42-.35.106-.7.158-1.1.158-1.15 0-2.05-.367-2.75-1.155-.7-.789-1.05-1.787-1.05-3.1 0-1.261.35-2.312 1-3.1.7-.788 1.55-1.156 2.7-1.156 1.15 0 2 .368 2.65 1.156.65.735 1 1.786 1 3.1l.05.367Zm-1.85-1.523c-.25-.998-.85-1.471-1.8-1.471-.2 0-.4.052-.6.105-.2.052-.35.157-.5.315-.15.105-.3.263-.4.473-.1.157-.2.368-.25.63h3.55v-.052Zm7.2-1.576-1.45.84c-.25-.473-.5-.735-.85-.735-.15 0-.3.052-.4.157a.614.614 0 0 0-.15.42c0 .316.35.631 1 .894.95.42 1.55.84 1.9 1.156.35.367.5.84.5 1.418 0 .788-.25 1.419-.8 1.944-.55.473-1.15.736-1.9.736-1.3 0-2.2-.683-2.75-1.997l1.5-.735c.2.367.35.63.5.735.2.21.45.316.75.316.6 0 .9-.263.9-.841 0-.315-.25-.63-.7-.946-.2-.105-.35-.21-.55-.262-.2-.106-.35-.158-.55-.263-.5-.263-.9-.526-1.1-.788-.25-.316-.4-.788-.4-1.314 0-.683.25-1.26.7-1.734.45-.473 1.05-.683 1.7-.683.95.106 1.7.63 2.15 1.682Z"/><path d="m34.9 21.02-3.85-3.994 3.8-3.993-2.45-.052-2.95 3.1V7.096H27.7v8.985l-2.95-3.048H22.3l3.8 3.993-3.85 3.993h2.5l2.95-3.1v3.153h1.75v-3.153l2.95 3.1h2.5ZM18.15 6.045 14.3 2 9.25 7.306 10.5 8.62l3.8-3.993 3.85 3.993 1.2-1.261-1.2-1.313ZM0 17.026l5.1-5.359 1.2 1.314-3.8 4.045 3.8 3.993-1.25 1.314L0 17.026ZM14.3 32l-5.1-5.306 1.25-1.314 3.85 4.046 3.8-3.993 1.25 1.313L14.3 32Z"/></g></svg>