<?xml version="1.0" encoding="utf-8"?>
<!-- Generator: Adobe Illustrator 25.2.1, SVG Export Plug-In . SVG Version: 6.00 Build 0)  -->
<svg version="1.1" id="Layer_1" xmlns="http://www.w3.org/2000/svg" xmlns:xlink="http://www.w3.org/1999/xlink" x="0px" y="0px"
	 viewBox="0 0 672 438" style="enable-background:new 0 0 672 438;" xml:space="preserve">
<style type="text/css">
	.st0{fill:#464646;}
	.st1{fill:#FFFFFF;}
	.st2{fill:none;stroke:#464646;stroke-width:2;stroke-miterlimit:10;}
	.st3{fill:#679AE7;}
	.st4{fill:#898989;}
	.st5{fill:#B5B5B5;}
	.st6{opacity:0.5;}
	.st7{fill:none;stroke:#6B6B6B;stroke-width:2;stroke-miterlimit:10;}
	.st8{fill:none;stroke:#6B6B6B;stroke-width:2;stroke-miterlimit:10;stroke-dasharray:3.9764,3.9764;}
	.st9{fill:#6B6B6B;}
	.st10{opacity:0.75;}
	.st11{fill:none;stroke:#FFFFFF;stroke-miterlimit:10;}
	.st12{fill:none;stroke:#DADADA;stroke-miterlimit:10;}
	.st13{fill:none;stroke:#464646;stroke-width:2;stroke-linecap:round;stroke-miterlimit:10;}
	.st14{fill:none;stroke:#DD974A;stroke-miterlimit:10;}
	.st15{fill:none;stroke:#679AE7;stroke-width:2;stroke-miterlimit:10;}
	.st16{fill:#FFFFFF;stroke:#679AE7;stroke-miterlimit:10;}
</style>
<g>
	<g>
		<path class="st0" d="M627.4,92c2,0,3.6,1.6,3.6,3.6v245.9c0,2-1.6,3.6-3.6,3.6H312.6c-2,0-3.6-1.6-3.6-3.6V95.6
			c0-2,1.6-3.6,3.6-3.6H627.4 M627.4,90H312.6c-3.1,0-5.6,2.5-5.6,5.6v245.9c0,3.1,2.5,5.6,5.6,5.6h314.9c3.1,0,5.6-2.5,5.6-5.6
			V95.6C633,92.5,630.5,90,627.4,90L627.4,90z"/>
	</g>
	<g>
		<path class="st0" d="M633,113H307V64.6c0-3.1,2.5-5.6,5.6-5.6h314.9c3.1,0,5.6,2.5,5.6,5.6V113z"/>
	</g>
	<g>
		<g>
			<path class="st1" d="M317.4,74.9c0-2.6,1.8-4.1,3.6-4.1c2.1,0,3.2,1.5,3.2,3.7c0,0.4,0,0.7-0.1,0.9h-5c0.2,1.4,1.1,2.2,2.3,2.2
				c0.7,0,1.2-0.2,1.8-0.6l0.6,1.1c-0.7,0.5-1.7,0.9-2.7,0.9C319.1,79,317.4,77.5,317.4,74.9z M322.7,74.2c0-1.2-0.5-1.9-1.6-1.9
				c-0.9,0-1.7,0.7-1.9,1.9H322.7z"/>
			<path class="st1" d="M325.6,76.7c0-1.7,1.4-2.6,4.6-2.9c0-0.8-0.4-1.5-1.4-1.5c-0.8,0-1.5,0.4-2.2,0.8l-0.7-1.2
				c0.9-0.5,2-1,3.2-1c2,0,2.9,1.2,2.9,3.4v4.7h-1.5l-0.1-0.9h-0.1c-0.7,0.6-1.5,1.1-2.4,1.1C326.6,79,325.6,78.1,325.6,76.7z
				 M330.3,76.7V75c-2.1,0.3-2.8,0.8-2.8,1.6c0,0.7,0.5,1,1.1,1C329.2,77.6,329.7,77.3,330.3,76.7z"/>
			<path class="st1" d="M334.3,71h1.5l0.1,1.4h0.1c0.6-1,1.4-1.6,2.2-1.6c0.4,0,0.7,0.1,0.9,0.2l-0.3,1.6c-0.3-0.1-0.5-0.1-0.8-0.1
				c-0.6,0-1.4,0.4-1.9,1.6v4.8h-1.8V71z"/>
			<path class="st1" d="M340.3,76.8v-9.3h1.8v9.4c0,0.5,0.2,0.6,0.4,0.6c0.1,0,0.1,0,0.3,0l0.2,1.4c-0.2,0.1-0.5,0.2-1,0.2
				C340.8,79,340.3,78.2,340.3,76.8z"/>
			<path class="st1" d="M344.1,81.9l0.3-1.4c0.2,0,0.4,0.1,0.6,0.1c0.8,0,1.3-0.6,1.6-1.4l0.1-0.5l-3.1-7.8h1.9l1.4,3.9
				c0.2,0.7,0.5,1.5,0.7,2.2h0.1c0.2-0.7,0.4-1.5,0.6-2.2l1.2-3.9h1.8l-2.8,8.2c-0.7,1.8-1.5,2.9-3.2,2.9
				C344.7,82.1,344.4,82,344.1,81.9z"/>
			<path class="st1" d="M355.3,76.7c0-1.7,1.4-2.6,4.6-2.9c0-0.8-0.4-1.5-1.4-1.5c-0.8,0-1.5,0.4-2.2,0.8l-0.7-1.2
				c0.9-0.5,2-1,3.2-1c2,0,2.9,1.2,2.9,3.4v4.7h-1.5l-0.1-0.9h-0.1c-0.7,0.6-1.5,1.1-2.4,1.1C356.3,79,355.3,78.1,355.3,76.7z
				 M359.9,76.7V75c-2.1,0.3-2.8,0.8-2.8,1.6c0,0.7,0.5,1,1.1,1C358.9,77.6,359.4,77.3,359.9,76.7z"/>
			<path class="st1" d="M363.5,74.9c0-2.6,1.9-4.1,3.9-4.1c1,0,1.7,0.4,2.3,0.9l-0.9,1.2c-0.4-0.4-0.8-0.6-1.3-0.6
				c-1.3,0-2.1,1-2.1,2.6s0.9,2.6,2.1,2.6c0.6,0,1.2-0.3,1.6-0.7l0.7,1.2c-0.7,0.7-1.7,1-2.6,1C365.1,79,363.5,77.5,363.5,74.9z"/>
			<path class="st1" d="M370.9,74.9c0-2.6,1.9-4.1,3.9-4.1c1,0,1.7,0.4,2.3,0.9l-0.9,1.2c-0.4-0.4-0.8-0.6-1.3-0.6
				c-1.3,0-2.1,1-2.1,2.6s0.9,2.6,2.1,2.6c0.6,0,1.2-0.3,1.6-0.7l0.7,1.2c-0.7,0.7-1.7,1-2.6,1C372.5,79,370.9,77.5,370.9,74.9z"/>
			<path class="st1" d="M378.3,74.9c0-2.6,1.8-4.1,3.6-4.1c2.1,0,3.2,1.5,3.2,3.7c0,0.4,0,0.7-0.1,0.9h-5c0.2,1.4,1.1,2.2,2.3,2.2
				c0.7,0,1.2-0.2,1.8-0.6l0.6,1.1c-0.7,0.5-1.7,0.9-2.7,0.9C380,79,378.3,77.5,378.3,74.9z M383.5,74.2c0-1.2-0.5-1.9-1.6-1.9
				c-0.9,0-1.7,0.7-1.9,1.9H383.5z"/>
			<path class="st1" d="M386.1,77.9l0.9-1.2c0.7,0.5,1.4,0.9,2.2,0.9c0.9,0,1.3-0.4,1.3-0.9c0-0.7-0.9-1-1.7-1.3
				c-1-0.4-2.2-1-2.2-2.3c0-1.4,1.1-2.4,2.9-2.4c1.1,0,2,0.4,2.6,0.9l-0.8,1.1c-0.6-0.4-1.1-0.7-1.7-0.7c-0.8,0-1.2,0.4-1.2,0.9
				c0,0.6,0.8,0.9,1.6,1.2c1.1,0.4,2.3,0.9,2.3,2.4c0,1.4-1.1,2.4-3.1,2.4C388,79,386.9,78.6,386.1,77.9z"/>
			<path class="st1" d="M393,77.9l0.9-1.2c0.7,0.5,1.4,0.9,2.2,0.9c0.9,0,1.3-0.4,1.3-0.9c0-0.7-0.9-1-1.7-1.3c-1-0.4-2.2-1-2.2-2.3
				c0-1.4,1.1-2.4,2.9-2.4c1.1,0,2,0.4,2.6,0.9l-0.8,1.1c-0.6-0.4-1.1-0.7-1.7-0.7c-0.8,0-1.2,0.4-1.2,0.9c0,0.6,0.8,0.9,1.6,1.2
				c1.1,0.4,2.3,0.9,2.3,2.4c0,1.4-1.1,2.4-3.1,2.4C394.9,79,393.8,78.6,393,77.9z"/>
		</g>
	</g>
	<g>
		<g>
			<path class="st0" d="M430.4,173h-93.9c-3.1,0-5.6-2.5-5.6-5.6v-19.9c0-3.1,2.5-5.6,5.6-5.6h93.9c3.1,0,5.6,2.5,5.6,5.6v19.9
				C436,170.5,433.5,173,430.4,173z"/>
		</g>
		<g>
			<g>
				<path class="st1" d="M341.4,157.9c0-2.6,1.9-4.1,3.9-4.1c1,0,1.7,0.4,2.3,0.9l-0.9,1.2c-0.4-0.4-0.8-0.6-1.3-0.6
					c-1.3,0-2.1,1-2.1,2.6s0.9,2.6,2.1,2.6c0.6,0,1.2-0.3,1.6-0.7l0.7,1.2c-0.7,0.7-1.7,1-2.6,1C343.1,162,341.4,160.5,341.4,157.9z
					"/>
				<path class="st1" d="M348.8,157.9c0-2.6,1.8-4.1,3.7-4.1c2,0,3.7,1.5,3.7,4.1c0,2.6-1.8,4.1-3.7,4.1
					C350.6,162,348.8,160.5,348.8,157.9z M354.4,157.9c0-1.6-0.7-2.6-1.8-2.6s-1.8,1-1.8,2.6s0.7,2.6,1.8,2.6
					S354.4,159.5,354.4,157.9z"/>
				<path class="st1" d="M358.1,154h1.5l0.1,1.1h0.1c0.7-0.7,1.5-1.3,2.6-1.3c1.7,0,2.4,1.1,2.4,3.1v4.9H363v-4.7
					c0-1.3-0.4-1.8-1.2-1.8c-0.7,0-1.1,0.3-1.8,1v5.5h-1.8V154z"/>
				<path class="st1" d="M367.4,159.2v-3.7h-1.1v-1.4l1.2-0.1l0.2-2.1h1.5v2.1h2v1.5h-2v3.7c0,0.9,0.4,1.4,1.1,1.4
					c0.3,0,0.6-0.1,0.8-0.2l0.3,1.4c-0.4,0.1-1,0.3-1.6,0.3C368,162,367.4,160.9,367.4,159.2z"/>
				<path class="st1" d="M372.9,154h1.5l0.1,1.4h0.1c0.6-1,1.4-1.6,2.2-1.6c0.4,0,0.7,0.1,0.9,0.2l-0.3,1.6
					c-0.3-0.1-0.5-0.1-0.8-0.1c-0.6,0-1.4,0.4-1.9,1.6v4.8h-1.8V154z"/>
				<path class="st1" d="M378.6,151.6c0-0.6,0.5-1,1.1-1c0.7,0,1.1,0.4,1.1,1c0,0.6-0.5,1-1.1,1
					C379.1,152.6,378.6,152.2,378.6,151.6z M378.8,154h1.8v7.9h-1.8V154z"/>
				<path class="st1" d="M384.7,161L384.7,161l-0.2,0.8H383v-11.3h1.8v2.9l-0.1,1.3c0.7-0.6,1.5-1,2.3-1c2,0,3.1,1.6,3.1,4
					c0,2.7-1.6,4.3-3.4,4.3C386.1,162,385.3,161.7,384.7,161z M388.3,157.8c0-1.6-0.5-2.5-1.7-2.5c-0.6,0-1.1,0.3-1.7,0.9v3.7
					c0.6,0.5,1.1,0.7,1.6,0.7C387.5,160.5,388.3,159.6,388.3,157.8z"/>
				<path class="st1" d="M391.9,158.9V154h1.8v4.7c0,1.3,0.4,1.8,1.2,1.8c0.7,0,1.1-0.3,1.7-1.1V154h1.8v7.9h-1.5l-0.1-1.2h-0.1
					c-0.7,0.8-1.5,1.4-2.5,1.4C392.7,162,391.9,160.9,391.9,158.9z"/>
				<path class="st1" d="M401.2,159.2v-3.7h-1.1v-1.4l1.2-0.1l0.2-2.1h1.5v2.1h2v1.5h-2v3.7c0,0.9,0.4,1.4,1.1,1.4
					c0.3,0,0.6-0.1,0.8-0.2l0.3,1.4c-0.4,0.1-1,0.3-1.6,0.3C401.9,162,401.2,160.9,401.2,159.2z"/>
				<path class="st1" d="M406.2,157.9c0-2.6,1.8-4.1,3.7-4.1c2,0,3.7,1.5,3.7,4.1c0,2.6-1.8,4.1-3.7,4.1
					C408,162,406.2,160.5,406.2,157.9z M411.8,157.9c0-1.6-0.7-2.6-1.8-2.6s-1.8,1-1.8,2.6s0.7,2.6,1.8,2.6S411.8,159.5,411.8,157.9
					z"/>
				<path class="st1" d="M415.5,154h1.5l0.1,1.4h0.1c0.6-1,1.4-1.6,2.2-1.6c0.4,0,0.7,0.1,0.9,0.2l-0.3,1.6
					c-0.3-0.1-0.5-0.1-0.8-0.1c-0.6,0-1.4,0.4-1.9,1.6v4.8h-1.8V154z"/>
				<path class="st1" d="M420.7,160.9l0.9-1.2c0.7,0.5,1.4,0.9,2.2,0.9c0.9,0,1.3-0.4,1.3-0.9c0-0.7-0.9-1-1.7-1.3
					c-1-0.4-2.2-1-2.2-2.3c0-1.4,1.1-2.4,2.9-2.4c1.1,0,2,0.4,2.6,0.9l-0.8,1.1c-0.6-0.4-1.1-0.7-1.7-0.7c-0.8,0-1.2,0.4-1.2,0.9
					c0,0.6,0.8,0.9,1.6,1.2c1.1,0.4,2.3,0.9,2.3,2.4c0,1.4-1.1,2.4-3.1,2.4C422.6,162,421.4,161.6,420.7,160.9z"/>
			</g>
		</g>
	</g>
	<g>
		<g>
			<path class="st0" d="M408.4,250h-71.9c-3.1,0-5.6-2.5-5.6-5.6v-19.9c0-3.1,2.5-5.6,5.6-5.6h71.9c3.1,0,5.6,2.5,5.6,5.6v19.9
				C414,247.5,411.5,250,408.4,250z"/>
		</g>
		<g>
			<g>
				<path class="st1" d="M341.2,237.9l0.9-1.2c0.7,0.5,1.4,0.9,2.2,0.9c0.9,0,1.3-0.4,1.3-0.9c0-0.7-0.9-1-1.7-1.3
					c-1-0.4-2.2-1-2.2-2.3c0-1.4,1.1-2.4,2.9-2.4c1.1,0,2,0.4,2.6,0.9l-0.8,1.1c-0.6-0.4-1.1-0.7-1.7-0.7c-0.8,0-1.2,0.4-1.2,0.9
					c0,0.6,0.8,0.9,1.6,1.2c1.1,0.4,2.3,0.9,2.3,2.4c0,1.4-1.1,2.4-3.1,2.4C343.1,239,341.9,238.6,341.2,237.9z"/>
				<path class="st1" d="M348.8,231h1.5l0.1,0.8h0.1c0.7-0.6,1.5-1,2.4-1c2,0,3.1,1.6,3.1,4c0,2.7-1.6,4.2-3.4,4.2
					c-0.7,0-1.4-0.3-2-0.9l0.1,1.3v2.5h-1.8V231z M354.1,234.8c0-1.6-0.5-2.5-1.7-2.5c-0.6,0-1.1,0.3-1.7,0.9v3.7
					c0.6,0.5,1.1,0.7,1.6,0.7C353.3,237.5,354.1,236.6,354.1,234.8z"/>
				<path class="st1" d="M357.4,234.9c0-2.6,1.8-4.1,3.7-4.1c2,0,3.7,1.5,3.7,4.1c0,2.6-1.8,4.1-3.7,4.1
					C359.1,239,357.4,237.5,357.4,234.9z M362.9,234.9c0-1.6-0.7-2.6-1.8-2.6s-1.8,1-1.8,2.6s0.7,2.6,1.8,2.6
					S362.9,236.5,362.9,234.9z"/>
				<path class="st1" d="M366.7,231h1.5l0.1,1.1h0.1c0.7-0.7,1.5-1.3,2.6-1.3c1.7,0,2.4,1.1,2.4,3.1v4.9h-1.8v-4.7
					c0-1.3-0.4-1.8-1.2-1.8c-0.7,0-1.1,0.3-1.8,1v5.5h-1.8V231z"/>
				<path class="st1" d="M374.8,237.9l0.9-1.2c0.7,0.5,1.4,0.9,2.2,0.9c0.9,0,1.3-0.4,1.3-0.9c0-0.7-0.9-1-1.7-1.3
					c-1-0.4-2.2-1-2.2-2.3c0-1.4,1.1-2.4,2.9-2.4c1.1,0,2,0.4,2.6,0.9l-0.8,1.1c-0.6-0.4-1.1-0.7-1.7-0.7c-0.8,0-1.2,0.4-1.2,0.9
					c0,0.6,0.8,0.9,1.6,1.2c1.1,0.4,2.3,0.9,2.3,2.4c0,1.4-1.1,2.4-3.1,2.4C376.7,239,375.6,238.6,374.8,237.9z"/>
				<path class="st1" d="M382,234.9c0-2.6,1.8-4.1,3.7-4.1c2,0,3.7,1.5,3.7,4.1c0,2.6-1.8,4.1-3.7,4.1
					C383.8,239,382,237.5,382,234.9z M387.6,234.9c0-1.6-0.7-2.6-1.8-2.6s-1.8,1-1.8,2.6s0.7,2.6,1.8,2.6S387.6,236.5,387.6,234.9z"
					/>
				<path class="st1" d="M391.3,231h1.5l0.1,1.4h0.1c0.6-1,1.4-1.6,2.2-1.6c0.4,0,0.7,0.1,0.9,0.2l-0.3,1.6
					c-0.3-0.1-0.5-0.1-0.8-0.1c-0.6,0-1.4,0.4-1.9,1.6v4.8h-1.8V231z"/>
				<path class="st1" d="M396.5,237.9l0.9-1.2c0.7,0.5,1.4,0.9,2.2,0.9c0.9,0,1.3-0.4,1.3-0.9c0-0.7-0.9-1-1.7-1.3
					c-1-0.4-2.2-1-2.2-2.3c0-1.4,1.1-2.4,2.9-2.4c1.1,0,2,0.4,2.6,0.9l-0.8,1.1c-0.6-0.4-1.1-0.7-1.7-0.7c-0.8,0-1.2,0.4-1.2,0.9
					c0,0.6,0.8,0.9,1.6,1.2c1.1,0.4,2.3,0.9,2.3,2.4c0,1.4-1.1,2.4-3.1,2.4C398.4,239,397.2,238.6,396.5,237.9z"/>
			</g>
		</g>
	</g>
	<g>
		<g>
			<line class="st2" x1="372.5" y1="173" x2="372.5" y2="211.3"/>
			<g>
				<polygon class="st0" points="367.5,209.9 372.5,218.5 377.5,209.9 				"/>
			</g>
		</g>
	</g>
	<g>
		<g>
			<line class="st2" x1="372.5" y1="250" x2="372.5" y2="288.8"/>
			<g>
				<polygon class="st0" points="367.5,287.4 372.5,296 377.5,287.4 				"/>
			</g>
		</g>
	</g>
	<g>
		<g>
			<path class="st0" d="M430.4,327h-93.9c-3.1,0-5.6-2.5-5.6-5.6v-19.9c0-3.1,2.5-5.6,5.6-5.6h93.9c3.1,0,5.6,2.5,5.6,5.6v19.9
				C436,324.5,433.5,327,430.4,327z"/>
		</g>
		<g>
			<g>
				<path class="st1" d="M344.4,314.9l0.9-1.2c0.7,0.5,1.4,0.9,2.2,0.9c0.9,0,1.3-0.4,1.3-0.9c0-0.7-0.9-1-1.7-1.3
					c-1-0.4-2.2-1-2.2-2.3c0-1.4,1.1-2.4,2.9-2.4c1.1,0,2,0.4,2.6,0.9l-0.8,1.1c-0.6-0.4-1.1-0.7-1.7-0.7c-0.8,0-1.2,0.4-1.2,0.9
					c0,0.6,0.8,0.9,1.6,1.2c1.1,0.4,2.3,0.9,2.3,2.4c0,1.4-1.1,2.4-3.1,2.4C346.3,316,345.1,315.6,344.4,314.9z"/>
				<path class="st1" d="M351.9,312.9V308h1.8v4.7c0,1.3,0.4,1.8,1.2,1.8c0.7,0,1.1-0.3,1.7-1.1V308h1.8v7.9h-1.5l-0.1-1.2h-0.1
					c-0.7,0.8-1.5,1.4-2.5,1.4C352.7,316,351.9,314.9,351.9,312.9z"/>
				<path class="st1" d="M362.6,315L362.6,315l-0.2,0.8h-1.5v-11.3h1.8v2.9l-0.1,1.3c0.7-0.6,1.5-1,2.3-1c2,0,3.1,1.6,3.1,4
					c0,2.7-1.6,4.3-3.4,4.3C364,316,363.3,315.7,362.6,315z M366.2,311.8c0-1.6-0.5-2.5-1.7-2.5c-0.6,0-1.1,0.3-1.7,0.9v3.7
					c0.6,0.5,1.1,0.7,1.6,0.7C365.4,314.5,366.2,313.6,366.2,311.8z"/>
				<path class="st1" d="M369.2,314.9l0.9-1.2c0.7,0.5,1.4,0.9,2.2,0.9c0.9,0,1.3-0.4,1.3-0.9c0-0.7-0.9-1-1.7-1.3
					c-1-0.4-2.2-1-2.2-2.3c0-1.4,1.1-2.4,2.9-2.4c1.1,0,2,0.4,2.6,0.9l-0.8,1.1c-0.6-0.4-1.1-0.7-1.7-0.7c-0.8,0-1.2,0.4-1.2,0.9
					c0,0.6,0.8,0.9,1.6,1.2c1.1,0.4,2.3,0.9,2.3,2.4c0,1.4-1.1,2.4-3.1,2.4C371.1,316,369.9,315.6,369.2,314.9z"/>
				<path class="st1" d="M376.3,311.9c0-2.6,1.9-4.1,3.9-4.1c1,0,1.7,0.4,2.3,0.9l-0.9,1.2c-0.4-0.4-0.8-0.6-1.3-0.6
					c-1.3,0-2.1,1-2.1,2.6s0.9,2.6,2.1,2.6c0.6,0,1.2-0.3,1.6-0.7l0.7,1.2c-0.7,0.7-1.7,1-2.6,1C378,316,376.3,314.5,376.3,311.9z"
					/>
				<path class="st1" d="M384.2,308h1.5l0.1,1.4h0.1c0.6-1,1.4-1.6,2.2-1.6c0.4,0,0.7,0.1,0.9,0.2l-0.3,1.6
					c-0.3-0.1-0.5-0.1-0.8-0.1c-0.6,0-1.4,0.4-1.9,1.6v4.8h-1.8V308z"/>
				<path class="st1" d="M390,305.6c0-0.6,0.5-1,1.1-1s1.1,0.4,1.1,1c0,0.6-0.5,1-1.1,1S390,306.2,390,305.6z M390.2,308h1.8v7.9
					h-1.8V308z"/>
				<path class="st1" d="M396,315L396,315l-0.2,0.8h-1.5v-11.3h1.8v2.9l-0.1,1.3c0.7-0.6,1.5-1,2.3-1c2,0,3.1,1.6,3.1,4
					c0,2.7-1.6,4.3-3.4,4.3C397.5,316,396.7,315.7,396,315z M399.7,311.8c0-1.6-0.5-2.5-1.7-2.5c-0.6,0-1.1,0.3-1.7,0.9v3.7
					c0.6,0.5,1.1,0.7,1.6,0.7C398.9,314.5,399.7,313.6,399.7,311.8z"/>
				<path class="st1" d="M402.9,311.9c0-2.6,1.8-4.1,3.6-4.1c2.1,0,3.2,1.5,3.2,3.7c0,0.4,0,0.7-0.1,0.9h-5c0.2,1.4,1,2.2,2.3,2.2
					c0.7,0,1.2-0.2,1.8-0.6l0.6,1.1c-0.7,0.5-1.7,0.9-2.7,0.9C404.6,316,402.9,314.5,402.9,311.9z M408.1,311.2
					c0-1.2-0.5-1.9-1.6-1.9c-0.9,0-1.7,0.7-1.9,1.9H408.1z"/>
				<path class="st1" d="M411.5,308h1.5l0.1,1.4h0.1c0.6-1,1.4-1.6,2.2-1.6c0.4,0,0.7,0.1,0.9,0.2l-0.3,1.6
					c-0.3-0.1-0.5-0.1-0.8-0.1c-0.6,0-1.4,0.4-1.9,1.6v4.8h-1.8V308z"/>
				<path class="st1" d="M416.7,314.9l0.9-1.2c0.7,0.5,1.4,0.9,2.2,0.9c0.9,0,1.3-0.4,1.3-0.9c0-0.7-0.9-1-1.7-1.3
					c-1-0.4-2.2-1-2.2-2.3c0-1.4,1.1-2.4,2.9-2.4c1.1,0,2,0.4,2.6,0.9l-0.8,1.1c-0.6-0.4-1.1-0.7-1.7-0.7c-0.8,0-1.2,0.4-1.2,0.9
					c0,0.6,0.8,0.9,1.6,1.2c1.1,0.4,2.3,0.9,2.3,2.4c0,1.4-1.1,2.4-3.1,2.4C418.6,316,417.5,315.6,416.7,314.9z"/>
			</g>
		</g>
	</g>
	<g>
		<path class="st3" d="M388,182h-31c-5,0-9,4-9,9v0c0,5,4,9,9,9h31c5,0,9-4,9-9v0C397,186,393,182,388,182z"/>
		<g>
			<g>
				<path class="st1" d="M358.8,186.8h1.5l2.6,4.8l0.9,1.8h0.1c-0.1-0.9-0.2-2-0.2-2.9v-3.7h1.4v8.5h-1.5l-2.6-4.8l-0.9-1.8H360
					c0.1,0.9,0.2,1.9,0.2,2.9v3.7h-1.4V186.8z"/>
				<path class="st1" d="M367.3,186.8h5.1v1.3h-3.6v2.2h3.1v1.3h-3.1v2.5h3.7v1.3h-5.2V186.8z"/>
				<path class="st1" d="M375.8,191l-2.3-4.1h1.7l0.9,1.9c0.2,0.4,0.4,0.8,0.6,1.3h0.1c0.2-0.5,0.4-0.9,0.6-1.3l0.9-1.9h1.6
					l-2.3,4.2l2.4,4.3h-1.7l-1-2c-0.2-0.4-0.4-0.9-0.7-1.4h-0.1c-0.2,0.5-0.4,1-0.6,1.4l-1,2h-1.6L375.8,191z"/>
				<path class="st1" d="M383,188.1h-2.5v-1.3h6.4v1.3h-2.5v7.2H383V188.1z"/>
			</g>
		</g>
	</g>
	<g>
		<path class="st3" d="M388,259h-31c-5,0-9,4-9,9l0,0c0,5,4,9,9,9h31c5,0,9-4,9-9l0,0C397,263,393,259,388,259z"/>
		<g>
			<g>
				<path class="st1" d="M358.8,263.8h1.5l2.6,4.8l0.9,1.8h0.1c-0.1-0.9-0.2-2-0.2-2.9v-3.7h1.4v8.5h-1.5l-2.6-4.8l-0.9-1.8H360
					c0.1,0.9,0.2,1.9,0.2,2.9v3.7h-1.4V263.8z"/>
				<path class="st1" d="M367.3,263.8h5.1v1.3h-3.6v2.2h3.1v1.3h-3.1v2.5h3.7v1.3h-5.2V263.8z"/>
				<path class="st1" d="M375.8,268l-2.3-4.1h1.7l0.9,1.9c0.2,0.4,0.4,0.8,0.6,1.3h0.1c0.2-0.5,0.4-0.9,0.6-1.3l0.9-1.9h1.6
					l-2.3,4.2l2.4,4.3h-1.7l-1-2c-0.2-0.4-0.4-0.9-0.7-1.4h-0.1c-0.2,0.5-0.4,1-0.6,1.4l-1,2h-1.6L375.8,268z"/>
				<path class="st1" d="M383,265.1h-2.5v-1.3h6.4v1.3h-2.5v7.2H383V265.1z"/>
			</g>
		</g>
	</g>
	<g>
		<g>
			<path class="st0" d="M605.4,250H468.6c-3.1,0-5.6-2.5-5.6-5.6v-19.9c0-3.1,2.5-5.6,5.6-5.6h136.9c3.1,0,5.6,2.5,5.6,5.6v19.9
				C611,247.5,608.5,250,605.4,250z"/>
		</g>
		<g>
			<g>
				<path class="st1" d="M496,231h1.5l0.1,1.4h0.1c0.6-1,1.4-1.6,2.2-1.6c0.4,0,0.7,0.1,0.9,0.2l-0.3,1.6c-0.3-0.1-0.5-0.1-0.8-0.1
					c-0.6,0-1.4,0.4-1.9,1.6v4.8H496V231z"/>
				<path class="st1" d="M501.5,234.9c0-2.6,1.8-4.1,3.6-4.1c2.1,0,3.2,1.5,3.2,3.7c0,0.4,0,0.7-0.1,0.9h-5c0.2,1.4,1.1,2.2,2.3,2.2
					c0.7,0,1.2-0.2,1.8-0.6l0.6,1.1c-0.7,0.5-1.7,0.9-2.7,0.9C503.2,239,501.5,237.5,501.5,234.9z M506.7,234.2
					c0-1.2-0.5-1.9-1.6-1.9c-0.9,0-1.7,0.7-1.9,1.9H506.7z"/>
				<path class="st1" d="M509.7,236.7c0-1.7,1.4-2.6,4.6-2.9c0-0.8-0.4-1.5-1.4-1.5c-0.8,0-1.5,0.4-2.2,0.8l-0.7-1.2
					c0.9-0.5,2-1,3.2-1c2,0,2.9,1.2,2.9,3.4v4.7h-1.5l-0.1-0.9h-0.1c-0.7,0.6-1.5,1.1-2.4,1.1C510.6,239,509.7,238.1,509.7,236.7z
					 M514.3,236.7V235c-2.1,0.3-2.8,0.8-2.8,1.6c0,0.7,0.5,1,1.1,1C513.2,237.6,513.7,237.3,514.3,236.7z"/>
				<path class="st1" d="M517.9,234.9c0-2.6,1.6-4.1,3.3-4.1c0.9,0,1.5,0.3,2.1,0.9l-0.1-1.3v-2.8h1.8v11.3h-1.5l-0.1-0.9h-0.1
					c-0.6,0.6-1.4,1-2.2,1C519.1,239,517.9,237.5,517.9,234.9z M523.2,236.6V233c-0.5-0.5-1.1-0.7-1.6-0.7c-1,0-1.8,0.9-1.8,2.6
					c0,1.7,0.7,2.6,1.8,2.6C522.2,237.5,522.7,237.2,523.2,236.6z"/>
				<path class="st1" d="M526.9,241.9l0.3-1.4c0.2,0,0.4,0.1,0.6,0.1c0.8,0,1.3-0.6,1.6-1.4l0.1-0.5l-3.1-7.8h1.9l1.4,3.9
					c0.2,0.7,0.5,1.5,0.7,2.2h0.1c0.2-0.7,0.4-1.5,0.6-2.2l1.2-3.9h1.8l-2.8,8.2c-0.7,1.8-1.5,2.9-3.2,2.9
					C527.5,242.1,527.2,242,526.9,241.9z"/>
				<path class="st1" d="M538.8,236.2v-3.7h-1.1v-1.4l1.2-0.1l0.2-2.1h1.5v2.1h2v1.5h-2v3.7c0,0.9,0.4,1.4,1.1,1.4
					c0.3,0,0.6-0.1,0.8-0.2l0.3,1.4c-0.4,0.1-1,0.3-1.6,0.3C539.4,239,538.8,237.9,538.8,236.2z"/>
				<path class="st1" d="M543.8,234.9c0-2.6,1.8-4.1,3.7-4.1s3.7,1.5,3.7,4.1c0,2.6-1.8,4.1-3.7,4.1S543.8,237.5,543.8,234.9z
					 M549.3,234.9c0-1.6-0.7-2.6-1.8-2.6s-1.8,1-1.8,2.6s0.7,2.6,1.8,2.6S549.3,236.5,549.3,234.9z"/>
				<path class="st1" d="M556.3,236.8v-9.3h1.8v9.4c0,0.5,0.2,0.6,0.4,0.6c0.1,0,0.1,0,0.3,0l0.2,1.4c-0.2,0.1-0.5,0.2-1,0.2
					C556.7,239,556.3,238.2,556.3,236.8z"/>
				<path class="st1" d="M560.2,236.7c0-1.7,1.4-2.6,4.6-2.9c0-0.8-0.4-1.5-1.4-1.5c-0.8,0-1.5,0.4-2.2,0.8l-0.7-1.2
					c0.9-0.5,2-1,3.2-1c2,0,2.9,1.2,2.9,3.4v4.7h-1.5L565,238h-0.1c-0.7,0.6-1.5,1.1-2.4,1.1C561.1,239,560.2,238.1,560.2,236.7z
					 M564.8,236.7V235c-2.1,0.3-2.8,0.8-2.8,1.6c0,0.7,0.5,1,1.1,1C563.7,237.6,564.2,237.3,564.8,236.7z"/>
				<path class="st1" d="M568.8,235.9V231h1.8v4.7c0,1.3,0.4,1.8,1.2,1.8c0.7,0,1.1-0.3,1.7-1.1V231h1.8v7.9h-1.5l-0.1-1.2h-0.1
					c-0.7,0.8-1.5,1.4-2.5,1.4C569.5,239,568.8,237.9,568.8,235.9z"/>
				<path class="st1" d="M577.7,231h1.5l0.1,1.1h0.1c0.7-0.7,1.5-1.3,2.6-1.3c1.7,0,2.4,1.1,2.4,3.1v4.9h-1.8v-4.7
					c0-1.3-0.4-1.8-1.2-1.8c-0.7,0-1.1,0.3-1.8,1v5.5h-1.8V231z"/>
				<path class="st1" d="M586.2,234.9c0-2.6,1.9-4.1,3.9-4.1c1,0,1.7,0.4,2.3,0.9l-0.9,1.2c-0.4-0.4-0.8-0.6-1.3-0.6
					c-1.3,0-2.1,1-2.1,2.6s0.9,2.6,2.1,2.6c0.6,0,1.2-0.3,1.6-0.7l0.7,1.2c-0.7,0.7-1.7,1-2.6,1C587.8,239,586.2,237.5,586.2,234.9z
					"/>
				<path class="st1" d="M594.1,227.5h1.8v2.9l-0.1,1.5c0.7-0.6,1.4-1.2,2.5-1.2c1.7,0,2.4,1.1,2.4,3.1v4.9H599v-4.7
					c0-1.3-0.4-1.8-1.2-1.8c-0.7,0-1.1,0.3-1.8,1v5.5h-1.8V227.5z"/>
			</g>
		</g>
		<g>
			<path class="st4" d="M481.5,240h-6.1c-1.4,0-2.5-1.1-2.5-2.5v-6.1c0-1.4,1.1-2.5,2.5-2.5h6.1c1.4,0,2.5,1.1,2.5,2.5v6.1
				C484,238.9,482.9,240,481.5,240z"/>
		</g>
		<g>
			<path class="st4" d="M483.1,227c1.6,0,2.9,1.3,2.9,2.9v9.2c0,1.6-1.3,2.9-2.9,2.9h-9.2c-1.6,0-2.9-1.3-2.9-2.9v-9.2
				c0-1.6,1.3-2.9,2.9-2.9H483.1 M483.1,225h-9.2c-2.7,0-4.9,2.2-4.9,4.9v9.2c0,2.7,2.2,4.9,4.9,4.9h9.2c2.7,0,4.9-2.2,4.9-4.9v-9.2
				C488,227.2,485.8,225,483.1,225L483.1,225z"/>
		</g>
	</g>
	<g>
		<g>
			<path class="st2" d="M436,311.5h87c5.5,0,10-4.5,10-10v-44.3"/>
			<g>
				<polygon class="st0" points="538,258.6 533,250 528,258.6 				"/>
			</g>
		</g>
	</g>
	<g>
		<path class="st3" d="M494,302h-31c-5,0-9,4-9,9l0,0c0,5,4,9,9,9h31c5,0,9-4,9-9l0,0C503,306,499,302,494,302z"/>
		<g>
			<g>
				<path class="st1" d="M464.8,306.8h1.5l2.6,4.8l0.9,1.8h0.1c-0.1-0.9-0.2-2-0.2-2.9v-3.7h1.4v8.5h-1.5l-2.6-4.8l-0.9-1.8H466
					c0.1,0.9,0.2,1.9,0.2,2.9v3.7h-1.4V306.8z"/>
				<path class="st1" d="M473.3,306.8h5.1v1.3h-3.6v2.2h3.1v1.3h-3.1v2.5h3.7v1.3h-5.2V306.8z"/>
				<path class="st1" d="M481.8,311l-2.3-4.1h1.7l0.9,1.9c0.2,0.4,0.4,0.8,0.6,1.3h0.1c0.2-0.5,0.4-0.9,0.6-1.3l0.9-1.9h1.6
					l-2.3,4.2l2.4,4.3h-1.7l-1-2c-0.2-0.4-0.4-0.9-0.7-1.4h-0.1c-0.2,0.5-0.4,1-0.6,1.4l-1,2h-1.6L481.8,311z"/>
				<path class="st1" d="M489,308.1h-2.5v-1.3h6.4v1.3h-2.5v7.2H489V308.1z"/>
			</g>
		</g>
	</g>
	<g>
		<g>
			<path class="st5" d="M318.6,95.3h3.9v1h-2.8V98h2.4v1h-2.4v1.9h2.9v1h-4V95.3z"/>
			<path class="st5" d="M324,95.3h1.2l2,3.7l0.7,1.4h0c-0.1-0.7-0.1-1.5-0.1-2.2v-2.8h1.1v6.5h-1.2l-2-3.7l-0.7-1.4h0
				c0.1,0.7,0.1,1.5,0.1,2.2v2.9H324V95.3z"/>
			<path class="st5" d="M331.9,96.3H330v-1h4.9v1H333v5.6h-1.2V96.3z"/>
			<path class="st5" d="M336,95.3h2.2c1.4,0,2.4,0.5,2.4,1.9c0,1.4-1,2-2.4,2h-1v2.6H336V95.3z M338.1,98.4c0.9,0,1.4-0.4,1.4-1.1
				c0-0.8-0.5-1-1.4-1h-0.9v2.1H338.1z M338,99l0.8-0.7l2,3.6h-1.3L338,99z"/>
			<path class="st5" d="M343,99.4l-2-4.1h1.2L343,97c0.2,0.5,0.4,0.9,0.6,1.4h0c0.2-0.5,0.4-1,0.6-1.4l0.7-1.7h1.2l-2,4.1v2.4H343
				V99.4z"/>
			<path class="st5" d="M350.6,94.8h0.8l-2.3,8.7h-0.8L350.6,94.8z"/>
		</g>
	</g>
	<g>
		<g>
			<path class="st1" d="M356.2,101.2l0.6-0.8c0.6,0.5,1.2,0.8,2,0.8c0.9,0,1.3-0.5,1.3-1.1c0-0.7-0.8-1-1.6-1.3c-1-0.3-2-0.8-2-2
				c0-1.1,0.9-1.9,2.3-1.9c0.8,0,1.6,0.3,2.1,0.8l-0.6,0.7c-0.5-0.3-1-0.6-1.6-0.6c-0.9,0-1.3,0.5-1.3,1c0,0.6,0.7,0.9,1.5,1.2
				c1,0.4,2.1,0.8,2.1,2.1c0,1.1-0.9,2-2.5,2C357.7,102.1,356.8,101.7,356.2,101.2z"/>
			<path class="st1" d="M362.3,98.6c0-2.2,1.5-3.6,3.1-3.6c1.7,0,2.7,1.2,2.7,3.2c0,0.2,0,0.5-0.1,0.7h-4.6c0.1,1.4,1,2.4,2.3,2.4
				c0.7,0,1.2-0.2,1.7-0.5l0.4,0.8c-0.6,0.4-1.3,0.7-2.2,0.7C363.7,102.1,362.3,100.8,362.3,98.6z M367,98c0-1.4-0.6-2.1-1.7-2.1
				c-1,0-1.8,0.8-2,2.1H367z"/>
			<path class="st1" d="M369.7,95.1h1l0.1,1h0c0.6-0.6,1.3-1.1,2.3-1.1c1.4,0,2.1,0.9,2.1,2.7v4.3H374v-4.2c0-1.3-0.4-1.8-1.3-1.8
				c-0.7,0-1.2,0.4-1.9,1v4.9h-1.2V95.1z"/>
			<path class="st1" d="M376.9,98.6c0-2.2,1.4-3.6,2.9-3.6c0.8,0,1.3,0.3,1.9,0.8l0-1.2V92h1.2v10h-1l-0.1-0.8h0
				c-0.5,0.5-1.3,1-2.1,1C378,102.1,376.9,100.8,376.9,98.6z M381.7,100.2v-3.6c-0.6-0.5-1.1-0.7-1.7-0.7c-1.1,0-2,1-2,2.6
				c0,1.6,0.7,2.6,1.9,2.6C380.6,101.2,381.1,100.8,381.7,100.2z"/>
			<path class="st1" d="M389,101.3L389,101.3l-0.1,0.7H388V92h1.2v2.7l0,1.2c0.6-0.5,1.4-0.9,2.1-0.9c1.8,0,2.7,1.4,2.7,3.5
				c0,2.3-1.4,3.7-2.9,3.7C390.3,102.1,389.6,101.8,389,101.3z M392.7,98.5c0-1.5-0.5-2.5-1.8-2.5c-0.6,0-1.2,0.3-1.8,0.9v3.6
				c0.6,0.5,1.2,0.7,1.7,0.7C391.9,101.2,392.7,100.1,392.7,98.5z"/>
			<path class="st1" d="M395.2,98.6c0-2.2,1.5-3.6,3.1-3.6c1.7,0,2.7,1.2,2.7,3.2c0,0.2,0,0.5-0.1,0.7h-4.6c0.1,1.4,1,2.4,2.3,2.4
				c0.7,0,1.2-0.2,1.7-0.5l0.4,0.8c-0.6,0.4-1.3,0.7-2.2,0.7C396.6,102.1,395.2,100.8,395.2,98.6z M400,98c0-1.4-0.6-2.1-1.7-2.1
				c-1,0-1.8,0.8-2,2.1H400z"/>
			<path class="st1" d="M402.9,99.8v-3.8h-1v-0.9l1.1-0.1l0.1-1.9h1v1.9h1.8v0.9H404v3.8c0,0.8,0.3,1.3,1.1,1.3
				c0.2,0,0.6-0.1,0.8-0.2l0.2,0.9c-0.4,0.1-0.8,0.3-1.3,0.3C403.3,102.1,402.9,101.2,402.9,99.8z"/>
			<path class="st1" d="M407,100.2c0-1.5,1.3-2.2,4.2-2.5c0-0.9-0.3-1.7-1.4-1.7c-0.8,0-1.5,0.4-2,0.7l-0.5-0.8
				c0.6-0.4,1.6-0.9,2.7-0.9c1.7,0,2.4,1.1,2.4,2.8v4.2h-1l-0.1-0.8h0c-0.6,0.5-1.4,1-2.3,1C407.8,102.1,407,101.4,407,100.2z
				 M411.1,100.3v-1.9c-2.3,0.3-3.1,0.8-3.1,1.7c0,0.8,0.5,1.1,1.2,1.1C409.9,101.2,410.5,100.9,411.1,100.3z"/>
			<path class="st1" d="M417.2,100.6V92h1.2v8.7c0,0.4,0.2,0.5,0.3,0.5c0.1,0,0.1,0,0.3,0l0.2,0.9c-0.2,0.1-0.4,0.1-0.7,0.1
				C417.6,102.1,417.2,101.6,417.2,100.6z"/>
			<path class="st1" d="M420.6,93c0-0.5,0.3-0.7,0.8-0.7c0.4,0,0.8,0.3,0.8,0.7c0,0.4-0.3,0.7-0.8,0.7
				C420.9,93.7,420.6,93.4,420.6,93z M420.8,95.1h1.2v6.8h-1.2V95.1z"/>
			<path class="st1" d="M424.3,95.1h1l0.1,1h0c0.6-0.6,1.3-1.1,2.3-1.1c1.4,0,2.1,0.9,2.1,2.7v4.3h-1.2v-4.2c0-1.3-0.4-1.8-1.3-1.8
				c-0.7,0-1.2,0.4-1.9,1v4.9h-1.2V95.1z"/>
			<path class="st1" d="M431.9,92h1.1v6.8h0l2.9-3.6h1.3l-2.3,2.7l2.6,4.1h-1.3l-2-3.3l-1.3,1.5v1.8h-1.1V92z"/>
			<path class="st1" d="M438.1,101.2l0.6-0.8c0.6,0.5,1.2,0.8,2,0.8c0.9,0,1.3-0.5,1.3-1.1c0-0.7-0.8-1-1.6-1.3c-1-0.3-2-0.8-2-2
				c0-1.1,0.9-1.9,2.3-1.9c0.8,0,1.6,0.3,2.1,0.8l-0.6,0.7c-0.5-0.3-1-0.6-1.6-0.6c-0.9,0-1.3,0.5-1.3,1c0,0.6,0.7,0.9,1.5,1.2
				c1,0.4,2.1,0.8,2.1,2.1c0,1.1-0.9,2-2.5,2C439.7,102.1,438.7,101.7,438.1,101.2z"/>
		</g>
	</g>
</g>
<g class="st6">
	<g>
		<path class="st7" d="M470,347c0,0,0,0.8,0,2"/>
		<path class="st8" d="M470,353c0,0.6,0,1.3,0,2c0,4.4,0,12.5,0,18v15.5c0,5.5-4.5,10-10,10H234.5c-5.5,0-10-4.5-10-10v-98.8
			c0-5.5-4.5-10-10-10h-52.4"/>
		<line class="st7" x1="160.2" y1="279.8" x2="158.2" y2="279.8"/>
		<g>
			<polygon class="st9" points="159.6,274.8 151,279.8 159.6,284.7 			"/>
		</g>
	</g>
</g>
<g>
	<path class="st3" d="M486,363h-31c-5,0-9,4-9,9l0,0c0,5,4,9,9,9h31c5,0,9-4,9-9l0,0C495,367,491,363,486,363z"/>
	<g>
		<g>
			<path class="st1" d="M462.4,369.4l0.4-2.3h1.4l-1.9,9.2h-1.1l0.1-0.9h0c-0.6,0.6-1.4,1-2.1,1c-1.1,0-1.8-0.8-1.8-2.3
				c0-2.4,1.7-4.4,3.4-4.4c0.6,0,1.1,0.3,1.4,0.9h0L462.4,369.4z M461.4,374.3l0.5-2.5c-0.3-0.5-0.7-0.8-1.1-0.8
				c-1.1,0-2.1,1.4-2.1,3c0,0.9,0.4,1.4,1,1.4C460.3,375.3,460.9,375,461.4,374.3z"/>
			<path class="st1" d="M464.4,373.9c0-2.4,1.8-4.1,3.5-4.1c1.4,0,2.4,1,2.4,2.6c0,2.4-1.8,4.1-3.5,4.1
				C465.3,376.5,464.4,375.5,464.4,373.9z M468.9,372.4c0-1-0.4-1.5-1.1-1.5c-1,0-2,1.3-2,2.9c0,1,0.4,1.5,1.1,1.5
				C467.9,375.4,468.9,374.1,468.9,372.4z"/>
			<path class="st1" d="M472.3,370h1.1l-0.1,0.9h0.1c0.7-0.6,1.4-1.1,2.2-1.1c1.1,0,1.5,0.6,1.5,1.6c0,0.3,0,0.6-0.1,0.9l-0.8,4
				h-1.4l0.8-3.9c0.1-0.3,0.1-0.5,0.1-0.7c0-0.5-0.3-0.8-0.8-0.8c-0.4,0-0.9,0.3-1.6,1l-0.9,4.4H471L472.3,370z"/>
			<path class="st1" d="M481.7,369.8c1.5,0,2,1,2,2.4c0,0.6-0.2,1.1-0.3,1.4h-3.9c-0.1,1.3,0.6,1.9,1.6,1.9c0.4,0,0.9-0.2,1.3-0.5
				l0.5,0.9c-0.5,0.4-1.3,0.7-2.2,0.7c-1.5,0-2.6-1-2.6-2.7C478.2,371.4,480,369.8,481.7,369.8z M482.5,372.6c0-0.2,0.1-0.4,0.1-0.6
				c0-0.6-0.3-1.2-1-1.2c-0.8,0-1.5,0.6-1.8,1.7H482.5z"/>
		</g>
	</g>
</g>
<g>
	<g class="st6">
		<path class="st0" d="M145.4,296H61.6c-3.1,0-5.6-2.5-5.6-5.6v-19.9c0-3.1,2.5-5.6,5.6-5.6h83.9c3.1,0,5.6,2.5,5.6,5.6v19.9
			C151,293.5,148.5,296,145.4,296z"/>
	</g>
	<g>
		<g class="st10">
			<path class="st1" d="M73,277h1.4l-0.1,1.1h0.1c0.8-0.7,1.7-1.3,2.7-1.3c1.3,0,1.9,0.7,1.9,2c0,0.4,0,0.7-0.1,1.1l-1,5h-1.7l1-4.7
				c0.1-0.4,0.1-0.6,0.1-0.8c0-0.7-0.3-1-1-1c-0.6,0-1.2,0.4-2,1.2l-1.1,5.4h-1.7L73,277z"/>
			<path class="st1" d="M84.5,276.8c1.8,0,2.5,1.3,2.5,2.9c0,0.7-0.2,1.4-0.3,1.7h-4.8c-0.2,1.7,0.7,2.4,1.9,2.4
				c0.6,0,1.2-0.3,1.6-0.6l0.6,1.1c-0.6,0.4-1.6,0.8-2.7,0.8c-1.9,0-3.2-1.2-3.2-3.3C80.2,278.8,82.5,276.8,84.5,276.8z M85.5,280.3
				c0-0.2,0.1-0.4,0.1-0.7c0-0.8-0.3-1.4-1.3-1.4c-0.9,0-1.9,0.8-2.3,2.1H85.5z"/>
			<path class="st1" d="M88.7,277h1.7l0.1,4.2c0,0.8,0,1.5,0,2.3h0.1c0.3-0.8,0.6-1.5,0.9-2.3l1.8-4.2h1.6l0.2,4.2
				c0,0.8,0,1.5,0,2.3h0.1c0.3-0.8,0.6-1.5,0.9-2.3l1.8-4.2h1.6l-3.5,7.9h-2.1l-0.1-3.8c0-0.7,0-1.5,0-2.3h-0.1
				c-0.3,0.8-0.6,1.6-0.9,2.3l-1.6,3.8h-2L88.7,277z"/>
			<path class="st1" d="M102.2,283.5l1-0.8c0.5,0.7,1.2,1.1,1.9,1.1c0.7,0,1.4-0.5,1.4-1c0-0.5-0.4-0.8-1.4-1.3
				c-1-0.6-1.7-1.2-1.7-2.2c0-1.4,1.3-2.5,2.9-2.5c1,0,1.8,0.5,2.5,1.1l-1,0.9c-0.4-0.4-0.9-0.7-1.5-0.7c-0.7,0-1.2,0.4-1.2,1
				c0,0.6,0.7,0.9,1.3,1.2c1.2,0.6,1.7,1.2,1.7,2.2c0,1.5-1.3,2.5-3.1,2.5C103.9,285,102.8,284.4,102.2,283.5z"/>
			<path class="st1" d="M109.9,283.1c0-0.3,0.1-0.6,0.1-0.9l0.8-3.8h-1.1l0.3-1.3l1.2-0.1l0.6-2.1h1.4l-0.4,2.1h1.9l-0.3,1.4h-1.9
				l-0.8,3.9c0,0.2,0,0.4,0,0.5c0,0.6,0.3,0.9,0.9,0.9c0.3,0,0.5-0.1,0.7-0.2l0.3,1.2c-0.4,0.2-1,0.4-1.7,0.4
				C110.5,285,109.9,284.2,109.9,283.1z"/>
			<path class="st1" d="M115,282.2c0-3,2-5.4,4.2-5.4c0.8,0,1.5,0.4,1.8,1.1h0l0.3-0.9h1.4l-1.6,7.9h-1.4l0.1-1.1h0
				c-0.7,0.8-1.7,1.3-2.6,1.3C115.8,285,115,284,115,282.2z M120,282.3l0.6-3.1c-0.4-0.7-0.8-1-1.3-1c-1.3,0-2.5,1.7-2.5,3.7
				c0,1.2,0.5,1.7,1.2,1.7C118.6,283.6,119.4,283.2,120,282.3z"/>
			<path class="st1" d="M124.2,283.1c0-0.3,0.1-0.6,0.1-0.9l0.8-3.8H124l0.3-1.3l1.2-0.1l0.6-2.1h1.4l-0.4,2.1h1.9l-0.3,1.4h-1.9
				l-0.8,3.9c0,0.2,0,0.4,0,0.5c0,0.6,0.3,0.9,0.9,0.9c0.3,0,0.5-0.1,0.7-0.2l0.3,1.2c-0.4,0.2-1,0.4-1.7,0.4
				C124.8,285,124.2,284.2,124.2,283.1z"/>
			<path class="st1" d="M133.5,276.8c1.8,0,2.5,1.3,2.5,2.9c0,0.7-0.2,1.4-0.3,1.7h-4.8c-0.2,1.7,0.7,2.4,1.9,2.4
				c0.6,0,1.2-0.3,1.6-0.6l0.6,1.1c-0.6,0.4-1.6,0.8-2.7,0.8c-1.9,0-3.2-1.2-3.2-3.3C129.2,278.8,131.4,276.8,133.5,276.8z
				 M134.5,280.3c0-0.2,0.1-0.4,0.1-0.7c0-0.8-0.3-1.4-1.3-1.4c-0.9,0-1.9,0.8-2.3,2.1H134.5z"/>
		</g>
	</g>
</g>
<g>
	<path class="st1" d="M121.4,77H52.6c-3.1,0-5.6-2.5-5.6-5.6V51.5c0-3.1,2.5-5.6,5.6-5.6h68.9c3.1,0,5.6,2.5,5.6,5.6v19.9
		C127,74.5,124.5,77,121.4,77z"/>
</g>
<g>
	<g>
		<path class="st0" d="M66.3,70h-9.7c-2,0-3.7-1.6-3.7-3.7v-9.7c0-2,1.6-3.7,3.7-3.7h9.7c2,0,3.7,1.6,3.7,3.7v9.7
			C70,68.3,68.4,70,66.3,70z"/>
	</g>
	<g>
		<path class="st11" d="M61.3,61.6c0-1.4,0-2.6,0-2.6S61.3,60.1,61.3,61.6c0,1.4,0,2.6,0,2.6S61.3,63,61.3,61.6z"/>
		<path class="st11" d="M63.9,61.6c0,0-1.2,0-2.6,0c-1.4,0-2.6,0-2.6,0s1.2,0,2.6,0C62.7,61.6,63.9,61.6,63.9,61.6z"/>
	</g>
</g>
<g>
	<line class="st12" x1="74.6" y1="73.5" x2="74.6" y2="49.5"/>
</g>
<g>
	<path class="st0" d="M81.4,61.5c0-0.8,0.6-1.5,1.4-1.5c0.8,0,1.4,0.6,1.4,1.5c0,0.8-0.6,1.5-1.4,1.5C82,63,81.4,62.3,81.4,61.5z"/>
	<path class="st0" d="M86.2,61.5c0-0.8,0.6-1.5,1.4-1.5c0.8,0,1.4,0.6,1.4,1.5c0,0.8-0.6,1.5-1.4,1.5C86.8,63,86.2,62.3,86.2,61.5z"
		/>
	<path class="st0" d="M91,61.5c0-0.8,0.6-1.5,1.4-1.5c0.8,0,1.4,0.6,1.4,1.5c0,0.8-0.6,1.5-1.4,1.5C91.6,63,91,62.3,91,61.5z"/>
</g>
<g>
	<line class="st12" x1="100.7" y1="73.5" x2="100.7" y2="49.5"/>
</g>
<g>
	<line class="st13" x1="111.5" y1="59.2" x2="116" y2="63.7"/>
	<line class="st13" x1="116" y1="59.2" x2="111.5" y2="63.7"/>
</g>
<g>
	<g>
		<path class="st2" d="M317,141.6v1.2c0,4,3,7.2,6.8,7.7"/>
		<g>
			<path class="st0" d="M313.2,141.7c0-2.1,1.7-3.8,3.8-3.8s3.8,1.7,3.8,3.8c0,2.1-1.7,3.8-3.8,3.8S313.2,143.8,313.2,141.7z"/>
		</g>
		<g>
			<polygon class="st0" points="322.2,155.2 331,150.5 322.5,145.2 			"/>
		</g>
	</g>
</g>
<g>
	<g>
		<path class="st2" d="M33,96v1.2c0,4,3,7.2,6.8,7.7"/>
		<g>
			<path class="st0" d="M29.2,96.2c0-2.1,1.7-3.8,3.8-3.8s3.8,1.7,3.8,3.8c0,2.1-1.7,3.8-3.8,3.8S29.2,98.3,29.2,96.2z"/>
		</g>
		<g>
			<polygon class="st0" points="38.2,109.7 47,105 38.5,99.7 			"/>
		</g>
	</g>
</g>
<g>
	<g>
		<path class="st0" d="M155.4,121.5H52.6c-3.1,0-5.6-2.5-5.6-5.6V96c0-3.1,2.5-5.6,5.6-5.6h102.9c3.1,0,5.6,2.5,5.6,5.6v19.9
			C161,119,158.5,121.5,155.4,121.5z"/>
	</g>
	<g>
		<g>
			<path class="st1" d="M57.5,106.4c0-2.6,1.6-4.1,3.3-4.1c0.9,0,1.5,0.3,2.1,0.9l-0.1-1.3V99h1.8v11.3h-1.5l-0.1-0.9h-0.1
				c-0.6,0.6-1.4,1-2.2,1C58.7,110.5,57.5,109,57.5,106.4z M62.8,108.1v-3.7c-0.5-0.5-1.1-0.7-1.6-0.7c-1,0-1.8,0.9-1.8,2.6
				c0,1.7,0.7,2.6,1.8,2.6C61.8,109,62.3,108.7,62.8,108.1z"/>
			<path class="st1" d="M66.5,106.4c0-2.6,1.8-4.1,3.6-4.1c2.1,0,3.2,1.5,3.2,3.7c0,0.4,0,0.7-0.1,0.9h-5c0.2,1.4,1.1,2.2,2.3,2.2
				c0.7,0,1.2-0.2,1.8-0.6l0.6,1.1c-0.7,0.5-1.7,0.9-2.7,0.9C68.2,110.5,66.5,109,66.5,106.4z M71.7,105.6c0-1.2-0.5-1.9-1.6-1.9
				c-0.9,0-1.7,0.7-1.9,1.9H71.7z"/>
			<path class="st1" d="M74.1,102.4H76l1.2,4.1c0.2,0.8,0.4,1.6,0.7,2.4H78c0.2-0.8,0.4-1.6,0.7-2.4l1.2-4.1h1.8l-2.7,7.9h-2.1
				L74.1,102.4z"/>
			<path class="st1" d="M82.5,106.4c0-2.6,1.8-4.1,3.6-4.1c2.1,0,3.2,1.5,3.2,3.7c0,0.4,0,0.7-0.1,0.9h-5c0.2,1.4,1.1,2.2,2.3,2.2
				c0.7,0,1.2-0.2,1.8-0.6l0.6,1.1c-0.7,0.5-1.7,0.9-2.7,0.9C84.2,110.5,82.5,109,82.5,106.4z M87.8,105.6c0-1.2-0.5-1.9-1.6-1.9
				c-0.9,0-1.7,0.7-1.9,1.9H87.8z"/>
			<path class="st1" d="M91.1,108.3V99H93v9.4c0,0.5,0.2,0.6,0.4,0.6c0.1,0,0.1,0,0.3,0l0.2,1.4c-0.2,0.1-0.5,0.2-1,0.2
				C91.6,110.5,91.1,109.6,91.1,108.3z"/>
			<path class="st1" d="M94.9,106.4c0-2.6,1.8-4.1,3.7-4.1c2,0,3.7,1.5,3.7,4.1c0,2.6-1.8,4.1-3.7,4.1
				C96.7,110.5,94.9,109,94.9,106.4z M100.5,106.4c0-1.6-0.7-2.6-1.8-2.6s-1.8,1-1.8,2.6s0.7,2.6,1.8,2.6S100.5,107.9,100.5,106.4z"
				/>
			<path class="st1" d="M104.2,102.4h1.5l0.1,0.8h0.1c0.7-0.6,1.5-1,2.4-1c2,0,3.1,1.6,3.1,4c0,2.7-1.6,4.2-3.4,4.2
				c-0.7,0-1.4-0.3-2-0.9l0.1,1.3v2.5h-1.8V102.4z M109.5,106.3c0-1.6-0.5-2.5-1.7-2.5c-0.6,0-1.1,0.3-1.7,0.9v3.7
				c0.6,0.5,1.1,0.7,1.6,0.7C108.7,109,109.5,108,109.5,106.3z"/>
			<path class="st1" d="M113.3,102.4h1.5l0.1,1.1h0.1c0.7-0.7,1.4-1.3,2.4-1.3c1.2,0,1.8,0.5,2.2,1.4c0.8-0.8,1.5-1.4,2.5-1.4
				c1.7,0,2.4,1.1,2.4,3.1v4.9h-1.8v-4.7c0-1.3-0.4-1.8-1.2-1.8c-0.5,0-1,0.3-1.6,1v5.5H118v-4.7c0-1.3-0.4-1.8-1.2-1.8
				c-0.5,0-1,0.3-1.6,1v5.5h-1.8V102.4z"/>
			<path class="st1" d="M126.2,106.4c0-2.6,1.8-4.1,3.6-4.1c2.1,0,3.2,1.5,3.2,3.7c0,0.4,0,0.7-0.1,0.9h-5c0.2,1.4,1.1,2.2,2.3,2.2
				c0.7,0,1.2-0.2,1.8-0.6l0.6,1.1c-0.7,0.5-1.7,0.9-2.7,0.9C127.9,110.5,126.2,109,126.2,106.4z M131.5,105.6
				c0-1.2-0.5-1.9-1.6-1.9c-0.9,0-1.7,0.7-1.9,1.9H131.5z"/>
			<path class="st1" d="M134.9,102.4h1.5l0.1,1.1h0.1c0.7-0.7,1.5-1.3,2.6-1.3c1.7,0,2.4,1.1,2.4,3.1v4.9h-1.8v-4.7
				c0-1.3-0.4-1.8-1.2-1.8c-0.7,0-1.1,0.3-1.8,1v5.5h-1.8V102.4z"/>
			<path class="st1" d="M144.1,107.6v-3.7H143v-1.4l1.2-0.1l0.2-2.1h1.5v2.1h2v1.5h-2v3.7c0,0.9,0.4,1.4,1.1,1.4
				c0.3,0,0.6-0.1,0.8-0.2l0.3,1.4c-0.4,0.1-1,0.3-1.6,0.3C144.8,110.5,144.1,109.3,144.1,107.6z"/>
		</g>
	</g>
	<path class="st14" d="M156,125H52c-5,0-9-4-9-9V95.9c0-5,4-9,9-9h104c5,0,9,4,9,9V116C165,121,161,125,156,125z"/>
</g>
<g>
	<g>
		<path class="st15" d="M161,105.5h27c5.5,0,14.5,0,20,0h39c5.5,0,14.5,0,20,0h0c5.5,0,10,4.5,10,10V144c0,5.5,4.5,10,10,10h12.8"/>
		<g>
			<polygon class="st3" points="298.4,159 307,154 298.4,149 			"/>
		</g>
	</g>
</g>
<circle class="st16" cx="160.2" cy="105.2" r="3.2"/>
<g>
	<path class="st3" d="M248,97h-41c-5,0-9,4-9,9v0c0,5,4,9,9,9h41c5,0,9-4,9-9v0C257,101,253,97,248,97z"/>
	<g>
		<g>
			<path class="st1" d="M210.3,101.8h2.9c1.8,0,3.1,0.6,3.1,2.5c0,1.8-1.4,2.7-3.1,2.7h-1.4v3.3h-1.5V101.8z M213,105.8
				c1.2,0,1.8-0.5,1.8-1.5c0-1-0.6-1.3-1.8-1.3h-1.2v2.8H213z M212.9,106.6l1.1-0.9l2.7,4.6h-1.7L212.9,106.6z"/>
			<path class="st1" d="M218,101.8h5.1v1.3h-3.6v2.2h3.1v1.3h-3.1v2.5h3.7v1.3H218V101.8z"/>
			<path class="st1" d="M226.6,101.8h1.8l2.8,8.5h-1.6l-1.3-4.5c-0.3-0.9-0.5-1.9-0.8-2.8h-0.1c-0.2,0.9-0.5,1.9-0.8,2.8l-1.3,4.5
				h-1.5L226.6,101.8z M225.5,106.8h4v1.2h-4V106.8z"/>
			<path class="st1" d="M232.2,101.8h2.3c2.6,0,4.1,1.4,4.1,4.2c0,2.8-1.5,4.3-4.1,4.3h-2.3V101.8z M234.4,109.1
				c1.7,0,2.7-1,2.7-3.1c0-2.1-1-3-2.7-3h-0.7v6.1H234.4z"/>
			<path class="st1" d="M241.8,107.2l-2.6-5.3h1.6l0.9,2.2c0.2,0.6,0.5,1.2,0.8,1.9h0.1c0.3-0.6,0.5-1.2,0.8-1.9l0.9-2.2h1.6
				l-2.6,5.3v3.2h-1.5V107.2z"/>
		</g>
	</g>
</g>
<circle class="st16" cx="308" cy="154.3" r="3.2"/>
<g>
	<circle class="st16" cx="105.2" cy="125" r="5.1"/>
	<g class="st10">
		<circle class="st3" cx="105.2" cy="125" r="2.1"/>
	</g>
</g>
<g>
	<circle class="st16" cx="163.8" cy="116.2" r="5.1"/>
	<g class="st10">
		<circle class="st3" cx="163.8" cy="116.2" r="2.1"/>
	</g>
</g>
<g>
	<circle class="st16" cx="42.8" cy="116.2" r="5.1"/>
	<g class="st10">
		<circle class="st3" cx="42.8" cy="116.2" r="2.1"/>
	</g>
</g>
<g>
	<circle class="st16" cx="104.7" cy="86.9" r="5.1"/>
	<g class="st10">
		<circle class="st3" cx="104.7" cy="86.9" r="2.1"/>
	</g>
</g>
</svg>
