<svg xmlns="http://www.w3.org/2000/svg" width="780" height="250"><style>@font-face{font-family:&quot;TTCommons&quot;;src:url(https://stately.ai/assets/ttcommons.woff2) format(&quot;woff2&quot;)}text{font-family:&quot;TTCommons&quot;,Arial,sans-serif;font-variation-settings:&apos;wght&apos; 450}</style><g fill="none" fillRule="evenodd"><g><path fill="#E3E9F3" d="M0 0h780v250H0z"/><path stroke="#555762" stroke-width="3" d="M210 100V60c.064-13.334 6.73-20 20-20h315c13.333.385 20 7.052 20 20v39.667M210 150v39.666c.064 13.334 6.73 20 20 20h315c13.333-.385 20-7.052 20-20V150"/><g transform="translate(484.869 99.667)"><rect width="160.861" height="50" x=".139" y=".333" fill="#555762" rx="15"/><text fill="#FFF" font-family="TTCommons, Arial, sans-serif" font-size="30" font-weight="400"><tspan x="22" y="35">logged in</tspan></text></g><g transform="translate(120.19 99.667)"><rect width="180.843" height="50" x=".157" y=".333" fill="#555762" rx="15"/><text fill="#FFF" font-family="TTCommons, Arial, sans-serif" font-size="30" font-weight="400"><tspan x="22" y="35">logged out</tspan></text></g><g transform="translate(338.5 20)"><rect width="97.778" height="40" fill="#1955DD" rx="20"/><text fill="#FFF" font-family="TTCommons, Arial, sans-serif" font-size="24" font-weight="400"><tspan x="20.462" y="28">log in</tspan></text></g><g transform="translate(332.5 190)"><rect width="113.741" height="40" fill="#1955DD" rx="20"/><text fill="#FFF" font-family="TTCommons, Arial, sans-serif" font-size="24" font-weight="400"><tspan x="20.375" y="28">log out</tspan></text></g><path fill="#555762" d="M575 88h-20l10 14zM200 162h20l-10-14z"/><g transform="translate(79 97)"><path stroke="#555762" stroke-width="3" d="M9 9.666c.064 13.333 6.73 20 20 20"/><path fill="#555762" d="M28 20v20l14-10z"/><circle cx="10" cy="10" r="10" fill="#555762"/></g></g></g></svg>