<svg xmlns="http://www.w3.org/2000/svg" width="780" height="375"><style>@font-face{font-family:&quot;TTCommons&quot;;src:url(https://stately.ai/assets/ttcommons.woff2) format(&quot;woff2&quot;)}text{font-family:&quot;TTCommons&quot;,Arial,sans-serif;font-variation-settings:&apos;wght&apos; 450}</style><g fill="none" fillRule="evenodd"><g><path fill="#E3E9F3" d="M0 0h780v375H0z"/><path stroke="#555762" stroke-width="3" d="M303.5 45H382c13.333.386 20 7.052 20 20v125.667"/><g transform="translate(123.19 19.667)"><rect width="180.843" height="50" x=".157" y=".333" fill="#555762" rx="15"/><text fill="#FFF" font-family="TTCommons, Arial, sans-serif" font-size="30" font-weight="400"><tspan x="18.609" y="35">logged out</tspan></text></g><g transform="translate(353.5 80)"><rect width="97.778" height="40" fill="#1955DD" rx="20"/><text fill="#FFF" font-family="TTCommons, Arial, sans-serif" font-size="24" font-weight="400"><tspan x="20.462" y="28">log in</tspan></text></g><path fill="#555762" d="M412 178h-20l10 14zM203 82h20l-10-14z"/><g transform="translate(82 17)"><path stroke="#555762" stroke-width="3" d="M9 9.666c.064 13.333 6.73 20 20 20"/><path fill="#555762" d="M28 20v20l14-10z"/><circle cx="10" cy="10" r="10" fill="#555762"/></g><rect width="667" height="161" x="58" y="193" fill="#FFF" stroke="#555762" stroke-width="4" rx="20"/><g transform="translate(425.869 269.667)"><rect width="99.913" height="50" x=".087" y=".333" fill="#555762" rx="15"/><text fill="#FFF" font-family="TTCommons, Arial, sans-serif" font-size="30" font-weight="400"><tspan x="25.984" y="35">idle</tspan></text></g><g transform="translate(257.19 269.667)"><rect width="127.889" height="50" x=".111" y=".333" fill="#555762" rx="15"/><text fill="#FFF" font-family="TTCommons, Arial, sans-serif" font-size="30" font-weight="400"><tspan x="24.13" y="35">active</tspan></text></g><g transform="translate(217 264)"><path stroke="#555762" stroke-width="3" d="M9 9.666c.064 13.333 6.73 20 20 20"/><path fill="#555762" d="M28 20v20l14-10z"/><circle cx="10" cy="10" r="10" fill="#555762"/></g><g><path fill="#555762" d="M71 191h641c8.284 0 15 6.716 15 15v35H56v-35c0-8.284 6.716-15 15-15z"/><text fill="#FFF" font-family="TTCommons, Arial, sans-serif" font-size="30" font-weight="400" transform="translate(56 191)"><tspan x="274.411" y="35">logged in</tspan></text></g><path stroke="#555762" stroke-width="3" d="M213.5 71.5v120"/><g transform="translate(155.5 110)"><rect width="113.741" height="40" fill="#1955DD" rx="20"/><text fill="#FFF" font-family="TTCommons, Arial, sans-serif" font-size="24" font-weight="400"><tspan x="20.375" y="28">log out</tspan></text></g></g></g></svg>