<svg xmlns="http://www.w3.org/2000/svg" width="818" height="223" fill="none">
  <path fill="#000" fill-rule="evenodd" d="M128.759 45.638c12.602 0 22.818-10.216 22.818-22.819C151.577 10.217 141.361 0 128.759 0c-12.603 0-22.819 10.217-22.819 22.819 0 12.603 10.216 22.819 22.819 22.819ZM184.042 123.199v-.019L60.863 0c-17.822 17.823-17.722 46.619.1 64.442l39.2 39.199-.066.067 22.215 22.214c.807.807 1.341 1.921 1.341 3.152 0 1.265-.59 2.386-1.437 3.197l-25.91 25.91a4.44 4.44 0 0 1-6.277 0l-25.993-25.993a4.439 4.439 0 0 1 0-6.278c17.734-18.925 4.497-41.58-3.696-49.255l-5.795-5.795L2.6 122.805a8.878 8.878 0 0 0 0 12.555l84.257 84.257a8.876 8.876 0 0 0 12.554 0l84.077-84.077a8.392 8.392 0 0 0 2.987-6.426c0-2.306-.93-4.395-2.433-5.915ZM300.643 104.22c-20.552-2.691-24.019-6.909-24.019-15.345 0-8.552 7.934-13.864 20.706-13.864 14.076 0 21.077 4.579 23.41 15.312l.072.332h11.858l-.061-.48c-2.015-15.886-14.544-24.635-35.279-24.635-19.13 0-33.015 10.228-33.015 24.321 0 17.686 16.456 22.317 34.235 24.686 18.518 2.603 24.164 6.447 24.164 16.454 0 9.39-9.543 16.205-22.691 16.205-20.701 0-24.913-9.122-26.381-18.979l-.054-.361h-12.73l.059.478c1.585 12.926 9.656 28.334 39.106 28.334 20.196 0 35.425-11.357 35.425-26.416 0-17.725-13.317-23.106-34.805-26.042ZM419.634 66.647H347.51v11.295h29.483v77.627h13.158V77.942h29.483V66.647ZM447.383 119.996 463.5 77.088l16.117 42.908h-32.234Zm8.326-53.349-35.206 88.922h12.518l9.781-25.374h41.255l9.922 25.374h13.081l-34.634-88.922h-16.717ZM508.889 77.942h29.483v77.627h13.158V77.942h29.483V66.647h-72.124v11.295ZM613.369 116.499h24.97v-11.174h-24.97V77.942h49.202V66.647h-62.362v88.922h62.362v-11.295h-49.202v-27.775ZM697.082 66.647h-13.158v88.922h59.51v-11.295h-46.352V66.647ZM804.257 66.647l-25.295 40.544-26.278-40.544h-14.907l34.258 50.2v38.722h13.159v-38.605l32.39-50.317h-13.327Z" clip-rule="evenodd"/>
</svg>
