<svg width="615" height="167" viewBox="0 0 615 167" fill="none" xmlns="http://www.w3.org/2000/svg"><path fill-rule="evenodd" clip-rule="evenodd" d="M248.953 43.1398C269.734 43.1398 282.292 51.9068 284.311 67.8266L284.372 68.3067H272.49L272.416 67.9735C270.077 57.2199 263.06 52.6319 248.953 52.6319C236.154 52.6319 228.201 57.9548 228.201 66.5209C228.201 74.9769 231.678 79.2024 252.273 81.8994C273.808 84.8389 287.156 90.2328 287.156 107.995C287.156 123.084 271.892 134.462 251.655 134.462C222.138 134.462 214.048 119.025 212.46 106.072L212.401 105.594H225.161L225.215 105.957C226.685 115.833 230.906 124.973 251.653 124.973C264.831 124.973 274.394 118.143 274.394 108.734C274.394 98.7083 268.734 94.8552 250.175 92.2488C232.356 89.8727 215.868 85.2332 215.868 67.5106C215.868 53.3888 229.782 43.1398 248.953 43.1398ZM371.529 44.2494V55.5665H341.982V133.353H328.791V55.5665H299.244V44.2494H371.529ZM424.437 44.2494L459.146 133.353H446.038L436.091 107.926H394.747L384.947 133.353H372.398L407.681 44.2494H424.437ZM533.263 44.2494V55.5665H503.716V133.353H490.528V55.5689H460.981V44.2519H533.263V44.2494ZM615 44.2494V55.5665H565.689V83.0066H590.716V94.2011H565.689V122.033H615V133.35H552.5V44.2494H615ZM415.489 54.7116L399.336 97.7065H431.642L415.489 54.7116Z" fill="#fff"/><path fill-rule="evenodd" clip-rule="evenodd" d="M5.3629 0.000339638L38.8275 0.272242C42.0782 0.298224 45.1379 1.812 47.1305 4.38018L166.691 158.436C169.4 161.924 166.911 167 162.499 167H127.464C124.154 167 121.032 165.457 119.023 162.828L85.6788 117.193L48.7745 162.97C46.7598 165.516 43.6912 167 40.4445 167H5.3188C0.881845 167 -1.59755 161.878 1.1538 158.397L59.6966 84.2534L1.10235 8.53465C-1.57795 5.02441 0.947996 -0.0339544 5.36535 0.00278921L5.3629 0.000339638ZM162.454 0.000168974C166.913 -0.0339544 169.427 5.1077 166.661 8.60324L114.422 74.6094C110.696 71.6773 81.7784 47.4682 109.677 15.053C109.677 15.053 111.86 12.4994 114.112 9.85828L114.548 9.34666L114.983 8.83682C116.713 6.80634 118.321 4.91406 118.825 4.30424C121.584 0.965471 123.855 0.299188 127.072 0.274692L162.454 0.000168974Z" fill="#fff"/></svg>