<svg width="16" height="14" viewBox="0 0 16 14" fill="none" xmlns="http://www.w3.org/2000/svg"><path d="M8.00001 0.399994C5.48841 0.399994 2.22853 1.02929 2.22853 1.02929L2.22032 1.03867C1.07641 1.22161 0.200012 2.20457 0.200012 3.39999V6.99999V7.00117V10.6V10.6012C0.201128 11.1721 0.405734 11.7239 0.777091 12.1576C1.14845 12.5912 1.66223 12.8783 2.22618 12.9672L2.22853 12.9707C2.22853 12.9707 5.48841 13.6012 8.00001 13.6012C10.5116 13.6012 13.7715 12.9707 13.7715 12.9707L13.7727 12.9695C14.3372 12.8808 14.8516 12.5935 15.2232 12.1593C15.5949 11.7252 15.7994 11.1727 15.8 10.6012V10.6V7.00117V6.99999V3.39999C15.7992 2.82887 15.5947 2.27677 15.2233 1.84288C14.8519 1.40899 14.338 1.12177 13.7738 1.03281L13.7715 1.02929C13.7715 1.02929 10.5116 0.399994 8.00001 0.399994ZM6.20001 4.23906L11 6.99999L6.20001 9.76093V4.23906Z" fill="#fff"/></svg>