<svg width="630" height="330" xmlns="http://www.w3.org/2000/svg">
  <path d="M86.494 224.978c-9.463 1.661-19.092 2.16-29.052 3.487L27.06 139.48v92.803c-9.462.995-18.095 2.323-27.06 3.652v-170h25.235l34.53 96.456V65.936h26.729v159.042Zm52.295-96.787c10.294 0 26.065-.498 35.528-.498v26.562c-11.788 0-25.567 0-35.528.498v39.513c15.606-.996 31.212-2.325 46.982-2.824v25.565l-73.545 5.812V65.936h73.545v26.562H138.79v35.693ZM284.55 92.5h-27.558v122.187c-8.965 0-17.93 0-26.561.331V92.5h-27.558V65.936h81.679l-.002 26.563Zm43.164 33.867h36.358v26.562h-36.358v60.264h-26.066V65.936h74.211v26.562h-48.145v33.868Zm91.309 63.583c15.108.331 30.38 1.495 45.156 2.324v26.23c-23.74-1.494-47.48-2.986-71.718-3.486V65.936h26.562v124.013Zm67.568 30.381c8.467.499 17.432.997 26.065 1.992V65.936H486.59V220.33ZM629.034 65.936l-33.702 80.85 33.702 89.15c-9.962-1.329-19.923-3.155-29.884-4.815l-19.091-49.14-19.422 45.157c-9.631-1.662-18.928-2.16-28.555-3.488l34.199-77.862-30.88-79.852h28.553l17.432 44.658 18.595-44.658h29.053Z" fill="#FFF"/>
</svg>
