<svg width="95" height="90" viewBox="0 0 95 90" fill="none" xmlns="http://www.w3.org/2000/svg">
<path d="M57.0941 16.974C62.2716 16.3464 66.5862 13.993 70.9792 11.7181C74.274 10.0707 77.4903 8.42328 80.8635 6.85434C82.9031 5.91297 85.0212 5.36384 87.2962 5.52074C91.3754 5.83453 94.0426 8.50173 94.0426 12.6594C94.0426 18.2292 91.3754 22.4653 86.6686 25.2894C81.4911 28.4273 76.0782 28.4273 70.587 26.0739C66.1939 24.1912 62.4285 21.2886 58.7414 18.3076C58.2708 17.9938 57.7216 17.5231 57.0941 16.974Z" fill="#7CBFE7"/>
<path fill-rule="evenodd" clip-rule="evenodd" d="M67.2138 40.5867C76.0783 41.3712 83.2955 38.3117 88.7083 30.8592C88.3161 31.0161 88.1592 31.0946 88.0023 31.173C82.9817 33.0558 77.8826 33.448 72.7051 32.2713C67.5276 31.0946 63.0561 28.5843 58.82 25.6817C52.7011 21.5241 47.2099 16.5819 41.7186 11.6398L41.7185 11.6397C38.1099 8.42337 34.3445 5.44238 30.0299 3.16741C25.9506 0.970892 21.636 -0.205815 16.9292 0.0295266C7.98623 0.578656 0.7691 7.6389 0.0630762 16.5819C-0.407606 22.8576 1.78891 28.2705 5.63282 33.1342L6.33884 33.8402C6.49574 30.8592 7.20176 28.192 9.00604 25.9171C12.85 21.0534 17.8706 19.8766 23.6757 21.0534C27.5196 21.7594 30.8928 23.7206 34.1876 25.6817C35.0204 26.1865 35.8532 26.6932 36.6866 27.2004C41.0347 29.8462 45.4006 32.5028 49.877 34.9385C55.2898 37.9195 61.0165 40.0376 67.2138 40.5867ZM53.6425 50.9416C59.2123 50.2356 64.4682 48.6667 69.4888 46.2348C68.8988 46.1587 68.3087 46.0871 67.7197 46.0157C65.8814 45.7929 64.0541 45.5715 62.2717 45.215C55.9175 44.0383 50.1909 41.3711 44.6996 38.2332C41.2479 36.2458 37.8659 34.1888 34.4839 32.1317C32.793 31.1032 31.102 30.0747 29.4024 29.0549C26.9705 27.6428 24.4602 26.5446 21.6361 26.0739C17.0077 25.3679 13.0854 27.4859 11.9087 31.4867C10.9673 34.6246 11.9871 37.3703 13.8698 39.8806C15.4388 41.9202 17.4784 43.3322 19.6749 44.5874C30.3437 50.3925 41.6401 52.5106 53.6425 50.9416Z" fill="#203F7D"/>
<path fill-rule="evenodd" clip-rule="evenodd" d="M37.1124 77.9234C37.2167 77.9234 37.3371 77.9073 37.4662 77.8901C37.6152 77.8702 37.7758 77.8488 37.9364 77.8488C38.0862 77.8488 38.236 77.8302 38.3859 77.8116C38.5357 77.7929 38.6855 77.7743 38.8353 77.7743H39.7343H40.5583C41.6071 77.7743 42.506 77.9234 43.2551 78.2216C44.0042 78.5198 44.6035 78.8925 45.053 79.4889C45.5025 80.0107 45.877 80.6816 46.1017 81.3525C46.3265 82.098 46.4014 82.918 46.4014 83.738C46.4014 84.558 46.3265 85.3034 46.1017 86.0489C45.877 86.7944 45.5774 87.4653 45.053 88.0616C44.6035 88.658 43.9293 89.1053 43.1802 89.478C42.4311 89.8507 41.4572 89.9998 40.3336 89.9998H39.5845C39.2848 89.9998 38.9852 89.9998 38.6855 89.9253C38.3859 89.9253 38.0862 89.9253 37.7866 89.8507C37.4869 89.8507 37.2622 89.8507 37.1124 89.7762V77.9234ZM40.783 79.8616H40.0339C39.8092 79.8616 39.5845 79.8616 39.4346 79.9361V87.838H39.6594H40.0339H40.4085H40.6332C41.3074 87.838 41.8318 87.6889 42.2813 87.4653C42.7307 87.2416 43.0304 86.9434 43.33 86.5707C43.6297 86.198 43.7795 85.7507 43.8544 85.2289C43.9293 84.7071 44.0042 84.1852 44.0042 83.6634C44.0042 83.273 43.9471 82.8825 43.8828 82.4424L43.8826 82.4413C43.8733 82.3776 43.8639 82.3129 43.8544 82.2471C43.7795 81.7252 43.6297 81.3525 43.33 80.9798C43.1053 80.607 42.7307 80.3089 42.3562 80.0852C41.9816 79.9361 41.4572 79.8616 40.783 79.8616ZM31.8685 77.9235H29.5463V89.7763H31.8685V77.9235ZM21.7554 80.0115H25.2013H25.2763V77.9242H15.9872V80.0115H19.4332V89.777H21.7554V80.0115ZM58.1624 77.9235H51.1207V89.8509H58.2373V87.7636H53.443V84.8563H57.7129V82.769H53.443V80.0108H58.1624V77.9235ZM62.9568 77.9235H69.9984V80.0108H65.279V82.9181H69.6239V85.0054H65.279V89.7763H62.9568V77.9235ZM77.1149 77.9235H74.7926V89.7763H77.1149V77.9235Z" fill="#555555"/>
</svg>
