<?xml-stylesheet href="https://cdnjs.cloudflare.com/ajax/libs/font-awesome/6.5.2/css/all.min.css" type="text/css"?><svg xmlns="http://www.w3.org/2000/svg" xmlns:xlink="http://www.w3.org/1999/xlink" style="max-width:100%" id="graph-div" width="100%" height="100%" aria-roledescription="stateDiagram" class="statediagram" role="graphics-document document" viewBox="0.5 0 824.688 748"><style>#graph-div{fill:#333}#graph-div .edge-thickness-normal{stroke-width:2px}#graph-div,#graph-div svg{font-family:&quot;trebuchet ms&quot;,verdana,arial,sans-serif;font-size:16px}#graph-div .transition{stroke:#333;stroke-width:1;fill:none}#graph-div .edgeLabel .label rect{fill:#ececff;opacity:.5}#graph-div .label div .edgeLabel{color:#333}#graph-div .node circle.state-start{fill:#333;stroke:#333}#graph-div .node rect,#graph-div .statediagram-cluster rect{fill:#ececff;stroke:#9370db;stroke-width:1px}#graph-div .cluster-label,#graph-div .nodeLabel{color:#131300}#graph-div .statediagram-cluster rect.outer,#graph-div .statediagram-state rect.basic{rx:5px;ry:5px}#graph-div .statediagram-cluster.statediagram-cluster .inner{fill:#fff}#graph-div .statediagram-cluster .inner{rx:0;ry:0}#graph-div .statediagram .edgeLabel{color:red}#graph-div :root{--mermaid-font-family:&quot;trebuchet ms&quot;,verdana,arial,sans-serif}</style><g><defs><marker id="graph-div_statediagram-barbEnd" markerHeight="14" markerUnits="strokeWidth" markerWidth="20" orient="auto" refX="19" refY="7"><path d="M 19,7 L9,13 L14,7 L9,1 Z"/></marker></defs><g class="root"><g class="nodes"><g class="root"><g class="clusters" transform="translate(0.5, 0)"><g id="Claw_Machine" class="statediagram-state statediagram-cluster"><rect width="808.687" height="732" x="8" y="8" class="outer"/><g class="cluster-label" transform="translate(363.4104118347168, 8)"><foreignObject width="97.867" height="24"><div xmlns="http://www.w3.org/1999/xhtml" style="display:inline-block;white-space:nowrap"><span class="nodeLabel">Claw Machine</span></div></foreignObject></g><rect width="808.687" height="705" x="8" y="31" class="inner"/></g></g><g class="edgePaths" transform="translate(0.5, 0)"><path style="fill:none" id="edge14" marker-end="url(#graph-div_statediagram-barbEnd)" d="M509.279,47L509.279,51.167C509.279,55.333,509.279,63.667,509.279,72C509.279,80.333,509.279,88.667,509.279,92.833L509.279,97" class="edge-thickness-normal transition"/><path style="fill:none" id="edge15" marker-end="url(#graph-div_statediagram-barbEnd)" d="M464.062,135.67L449.387,141.891C434.711,148.113,405.36,160.557,390.684,172.945C376.008,185.333,376.008,197.667,376.008,203.833L376.008,210" class="edge-thickness-normal transition"/><path style="fill:none" id="edge16" marker-end="url(#graph-div_statediagram-barbEnd)" d="M328.618,273L316.332,281.167C304.045,289.333,279.473,305.667,267.186,322C254.9,338.333,254.9,354.667,254.9,362.833L254.9,371" class="edge-thickness-normal transition"/><path style="fill:none" id="edge17" marker-end="url(#graph-div_statediagram-barbEnd)" d="M437.96,273L454.021,281.167C470.083,289.333,502.206,305.667,537.846,338C573.487,370.333,612.644,418.667,632.223,442.833L651.802,467" class="edge-thickness-normal transition"/><path style="fill:none" id="edge18" marker-end="url(#graph-div_statediagram-barbEnd)" d="M675.589,467L685.489,442.833C695.39,418.667,715.191,370.333,725.091,332.75C734.992,295.167,734.992,268.333,734.992,243.5C734.992,218.667,734.992,195.833,704.909,176.886C674.826,157.94,614.661,142.879,584.578,135.349L554.496,127.819" class="edge-thickness-normal transition"/><path style="fill:none" id="edge19" marker-end="url(#graph-div_statediagram-barbEnd)" d="M254.9,602L254.9,608.167C254.9,614.333,254.9,626.667,254.9,639C254.9,651.333,254.9,663.667,254.9,669.833L254.9,676" class="edge-thickness-normal transition"/></g><g class="edgeLabels"><g class="edgeLabel"><g class="label" transform="translate(0.5, 0) translate(0, 0)"><rect width="0" height="0" rx="0" ry="0"/><foreignObject width="0" height="0"><div xmlns="http://www.w3.org/1999/xhtml" style="display:inline-block;white-space:nowrap"><span class="edgeLabel"/></div></foreignObject></g></g><g class="edgeLabel"><g class="label" transform="translate(0.5, 0) translate(376.00832748413086, 173) translate(-28.5, -12)"><rect width="57" height="24" rx="0" ry="0"/><foreignObject width="57" height="24"><div xmlns="http://www.w3.org/1999/xhtml" style="display:inline-block;white-space:nowrap"><span class="edgeLabel">connect</span></div></foreignObject></g></g><g class="edgeLabel"><g class="label" transform="translate(0.5, 0) translate(254.89999389648438, 322) translate(-107.43333435058594, -24)"><rect width="214.867" height="48" rx="0" ry="0"/><foreignObject width="214.867" height="48"><div xmlns="http://www.w3.org/1999/xhtml" style="display:inline-block;white-space:nowrap"><span class="edgeLabel">done.invoke.clientConnection<br/>do / assignRobotClient</span></div></foreignObject></g></g><g class="edgeLabel"><g class="label" transform="translate(0.5, 0) translate(534.329158782959, 322) translate(-114.78333282470703, -24)"><rect width="229.567" height="48" rx="0" ry="0"/><foreignObject width="229.567" height="48"><div xmlns="http://www.w3.org/1999/xhtml" style="display:inline-block;white-space:nowrap"><span class="edgeLabel">error.platform.clientConnection<br/>do / assignError</span></div></foreignObject></g></g><g class="edgeLabel"><g class="label" transform="translate(0.5, 0) translate(734.9916572570801, 241.5) translate(-53.650001525878906, -24)"><rect width="107.3" height="48" rx="0" ry="0"/><foreignObject width="107.3" height="48"><div xmlns="http://www.w3.org/1999/xhtml" style="display:inline-block;white-space:nowrap"><span class="edgeLabel">retry<br/>do / clearError</span></div></foreignObject></g></g><g class="edgeLabel"><g class="label" transform="translate(0.5, 0) translate(254.89999389648438, 639) translate(-23.89167022705078, -12)"><rect width="47.783" height="24" rx="0" ry="0"/><foreignObject width="47.783" height="24"><div xmlns="http://www.w3.org/1999/xhtml" style="display:inline-block;white-space:nowrap"><span class="edgeLabel">always</span></div></foreignObject></g></g></g><g class="nodes" transform="translate(0.5, 0)"><g id="state-Claw_Machine_start-14" class="node default" data-id="Claw_Machine_start" data-node="true" transform="translate(509.27915954589844, 40)"><circle width="14" height="14" r="7" class="state-start"/></g><g id="state-Claw_Machine.initializing-20" class="node statediagram-state undefined" data-id="Claw_Machine.initializing" data-node="true" transform="translate(509.27915954589844, 116.5)"><rect width="90.433" height="39" x="-45.217" y="-19.5" class="basic label-container"/><g class="label" transform="translate(-37.71666717529297, -12)"><rect/><foreignObject width="75.433" height="24"><div xmlns="http://www.w3.org/1999/xhtml" style="display:inline-block;white-space:nowrap"><span class="nodeLabel">initializing</span></div></foreignObject></g></g><g id="state-Claw_Machine.connectingToMachine-20" class="node statediagram-state undefined" data-id="Claw_Machine.connectingToMachine" data-node="true" transform="translate(376.00832748413086, 241.5)"><rect width="355.783" height="63" x="-177.892" y="-31.5" class="basic label-container"/><g class="label" transform="translate(-170.39166259765625, -24)"><rect/><foreignObject width="340.783" height="48"><div xmlns="http://www.w3.org/1999/xhtml" style="display:inline-block;white-space:nowrap"><span class="nodeLabel">connectingToMachine<br/>invoke / createRobotClient as clientConnection</span></div></foreignObject></g></g><g id="state-Claw_Machine.connected-20" class="node statediagram-state undefined" data-id="Claw_Machine.connected" data-node="true" transform="translate(254.89999389648438, 486.5)"><rect width="423.8" height="231" x="-211.9" y="-115.5" class="basic label-container"/><g class="label" transform="translate(-204.39999389648438, -108)"><rect/><foreignObject width="408.8" height="216"><div xmlns="http://www.w3.org/1999/xhtml" style="display:inline-block;white-space:nowrap"><span class="nodeLabel">connected<br/>entry / assignClients<br/><br/>Create the the necessary component and service clients:<br/><br/>- motionClient<br/>- boardClient<br/>- armClient<br/>- gripperClient</span></div></foreignObject></g></g><g id="state-Claw_Machine.clientErrored-20" class="node statediagram-state undefined" data-id="Claw_Machine.clientErrored" data-node="true" transform="translate(667.5999908447266, 486.5)"><rect width="109.483" height="39" x="-54.742" y="-19.5" class="basic label-container"/><g class="label" transform="translate(-47.241668701171875, -12)"><rect/><foreignObject width="94.483" height="24"><div xmlns="http://www.w3.org/1999/xhtml" style="display:inline-block;white-space:nowrap"><span class="nodeLabel">clientErrored</span></div></foreignObject></g></g><g id="state-Claw_Machine.ready-20" class="node statediagram-state undefined" data-id="Claw_Machine.ready" data-node="true" transform="translate(254.89999389648438, 695.5)"><rect width="55.15" height="39" x="-27.575" y="-19.5" class="basic label-container"/><g class="label" transform="translate(-20.074996948242188, -12)"><rect/><foreignObject width="40.15" height="24"><div xmlns="http://www.w3.org/1999/xhtml" style="display:inline-block;white-space:nowrap"><span class="nodeLabel">ready</span></div></foreignObject></g></g></g></g></g></g></g></svg>