<?xml version="1.0" encoding="UTF-8"?>
<svg width="1000px" height="405px" viewBox="0 0 1000 405" version="1.1" xmlns="http://www.w3.org/2000/svg" xmlns:xlink="http://www.w3.org/1999/xlink">
    <title>Stately</title>
    <g id="Logos" stroke="none" stroke-width="1" fill="none" fill-rule="evenodd">
        <g id="black" fill="#1A1919" transform="translate(91.000000, 91.000000)">
            <path d="M128.75925,45.638 C141.36125,45.638 151.57725,35.422 151.57725,22.819 C151.57725,10.217 141.36125,-2.84217094e-14 128.75925,-2.84217094e-14 C116.15625,-2.84217094e-14 105.94025,10.217 105.94025,22.819 C105.94025,35.422 116.15625,45.638 128.75925,45.638" id="Fill-1"></path>
            <path d="M184.04225,123.199 L184.04225,123.18 L60.86325,-2.84217094e-14 C43.04125,17.823 43.14125,46.619 60.96325,64.442 L100.16325,103.641 L100.09725,103.708 L122.31225,125.922 C123.11925,126.729 123.65325,127.843 123.65325,129.074 C123.65325,130.339 123.06325,131.46 122.21625,132.271 L96.30625,158.181 C94.57225,159.914 91.76225,159.914 90.02925,158.181 L64.03625,132.188 C62.30225,130.454 62.30225,127.644 64.03625,125.91 C81.77025,106.985 68.53325,84.33 60.34025,76.655 L54.54525,70.86 L2.60025,122.805 C-0.86675,126.272 -0.86675,131.893 2.60025,135.36 L86.85725,219.617 C90.32425,223.084 95.94425,223.084 99.41125,219.617 L183.48825,135.54 C185.31425,133.996 186.47525,131.692 186.47525,129.114 C186.47525,126.808 185.54525,124.719 184.04225,123.199" id="Fill-2"></path>
            <path d="M300.64325,104.22 C280.09125,101.529 276.62425,97.311 276.62425,88.875 C276.62425,80.323 284.55825,75.011 297.33025,75.011 C311.40625,75.011 318.40725,79.59 320.74025,90.323 L320.81225,90.655 L332.67025,90.655 L332.60925,90.175 C330.59425,74.289 318.06525,65.54 297.33025,65.54 C278.20025,65.54 264.31525,75.768 264.31525,89.861 C264.31525,107.547 280.77125,112.178 298.55025,114.547 C317.06825,117.15 322.71425,120.994 322.71425,131.001 C322.71425,140.391 313.17125,147.206 300.02325,147.206 C279.32225,147.206 275.11025,138.084 273.64225,128.227 L273.58825,127.866 L260.85825,127.866 L260.91725,128.344 C262.50225,141.27 270.57325,156.678 300.02325,156.678 C320.21925,156.678 335.44825,145.321 335.44825,130.262 C335.44825,112.537 322.13125,107.156 300.64325,104.22" id="Fill-3"></path>
            <polyline id="Fill-4" points="419.63425 66.647 347.51025 66.647 347.51025 77.942 376.99325 77.942 376.99325 155.569 390.15125 155.569 390.15125 77.942 419.63425 77.942 419.63425 66.647"></polyline>
            <path d="M447.38325,119.996 L463.50025,77.088 L479.61725,119.996 L447.38325,119.996 Z M455.70925,66.647 L420.50325,155.569 L433.02125,155.569 L442.80225,130.195 L484.05725,130.195 L493.97925,155.569 L507.06025,155.569 L472.42625,66.647 L455.70925,66.647 L455.70925,66.647 Z" id="Fill-5"></path>
            <polyline id="Fill-6" points="508.88925 77.942 538.37225 77.942 538.37225 155.569 551.53025 155.569 551.53025 77.942 581.01325 77.942 581.01325 66.647 508.88925 66.647 508.88925 77.942"></polyline>
            <polyline id="Fill-7" points="613.36925 116.499 638.33925 116.499 638.33925 105.325 613.36925 105.325 613.36925 77.942 662.57125 77.942 662.57125 66.647 600.20925 66.647 600.20925 155.569 662.57125 155.569 662.57125 144.274 613.36925 144.274 613.36925 116.499"></polyline>
            <polyline id="Fill-8" points="697.08225 66.647 683.92425 66.647 683.92425 155.569 743.43425 155.569 743.43425 144.274 697.08225 144.274 697.08225 66.647"></polyline>
            <polyline id="Fill-9" points="804.25725 66.647 778.96225 107.191 752.68425 66.647 737.77725 66.647 772.03525 116.847 772.03525 155.569 785.19425 155.569 785.19425 116.964 817.58425 66.647 804.25725 66.647"></polyline>
        </g>
    </g>
</svg>