<svg xmlns="http://www.w3.org/2000/svg" width="1880" height="222"><g fill="none" fill-rule="evenodd"><g fill="#FFFFFE"><path d="M219.8 45.6a22.8 22.8 0 1 0 0-45.6 22.8 22.8 0 0 0 0 45.6M275 123.2 152 0a45.5 45.5 0 0 0 0 64.4l39.3 39.2-.1.1 22.2 22.2c.8.8 1.4 2 1.4 3.2 0 1.2-.6 2.4-1.5 3.2l-25.9 25.9a4.4 4.4 0 0 1-6.3 0l-26-26a4.4 4.4 0 0 1 0-6.3c17.8-19 4.5-41.6-3.7-49.2l-5.8-5.8-51.9 52a8.9 8.9 0 0 0 0 12.5l84.3 84.2c3.4 3.5 9 3.5 12.5 0l84-84a8.4 8.4 0 0 0 .6-12.4M391.6 104.2c-20.5-2.7-24-6.9-24-15.3 0-8.6 8-13.9 20.7-13.9 14.1 0 21.1 4.6 23.4 15.3l.1.4h11.9v-.5c-2.1-16-14.6-24.7-35.4-24.7-19.1 0-33 10.3-33 24.4 0 17.6 16.5 22.3 34.3 24.6 18.5 2.7 24.1 6.5 24.1 16.5 0 9.4-9.5 16.2-22.7 16.2-20.7 0-24.9-9.1-26.4-19v-.3h-12.7v.4c1.6 13 9.7 28.4 39.1 28.4 20.2 0 35.4-11.4 35.4-26.4 0-17.8-13.3-23.1-34.8-26M510.6 66.6h-72.1v11.3H468v77.7h13.2V77.9h29.4V66.6M538.4 120l16.1-43 16.1 43h-32.2Zm8.3-53.4-35.2 89H524l9.8-25.4h41.3l9.9 25.4h13l-34.6-89h-16.7ZM599.9 77.9h29.5v77.7h13.1V77.9H672V66.6h-72.1v11.3M704.4 116.5h24.9v-11.2h-24.9V77.9h49.2V66.6h-62.4v89h62.4v-11.3h-49.2v-27.8M788.1 66.6h-13.2v89h59.5v-11.3h-46.3V66.6M895.3 66.6 870 107.2l-26.3-40.6h-14.9l34.2 50.2v38.8h13.2V117l32.4-50.4h-13.3"/></g><g fill="#FFF"><path d="M1382 68.1c20.7 0 33.3 8.8 35.3 24.7v.5h-11.8V93c-2.4-10.8-9.4-15.4-23.5-15.4-12.8 0-20.8 5.4-20.8 14 0 8.4 3.5 12.6 24 15.3 21.6 3 35 8.3 35 26 0 15.2-15.3 26.6-35.5 26.6-29.6 0-37.7-15.5-39.2-28.4l-.1-.5h12.8v.4c1.5 9.8 5.7 19 26.5 19 13.1 0 22.7-6.9 22.7-16.3 0-10-5.7-13.8-24.2-16.5-17.8-2.3-34.3-7-34.3-24.7 0-14.1 13.9-24.4 33-24.4Zm122.5 1.1v11.4H1475v77.8h-13.2V80.6h-29.6V69.2h72.3Zm53 0 34.6 89.2h-13l-10-25.5h-41.4l-9.8 25.5h-12.5l35.3-89.2h16.7Zm108.8 0v11.4h-29.6v77.8h-13.2V80.6H1594V69.3h72.3Zm81.7 0v11.4h-49.3V108h25v11.2h-25V147h49.3v11.4h-62.5V69.2h62.5Zm-199.5 10.5-16.2 43h32.3l-16.1-43ZM1138.4 25l33.4.3c3.3 0 6.3 1.5 8.3 4l119.6 154.1c2.7 3.5.2 8.6-4.2 8.6h-35c-3.3 0-6.5-1.5-8.5-4.2l-33.3-45.6-37 45.8c-2 2.5-5 4-8.3 4h-35c-4.5 0-7-5.1-4.2-8.6l58.5-74.1-58.6-75.8a5.3 5.3 0 0 1 4.3-8.5Zm157 0c4.5 0 7 5.1 4.3 8.6l-52.3 66c-3.7-3-32.6-27.1-4.7-59.5l4.4-5.2.4-.6.5-.5 3.8-4.5c2.8-3.3 5-4 8.3-4l35.4-.3Z"/></g><path fill="#FFF" fill-rule="nonzero" d="M1021.4 152.8v-38.6h-36.6v-8.6h36.6V67h9v38.6h36.6v8.6h-36.6v38.6z"/></g></svg>