<svg width="889" height="116" viewBox="0 0 889 116" fill="none" xmlns="http://www.w3.org/2000/svg">
<g clip-path="url(#clip0_74_153)">
<rect width="223" height="116" rx="20" fill="#19296E"/>
<rect x="1" y="1" width="221" height="114" rx="19" stroke="white" stroke-opacity="0.11" stroke-width="2"/>
<path d="M56.2393 55.674C56.1882 55.1584 55.9688 54.7578 55.581 54.4723C55.1932 54.1868 54.6669 54.044 54.0021 54.044C53.5504 54.044 53.169 54.108 52.858 54.2358C52.5469 54.3594 52.3082 54.532 52.142 54.7536C51.9801 54.9751 51.8991 55.2266 51.8991 55.5078C51.8906 55.7422 51.9396 55.9467 52.0462 56.1214C52.157 56.2962 52.3082 56.4474 52.5 56.5753C52.6918 56.6989 52.9134 56.8075 53.1648 56.9013C53.4162 56.9908 53.6847 57.0675 53.9702 57.1314L55.1463 57.4126C55.7173 57.5405 56.2415 57.7109 56.7188 57.924C57.196 58.1371 57.6094 58.3991 57.9588 58.7102C58.3082 59.0213 58.5788 59.3878 58.7706 59.8097C58.9666 60.2315 59.0668 60.7152 59.071 61.2607C59.0668 62.0618 58.8622 62.7564 58.4574 63.3445C58.0568 63.9283 57.4773 64.3821 56.7188 64.706C55.9645 65.0256 55.0547 65.1854 53.9893 65.1854C52.9325 65.1854 52.0121 65.0234 51.228 64.6996C50.4482 64.3757 49.8388 63.8963 49.3999 63.2614C48.9652 62.6222 48.7372 61.8317 48.7159 60.8899H51.3942C51.424 61.3288 51.5497 61.6953 51.7713 61.9893C51.9972 62.2791 52.2976 62.4986 52.6726 62.6477C53.0518 62.7926 53.4801 62.8651 53.9574 62.8651C54.4261 62.8651 54.8331 62.7969 55.1783 62.6605C55.5277 62.5241 55.7983 62.3345 55.9901 62.0916C56.1818 61.8487 56.2777 61.5696 56.2777 61.2543C56.2777 60.9602 56.1903 60.7131 56.0156 60.5128C55.8452 60.3125 55.5938 60.142 55.2614 60.0014C54.9332 59.8608 54.5305 59.733 54.0533 59.6179L52.6278 59.2599C51.5241 58.9915 50.6527 58.5717 50.0135 58.0007C49.3743 57.4297 49.0568 56.6605 49.0611 55.6932C49.0568 54.9006 49.2678 54.2081 49.6939 53.6158C50.1243 53.0234 50.7145 52.5611 51.4645 52.2287C52.2145 51.8963 53.0668 51.7301 54.0213 51.7301C54.9929 51.7301 55.8409 51.8963 56.5653 52.2287C57.294 52.5611 57.8608 53.0234 58.2656 53.6158C58.6705 54.2081 58.8793 54.8942 58.892 55.674H56.2393ZM66.2839 55.1818V57.2273H60.3712V55.1818H66.2839ZM61.7136 52.8295H64.4366V61.983C64.4366 62.2344 64.4749 62.4304 64.5516 62.571C64.6283 62.7074 64.7349 62.8033 64.8712 62.8587C65.0119 62.9141 65.1738 62.9418 65.357 62.9418C65.4849 62.9418 65.6127 62.9311 65.7405 62.9098C65.8684 62.8842 65.9664 62.8651 66.0346 62.8523L66.4628 64.8786C66.3265 64.9212 66.1347 64.9702 65.8876 65.0256C65.6404 65.0852 65.34 65.1214 64.9863 65.1342C64.33 65.1598 63.7548 65.0724 63.2604 64.8722C62.7704 64.6719 62.389 64.3608 62.1163 63.9389C61.8435 63.517 61.7093 62.9844 61.7136 62.3409V52.8295ZM71.0374 65.1854C70.411 65.1854 69.8527 65.0767 69.3627 64.8594C68.8726 64.6378 68.4848 64.3118 68.1993 63.8814C67.9181 63.4467 67.7774 62.9055 67.7774 62.2578C67.7774 61.7124 67.8776 61.2543 68.0779 60.8835C68.2781 60.5128 68.5509 60.2145 68.896 59.9886C69.2412 59.7628 69.6333 59.5923 70.0722 59.4773C70.5154 59.3622 70.9799 59.2812 71.4656 59.2344C72.0367 59.1747 72.4969 59.1193 72.8463 59.0682C73.1958 59.0128 73.4493 58.9318 73.607 58.8253C73.7647 58.7187 73.8435 58.5611 73.8435 58.3523V58.3139C73.8435 57.9091 73.7156 57.5959 73.46 57.3743C73.2085 57.1527 72.8506 57.0419 72.3861 57.0419C71.896 57.0419 71.5061 57.1506 71.2164 57.3679C70.9266 57.581 70.7348 57.8494 70.6411 58.1733L68.1226 57.9688C68.2504 57.3722 68.5019 56.8565 68.8769 56.4219C69.2519 55.983 69.7355 55.6463 70.3279 55.4119C70.9245 55.1733 71.6148 55.054 72.3989 55.054C72.9443 55.054 73.4664 55.1179 73.9649 55.2457C74.4678 55.3736 74.9131 55.5717 75.3009 55.8402C75.6929 56.1087 76.0019 56.4538 76.2277 56.8757C76.4536 57.2933 76.5665 57.794 76.5665 58.3778V65H73.9841V63.6385H73.9074C73.7497 63.9453 73.5388 64.2159 73.2746 64.4503C73.0104 64.6804 72.6929 64.8615 72.3222 64.9936C71.9514 65.1214 71.5232 65.1854 71.0374 65.1854ZM71.8172 63.3061C72.2178 63.3061 72.5715 63.2273 72.8783 63.0696C73.1851 62.9077 73.4259 62.6903 73.6006 62.4176C73.7753 62.1449 73.8627 61.8359 73.8627 61.4908V60.4489C73.7774 60.5043 73.6602 60.5554 73.5111 60.6023C73.3662 60.6449 73.2022 60.6854 73.0189 60.7237C72.8357 60.7578 72.6524 60.7898 72.4692 60.8196C72.286 60.8452 72.1198 60.8686 71.9706 60.8899C71.651 60.9368 71.3719 61.0114 71.1333 61.1136C70.8946 61.2159 70.7093 61.3544 70.5772 61.5291C70.4451 61.6996 70.379 61.9126 70.379 62.1683C70.379 62.5391 70.5132 62.8224 70.7817 63.0185C71.0544 63.2102 71.3996 63.3061 71.8172 63.3061ZM84.0814 55.1818V57.2273H78.1687V55.1818H84.0814ZM79.5111 52.8295H82.2341V61.983C82.2341 62.2344 82.2724 62.4304 82.3491 62.571C82.4258 62.7074 82.5324 62.8033 82.6687 62.8587C82.8094 62.9141 82.9713 62.9418 83.1545 62.9418C83.2824 62.9418 83.4102 62.9311 83.538 62.9098C83.6659 62.8842 83.7639 62.8651 83.8321 62.8523L84.2603 64.8786C84.124 64.9212 83.9322 64.9702 83.6851 65.0256C83.4379 65.0852 83.1375 65.1214 82.7838 65.1342C82.1275 65.1598 81.5523 65.0724 81.0579 64.8722C80.5679 64.6719 80.1865 64.3608 79.9138 63.9389C79.641 63.517 79.5068 62.9844 79.5111 62.3409V52.8295ZM90.4041 65.1918C89.3942 65.1918 88.5249 64.9872 87.7962 64.5781C87.0717 64.1648 86.5135 63.581 86.1215 62.8267C85.7294 62.0682 85.5334 61.1712 85.5334 60.1357C85.5334 59.1257 85.7294 58.2393 86.1215 57.4766C86.5135 56.7138 87.0653 56.1193 87.777 55.6932C88.4929 55.267 89.3324 55.054 90.2955 55.054C90.9432 55.054 91.5462 55.1584 92.1044 55.3672C92.6669 55.5717 93.157 55.8807 93.5746 56.294C93.9965 56.7074 94.3246 57.2273 94.559 57.8537C94.7933 58.4759 94.9105 59.2045 94.9105 60.0398V60.7876H86.62V59.1001H92.3473C92.3473 58.7081 92.2621 58.3608 92.0916 58.0582C91.9212 57.7557 91.6847 57.5192 91.3821 57.3487C91.0838 57.174 90.7365 57.0866 90.3402 57.0866C89.9269 57.0866 89.5604 57.1825 89.2408 57.3743C88.9254 57.5618 88.6783 57.8153 88.4993 58.1349C88.3203 58.4503 88.2287 58.8018 88.2244 59.1896V60.794C88.2244 61.2798 88.3139 61.6996 88.4929 62.0533C88.6761 62.407 88.934 62.6797 89.2663 62.8714C89.5987 63.0632 89.9929 63.1591 90.4489 63.1591C90.7514 63.1591 91.0284 63.1165 91.2798 63.0312C91.5313 62.946 91.7465 62.8182 91.9254 62.6477C92.1044 62.4773 92.2408 62.2685 92.3345 62.0213L94.853 62.1875C94.7252 62.7926 94.4631 63.321 94.0668 63.7727C93.6747 64.2202 93.1676 64.5696 92.5455 64.821C91.9276 65.0682 91.2138 65.1918 90.4041 65.1918ZM99.5905 51.9091V65H96.8675V51.9091H99.5905ZM103.633 68.6818C103.288 68.6818 102.964 68.6541 102.661 68.5987C102.363 68.5476 102.116 68.4815 101.92 68.4006L102.533 66.3679C102.853 66.4659 103.141 66.5192 103.396 66.5277C103.656 66.5362 103.88 66.4766 104.068 66.3487C104.259 66.2209 104.415 66.0036 104.534 65.6967L104.694 65.2812L101.172 55.1818H104.036L106.068 62.392H106.171L108.222 55.1818H111.105L107.289 66.0611C107.106 66.5895 106.857 67.0497 106.541 67.4418C106.23 67.8381 105.836 68.1428 105.359 68.3558C104.881 68.5732 104.306 68.6818 103.633 68.6818ZM124.177 55.674C124.126 55.1584 123.907 54.7578 123.519 54.4723C123.131 54.1868 122.605 54.044 121.94 54.044C121.488 54.044 121.107 54.108 120.796 54.2358C120.485 54.3594 120.246 54.532 120.08 54.7536C119.918 54.9751 119.837 55.2266 119.837 55.5078C119.829 55.7422 119.878 55.9467 119.984 56.1214C120.095 56.2962 120.246 56.4474 120.438 56.5753C120.63 56.6989 120.851 56.8075 121.103 56.9013C121.354 56.9908 121.623 57.0675 121.908 57.1314L123.084 57.4126C123.655 57.5405 124.18 57.7109 124.657 57.924C125.134 58.1371 125.547 58.3991 125.897 58.7102C126.246 59.0213 126.517 59.3878 126.709 59.8097C126.905 60.2315 127.005 60.7152 127.009 61.2607C127.005 62.0618 126.8 62.7564 126.395 63.3445C125.995 63.9283 125.415 64.3821 124.657 64.706C123.903 65.0256 122.993 65.1854 121.927 65.1854C120.871 65.1854 119.95 65.0234 119.166 64.6996C118.386 64.3757 117.777 63.8963 117.338 63.2614C116.903 62.6222 116.675 61.8317 116.654 60.8899H119.332C119.362 61.3288 119.488 61.6953 119.709 61.9893C119.935 62.2791 120.236 62.4986 120.611 62.6477C120.99 62.7926 121.418 62.8651 121.895 62.8651C122.364 62.8651 122.771 62.7969 123.116 62.6605C123.466 62.5241 123.736 62.3345 123.928 62.0916C124.12 61.8487 124.216 61.5696 124.216 61.2543C124.216 60.9602 124.128 60.7131 123.954 60.5128C123.783 60.3125 123.532 60.142 123.199 60.0014C122.871 59.8608 122.469 59.733 121.991 59.6179L120.566 59.2599C119.462 58.9915 118.591 58.5717 117.952 58.0007C117.312 57.4297 116.995 56.6605 116.999 55.6932C116.995 54.9006 117.206 54.2081 117.632 53.6158C118.062 53.0234 118.653 52.5611 119.403 52.2287C120.153 51.8963 121.005 51.7301 121.959 51.7301C122.931 51.7301 123.779 51.8963 124.503 52.2287C125.232 52.5611 125.799 53.0234 126.204 53.6158C126.609 54.2081 126.817 54.8942 126.83 55.674H124.177ZM134.222 55.1818V57.2273H128.309V55.1818H134.222ZM129.652 52.8295H132.375V61.983C132.375 62.2344 132.413 62.4304 132.49 62.571C132.566 62.7074 132.673 62.8033 132.809 62.8587C132.95 62.9141 133.112 62.9418 133.295 62.9418C133.423 62.9418 133.551 62.9311 133.679 62.9098C133.806 62.8842 133.904 62.8651 133.973 62.8523L134.401 64.8786C134.265 64.9212 134.073 64.9702 133.826 65.0256C133.578 65.0852 133.278 65.1214 132.924 65.1342C132.268 65.1598 131.693 65.0724 131.198 64.8722C130.708 64.6719 130.327 64.3608 130.054 63.9389C129.782 63.517 129.647 62.9844 129.652 62.3409V52.8295ZM142.472 60.8196V55.1818H145.195V65H142.581V63.2166H142.478C142.257 63.7919 141.888 64.2543 141.372 64.6037C140.861 64.9531 140.237 65.1278 139.5 65.1278C138.843 65.1278 138.266 64.9787 137.767 64.6804C137.269 64.3821 136.879 63.9581 136.598 63.4084C136.321 62.8587 136.18 62.2003 136.176 61.4332V55.1818H138.899V60.9474C138.903 61.527 139.059 61.9851 139.365 62.3217C139.672 62.6584 140.083 62.8267 140.599 62.8267C140.927 62.8267 141.234 62.7521 141.519 62.603C141.805 62.4496 142.035 62.2237 142.21 61.9254C142.389 61.6271 142.476 61.2585 142.472 60.8196ZM151.171 65.1598C150.425 65.1598 149.75 64.968 149.145 64.5845C148.544 64.1967 148.066 63.6278 147.713 62.8778C147.363 62.1236 147.189 61.1989 147.189 60.1037C147.189 58.9787 147.37 58.0433 147.732 57.2976C148.094 56.5476 148.576 55.9872 149.177 55.6165C149.782 55.2415 150.444 55.054 151.164 55.054C151.714 55.054 152.172 55.1477 152.539 55.3352C152.91 55.5185 153.208 55.7486 153.434 56.0256C153.664 56.2983 153.838 56.5668 153.958 56.831H154.041V51.9091H156.758V65H154.073V63.4276H153.958C153.83 63.7003 153.649 63.9709 153.414 64.2393C153.184 64.5036 152.884 64.723 152.513 64.8977C152.147 65.0724 151.699 65.1598 151.171 65.1598ZM152.034 62.9929C152.473 62.9929 152.843 62.8736 153.146 62.6349C153.453 62.392 153.687 62.0533 153.849 61.6186C154.015 61.1839 154.098 60.6747 154.098 60.0909C154.098 59.5071 154.017 59 153.856 58.5696C153.694 58.1392 153.459 57.8068 153.152 57.5724C152.846 57.3381 152.473 57.2209 152.034 57.2209C151.586 57.2209 151.209 57.3423 150.902 57.5852C150.596 57.8281 150.363 58.1648 150.206 58.5952C150.048 59.0256 149.969 59.5241 149.969 60.0909C149.969 60.6619 150.048 61.1669 150.206 61.6058C150.368 62.0405 150.6 62.3814 150.902 62.6286C151.209 62.8714 151.586 62.9929 152.034 62.9929ZM159.176 65V55.1818H161.899V65H159.176ZM160.544 53.9162C160.139 53.9162 159.792 53.782 159.502 53.5135C159.217 53.2408 159.074 52.9148 159.074 52.5355C159.074 52.1605 159.217 51.8388 159.502 51.5703C159.792 51.2976 160.139 51.1612 160.544 51.1612C160.949 51.1612 161.294 51.2976 161.58 51.5703C161.87 51.8388 162.014 52.1605 162.014 52.5355C162.014 52.9148 161.87 53.2408 161.58 53.5135C161.294 53.782 160.949 53.9162 160.544 53.9162ZM168.697 65.1918C167.704 65.1918 166.845 64.9808 166.121 64.5589C165.401 64.1328 164.844 63.5405 164.452 62.782C164.06 62.0192 163.864 61.1349 163.864 60.1293C163.864 59.1151 164.06 58.2287 164.452 57.4702C164.844 56.7074 165.401 56.1151 166.121 55.6932C166.845 55.267 167.704 55.054 168.697 55.054C169.69 55.054 170.546 55.267 171.266 55.6932C171.991 56.1151 172.549 56.7074 172.941 57.4702C173.333 58.2287 173.529 59.1151 173.529 60.1293C173.529 61.1349 173.333 62.0192 172.941 62.782C172.549 63.5405 171.991 64.1328 171.266 64.5589C170.546 64.9808 169.69 65.1918 168.697 65.1918ZM168.709 63.0824C169.161 63.0824 169.538 62.9545 169.841 62.6989C170.143 62.4389 170.371 62.0852 170.525 61.6378C170.683 61.1903 170.761 60.6811 170.761 60.1101C170.761 59.5391 170.683 59.0298 170.525 58.5824C170.371 58.1349 170.143 57.7812 169.841 57.5213C169.538 57.2614 169.161 57.1314 168.709 57.1314C168.254 57.1314 167.87 57.2614 167.559 57.5213C167.252 57.7812 167.02 58.1349 166.862 58.5824C166.709 59.0298 166.632 59.5391 166.632 60.1101C166.632 60.6811 166.709 61.1903 166.862 61.6378C167.02 62.0852 167.252 62.4389 167.559 62.6989C167.87 62.9545 168.254 63.0824 168.709 63.0824Z" fill="white"/>
<rect x="335" width="198" height="116" rx="20" fill="#19296E"/>
<rect x="336" y="1" width="196" height="114" rx="19" stroke="white" stroke-opacity="0.11" stroke-width="2"/>
<path d="M391.239 55.674C391.188 55.1584 390.969 54.7578 390.581 54.4723C390.193 54.1868 389.667 54.044 389.002 54.044C388.55 54.044 388.169 54.108 387.858 54.2358C387.547 54.3594 387.308 54.532 387.142 54.7536C386.98 54.9751 386.899 55.2266 386.899 55.5078C386.891 55.7422 386.94 55.9467 387.046 56.1214C387.157 56.2962 387.308 56.4474 387.5 56.5753C387.692 56.6989 387.913 56.8075 388.165 56.9013C388.416 56.9908 388.685 57.0675 388.97 57.1314L390.146 57.4126C390.717 57.5405 391.241 57.7109 391.719 57.924C392.196 58.1371 392.609 58.3991 392.959 58.7102C393.308 59.0213 393.579 59.3878 393.771 59.8097C393.967 60.2315 394.067 60.7152 394.071 61.2607C394.067 62.0618 393.862 62.7564 393.457 63.3445C393.057 63.9283 392.477 64.3821 391.719 64.706C390.964 65.0256 390.055 65.1854 388.989 65.1854C387.933 65.1854 387.012 65.0234 386.228 64.6996C385.448 64.3757 384.839 63.8963 384.4 63.2614C383.965 62.6222 383.737 61.8317 383.716 60.8899H386.394C386.424 61.3288 386.55 61.6953 386.771 61.9893C386.997 62.2791 387.298 62.4986 387.673 62.6477C388.052 62.7926 388.48 62.8651 388.957 62.8651C389.426 62.8651 389.833 62.7969 390.178 62.6605C390.528 62.5241 390.798 62.3345 390.99 62.0916C391.182 61.8487 391.278 61.5696 391.278 61.2543C391.278 60.9602 391.19 60.7131 391.016 60.5128C390.845 60.3125 390.594 60.142 390.261 60.0014C389.933 59.8608 389.531 59.733 389.053 59.6179L387.628 59.2599C386.524 58.9915 385.653 58.5717 385.013 58.0007C384.374 57.4297 384.057 56.6605 384.061 55.6932C384.057 54.9006 384.268 54.2081 384.694 53.6158C385.124 53.0234 385.714 52.5611 386.464 52.2287C387.214 51.8963 388.067 51.7301 389.021 51.7301C389.993 51.7301 390.841 51.8963 391.565 52.2287C392.294 52.5611 392.861 53.0234 393.266 53.6158C393.67 54.2081 393.879 54.8942 393.892 55.674H391.239ZM401.284 55.1818V57.2273H395.371V55.1818H401.284ZM396.714 52.8295H399.437V61.983C399.437 62.2344 399.475 62.4304 399.552 62.571C399.628 62.7074 399.735 62.8033 399.871 62.8587C400.012 62.9141 400.174 62.9418 400.357 62.9418C400.485 62.9418 400.613 62.9311 400.741 62.9098C400.868 62.8842 400.966 62.8651 401.035 62.8523L401.463 64.8786C401.326 64.9212 401.135 64.9702 400.888 65.0256C400.64 65.0852 400.34 65.1214 399.986 65.1342C399.33 65.1598 398.755 65.0724 398.26 64.8722C397.77 64.6719 397.389 64.3608 397.116 63.9389C396.844 63.517 396.709 62.9844 396.714 62.3409V52.8295ZM406.037 65.1854C405.411 65.1854 404.853 65.0767 404.363 64.8594C403.873 64.6378 403.485 64.3118 403.199 63.8814C402.918 63.4467 402.777 62.9055 402.777 62.2578C402.777 61.7124 402.878 61.2543 403.078 60.8835C403.278 60.5128 403.551 60.2145 403.896 59.9886C404.241 59.7628 404.633 59.5923 405.072 59.4773C405.515 59.3622 405.98 59.2812 406.466 59.2344C407.037 59.1747 407.497 59.1193 407.846 59.0682C408.196 59.0128 408.449 58.9318 408.607 58.8253C408.765 58.7187 408.843 58.5611 408.843 58.3523V58.3139C408.843 57.9091 408.716 57.5959 408.46 57.3743C408.209 57.1527 407.851 57.0419 407.386 57.0419C406.896 57.0419 406.506 57.1506 406.216 57.3679C405.927 57.581 405.735 57.8494 405.641 58.1733L403.123 57.9688C403.25 57.3722 403.502 56.8565 403.877 56.4219C404.252 55.983 404.736 55.6463 405.328 55.4119C405.924 55.1733 406.615 55.054 407.399 55.054C407.944 55.054 408.466 55.1179 408.965 55.2457C409.468 55.3736 409.913 55.5717 410.301 55.8402C410.693 56.1087 411.002 56.4538 411.228 56.8757C411.454 57.2933 411.566 57.794 411.566 58.3778V65H408.984V63.6385H408.907C408.75 63.9453 408.539 64.2159 408.275 64.4503C408.01 64.6804 407.693 64.8615 407.322 64.9936C406.951 65.1214 406.523 65.1854 406.037 65.1854ZM406.817 63.3061C407.218 63.3061 407.571 63.2273 407.878 63.0696C408.185 62.9077 408.426 62.6903 408.601 62.4176C408.775 62.1449 408.863 61.8359 408.863 61.4908V60.4489C408.777 60.5043 408.66 60.5554 408.511 60.6023C408.366 60.6449 408.202 60.6854 408.019 60.7237C407.836 60.7578 407.652 60.7898 407.469 60.8196C407.286 60.8452 407.12 60.8686 406.971 60.8899C406.651 60.9368 406.372 61.0114 406.133 61.1136C405.895 61.2159 405.709 61.3544 405.577 61.5291C405.445 61.6996 405.379 61.9126 405.379 62.1683C405.379 62.5391 405.513 62.8224 405.782 63.0185C406.054 63.2102 406.4 63.3061 406.817 63.3061ZM419.081 55.1818V57.2273H413.169V55.1818H419.081ZM414.511 52.8295H417.234V61.983C417.234 62.2344 417.272 62.4304 417.349 62.571C417.426 62.7074 417.532 62.8033 417.669 62.8587C417.809 62.9141 417.971 62.9418 418.155 62.9418C418.282 62.9418 418.41 62.9311 418.538 62.9098C418.666 62.8842 418.764 62.8651 418.832 62.8523L419.26 64.8786C419.124 64.9212 418.932 64.9702 418.685 65.0256C418.438 65.0852 418.137 65.1214 417.784 65.1342C417.128 65.1598 416.552 65.0724 416.058 64.8722C415.568 64.6719 415.186 64.3608 414.914 63.9389C414.641 63.517 414.507 62.9844 414.511 62.3409V52.8295ZM425.404 65.1918C424.394 65.1918 423.525 64.9872 422.796 64.5781C422.072 64.1648 421.514 63.581 421.121 62.8267C420.729 62.0682 420.533 61.1712 420.533 60.1357C420.533 59.1257 420.729 58.2393 421.121 57.4766C421.514 56.7138 422.065 56.1193 422.777 55.6932C423.493 55.267 424.332 55.054 425.295 55.054C425.943 55.054 426.546 55.1584 427.104 55.3672C427.667 55.5717 428.157 55.8807 428.575 56.294C428.996 56.7074 429.325 57.2273 429.559 57.8537C429.793 58.4759 429.911 59.2045 429.911 60.0398V60.7876H421.62V59.1001H427.347C427.347 58.7081 427.262 58.3608 427.092 58.0582C426.921 57.7557 426.685 57.5192 426.382 57.3487C426.084 57.174 425.737 57.0866 425.34 57.0866C424.927 57.0866 424.56 57.1825 424.241 57.3743C423.925 57.5618 423.678 57.8153 423.499 58.1349C423.32 58.4503 423.229 58.8018 423.224 59.1896V60.794C423.224 61.2798 423.314 61.6996 423.493 62.0533C423.676 62.407 423.934 62.6797 424.266 62.8714C424.599 63.0632 424.993 63.1591 425.449 63.1591C425.751 63.1591 426.028 63.1165 426.28 63.0312C426.531 62.946 426.746 62.8182 426.925 62.6477C427.104 62.4773 427.241 62.2685 427.335 62.0213L429.853 62.1875C429.725 62.7926 429.463 63.321 429.067 63.7727C428.675 64.2202 428.168 64.5696 427.545 64.821C426.928 65.0682 426.214 65.1918 425.404 65.1918ZM434.591 51.9091V65H431.868V51.9091H434.591ZM438.633 68.6818C438.288 68.6818 437.964 68.6541 437.661 68.5987C437.363 68.5476 437.116 68.4815 436.92 68.4006L437.533 66.3679C437.853 66.4659 438.141 66.5192 438.396 66.5277C438.656 66.5362 438.88 66.4766 439.068 66.3487C439.259 66.2209 439.415 66.0036 439.534 65.6967L439.694 65.2812L436.172 55.1818H439.036L441.068 62.392H441.171L443.222 55.1818H446.105L442.289 66.0611C442.106 66.5895 441.857 67.0497 441.541 67.4418C441.23 67.8381 440.836 68.1428 440.359 68.3558C439.881 68.5732 439.306 68.6818 438.633 68.6818ZM459.177 55.674C459.126 55.1584 458.907 54.7578 458.519 54.4723C458.131 54.1868 457.605 54.044 456.94 54.044C456.488 54.044 456.107 54.108 455.796 54.2358C455.485 54.3594 455.246 54.532 455.08 54.7536C454.918 54.9751 454.837 55.2266 454.837 55.5078C454.829 55.7422 454.878 55.9467 454.984 56.1214C455.095 56.2962 455.246 56.4474 455.438 56.5753C455.63 56.6989 455.851 56.8075 456.103 56.9013C456.354 56.9908 456.623 57.0675 456.908 57.1314L458.084 57.4126C458.655 57.5405 459.18 57.7109 459.657 57.924C460.134 58.1371 460.547 58.3991 460.897 58.7102C461.246 59.0213 461.517 59.3878 461.709 59.8097C461.905 60.2315 462.005 60.7152 462.009 61.2607C462.005 62.0618 461.8 62.7564 461.395 63.3445C460.995 63.9283 460.415 64.3821 459.657 64.706C458.903 65.0256 457.993 65.1854 456.927 65.1854C455.871 65.1854 454.95 65.0234 454.166 64.6996C453.386 64.3757 452.777 63.8963 452.338 63.2614C451.903 62.6222 451.675 61.8317 451.654 60.8899H454.332C454.362 61.3288 454.488 61.6953 454.709 61.9893C454.935 62.2791 455.236 62.4986 455.611 62.6477C455.99 62.7926 456.418 62.8651 456.895 62.8651C457.364 62.8651 457.771 62.7969 458.116 62.6605C458.466 62.5241 458.736 62.3345 458.928 62.0916C459.12 61.8487 459.216 61.5696 459.216 61.2543C459.216 60.9602 459.128 60.7131 458.954 60.5128C458.783 60.3125 458.532 60.142 458.199 60.0014C457.871 59.8608 457.469 59.733 456.991 59.6179L455.566 59.2599C454.462 58.9915 453.591 58.5717 452.952 58.0007C452.312 57.4297 451.995 56.6605 451.999 55.6932C451.995 54.9006 452.206 54.2081 452.632 53.6158C453.062 53.0234 453.653 52.5611 454.403 52.2287C455.153 51.8963 456.005 51.7301 456.959 51.7301C457.931 51.7301 458.779 51.8963 459.503 52.2287C460.232 52.5611 460.799 53.0234 461.204 53.6158C461.609 54.2081 461.817 54.8942 461.83 55.674H459.177ZM466.467 62.1747L466.473 58.9084H466.87L470.015 55.1818H473.14L468.915 60.1165H468.27L466.467 62.1747ZM464 65V51.9091H466.723V65H464ZM470.136 65L467.247 60.7237L469.062 58.7997L473.326 65H470.136ZM476.495 68.6818C476.15 68.6818 475.826 68.6541 475.524 68.5987C475.226 68.5476 474.978 68.4815 474.782 68.4006L475.396 66.3679C475.716 66.4659 476.003 66.5192 476.259 66.5277C476.519 66.5362 476.743 66.4766 476.93 66.3487C477.122 66.2209 477.277 66.0036 477.397 65.6967L477.557 65.2812L474.035 55.1818H476.898L478.931 62.392H479.033L481.085 55.1818H483.968L480.152 66.0611C479.969 66.5895 479.719 67.0497 479.404 67.4418C479.093 67.8381 478.699 68.1428 478.221 68.3558C477.744 68.5732 477.169 68.6818 476.495 68.6818Z" fill="white"/>
<rect x="649" width="240" height="116" rx="20" fill="#19296E"/>
<rect x="650" y="1" width="238" height="114" rx="19" stroke="white" stroke-opacity="0.11" stroke-width="2"/>
<path d="M705.239 55.674C705.188 55.1584 704.969 54.7578 704.581 54.4723C704.193 54.1868 703.667 54.044 703.002 54.044C702.55 54.044 702.169 54.108 701.858 54.2358C701.547 54.3594 701.308 54.532 701.142 54.7536C700.98 54.9751 700.899 55.2266 700.899 55.5078C700.891 55.7422 700.94 55.9467 701.046 56.1214C701.157 56.2962 701.308 56.4474 701.5 56.5753C701.692 56.6989 701.913 56.8075 702.165 56.9013C702.416 56.9908 702.685 57.0675 702.97 57.1314L704.146 57.4126C704.717 57.5405 705.241 57.7109 705.719 57.924C706.196 58.1371 706.609 58.3991 706.959 58.7102C707.308 59.0213 707.579 59.3878 707.771 59.8097C707.967 60.2315 708.067 60.7152 708.071 61.2607C708.067 62.0618 707.862 62.7564 707.457 63.3445C707.057 63.9283 706.477 64.3821 705.719 64.706C704.964 65.0256 704.055 65.1854 702.989 65.1854C701.933 65.1854 701.012 65.0234 700.228 64.6996C699.448 64.3757 698.839 63.8963 698.4 63.2614C697.965 62.6222 697.737 61.8317 697.716 60.8899H700.394C700.424 61.3288 700.55 61.6953 700.771 61.9893C700.997 62.2791 701.298 62.4986 701.673 62.6477C702.052 62.7926 702.48 62.8651 702.957 62.8651C703.426 62.8651 703.833 62.7969 704.178 62.6605C704.528 62.5241 704.798 62.3345 704.99 62.0916C705.182 61.8487 705.278 61.5696 705.278 61.2543C705.278 60.9602 705.19 60.7131 705.016 60.5128C704.845 60.3125 704.594 60.142 704.261 60.0014C703.933 59.8608 703.531 59.733 703.053 59.6179L701.628 59.2599C700.524 58.9915 699.653 58.5717 699.013 58.0007C698.374 57.4297 698.057 56.6605 698.061 55.6932C698.057 54.9006 698.268 54.2081 698.694 53.6158C699.124 53.0234 699.714 52.5611 700.464 52.2287C701.214 51.8963 702.067 51.7301 703.021 51.7301C703.993 51.7301 704.841 51.8963 705.565 52.2287C706.294 52.5611 706.861 53.0234 707.266 53.6158C707.67 54.2081 707.879 54.8942 707.892 55.674H705.239ZM715.284 55.1818V57.2273H709.371V55.1818H715.284ZM710.714 52.8295H713.437V61.983C713.437 62.2344 713.475 62.4304 713.552 62.571C713.628 62.7074 713.735 62.8033 713.871 62.8587C714.012 62.9141 714.174 62.9418 714.357 62.9418C714.485 62.9418 714.613 62.9311 714.741 62.9098C714.868 62.8842 714.966 62.8651 715.035 62.8523L715.463 64.8786C715.326 64.9212 715.135 64.9702 714.888 65.0256C714.64 65.0852 714.34 65.1214 713.986 65.1342C713.33 65.1598 712.755 65.0724 712.26 64.8722C711.77 64.6719 711.389 64.3608 711.116 63.9389C710.844 63.517 710.709 62.9844 710.714 62.3409V52.8295ZM720.037 65.1854C719.411 65.1854 718.853 65.0767 718.363 64.8594C717.873 64.6378 717.485 64.3118 717.199 63.8814C716.918 63.4467 716.777 62.9055 716.777 62.2578C716.777 61.7124 716.878 61.2543 717.078 60.8835C717.278 60.5128 717.551 60.2145 717.896 59.9886C718.241 59.7628 718.633 59.5923 719.072 59.4773C719.515 59.3622 719.98 59.2812 720.466 59.2344C721.037 59.1747 721.497 59.1193 721.846 59.0682C722.196 59.0128 722.449 58.9318 722.607 58.8253C722.765 58.7187 722.843 58.5611 722.843 58.3523V58.3139C722.843 57.9091 722.716 57.5959 722.46 57.3743C722.209 57.1527 721.851 57.0419 721.386 57.0419C720.896 57.0419 720.506 57.1506 720.216 57.3679C719.927 57.581 719.735 57.8494 719.641 58.1733L717.123 57.9688C717.25 57.3722 717.502 56.8565 717.877 56.4219C718.252 55.983 718.736 55.6463 719.328 55.4119C719.924 55.1733 720.615 55.054 721.399 55.054C721.944 55.054 722.466 55.1179 722.965 55.2457C723.468 55.3736 723.913 55.5717 724.301 55.8402C724.693 56.1087 725.002 56.4538 725.228 56.8757C725.454 57.2933 725.566 57.794 725.566 58.3778V65H722.984V63.6385H722.907C722.75 63.9453 722.539 64.2159 722.275 64.4503C722.01 64.6804 721.693 64.8615 721.322 64.9936C720.951 65.1214 720.523 65.1854 720.037 65.1854ZM720.817 63.3061C721.218 63.3061 721.571 63.2273 721.878 63.0696C722.185 62.9077 722.426 62.6903 722.601 62.4176C722.775 62.1449 722.863 61.8359 722.863 61.4908V60.4489C722.777 60.5043 722.66 60.5554 722.511 60.6023C722.366 60.6449 722.202 60.6854 722.019 60.7237C721.836 60.7578 721.652 60.7898 721.469 60.8196C721.286 60.8452 721.12 60.8686 720.971 60.8899C720.651 60.9368 720.372 61.0114 720.133 61.1136C719.895 61.2159 719.709 61.3544 719.577 61.5291C719.445 61.6996 719.379 61.9126 719.379 62.1683C719.379 62.5391 719.513 62.8224 719.782 63.0185C720.054 63.2102 720.4 63.3061 720.817 63.3061ZM733.081 55.1818V57.2273H727.169V55.1818H733.081ZM728.511 52.8295H731.234V61.983C731.234 62.2344 731.272 62.4304 731.349 62.571C731.426 62.7074 731.532 62.8033 731.669 62.8587C731.809 62.9141 731.971 62.9418 732.155 62.9418C732.282 62.9418 732.41 62.9311 732.538 62.9098C732.666 62.8842 732.764 62.8651 732.832 62.8523L733.26 64.8786C733.124 64.9212 732.932 64.9702 732.685 65.0256C732.438 65.0852 732.137 65.1214 731.784 65.1342C731.128 65.1598 730.552 65.0724 730.058 64.8722C729.568 64.6719 729.186 64.3608 728.914 63.9389C728.641 63.517 728.507 62.9844 728.511 62.3409V52.8295ZM739.404 65.1918C738.394 65.1918 737.525 64.9872 736.796 64.5781C736.072 64.1648 735.514 63.581 735.121 62.8267C734.729 62.0682 734.533 61.1712 734.533 60.1357C734.533 59.1257 734.729 58.2393 735.121 57.4766C735.514 56.7138 736.065 56.1193 736.777 55.6932C737.493 55.267 738.332 55.054 739.295 55.054C739.943 55.054 740.546 55.1584 741.104 55.3672C741.667 55.5717 742.157 55.8807 742.575 56.294C742.996 56.7074 743.325 57.2273 743.559 57.8537C743.793 58.4759 743.911 59.2045 743.911 60.0398V60.7876H735.62V59.1001H741.347C741.347 58.7081 741.262 58.3608 741.092 58.0582C740.921 57.7557 740.685 57.5192 740.382 57.3487C740.084 57.174 739.737 57.0866 739.34 57.0866C738.927 57.0866 738.56 57.1825 738.241 57.3743C737.925 57.5618 737.678 57.8153 737.499 58.1349C737.32 58.4503 737.229 58.8018 737.224 59.1896V60.794C737.224 61.2798 737.314 61.6996 737.493 62.0533C737.676 62.407 737.934 62.6797 738.266 62.8714C738.599 63.0632 738.993 63.1591 739.449 63.1591C739.751 63.1591 740.028 63.1165 740.28 63.0312C740.531 62.946 740.746 62.8182 740.925 62.6477C741.104 62.4773 741.241 62.2685 741.335 62.0213L743.853 62.1875C743.725 62.7926 743.463 63.321 743.067 63.7727C742.675 64.2202 742.168 64.5696 741.545 64.821C740.928 65.0682 740.214 65.1918 739.404 65.1918ZM748.591 51.9091V65H745.868V51.9091H748.591ZM752.633 68.6818C752.288 68.6818 751.964 68.6541 751.661 68.5987C751.363 68.5476 751.116 68.4815 750.92 68.4006L751.533 66.3679C751.853 66.4659 752.141 66.5192 752.396 66.5277C752.656 66.5362 752.88 66.4766 753.068 66.3487C753.259 66.2209 753.415 66.0036 753.534 65.6967L753.694 65.2812L750.172 55.1818H753.036L755.068 62.392H755.171L757.222 55.1818H760.105L756.289 66.0611C756.106 66.5895 755.857 67.0497 755.541 67.4418C755.23 67.8381 754.836 68.1428 754.359 68.3558C753.881 68.5732 753.306 68.6818 752.633 68.6818ZM773.177 55.674C773.126 55.1584 772.907 54.7578 772.519 54.4723C772.131 54.1868 771.605 54.044 770.94 54.044C770.488 54.044 770.107 54.108 769.796 54.2358C769.485 54.3594 769.246 54.532 769.08 54.7536C768.918 54.9751 768.837 55.2266 768.837 55.5078C768.829 55.7422 768.878 55.9467 768.984 56.1214C769.095 56.2962 769.246 56.4474 769.438 56.5753C769.63 56.6989 769.851 56.8075 770.103 56.9013C770.354 56.9908 770.623 57.0675 770.908 57.1314L772.084 57.4126C772.655 57.5405 773.18 57.7109 773.657 57.924C774.134 58.1371 774.547 58.3991 774.897 58.7102C775.246 59.0213 775.517 59.3878 775.709 59.8097C775.905 60.2315 776.005 60.7152 776.009 61.2607C776.005 62.0618 775.8 62.7564 775.395 63.3445C774.995 63.9283 774.415 64.3821 773.657 64.706C772.903 65.0256 771.993 65.1854 770.927 65.1854C769.871 65.1854 768.95 65.0234 768.166 64.6996C767.386 64.3757 766.777 63.8963 766.338 63.2614C765.903 62.6222 765.675 61.8317 765.654 60.8899H768.332C768.362 61.3288 768.488 61.6953 768.709 61.9893C768.935 62.2791 769.236 62.4986 769.611 62.6477C769.99 62.7926 770.418 62.8651 770.895 62.8651C771.364 62.8651 771.771 62.7969 772.116 62.6605C772.466 62.5241 772.736 62.3345 772.928 62.0916C773.12 61.8487 773.216 61.5696 773.216 61.2543C773.216 60.9602 773.128 60.7131 772.954 60.5128C772.783 60.3125 772.532 60.142 772.199 60.0014C771.871 59.8608 771.469 59.733 770.991 59.6179L769.566 59.2599C768.462 58.9915 767.591 58.5717 766.952 58.0007C766.312 57.4297 765.995 56.6605 765.999 55.6932C765.995 54.9006 766.206 54.2081 766.632 53.6158C767.062 53.0234 767.653 52.5611 768.403 52.2287C769.153 51.8963 770.005 51.7301 770.959 51.7301C771.931 51.7301 772.779 51.8963 773.503 52.2287C774.232 52.5611 774.799 53.0234 775.204 53.6158C775.609 54.2081 775.817 54.8942 775.83 55.674H773.177ZM780.467 62.1747L780.473 58.9084H780.87L784.015 55.1818H787.14L782.915 60.1165H782.27L780.467 62.1747ZM778 65V51.9091H780.723V65H778ZM784.136 65L781.247 60.7237L783.062 58.7997L787.326 65H784.136ZM790.495 68.6818C790.15 68.6818 789.826 68.6541 789.524 68.5987C789.226 68.5476 788.978 68.4815 788.782 68.4006L789.396 66.3679C789.716 66.4659 790.003 66.5192 790.259 66.5277C790.519 66.5362 790.743 66.4766 790.93 66.3487C791.122 66.2209 791.277 66.0036 791.397 65.6967L791.557 65.2812L788.035 55.1818H790.898L792.931 62.392H793.033L795.085 55.1818H797.968L794.152 66.0611C793.969 66.5895 793.719 67.0497 793.404 67.4418C793.093 67.8381 792.699 68.1428 792.221 68.3558C791.744 68.5732 791.169 68.6818 790.495 68.6818ZM811.04 55.674C810.989 55.1584 810.769 54.7578 810.382 54.4723C809.994 54.1868 809.468 54.044 808.803 54.044C808.351 54.044 807.97 54.108 807.659 54.2358C807.348 54.3594 807.109 54.532 806.943 54.7536C806.781 54.9751 806.7 55.2266 806.7 55.5078C806.691 55.7422 806.74 55.9467 806.847 56.1214C806.958 56.2962 807.109 56.4474 807.301 56.5753C807.492 56.6989 807.714 56.8075 807.965 56.9013C808.217 56.9908 808.485 57.0675 808.771 57.1314L809.947 57.4126C810.518 57.5405 811.042 57.7109 811.519 57.924C811.997 58.1371 812.41 58.3991 812.759 58.7102C813.109 59.0213 813.379 59.3878 813.571 59.8097C813.767 60.2315 813.867 60.7152 813.872 61.2607C813.867 62.0618 813.663 62.7564 813.258 63.3445C812.857 63.9283 812.278 64.3821 811.519 64.706C810.765 65.0256 809.855 65.1854 808.79 65.1854C807.733 65.1854 806.813 65.0234 806.029 64.6996C805.249 64.3757 804.639 63.8963 804.2 63.2614C803.766 62.6222 803.538 61.8317 803.517 60.8899H806.195C806.225 61.3288 806.35 61.6953 806.572 61.9893C806.798 62.2791 807.098 62.4986 807.473 62.6477C807.852 62.7926 808.281 62.8651 808.758 62.8651C809.227 62.8651 809.634 62.7969 809.979 62.6605C810.328 62.5241 810.599 62.3345 810.791 62.0916C810.982 61.8487 811.078 61.5696 811.078 61.2543C811.078 60.9602 810.991 60.7131 810.816 60.5128C810.646 60.3125 810.394 60.142 810.062 60.0014C809.734 59.8608 809.331 59.733 808.854 59.6179L807.428 59.2599C806.325 58.9915 805.453 58.5717 804.814 58.0007C804.175 57.4297 803.857 56.6605 803.862 55.6932C803.857 54.9006 804.068 54.2081 804.495 53.6158C804.925 53.0234 805.515 52.5611 806.265 52.2287C807.015 51.8963 807.867 51.7301 808.822 51.7301C809.794 51.7301 810.642 51.8963 811.366 52.2287C812.095 52.5611 812.661 53.0234 813.066 53.6158C813.471 54.2081 813.68 54.8942 813.693 55.674H811.04ZM820.554 65H815.913V51.9091H820.592C821.909 51.9091 823.043 52.1712 823.993 52.6953C824.943 53.2152 825.674 53.9631 826.185 54.9389C826.701 55.9148 826.959 57.0824 826.959 58.4418C826.959 59.8054 826.701 60.9773 826.185 61.9574C825.674 62.9375 824.939 63.6896 823.98 64.2138C823.026 64.7379 821.883 65 820.554 65ZM818.681 62.6286H820.439C821.257 62.6286 821.945 62.4837 822.504 62.1939C823.066 61.8999 823.488 61.446 823.769 60.8324C824.055 60.2145 824.197 59.4176 824.197 58.4418C824.197 57.4744 824.055 56.6839 823.769 56.0703C823.488 55.4567 823.068 55.005 822.51 54.7152C821.952 54.4254 821.263 54.2805 820.445 54.2805H818.681V62.6286ZM829.189 65V51.9091H831.957V57.6811H832.129L836.84 51.9091H840.158L835.3 57.7706L840.215 65H836.904L833.318 59.6179L831.957 61.2798V65H829.189Z" fill="white"/>
<path d="M231.582 41.1385C231.01 41.1385 230.499 40.9923 230.05 40.6999C229.603 40.4045 229.253 39.9844 228.997 39.4396C228.745 38.8918 228.619 38.2347 228.619 37.4684C228.619 36.7021 228.746 36.0465 229.002 35.5018C229.26 34.957 229.614 34.54 230.064 34.2507C230.513 33.9614 231.022 33.8168 231.592 33.8168C232.032 33.8168 232.386 33.8906 232.653 34.0384C232.924 34.183 233.134 34.3523 233.281 34.5462C233.432 34.7401 233.549 34.9109 233.632 35.0586H233.715V31.5455H235.096V41H233.748V39.8967H233.632C233.549 40.0475 233.429 40.2198 233.272 40.4137C233.118 40.6076 232.906 40.7769 232.635 40.9215C232.364 41.0662 232.013 41.1385 231.582 41.1385ZM231.887 39.9613C232.284 39.9613 232.62 39.8567 232.893 39.6474C233.17 39.435 233.38 39.1411 233.521 38.7656C233.666 38.3902 233.738 37.9531 233.738 37.4545C233.738 36.9621 233.667 36.5312 233.526 36.1619C233.384 35.7926 233.177 35.5049 232.903 35.2987C232.629 35.0924 232.29 34.9893 231.887 34.9893C231.472 34.9893 231.125 35.0971 230.848 35.3125C230.571 35.5279 230.362 35.8219 230.221 36.1942C230.082 36.5666 230.013 36.9867 230.013 37.4545C230.013 37.9285 230.084 38.3548 230.225 38.7333C230.367 39.1119 230.576 39.4119 230.853 39.6335C231.133 39.852 231.478 39.9613 231.887 39.9613ZM240.252 41.1431C239.553 41.1431 238.951 40.9938 238.447 40.6953C237.945 40.3937 237.557 39.9705 237.283 39.4258C237.012 38.878 236.877 38.2363 236.877 37.5007C236.877 36.7744 237.012 36.1342 237.283 35.5803C237.557 35.0263 237.939 34.5939 238.428 34.283C238.921 33.9722 239.496 33.8168 240.155 33.8168C240.555 33.8168 240.943 33.8829 241.318 34.0153C241.694 34.1476 242.031 34.3554 242.329 34.6385C242.628 34.9216 242.863 35.2894 243.035 35.7418C243.208 36.1912 243.294 36.7375 243.294 37.3807V37.87H237.657V36.8359H241.941C241.941 36.4728 241.867 36.1512 241.72 35.8711C241.572 35.5879 241.364 35.3648 241.097 35.2017C240.832 35.0386 240.521 34.957 240.164 34.957C239.776 34.957 239.438 35.0524 239.148 35.2433C238.862 35.431 238.641 35.6772 238.484 35.9819C238.33 36.2835 238.253 36.6113 238.253 36.9652V37.7731C238.253 38.247 238.336 38.6502 238.502 38.9826C238.671 39.315 238.907 39.5689 239.208 39.7443C239.51 39.9167 239.862 40.0028 240.266 40.0028C240.527 40.0028 240.766 39.9659 240.981 39.892C241.197 39.8151 241.383 39.7012 241.54 39.5504C241.697 39.3996 241.817 39.2134 241.9 38.9918L243.206 39.2273C243.102 39.612 242.914 39.949 242.643 40.2383C242.375 40.5245 242.038 40.7476 241.632 40.9077C241.229 41.0646 240.769 41.1431 240.252 41.1431ZM244.955 43.6591V33.9091H246.304V35.0586H246.419C246.499 34.9109 246.614 34.7401 246.765 34.5462C246.916 34.3523 247.125 34.183 247.393 34.0384C247.661 33.8906 248.015 33.8168 248.455 33.8168C249.027 33.8168 249.538 33.9614 249.987 34.2507C250.437 34.54 250.789 34.957 251.045 35.5018C251.303 36.0465 251.432 36.7021 251.432 37.4684C251.432 38.2347 251.305 38.8918 251.049 39.4396C250.794 39.9844 250.443 40.4045 249.997 40.6999C249.55 40.9923 249.041 41.1385 248.469 41.1385C248.038 41.1385 247.685 41.0662 247.411 40.9215C247.141 40.7769 246.928 40.6076 246.774 40.4137C246.62 40.2198 246.502 40.0475 246.419 39.8967H246.336V43.6591H244.955ZM246.308 37.4545C246.308 37.9531 246.38 38.3902 246.525 38.7656C246.67 39.1411 246.879 39.435 247.153 39.6474C247.427 39.8567 247.762 39.9613 248.159 39.9613C248.572 39.9613 248.916 39.852 249.193 39.6335C249.47 39.4119 249.68 39.1119 249.821 38.7333C249.966 38.3548 250.038 37.9285 250.038 37.4545C250.038 36.9867 249.967 36.5666 249.826 36.1942C249.687 35.8219 249.478 35.5279 249.198 35.3125C248.921 35.0971 248.575 34.9893 248.159 34.9893C247.759 34.9893 247.421 35.0924 247.144 35.2987C246.87 35.5049 246.662 35.7926 246.52 36.1619C246.379 36.5312 246.308 36.9621 246.308 37.4545ZM254.489 31.5455V41H253.109V31.5455H254.489ZM259.463 41.1431C258.798 41.1431 258.218 40.9908 257.723 40.6861C257.227 40.3814 256.842 39.9551 256.569 39.4073C256.295 38.8595 256.158 38.2193 256.158 37.4869C256.158 36.7513 256.295 36.1081 256.569 35.5572C256.842 35.0063 257.227 34.5785 257.723 34.2738C258.218 33.9691 258.798 33.8168 259.463 33.8168C260.128 33.8168 260.708 33.9691 261.204 34.2738C261.699 34.5785 262.084 35.0063 262.358 35.5572C262.632 36.1081 262.768 36.7513 262.768 37.4869C262.768 38.2193 262.632 38.8595 262.358 39.4073C262.084 39.9551 261.699 40.3814 261.204 40.6861C260.708 40.9908 260.128 41.1431 259.463 41.1431ZM259.468 39.9844C259.899 39.9844 260.256 39.8705 260.539 39.6428C260.822 39.415 261.031 39.1119 261.167 38.7333C261.305 38.3548 261.374 37.9377 261.374 37.4822C261.374 37.0298 261.305 36.6143 261.167 36.2358C261.031 35.8542 260.822 35.5479 260.539 35.3171C260.256 35.0863 259.899 34.9709 259.468 34.9709C259.034 34.9709 258.674 35.0863 258.387 35.3171C258.104 35.5479 257.893 35.8542 257.755 36.2358C257.62 36.6143 257.552 37.0298 257.552 37.4822C257.552 37.9377 257.62 38.3548 257.755 38.7333C257.893 39.1119 258.104 39.415 258.387 39.6428C258.674 39.8705 259.034 39.9844 259.468 39.9844ZM265.071 43.6591C264.864 43.6591 264.677 43.6422 264.507 43.6083C264.338 43.5775 264.212 43.5437 264.129 43.5067L264.461 42.3757C264.714 42.4434 264.938 42.4727 265.135 42.4634C265.332 42.4542 265.506 42.3803 265.657 42.2418C265.811 42.1033 265.946 41.8771 266.063 41.5632L266.234 41.0923L263.639 33.9091H265.117L266.913 39.4119H266.986L268.782 33.9091H270.264L267.342 41.9464C267.206 42.3157 267.034 42.6281 266.825 42.8835C266.616 43.142 266.366 43.3359 266.077 43.4652C265.788 43.5945 265.452 43.6591 265.071 43.6591ZM277.325 41.157C276.876 41.157 276.47 41.0739 276.107 40.9077C275.743 40.7384 275.456 40.4937 275.243 40.1737C275.034 39.8536 274.929 39.4612 274.929 38.9964C274.929 38.5964 275.006 38.267 275.16 38.0085C275.314 37.75 275.522 37.5453 275.783 37.3945C276.045 37.2437 276.337 37.1299 276.661 37.0529C276.984 36.976 277.313 36.9175 277.648 36.8775C278.073 36.8282 278.418 36.7882 278.683 36.7575C278.947 36.7236 279.14 36.6697 279.26 36.5959C279.38 36.522 279.44 36.402 279.44 36.2358V36.2035C279.44 35.8003 279.326 35.4879 279.098 35.2663C278.873 35.0447 278.538 34.9339 278.092 34.9339C277.627 34.9339 277.261 35.037 276.993 35.2433C276.728 35.4464 276.545 35.6726 276.444 35.9219L275.146 35.6264C275.3 35.1955 275.525 34.8478 275.82 34.5831C276.119 34.3153 276.462 34.1214 276.85 34.0014C277.238 33.8783 277.645 33.8168 278.073 33.8168C278.356 33.8168 278.656 33.8506 278.973 33.9183C279.293 33.983 279.592 34.103 279.869 34.2784C280.149 34.4538 280.378 34.7047 280.557 35.0309C280.735 35.354 280.825 35.7741 280.825 36.2912V41H279.477V40.0305H279.421C279.332 40.209 279.198 40.3845 279.02 40.5568C278.841 40.7292 278.612 40.8723 278.332 40.9862C278.052 41.1 277.716 41.157 277.325 41.157ZM277.625 40.049C278.007 40.049 278.333 39.9736 278.604 39.8228C278.878 39.672 279.086 39.475 279.227 39.2319C279.372 38.9857 279.444 38.7225 279.444 38.4425V37.5284C279.395 37.5777 279.3 37.6238 279.158 37.6669C279.02 37.7069 278.861 37.7423 278.683 37.7731C278.504 37.8008 278.33 37.8269 278.161 37.8516C277.992 37.8731 277.85 37.8916 277.736 37.907C277.468 37.9408 277.224 37.9978 277.002 38.0778C276.784 38.1578 276.608 38.2732 276.476 38.424C276.347 38.5717 276.282 38.7687 276.282 39.0149C276.282 39.3565 276.408 39.6151 276.661 39.7905C276.913 39.9628 277.235 40.049 277.625 40.049ZM285.78 41.1431C285.094 41.1431 284.503 40.9877 284.007 40.6768C283.515 40.3629 283.136 39.9305 282.872 39.3796C282.607 38.8287 282.475 38.1978 282.475 37.4869C282.475 36.7667 282.61 36.1312 282.881 35.5803C283.152 35.0263 283.533 34.5939 284.026 34.283C284.518 33.9722 285.098 33.8168 285.766 33.8168C286.305 33.8168 286.785 33.9168 287.206 34.1168C287.628 34.3138 287.968 34.5908 288.227 34.9478C288.488 35.3048 288.644 35.7218 288.693 36.1989H287.35C287.276 35.8665 287.106 35.5803 286.842 35.3402C286.58 35.1001 286.229 34.9801 285.789 34.9801C285.404 34.9801 285.067 35.0817 284.778 35.2848C284.492 35.4848 284.269 35.7711 284.109 36.1435C283.949 36.5128 283.869 36.9498 283.869 37.4545C283.869 37.9716 283.947 38.4179 284.104 38.7933C284.261 39.1688 284.483 39.4596 284.769 39.6658C285.058 39.872 285.398 39.9751 285.789 39.9751C286.051 39.9751 286.288 39.9274 286.5 39.832C286.716 39.7335 286.896 39.5935 287.04 39.4119C287.188 39.2304 287.291 39.0118 287.35 38.7564H288.693C288.644 39.215 288.494 39.6243 288.245 39.9844C287.996 40.3445 287.662 40.6276 287.243 40.8338C286.828 41.04 286.34 41.1431 285.78 41.1431ZM293.609 33.9091V35.017H289.736V33.9091H293.609ZM290.775 32.2102H292.155V38.918C292.155 39.1857 292.195 39.3873 292.275 39.5227C292.355 39.6551 292.458 39.7459 292.584 39.7951C292.713 39.8413 292.854 39.8643 293.004 39.8643C293.115 39.8643 293.212 39.8567 293.295 39.8413C293.378 39.8259 293.443 39.8136 293.489 39.8043L293.738 40.9446C293.658 40.9754 293.544 41.0062 293.397 41.0369C293.249 41.0708 293.064 41.0893 292.843 41.0923C292.48 41.0985 292.141 41.0339 291.827 40.8984C291.513 40.763 291.259 40.5537 291.065 40.2706C290.872 39.9875 290.775 39.632 290.775 39.2042V32.2102ZM298.177 41.1431C297.512 41.1431 296.932 40.9908 296.436 40.6861C295.941 40.3814 295.556 39.9551 295.282 39.4073C295.008 38.8595 294.871 38.2193 294.871 37.4869C294.871 36.7513 295.008 36.1081 295.282 35.5572C295.556 35.0063 295.941 34.5785 296.436 34.2738C296.932 33.9691 297.512 33.8168 298.177 33.8168C298.841 33.8168 299.422 33.9691 299.917 34.2738C300.413 34.5785 300.797 35.0063 301.071 35.5572C301.345 36.1081 301.482 36.7513 301.482 37.4869C301.482 38.2193 301.345 38.8595 301.071 39.4073C300.797 39.9551 300.413 40.3814 299.917 40.6861C299.422 40.9908 298.841 41.1431 298.177 41.1431ZM298.181 39.9844C298.612 39.9844 298.969 39.8705 299.252 39.6428C299.535 39.415 299.745 39.1119 299.88 38.7333C300.019 38.3548 300.088 37.9377 300.088 37.4822C300.088 37.0298 300.019 36.6143 299.88 36.2358C299.745 35.8542 299.535 35.5479 299.252 35.3171C298.969 35.0863 298.612 34.9709 298.181 34.9709C297.747 34.9709 297.387 35.0863 297.101 35.3171C296.818 35.5479 296.607 35.8542 296.469 36.2358C296.333 36.6143 296.265 37.0298 296.265 37.4822C296.265 37.9377 296.333 38.3548 296.469 38.7333C296.607 39.1119 296.818 39.415 297.101 39.6428C297.387 39.8705 297.747 39.9844 298.181 39.9844ZM303.153 41V33.9091H304.487V35.0355H304.561C304.69 34.6539 304.918 34.3538 305.244 34.1353C305.573 33.9137 305.946 33.8029 306.361 33.8029C306.447 33.8029 306.549 33.806 306.666 33.8121C306.786 33.8183 306.88 33.826 306.948 33.8352V35.1555C306.892 35.1402 306.794 35.1232 306.652 35.1048C306.511 35.0832 306.369 35.0724 306.227 35.0724C305.901 35.0724 305.61 35.1417 305.355 35.2802C305.103 35.4156 304.902 35.6049 304.755 35.848C304.607 36.0881 304.533 36.362 304.533 36.6697V41H303.153Z" fill="white" fill-opacity="0.6"/>
<path d="M572.984 51.1431C572.285 51.1431 571.684 50.9938 571.179 50.6953C570.677 50.3937 570.29 49.9705 570.016 49.4258C569.745 48.878 569.609 48.2363 569.609 47.5007C569.609 46.7744 569.745 46.1342 570.016 45.5803C570.29 45.0263 570.671 44.5939 571.161 44.283C571.653 43.9722 572.228 43.8168 572.887 43.8168C573.287 43.8168 573.675 43.8829 574.05 44.0153C574.426 44.1476 574.763 44.3554 575.061 44.6385C575.36 44.9216 575.595 45.2894 575.768 45.7418C575.94 46.1912 576.026 46.7375 576.026 47.3807V47.87H570.39V46.8359H574.674C574.674 46.4728 574.6 46.1512 574.452 45.8711C574.304 45.5879 574.097 45.3648 573.829 45.2017C573.564 45.0386 573.253 44.957 572.896 44.957C572.509 44.957 572.17 45.0524 571.881 45.2433C571.594 45.431 571.373 45.6772 571.216 45.9819C571.062 46.2835 570.985 46.6113 570.985 46.9652V47.7731C570.985 48.247 571.068 48.6502 571.234 48.9826C571.404 49.315 571.639 49.5689 571.941 49.7443C572.242 49.9167 572.595 50.0028 572.998 50.0028C573.259 50.0028 573.498 49.9659 573.713 49.892C573.929 49.8151 574.115 49.7012 574.272 49.5504C574.429 49.3996 574.549 49.2134 574.632 48.9918L575.939 49.2273C575.834 49.612 575.646 49.949 575.375 50.2383C575.108 50.5245 574.771 50.7476 574.364 50.9077C573.961 51.0646 573.501 51.1431 572.984 51.1431ZM583.551 43.9091L580.979 51H579.502L576.926 43.9091H578.408L580.204 49.3658H580.278L582.069 43.9091H583.551ZM587.793 51.1431C587.094 51.1431 586.493 50.9938 585.988 50.6953C585.486 50.3937 585.098 49.9705 584.824 49.4258C584.554 48.878 584.418 48.2363 584.418 47.5007C584.418 46.7744 584.554 46.1342 584.824 45.5803C585.098 45.0263 585.48 44.5939 585.969 44.283C586.462 43.9722 587.037 43.8168 587.696 43.8168C588.096 43.8168 588.484 43.8829 588.859 44.0153C589.235 44.1476 589.572 44.3554 589.87 44.6385C590.169 44.9216 590.404 45.2894 590.577 45.7418C590.749 46.1912 590.835 46.7375 590.835 47.3807V47.87H585.198V46.8359H589.482C589.482 46.4728 589.409 46.1512 589.261 45.8711C589.113 45.5879 588.905 45.3648 588.638 45.2017C588.373 45.0386 588.062 44.957 587.705 44.957C587.317 44.957 586.979 45.0524 586.69 45.2433C586.403 45.431 586.182 45.6772 586.025 45.9819C585.871 46.2835 585.794 46.6113 585.794 46.9652V47.7731C585.794 48.247 585.877 48.6502 586.043 48.9826C586.212 49.315 586.448 49.5689 586.75 49.7443C587.051 49.9167 587.404 50.0028 587.807 50.0028C588.068 50.0028 588.307 49.9659 588.522 49.892C588.738 49.8151 588.924 49.7012 589.081 49.5504C589.238 49.3996 589.358 49.2134 589.441 48.9918L590.747 49.2273C590.643 49.612 590.455 49.949 590.184 50.2383C589.916 50.5245 589.579 50.7476 589.173 50.9077C588.77 51.0646 588.31 51.1431 587.793 51.1431ZM593.877 46.7898V51H592.497V43.9091H593.822V45.0632H593.909C594.072 44.6877 594.328 44.3861 594.676 44.1584C595.026 43.9306 595.468 43.8168 596.001 43.8168C596.484 43.8168 596.907 43.9183 597.27 44.1214C597.633 44.3215 597.915 44.62 598.115 45.017C598.315 45.4141 598.415 45.9049 598.415 46.4897V51H597.035V46.6559C597.035 46.1419 596.901 45.7403 596.633 45.451C596.365 45.1586 595.997 45.0124 595.53 45.0124C595.21 45.0124 594.925 45.0817 594.676 45.2202C594.429 45.3587 594.234 45.5618 594.089 45.8295C593.948 46.0942 593.877 46.4143 593.877 46.7898ZM603.706 43.9091V45.017H599.833V43.9091H603.706ZM600.872 42.2102H602.252V48.918C602.252 49.1857 602.292 49.3873 602.372 49.5227C602.452 49.6551 602.555 49.7459 602.681 49.7951C602.811 49.8413 602.951 49.8643 603.101 49.8643C603.212 49.8643 603.309 49.8567 603.392 49.8413C603.475 49.8259 603.54 49.8136 603.586 49.8043L603.835 50.9446C603.755 50.9754 603.642 51.0062 603.494 51.0369C603.346 51.0708 603.161 51.0893 602.94 51.0923C602.577 51.0985 602.238 51.0339 601.924 50.8984C601.61 50.763 601.356 50.5537 601.162 50.2706C600.969 49.9875 600.872 49.632 600.872 49.2042V42.2102ZM610.562 45.6403L609.311 45.8619C609.259 45.7018 609.176 45.5495 609.062 45.4048C608.951 45.2602 608.8 45.1417 608.61 45.0494C608.419 44.957 608.18 44.9109 607.894 44.9109C607.503 44.9109 607.177 44.9986 606.915 45.174C606.654 45.3464 606.523 45.5695 606.523 45.8434C606.523 46.0804 606.611 46.2712 606.786 46.4158C606.962 46.5605 607.245 46.679 607.636 46.7713L608.762 47.0298C609.414 47.1806 609.901 47.413 610.221 47.7269C610.541 48.0408 610.701 48.4486 610.701 48.9503C610.701 49.375 610.578 49.7536 610.332 50.0859C610.088 50.4152 609.748 50.6738 609.311 50.8615C608.877 51.0492 608.374 51.1431 607.802 51.1431C607.008 51.1431 606.36 50.9738 605.858 50.6353C605.357 50.2937 605.049 49.8089 604.935 49.1811L606.269 48.978C606.352 49.3258 606.523 49.5889 606.781 49.7674C607.04 49.9428 607.377 50.0305 607.792 50.0305C608.245 50.0305 608.607 49.9367 608.877 49.7489C609.148 49.5581 609.284 49.3258 609.284 49.0518C609.284 48.8303 609.201 48.6441 609.034 48.4933C608.871 48.3424 608.62 48.2286 608.282 48.1516L607.082 47.8885C606.42 47.7377 605.931 47.4976 605.614 47.1683C605.3 46.839 605.143 46.422 605.143 45.9173C605.143 45.4987 605.26 45.1325 605.493 44.8185C605.727 44.5046 606.051 44.2599 606.463 44.0845C606.875 43.906 607.348 43.8168 607.88 43.8168C608.647 43.8168 609.25 43.983 609.69 44.3153C610.13 44.6446 610.421 45.0863 610.562 45.6403Z" fill="white" fill-opacity="0.6"/>
<path d="M578.241 70.6403L576.99 70.8619C576.938 70.7018 576.855 70.5495 576.741 70.4048C576.63 70.2602 576.48 70.1417 576.289 70.0494C576.098 69.957 575.859 69.9109 575.573 69.9109C575.182 69.9109 574.856 69.9986 574.594 70.174C574.333 70.3464 574.202 70.5695 574.202 70.8434C574.202 71.0804 574.29 71.2712 574.465 71.4158C574.641 71.5605 574.924 71.679 575.315 71.7713L576.441 72.0298C577.094 72.1806 577.58 72.413 577.9 72.7269C578.22 73.0408 578.38 73.4486 578.38 73.9503C578.38 74.375 578.257 74.7536 578.011 75.0859C577.768 75.4152 577.427 75.6738 576.99 75.8615C576.556 76.0492 576.053 76.1431 575.481 76.1431C574.687 76.1431 574.039 75.9738 573.537 75.6353C573.036 75.2937 572.728 74.8089 572.614 74.1811L573.948 73.978C574.031 74.3258 574.202 74.5889 574.461 74.7674C574.719 74.9428 575.056 75.0305 575.472 75.0305C575.924 75.0305 576.286 74.9367 576.556 74.7489C576.827 74.5581 576.963 74.3258 576.963 74.0518C576.963 73.8303 576.88 73.6441 576.713 73.4933C576.55 73.3424 576.299 73.2286 575.961 73.1516L574.761 72.8885C574.099 72.7377 573.61 72.4976 573.293 72.1683C572.979 71.839 572.822 71.422 572.822 70.9173C572.822 70.4987 572.939 70.1325 573.173 69.8185C573.406 69.5046 573.73 69.2599 574.142 69.0845C574.554 68.906 575.027 68.8168 575.559 68.8168C576.326 68.8168 576.929 68.983 577.369 69.3153C577.809 69.6446 578.1 70.0863 578.241 70.6403ZM583.338 68.9091V70.017H579.464V68.9091H583.338ZM580.503 67.2102H581.883V73.918C581.883 74.1857 581.923 74.3873 582.003 74.5227C582.084 74.6551 582.187 74.7459 582.313 74.7951C582.442 74.8413 582.582 74.8643 582.733 74.8643C582.844 74.8643 582.941 74.8567 583.024 74.8413C583.107 74.8259 583.171 74.8136 583.218 74.8043L583.467 75.9446C583.387 75.9754 583.273 76.0062 583.125 76.0369C582.978 76.0708 582.793 76.0893 582.571 76.0923C582.208 76.0985 581.87 76.0339 581.556 75.8984C581.242 75.763 580.988 75.5537 580.794 75.2706C580.6 74.9875 580.503 74.632 580.503 74.2042V67.2102ZM587.058 76.157C586.609 76.157 586.203 76.0739 585.839 75.9077C585.476 75.7384 585.188 75.4937 584.976 75.1737C584.767 74.8536 584.662 74.4612 584.662 73.9964C584.662 73.5964 584.739 73.267 584.893 73.0085C585.047 72.75 585.255 72.5453 585.516 72.3945C585.778 72.2437 586.07 72.1299 586.393 72.0529C586.716 71.976 587.046 71.9175 587.381 71.8775C587.806 71.8282 588.151 71.7882 588.415 71.7575C588.68 71.7236 588.872 71.6697 588.992 71.5959C589.112 71.522 589.172 71.402 589.172 71.2358V71.2035C589.172 70.8003 589.059 70.4879 588.831 70.2663C588.606 70.0447 588.271 69.9339 587.824 69.9339C587.36 69.9339 586.993 70.037 586.726 70.2433C586.461 70.4464 586.278 70.6726 586.176 70.9219L584.879 70.6264C585.033 70.1955 585.258 69.8478 585.553 69.5831C585.852 69.3153 586.195 69.1214 586.583 69.0014C586.97 68.8783 587.378 68.8168 587.806 68.8168C588.089 68.8168 588.389 68.8506 588.706 68.9183C589.026 68.983 589.325 69.103 589.602 69.2784C589.882 69.4538 590.111 69.7047 590.29 70.0309C590.468 70.354 590.557 70.7741 590.557 71.2912V76H589.209V75.0305H589.154C589.065 75.209 588.931 75.3845 588.752 75.5568C588.574 75.7292 588.345 75.8723 588.065 75.9862C587.784 76.1 587.449 76.157 587.058 76.157ZM587.358 75.049C587.74 75.049 588.066 74.9736 588.337 74.8228C588.611 74.672 588.819 74.475 588.96 74.2319C589.105 73.9857 589.177 73.7225 589.177 73.4425V72.5284C589.128 72.5777 589.032 72.6238 588.891 72.6669C588.752 72.7069 588.594 72.7423 588.415 72.7731C588.237 72.8008 588.063 72.8269 587.894 72.8516C587.724 72.8731 587.583 72.8916 587.469 72.907C587.201 72.9408 586.957 72.9978 586.735 73.0778C586.516 73.1578 586.341 73.2732 586.209 73.424C586.079 73.5717 586.015 73.7687 586.015 74.0149C586.015 74.3565 586.141 74.6151 586.393 74.7905C586.646 74.9628 586.967 75.049 587.358 75.049ZM595.836 68.9091V70.017H591.963V68.9091H595.836ZM593.001 67.2102H594.382V73.918C594.382 74.1857 594.422 74.3873 594.502 74.5227C594.582 74.6551 594.685 74.7459 594.811 74.7951C594.94 74.8413 595.08 74.8643 595.231 74.8643C595.342 74.8643 595.439 74.8567 595.522 74.8413C595.605 74.8259 595.67 74.8136 595.716 74.8043L595.965 75.9446C595.885 75.9754 595.771 76.0062 595.624 76.0369C595.476 76.0708 595.291 76.0893 595.07 76.0923C594.706 76.0985 594.368 76.0339 594.054 75.8984C593.74 75.763 593.486 75.5537 593.292 75.2706C593.098 74.9875 593.001 74.632 593.001 74.2042V67.2102ZM600.473 76.1431C599.774 76.1431 599.172 75.9938 598.668 75.6953C598.166 75.3937 597.778 74.9705 597.504 74.4258C597.234 73.878 597.098 73.2363 597.098 72.5007C597.098 71.7744 597.234 71.1342 597.504 70.5803C597.778 70.0263 598.16 69.5939 598.649 69.283C599.142 68.9722 599.717 68.8168 600.376 68.8168C600.776 68.8168 601.164 68.8829 601.539 69.0153C601.915 69.1476 602.252 69.3554 602.55 69.6385C602.849 69.9216 603.084 70.2894 603.257 70.7418C603.429 71.1912 603.515 71.7375 603.515 72.3807V72.87H597.878V71.8359H602.162C602.162 71.4728 602.089 71.1512 601.941 70.8711C601.793 70.5879 601.585 70.3648 601.318 70.2017C601.053 70.0386 600.742 69.957 600.385 69.957C599.997 69.957 599.659 70.0524 599.369 70.2433C599.083 70.431 598.862 70.6772 598.705 70.9819C598.551 71.2835 598.474 71.6113 598.474 71.9652V72.7731C598.474 73.247 598.557 73.6502 598.723 73.9826C598.892 74.315 599.128 74.5689 599.429 74.7443C599.731 74.9167 600.083 75.0028 600.487 75.0028C600.748 75.0028 600.987 74.9659 601.202 74.892C601.418 74.8151 601.604 74.7012 601.761 74.5504C601.918 74.3996 602.038 74.2134 602.121 73.9918L603.427 74.2273C603.323 74.612 603.135 74.949 602.864 75.2383C602.596 75.5245 602.259 75.7476 601.853 75.9077C601.45 76.0646 600.99 76.1431 600.473 76.1431Z" fill="white" fill-opacity="0.6"/>
<path d="M549 21L569 32.547V9.45299L549 21ZM567 23H649V19H567V23Z" fill="white"/>
<path d="M633 97L613 85.453L613 108.547L633 97ZM533 99L615 99L615 95L533 95L533 99Z" fill="white"/>
<path d="M323 61L303 49.453L303 72.547L323 61ZM223 63L305 63L305 59L223 59L223 63Z" fill="white"/>
</g>
<defs>
<clipPath id="clip0_74_153">
<rect width="889" height="116" fill="white"/>
</clipPath>
</defs>
</svg>
