<svg width="17" height="14" viewBox="0 0 17 14" fill="none" xmlns="http://www.w3.org/2000/svg">
<path d="M17 1.84816C16.3795 2.11882 15.7128 2.30171 15.0119 2.38438C15.7269 1.96301 16.2754 1.29438 16.534 0.498452C15.8651 0.889097 15.1242 1.17293 14.3357 1.3251C13.704 0.663782 12.8047 0.249725 11.8088 0.249725C9.89728 0.249725 8.34697 1.77573 8.34697 3.65873C8.34697 3.92502 8.37819 4.18398 8.43615 4.43418C5.55776 4.29152 3.00786 2.9345 1.3 0.872998C1.00271 1.37777 0.831781 1.96301 0.831781 2.58628C0.831781 3.76847 1.44343 4.81239 2.37168 5.42323C1.80388 5.40495 1.27026 5.25205 0.803532 4.99674V5.04064C0.803532 6.69173 1.99637 8.06925 3.58086 8.38235C3.28952 8.4599 2.98408 8.50086 2.66896 8.50086C2.446 8.50086 2.22824 8.48037 2.01717 8.44087C2.45789 9.79427 3.73618 10.7803 5.25157 10.8067C4.06617 11.7212 2.57309 12.2661 0.951436 12.2661C0.671997 12.2661 0.396271 12.25 0.125 12.2186C1.65748 13.1865 3.47681 13.7498 5.43141 13.7498C11.8006 13.7498 15.2825 8.55719 15.2825 4.05378C15.2825 3.90746 15.2787 3.75969 15.2721 3.61338C15.9483 3.13202 16.5355 2.53288 16.9985 1.85035L17 1.84816Z" fill="white"/>
</svg>
