<svg xmlns="http://www.w3.org/2000/svg" width="782" height="394"><g fill="none" fill-rule="evenodd" transform="translate(-165 -125)"><g fill="#5E607B" fill-rule="nonzero"><path d="M225.825 228h3.292v-7.67h4.475c5.06 0 7.563-3.058 7.563-7.085 0-4.016-2.482-7.063-7.553-7.063h-7.777V228Zm3.292-10.461v-8.534h4.134c3.26 0 4.591 1.769 4.591 4.24 0 2.472-1.331 4.294-4.549 4.294h-4.176ZM255.111 221.214c.011 2.78-2.056 4.101-3.845 4.101-1.971 0-3.335-1.427-3.335-3.654v-10.024h-3.185v10.408c0 4.059 2.226 6.168 5.369 6.168 2.46 0 4.133-1.3 4.89-3.047h.17V228h3.132v-16.363h-3.196v9.577ZM274.841 215.632c-.66-2.547-2.652-4.208-6.19-4.208-3.696 0-6.316 1.95-6.316 4.847 0 2.322 1.406 3.867 4.474 4.549l2.77.607c1.576.352 2.312 1.055 2.312 2.077 0 1.268-1.353 2.259-3.441 2.259-1.907 0-3.133-.82-3.516-2.43l-3.079.47c.533 2.897 2.94 4.527 6.616 4.527 3.952 0 6.69-2.098 6.69-5.06 0-2.312-1.47-3.74-4.474-4.432l-2.6-.596c-1.8-.427-2.578-1.034-2.567-2.142-.01-1.257 1.353-2.152 3.164-2.152 1.981 0 2.898 1.098 3.27 2.195l2.887-.511ZM281.84 218.284c0-2.61 1.652-4.101 3.921-4.101 2.195 0 3.505 1.395 3.505 3.792V228h3.186v-10.408c0-4.08-2.238-6.168-5.604-6.168-2.546 0-4.08 1.107-4.847 2.876h-.203v-8.118h-3.142V228h3.185v-9.716Z"/></g><g fill="#5E607B" fill-rule="nonzero"><path d="M393.759 195.277c-.746-4.666-4.4-7.393-9.013-7.393-5.646 0-9.811 4.23-9.811 11.207 0 6.978 4.144 11.207 9.811 11.207 4.794 0 8.3-3.004 9.013-7.319l-3.324-.01c-.564 2.791-2.908 4.325-5.667 4.325-3.74 0-6.563-2.866-6.563-8.203 0-5.295 2.813-8.203 6.573-8.203 2.78 0 5.114 1.566 5.657 4.39h3.324ZM404.338 210.33c4.613 0 7.628-3.377 7.628-8.437 0-5.092-3.015-8.47-7.628-8.47-4.613 0-7.628 3.378-7.628 8.47 0 5.06 3.015 8.437 7.628 8.437Zm.01-2.674c-3.014 0-4.42-2.631-4.42-5.774 0-3.132 1.406-5.795 4.42-5.795 2.994 0 4.4 2.663 4.4 5.795 0 3.143-1.406 5.774-4.4 5.774ZM415.513 210h3.186v-16.363h-3.186V210Zm1.61-18.888c1.096 0 2.013-.853 2.013-1.897s-.917-1.906-2.014-1.906c-1.108 0-2.013.862-2.013 1.906s.905 1.897 2.013 1.897ZM426.167 200.284c0-2.61 1.598-4.101 3.814-4.101 2.162 0 3.473 1.417 3.473 3.792V210h3.185v-10.408c0-4.049-2.227-6.169-5.572-6.169-2.46 0-4.07 1.14-4.826 2.877h-.202v-2.663h-3.058V210h3.186v-9.716Z"/></g><g fill="#5E607B" fill-rule="nonzero"><path d="M689.825 458h3.292v-7.67h4.475c5.06 0 7.563-3.058 7.563-7.085 0-4.016-2.482-7.063-7.553-7.063h-7.777V458Zm3.292-10.461v-8.534h4.134c3.26 0 4.591 1.769 4.591 4.24 0 2.472-1.331 4.294-4.549 4.294h-4.176ZM719.111 451.214c.011 2.78-2.056 4.101-3.845 4.101-1.971 0-3.335-1.427-3.335-3.654v-10.024h-3.185v10.408c0 4.059 2.226 6.168 5.369 6.168 2.46 0 4.133-1.3 4.89-3.047h.17V458h3.132v-16.363h-3.196v9.577ZM738.841 445.632c-.66-2.547-2.652-4.208-6.19-4.208-3.696 0-6.316 1.95-6.316 4.847 0 2.322 1.406 3.867 4.474 4.549l2.77.607c1.576.352 2.312 1.055 2.312 2.077 0 1.268-1.353 2.259-3.441 2.259-1.907 0-3.133-.82-3.516-2.43l-3.079.47c.533 2.897 2.94 4.527 6.616 4.527 3.952 0 6.69-2.098 6.69-5.06 0-2.312-1.47-3.74-4.474-4.432l-2.6-.596c-1.8-.427-2.578-1.034-2.567-2.142-.01-1.257 1.353-2.152 3.164-2.152 1.981 0 2.898 1.098 3.27 2.195l2.887-.511ZM745.84 448.284c0-2.61 1.652-4.101 3.921-4.101 2.195 0 3.505 1.395 3.505 3.792V458h3.186v-10.408c0-4.08-2.238-6.168-5.604-6.168-2.546 0-4.08 1.107-4.847 2.876h-.203v-8.118h-3.142V458h3.185v-9.716Z"/></g><g fill="#5E607B" fill-rule="nonzero"><path d="M853.759 421.277c-.746-4.666-4.4-7.393-9.013-7.393-5.646 0-9.811 4.23-9.811 11.207 0 6.978 4.144 11.207 9.811 11.207 4.794 0 8.3-3.004 9.013-7.319l-3.324-.01c-.564 2.791-2.908 4.325-5.667 4.325-3.74 0-6.563-2.866-6.563-8.203 0-5.295 2.813-8.203 6.573-8.203 2.78 0 5.114 1.566 5.657 4.39h3.324ZM864.338 436.33c4.613 0 7.628-3.377 7.628-8.437 0-5.092-3.015-8.47-7.628-8.47-4.613 0-7.628 3.378-7.628 8.47 0 5.06 3.015 8.437 7.628 8.437Zm.01-2.674c-3.014 0-4.42-2.631-4.42-5.774 0-3.132 1.406-5.795 4.42-5.795 2.994 0 4.4 2.663 4.4 5.795 0 3.143-1.406 5.774-4.4 5.774ZM875.513 436h3.186v-16.363h-3.186V436Zm1.61-18.888c1.096 0 2.013-.853 2.013-1.897s-.917-1.906-2.014-1.906c-1.108 0-2.013.862-2.013 1.906s.905 1.897 2.013 1.897ZM886.167 426.284c0-2.61 1.598-4.101 3.814-4.101 2.162 0 3.473 1.417 3.473 3.792V436h3.185v-10.408c0-4.049-2.227-6.169-5.572-6.169-2.46 0-4.07 1.14-4.826 2.877h-.202v-2.663h-3.058V436h3.186v-9.716Z"/></g><circle cx="358" cy="319" r="63.5" fill="#0F6EE5" stroke="#3A3B48" stroke-width="3"/><g fill="#FFF" fill-rule="nonzero"><path d="M308.838 331h13.178v-2.834h-9.886v-18.984h-3.292zM332.404 331.33c4.613 0 7.627-3.377 7.627-8.437 0-5.092-3.014-8.47-7.627-8.47-4.613 0-7.628 3.378-7.628 8.47 0 5.06 3.015 8.437 7.628 8.437Zm.01-2.674c-3.015 0-4.42-2.631-4.42-5.774 0-3.132 1.405-5.795 4.42-5.795 2.994 0 4.4 2.663 4.4 5.795 0 3.143-1.406 5.774-4.4 5.774ZM350.472 331.33c3.867 0 6.37-2.322 6.722-5.507h-3.1c-.405 1.768-1.78 2.812-3.6 2.812-2.696 0-4.433-2.248-4.433-5.817 0-3.505 1.769-5.71 4.432-5.71 2.024 0 3.26 1.279 3.601 2.813h3.1c-.34-3.303-3.036-5.497-6.754-5.497-4.613 0-7.596 3.472-7.596 8.469 0 4.932 2.876 8.437 7.628 8.437ZM360.614 331h3.185v-5.806l1.587-1.587 5.561 7.393h3.91l-7.074-9.343 6.627-7.02h-3.814l-6.52 6.924h-.277v-12.379h-3.185zM384.36 331.33c3.57 0 6.094-1.758 6.818-4.42l-3.014-.544c-.576 1.545-1.96 2.333-3.772 2.333-2.727 0-4.56-1.769-4.645-4.922h11.634v-1.13c0-5.912-3.537-8.223-7.244-8.223-4.56 0-7.564 3.472-7.564 8.5 0 5.082 2.961 8.406 7.787 8.406Zm-4.602-9.94c.128-2.322 1.811-4.335 4.4-4.335 2.471 0 4.09 1.832 4.101 4.336h-8.5ZM401.054 331.32c2.983 0 4.155-1.822 4.73-2.866h.267V331h3.11v-21.818h-3.185v8.107h-.192c-.575-1.012-1.662-2.865-4.708-2.865-3.953 0-6.861 3.12-6.861 8.426 0 5.295 2.866 8.47 6.84 8.47Zm.703-2.717c-2.844 0-4.325-2.503-4.325-5.785 0-3.249 1.449-5.689 4.325-5.689 2.78 0 4.272 2.27 4.272 5.69 0 3.44-1.523 5.784-4.272 5.784Z"/></g><circle cx="762" cy="320" r="63.5" fill="#0F6EE5" stroke="#3A3B48" stroke-width="3"/><g fill="#FFF" fill-rule="nonzero"><path d="M751.458 288.182v14.084c0 2.961-2.045 5.092-5.369 5.092-3.313 0-5.37-2.13-5.37-5.092v-14.084h-3.291v14.35c0 4.581 3.43 7.83 8.661 7.83 5.23 0 8.672-3.249 8.672-7.83v-14.35h-3.303ZM762.485 300.284c0-2.61 1.598-4.101 3.814-4.101 2.162 0 3.472 1.417 3.472 3.792V310h3.186v-10.408c0-4.048-2.227-6.168-5.572-6.168-2.46 0-4.07 1.14-4.826 2.876h-.202v-2.663h-3.058V310h3.186v-9.716ZM786.86 299.4h-9.673v2.76h9.673zM719.498 324.182h-3.185V346h3.185zM730.674 346.33c4.612 0 7.627-3.377 7.627-8.437 0-5.092-3.015-8.47-7.627-8.47-4.613 0-7.628 3.378-7.628 8.47 0 5.06 3.015 8.437 7.628 8.437Zm.01-2.674c-3.015 0-4.42-2.631-4.42-5.774 0-3.132 1.405-5.795 4.42-5.795 2.994 0 4.4 2.663 4.4 5.795 0 3.143-1.406 5.774-4.4 5.774ZM748.742 346.33c3.867 0 6.37-2.322 6.722-5.507h-3.1c-.405 1.768-1.78 2.812-3.601 2.812-2.695 0-4.432-2.248-4.432-5.817 0-3.505 1.769-5.71 4.432-5.71 2.024 0 3.26 1.279 3.6 2.813h3.1c-.34-3.303-3.035-5.497-6.753-5.497-4.613 0-7.596 3.472-7.596 8.469 0 4.932 2.876 8.437 7.628 8.437ZM758.884 346h3.185v-5.806l1.588-1.587 5.56 7.393h3.91l-7.073-9.343 6.626-7.02h-3.814l-6.52 6.924h-.277v-12.379h-3.185zM782.63 346.33c3.569 0 6.094-1.758 6.818-4.42l-3.015-.544c-.575 1.545-1.96 2.333-3.77 2.333-2.728 0-4.56-1.769-4.646-4.922h11.634v-1.13c0-5.912-3.537-8.223-7.245-8.223-4.56 0-7.563 3.472-7.563 8.5 0 5.082 2.961 8.406 7.787 8.406Zm-4.602-9.94c.128-2.322 1.811-4.335 4.4-4.335 2.471 0 4.09 1.832 4.101 4.336h-8.501ZM799.324 346.32c2.983 0 4.155-1.822 4.73-2.866h.266V346h3.111v-21.818h-3.185v8.107h-.192c-.575-1.012-1.662-2.865-4.709-2.865-3.952 0-6.86 3.12-6.86 8.426 0 5.295 2.865 8.47 6.84 8.47Zm.703-2.717c-2.844 0-4.325-2.503-4.325-5.785 0-3.249 1.449-5.689 4.325-5.689 2.78 0 4.272 2.27 4.272 5.69 0 3.44-1.523 5.784-4.272 5.784Z"/></g><circle cx="358" cy="445" r="16" fill="#5E607B"/><path fill="#5E607B" fill-rule="nonzero" d="M252 242c25.574 0 49.21 11.499 64.657 30.792l-3.122 2.5C298.842 256.942 276.352 246 252 246c-43.09 0-78 34.038-78 76s34.91 76 78 76c16.474 0 32.165-4.987 45.26-14.095l-6.767-6.9 25.537-8.236-8.733 25.372-7.2-7.341C286.227 396.618 269.53 402 252 402c-45.276 0-82-35.806-82-80s36.724-80 82-80ZM864.635 400.848c-25.57-.446-49.002-12.356-64.11-31.915l3.165-2.445c14.371 18.604 36.667 29.936 61.015 30.361 43.083.752 78.582-32.671 79.314-74.627.733-41.956-33.579-76.598-76.661-77.35-16.471-.287-32.247 4.425-45.499 13.303l6.645 7.017-25.677 7.79 9.175-25.216 7.07 7.465c14.04-9.574 30.83-14.664 48.355-14.358 45.27.79 81.363 37.231 80.592 81.419-.772 44.187-38.115 79.347-83.384 78.556ZM559.5 183c62.592 0 119.6 24.64 151.895 64.267l8.51-5.61 3.192 26.643-23.23-13.432 8.172-5.387C676.493 211.012 620.773 187 559.5 187c-71.316 0-134.582 32.562-161.338 81.33l-3.507-1.923C422.161 216.271 486.805 183 559.5 183ZM559.5 455.3c73.181 0 138.172-33.717 165.359-84.354l-3.524-1.892C694.893 418.303 631.29 451.3 559.5 451.3c-60.826 0-116.196-23.661-147.875-61.679l8.126-5.456-23.342-13.234 3.417 26.614 8.461-5.682C440.718 431.022 497.366 455.3 559.5 455.3ZM359 385l12 24h-10v20h-4v-20h-10l12-24Z"/></g></svg>