<svg xmlns="http://www.w3.org/2000/svg" viewBox="0 0 36 36">
  <g fill="none" fill-rule="evenodd" stroke="#FFF" stroke-width=".714">
    <path d="M9.585 35.286a2.857 2.857 0 0 0 2.858-2.857 5.715 5.715 0 0 1 1.678-4.05s-9.778-1.093-11.857-5.293a15.479 15.479 0 0 1-1.25-6.786A12.307 12.307 0 0 1 3.8 8.143 11.021 11.021 0 0 1 3.25 4.7c0-1.557-.093-2.271.621-3.7 3.2 0 5.714.607 8.122 2.514a28.271 28.271 0 0 1 6.164-.585 28.27 28.27 0 0 1 6.164.585C26.728 1.607 29.243 1 32.443 1c.714 1.393.621 2.143.621 3.7 0 1.17-.185 2.332-.55 3.443A12.307 12.307 0 0 1 35.3 16.3c.099 2.327-.328 4.647-1.25 6.786-2.079 4.2-11.857 5.293-11.857 5.293a5.713 5.713 0 0 1 1.678 4.05 2.857 2.857 0 0 0 2.857 2.857"/>
    <path d="M12.442 31.629c-2.857 1.428-4.507-.307-6.25-1.429-1.743-1.121-3.036-1.521-5.179-.628"/>
    <path fill="#FFF" fill-rule="nonzero" d="M11.593 21.386c1.258 0 2.278-1.542 2.278-3.443 0-1.902-1.02-3.443-2.278-3.443-1.259 0-2.279 1.541-2.279 3.443 0 1.901 1.02 3.443 2.279 3.443ZM24.72 21.386c1.259 0 2.279-1.542 2.279-3.443 0-1.902-1.02-3.443-2.279-3.443-1.258 0-2.278 1.541-2.278 3.443 0 1.901 1.02 3.443 2.278 3.443Z"/>
  </g>
</svg>
