<svg width="1016" height="330" xmlns="http://www.w3.org/2000/svg">
  <path d="m984.364 187.48-.222 1.375-.248-1.376-22.375-64.25h-12.795l29.177 82.921v.665c-1.748 7.943-6.724 17.68-11.25 20.738-3.978 2.707-8.308 3.053-11.64 3.053-1.605 0-5.009-.568-6.424-.907v9.99c1.8.444 6.072 1.247 8.726 1.247 6.221 0 11.393-1.553 15.801-4.755 5.276-3.834 11.185-13.78 13.989-22.342l29.092-90.616h-12.776l-19.055 64.256Zm-44.431-20.054v-7.885c0-13.708-3.56-23.803-10.31-30.025-5.752-5.295-13.885-7.858-24.586-7.858-5.57 0-10.617 1.004-15.013 2.974-4.31 1.943-8.288 4.832-11.269 8.602-5.915 7.415-9.188 18.403-9.188 31.727 0 14.823 4.193 26.15 11.92 33.676 8.14 7.95 18.587 9.633 25.793 9.633 18.71 0 27.88-10.24 31.72-19.5l-10.492-5.028c-2.53 5.635-8.244 14.178-21.228 14.178-7.428 0-13.636-2.954-17.934-8.556-4.167-5.413-6.371-12.997-6.384-21.938h56.971Zm-12.736-10.337h-43.89c1.142-17.106 8.14-25.081 22.056-25.081 14.94 0 21.788 7.962 21.834 25.081ZM179.44 134.238c-6.476-8.27-15.71-12.652-26.718-12.652-11.002 0-20.243 4.383-26.738 12.645-6.04 7.709-9.352 18.6-9.352 30.658s3.313 22.936 9.352 30.65c6.495 8.29 15.736 12.652 26.738 12.652 11.008 0 20.242-4.37 26.725-12.651 6.038-7.722 9.37-18.593 9.37-30.651s-3.338-22.95-9.377-30.651Zm-26.718 63.623c-14.021 0-22.402-12.332-22.402-32.966 0-20.64 8.374-32.966 22.402-32.966 14.027 0 22.375 12.326 22.375 32.966-.007 20.634-8.354 32.966-22.375 32.966Zm65.253-38.221c3.215-17.165 12.209-25.278 27.756-25.278V122.16c-13.232 0-20.986 5.172-27.762 17.308l-.118.15.124-1.063v-15.11h-13.062v83.422h13.062V159.64Zm319.552-38.954c.058-5.543 1.865-9.906 5.36-12.906 3.555-3.065 8.648-4.604 15.176-4.604 6.86 0 12.932 1.97 17.595 5.694 4.271 3.397 7.401 8.327 8.823 14.001l12.17-1.493c-5.322-18.189-18.398-29.282-38.275-29.282-9.822 0-18.723 3.065-25.036 8.615-6.124 5.413-9.521 12.847-9.521 20.928 0 8.901 3.645 15.892 11.151 21.364 6.62 4.826 15.32 7.904 23.745 10.878 14.647 5.21 28.499 10.114 28.499 23.412 0 5.908-2.002 10.864-5.798 14.327-4.187 3.809-10.343 5.733-18.293 5.733-13.942 0-24.07-7.807-29.77-22.825l-12.417 3.339c2.68 6.097 7.239 14.953 13.878 20.875 7.29 6.534 16.349 9.697 27.677 9.697 13.447 0 23.634-3.521 30.305-10.46 6.932-7.213 8.38-16.428 8.38-22.878 0-9.254-3.841-16.499-11.725-22.14-6.907-4.943-15.906-8.021-24.593-11.002-14.125-4.832-27.475-9.39-27.331-21.273Zm84.309 12.834h-12.534v-10.342h12.534V95.885H634.9v27.3h14.034v10.336H634.9v57.01c0 3.809.893 7.324 9.651 7.324 1.448 0 2.935-.052 4.383-.137v9.182s-4.944 1.298-8.667 1.298c-5.883 0-10.33-.946-13.31-2.941-2.766-1.892-5.12-4.918-5.12-10.063v-61.673Zm225.094 57.011c0 3.809 1.214 7.324 9.965 7.324 1.448 0 2.915-.052 4.39-.137v9.182s-4.95 1.298-8.674 1.298c-5.883 0-10.337-.946-13.304-2.941-2.772-1.892-5.432-4.918-5.432-10.063V90.936h13.069l-.013 99.595Zm-411.145-45.585c4.448-4.747 14.322-12.75 23.386-12.75 9.072 0 13.109 4.474 13.109 14.472V206.9h13.062v-60.552c0-18.051-12.873-24.481-25.055-24.481-8.504 0-17.178 4.474-24.502 12.762v-11.158h-13.062V206.9h13.062v-61.954Zm-47.887 51.624c.346 4.61 1.996 7.285 5.628 9.202 3.424 1.832 9.072 1.408 11.485.822v-8.863c-2.909-.137-4.82-1.494-4.82-5.08v-40.31l-.045-5.314c0-8.328-3.313-15.058-9.567-19.46-5.152-3.659-12.28-5.661-20.008-5.661-18.521 0-27.358 11.002-31.088 17.875l10.532 5.491c1.468-3.939 6.633-13.03 20.712-13.03 11.106 0 16.715 4.944 16.715 14.674l.013 3s.033.867-.228 1.193c-.411.522-1.5.92-4.33 1.213-15.56 1.735-25.89 4.363-33.495 9.247-8.25 5.302-13.44 12.698-13.44 22.878 0 7.232 3.521 13.388 8.125 17.784 4.278 4.05 10.2 6.104 16.65 6.293 13.727.417 22.779-5.237 27.161-11.954Zm-.078-13.956c-.606 7.298-14.19 16.173-25.33 15.547-6.136-.339-12.181-5.204-12.807-13.317-1.018-13.551 9.312-19.283 32.053-21.781 1.578-.144 4.558-.698 6.084-1.578v21.13Zm325.753 13.956c.346 4.61 2.002 7.285 5.635 9.202 3.424 1.832 9.071 1.408 11.478.822v-8.863c-2.902-.137-4.813-1.494-4.813-5.08v-40.31l-.059-5.314c0-8.328-3.3-15.058-9.554-19.46-5.165-3.659-12.28-5.661-20.008-5.661-18.52 0-27.357 11.002-31.094 17.875l10.539 5.491c1.46-3.939 6.632-13.03 20.712-13.03 11.106 0 16.714 4.944 16.714 14.674l.013 3s.033.867-.228 1.193c-.41.522-1.5.92-4.33 1.213-15.56 1.735-25.884 4.363-33.494 9.247-8.25 5.302-13.434 12.698-13.434 22.878 0 7.232 3.515 13.388 8.125 17.784 4.278 4.05 10.193 6.104 16.643 6.293 13.715.417 22.78-5.237 27.155-11.954Zm-.078-13.956c-.6 7.298-14.19 16.173-25.33 15.547-6.13-.339-12.181-5.204-12.8-13.317-1.025-13.551 9.312-19.283 32.052-21.781 1.578-.144 4.559-.698 6.078-1.578v21.13Zm-663.121 1.951L22.71 93.649H1v113.219h13.062V103.32l.281.385 31.029 103.163h10.147l31.029-103.163.287-.385v103.548h13.063V93.648H78.155l-27.631 90.917-.078.476zm711.08-39.619c4.441-4.747 14.321-12.75 23.392-12.75 9.052 0 13.102 4.474 13.102 14.472V206.9h13.062v-60.552c0-18.051-12.866-24.481-25.062-24.481-8.503 0-17.177 4.474-24.5 12.762h.006-.007l.007-11.158h-13.056V206.9h13.056v-61.954Zm-451.396-21.56-2.784 8.804c-4.794-6.234-11.041-10.395-20.967-10.395-14.719 0-35.548 9.92-35.548 43.192 0 32.313 20.83 43.191 34.916 43.191 8.21 0 15.684-4.5 20.803-11.054l.646-.32v15.854c0 11.126-9.56 17.915-19.852 17.915-9.997 0-18.873-1.898-26.092-5.276v11.295c6.085 2.609 15.984 4.291 24.495 4.291 23.138 0 34.159-12.775 34.159-31.23v-86.267h-9.776Zm-2.94 59.228c-3.386 9.613-12.972 15.221-19.852 15.221-13.44 0-22.819-8.38-22.819-33.494 0-21.116 8.426-32.203 22.819-32.203 7.363 0 13.747 3.202 19.851 10.774v39.702Z" fill="#FFF"/>
</svg>
