<svg width="476" height="330" xmlns="http://www.w3.org/2000/svg">
  <g fill="#FFF" fill-rule="evenodd">
    <path d="M0 271.59h12.496v3.444h-7.7v3.718h7.269v3.5H4.796v4.198h7.99V290H0v-18.41Zm441.722 0h13.704v3.678h-4.453V290h-4.797v-14.732h-4.454v-3.679Zm-40.722 0h5.989l5.212 11.038c.176.372.385.889.623 1.548.237.663.496 1.471.787 2.428a33.546 33.546 0 0 1-.338-2.5 22.117 22.117 0 0 1-.109-2.087v-10.428h4.331V290h-5.963l-5.414-11.442a14.892 14.892 0 0 1-.7-1.716 25.802 25.802 0 0 1-.58-2.017 44.38 44.38 0 0 1 .373 3.025c.081.92.12 1.734.12 2.433V290h-4.33v-18.41Zm-34.856 0h12.499v3.444h-7.702v3.718h7.27v3.5h-7.27v4.198h7.99V290h-12.787v-18.41Zm-43.406 0h6.968l3.128 11.064c.125.443.22.934.298 1.482.079.549.134 1.14.17 1.768.06-.68.135-1.308.218-1.885.092-.574.19-1.065.302-1.47l3.133-10.96h6.857V290h-4.29v-12.361c0-.589.017-1.194.05-1.828.034-.632.079-1.303.143-2.02a42.544 42.544 0 0 1-.349 1.588c-.12.503-.25.983-.387 1.434L335.125 290h-4.097l-3.77-12.973a23.838 23.838 0 0 1-.374-1.493 36.262 36.262 0 0 1-.337-1.743c.058.871.103 1.66.14 2.354.036.694.052 1.22.052 1.573V290h-4.001v-18.41Zm-38.922 0h5.988l5.213 11.038c.176.372.385.889.622 1.548.237.663.497 1.471.787 2.428a33.546 33.546 0 0 1-.338-2.5 22.07 22.07 0 0 1-.108-2.087v-10.428h4.33V290h-5.963l-5.413-11.442a15.635 15.635 0 0 1-.7-1.716 24.64 24.64 0 0 1-.581-2.017c.17 1.097.293 2.108.37 3.025.082.92.124 1.736.124 2.433V290h-4.331v-18.41Zm-28.128 0h4.796V290h-4.796v-18.41Zm-30.235 4.106-2.328 6.907h4.58l-2.252-6.907Zm-2.8-4.107h5.787L235.25 290h-5.125l-1.28-3.902h-6.926L220.58 290h-4.748l6.822-18.41Zm-39.336 0h13.706v3.679h-4.455V290h-4.796v-14.732h-4.455v-3.679Zm-30.303 3.236v4.719h1.685c1.037 0 1.815-.189 2.333-.575.518-.385.778-.962.778-1.733 0-.826-.29-1.437-.869-1.825-.574-.392-1.49-.586-2.74-.586h-1.187Zm-4.697-3.236h7.15c2.382 0 4.15.394 5.298 1.185 1.154.792 1.729 1.994 1.729 3.608 0 1.194-.302 2.173-.912 2.942-.61.77-1.486 1.282-2.632 1.545.943.351 1.703 1.357 2.278 3.013v.014L163.38 290h-5l-1.581-5.041c-.255-.808-.601-1.371-1.037-1.685-.44-.312-1.124-.466-2.053-.466h-.695V290h-4.697v-18.41Zm-35.699 0h12.496v3.445h-7.7v3.718h7.269v3.5h-7.269v4.198h7.99V290h-12.786v-18.41Zm-36.102 0h13.706v3.679h-4.455V290h-4.796v-14.732h-4.455v-3.679Zm-40.818 0h5.99l5.21 11.04c.178.37.385.888.623 1.547.237.663.497 1.471.786 2.428a34.255 34.255 0 0 1-.337-2.5 21.737 21.737 0 0 1-.108-2.087v-10.428h4.33V290h-5.963l-5.414-11.442a15.095 15.095 0 0 1-.7-1.716 24.881 24.881 0 0 1-.58-2.017 44.97 44.97 0 0 1 .372 3.025c.082.92.121 1.734.121 2.433V290h-4.33v-18.41Z" fill-rule="nonzero"/>
    <path d="M120.875 216.692s.974 4.284 3.378 2.67c2.404-1.612 3.379-4.03 5.783-4.03 2.404 0 12.425-1.883 14.829 0 2.403 1.88 2.644.266 3.846.266s4.733.627 4.733.627c3.073-.32 2.447-5.2.226-6.628-3.206-2.508-7.523-4.12-10.728-6.63-.322-2.42-.642-4.838-.962-7.257l2.645-3.763v-12.093l-1.443-3.226-.481-9.138-1.202-1.612v-3.494c.801-1.165 2.425-2.33 3.227-3.494.24-2.24-.835-3.82-.594-6.06-.561-2.867-.63-6.393-1.19-9.26v-10.48c2.325-.693 2.888-1.722 3.055-2.764.213-1.34-.444-2.918-1.132-6.106-.32-16.753-.477-34.165-.797-50.918 1.279-2.003 2.812-3.038 2.844-4.522.025-1.155-1.216-2.117-2.768-3.42v-3.494s2.644-5.375 4.807-5.375c2.164 0 3.607-1.613 3.607-3.225 1.974-3.918-2.164-4.3-2.164-4.3-4.58-.096-9.766.138-14.233.044-3.94-.083-7.175-.498-11.01-.582l-5.048.268c-4.136 1.255-3.267 3.498-1.683 4.751 1.923 1.21 3.564 2.595 5.77 2.64 2.691.057 4.834.938 5.77 3.629l.72 32.252c.08 7.929.326 15.858.405 23.786.08 7.928-.003 15.857.076 23.785l.481 27.952s-.48 3.495-1.202 4.3c-.72.807-.48 7.795-.48 7.795 2.662 2.316 2.096 1.992.24 5.107l-.48 20.694-1.925 3.763s-6.92 4.05-6.92 7.543ZM4.449 250.102c-3.565-.731-4.233-2.454-2.967-3.47.76-.61 2.791-.588 3.704-1.014 1.337-.629 2.702-1.453 3.506-2.446 1.375-1.701.541-5.637 2.182-8.843 1.577-13.528 2.05-31.451.473-37.48-.946-9.292.025-40.157.025-44.07 1.047-1.878 1.44-2.032 1.448-5.325.003-1.287.87-3.29-.053-4.882-1.34-1.528-.935-7.5-1.04-10.867-.155-5.011.213-4.97 1.61-9.51.525-1.709.703-3.74 0-5.379-1.138-2.647-2.783.412-2.673-4.904.268-12.9.75-25.879.41-38.774.073-1.149 1.99-1.359 2.365-2.445.476-1.38.634-3.089 0-4.4-.36-.744-2.372.223-2.962-.34-3.608-3.443-8.14-5.605-10.23-10.199-.811-1.781.496-5.723 2.213-6.575 2.846-1.412 8.139.047 11.252-.49 1.675-.287 2.734-1.282 4.43-1.357 13.229-.582 26.842-1.903 40.023-.598 2.11.208 2.806 3.926 4.73 4.85 2.635 1.265 6.49.994 8.511 3.153 3.24 3.46 5.563 6.31 5.974 11.106.505 5.886 1.518 12.553 1.468 17.075-.042 3.786-1.181 7.203-2.871 10.46-2.315 4.462-5.07 8.627-8.054 13.036-1.72 2.541-4.781 4.9-5.502 7.798-.744 2.995 7.004.796 8.589 3.419 1.523 2.52-1.3 5.475-.448 8.316.76 2.534 5.153 2.78 5.675 5.378 1.345 6.705-1.624 13.794-.473 20.537.368 2.159 3.797 2.236 4.13 4.4.405 4.68.26 9.632.297 14.602.038 5.29.244 10.605.176 15.634-.13 1.896-2.615 3.005-2.837 4.89-.592 5.018 1.135 10.685.025 15.606-1.169 5.183-5.34 8.844-6.968 13.893-1.41 4.373-1.01 10.758-3.285 13.5-3.762 1.18-8.445 3.825-11.409 6.029-4.33 3.218-7.099 6.906-8.43 7.023-1.692 1.503-5.27.498-7.368 1.28-1.934.718-2.116 2.338-4.155 2.074-1.61-.206-1.109-1.542-2.365-2.603-.731-.62-2.137-.66-2.837 0-4.245 3.413-1.079 2.52-5.9 2.074-4.896-.45-14.426 1.058-20.387-.161h-.002Zm27.43-19.626 3.312-6.357-.946-21.024c.946-1.306 1.892-2.608 2.837-3.914v-21.178c0-3.209-.448-6.418-.448-9.626-3.32-2.743-1.732-2.703.946-5.867 0-3.097.748-5.595.748-8.692-.317-2.607-.631-5.216-.947-7.823l1.42-3.912c0-3.922.447-7.095.447-11.018 0-3.682.107-4.916.78-4.685.675.23 1.917 1.927 4.186 4.105 1.723 1.655 3.447 3.312 5.171 4.966 3.185 3.057 6.286 3.335 4.995 8.343-1.206 4.686 2.26 5.986 1.183 10.635-.823 3.552-1.905 5.723-1.665 7.925.143 1.32.763 2.653 2.197 4.3 1.326 1.522 1.767 1.427.975 3.3-1.229 2.903-2.276 4.596-2.399 6.339-.158 2.24 1.063 3.269 2.135 7.225.876 3.235.794 5.38-.017 8.626l-2.882 11.55c-.108 2.91-.374 5.825-.581 8.74-.313 4.44-.906 4.553-3.997 7.726-2.808 2.884-6.422 5.35-9.13 7.928-2.995 1.141-5.325 1.247-8.32 2.388Zm7.236-123.545c2.4.07 3.472.307 4.216.001.744-.306 1.16-1.157 2.245-3.259 1.401-2.718 3.477-6.115 5.199-6.37 2.9-.43 4.414-.862 4.414-.862s1.518-.287.999-4.024c-.52-3.736-1.59-7.329-.647-8.335.942-1.005 1.141-3.88.138-5.03-1.002-1.148-1.956-2.298-.336-3.879 1.62-1.58 2.737-4.227-1.134-3.795-3.871.43-3.823-1.243-4.27-2.393-.448-1.15-4.67-.887-6.878-1.013-2.206.43-4.06.287-3.997 2.586.064 2.299-.306 13.381-.275 14.53.032 1.15.326 21.843.326 21.843Zm122.448 100.876c-.173.977-2.418.983-2.246 1.963.242 1.366.331 3.501 1.71 3.68 4 .517 9.482-1.072 13.447-.34 1.566.29 1.651 2.956 3.087 3.643 1.18-.019 2.995.023 4.491 0 1.152-.598.842-2.708 1.965-3.362 1.382-.807 3.268-1.113 4.771-.562.81.298-.295 2.421.562 2.524 6.995-.264 13.245.501 19.863 0 1.322-.217-.025-2.107 1.058-2.892 1.231-.893 4.283.666 4.49-.84 1.076-7.786-.602-16.479.13-24.302.234-2.504 2.64-3.99 3.178-6.447.18-.82 1.162-.834 1.24-1.64.272-2.807.223-6.212-.489-8.977-.943-.966-3.825-1.317-4.771-.877-1.065.783-.097 3.565-.812 4.676-.354.55-1.614-.551-1.965 0-.345.542.101 1.432.26 2.135.094.422.085.777-.26.95-1.84.918-4.55-1.263-6.175 0-1.593 1.237.196 3.633-1.152 5.134-2.186 2.433-6.87 3.859-9.047 6.3-2.588 2.9-2.357 5.862-5.332 8.367-2.329 1.96-6.285 2.166-9.107 3.31-3.271 1.328-4.833 3.774-8.23 4.73-1.027.289-2.28-1.504-1.965-2.523 2.545-8.242 5.853-16.528 8.602-24.705 1.762-5.246 2.59-8.556 4.495-13.753 1.97-5.379 4.545-12.027 7.763-16.768.634-.934 2.749-.324 3.088-1.402.841-2.674-.733-5.704 0-8.41.542-2.002 2.653-3.924 4.4-5.046 1.18-.758 3.063.298 3.584-1.003 1.217-3.037.08-6.255.846-9.436.517-2.142 1.99-3.456 2.928-5.451 1.244-2.65 1.153-4.949 2.526-7.534 1.118-2.103 3.469-5.047 4.146-7.33.93-3.137.168-4.676.47-7.933.082-.877 1.368-1.363 1.404-2.243.436-10.55.995-21.136.375-31.678-.05-.859-1.982-.822-1.965-1.682.067-3.221.459-6.067.28-8.97-.033-.568.163-1.032-.405-1.056-8.789-.368-17.463-.169-26.258-.066-7.204.083-14.426-.494-21.612 0-1.087.075-2.062.261-2.807 1.055-.715.762-1.07 2.388-1.028 3.43.19 4.685-.094 9.786 0 15.419.017 1.044 2.076.42 2.431 1.402.99 2.736 1.066 5.79.843 8.69-.072.932-1.206 2.187-1.184 3.12.451 3.243.872 5.535 1.464 8.654.341 1.207 1.38 2.149 1.684 3.364.363 1.453-.963 4.389.532 4.486.496.032 2.229.32 3.117 0 1.142-.414-.42-2.505 0-3.645.298-.808 1.828-.832 1.965-1.681.742-4.617-.548-10.026.186-14.644.223-1.408 1.03-2.894 2.245-3.644 1.033-.64 2.902.958 3.649 0 1.034-1.33.016-2.862.656-4.42.916-2.23 2.406-4.286 4.21-5.887 1.657-1.471 3.314-3.232 5.519-3.46 4.928-.512 10.823-.053 17.496-.34.626-.028.794.933.842 1.557.236 3.075.797 7.252 0 9.251-1.155 2.903-3.77 6.143-6.424 9.157-1.816 2.062-3.652 3.886-5.053 5.952-1.68 2.477.83 5.855-.03 8.72-.88 2.931-3.284 6.047-5.147 8.476-1.529 1.993-3.775 3.013-5.208 5.076-1.788 2.575-2.83 5.11-3.96 8.034-.939 2.431-1.544 4.997-1.964 7.57-.332 2.03.64 4.327-.281 6.167-.675 1.348-2.197 1.1-3.178 2.243-1.361 1.586-2.159 3.62-2.807 5.606-.768 2.353-.831 3.746-2.03 5.911-1.345 2.429-4.044 4.774-5.268 7.265-1.334 2.717-1.487 6.02-2.154 8.971-.645 2.855-1.185 5.544-1.775 8.41-.723 3.508-1.477 7.073-1.404 10.653.023 1.09 1.176 1.84 1.685 2.803.428.814 1.413 1.65 1.122 2.523-.397 1.193-2.629 1.28-2.807 2.524-.183 1.285.145 2.471 1.089 3.365.821.773 2.498.437 3.088 1.4.634 1.038.52 2.547 0 3.643-.433.916-1.953.693-2.151 1.684-.807 4.034.184 6.906-.531 10.956Zm243.353 39.73c-.526-1.67.79-1.997 1.664-2.868 1.28-1.275 2.517-2.519 3.024-5.03.192-.952 1.168-2.49 1.393-4.016.332-2.227-.175-4.548-.783-5.987-.797-1.885-2.104-2.867-1.63-4.666.167-1.15 2.77-1.291 4.821-2.201 1.076-.476 1.998-1.409 2.341-2.286.449-1.155-1.045-.957-1.806-2.424-.81-1.562-.93-3.9-1.555-5.063-1.09-2.027-3.082-4.746-3.155-7.048-.195-6.14 1.586-12.34 1.815-18.247.192-4.954 1.365-6.135.986-11.211-.186-2.528-1.546-4.368-2.951-6.948-1.162-2.139-2.69-4.256-3.275-6.273-1.04-3.59.006-7.845-.624-11.529-.122-.722-1.934-1.605-2-2.335-.469-5.057.102-10.236-.224-15.238-.167-.941-.93-1.12-1.02-2.072-.264-2.803-.002-5.534-.01-7.958-.01-2.139-.305-3.966-.305-6.452 0-.926-.769-1.56-.8-2.487-.186-5.47.042-11.509-.03-16.987-.078-5.831-.435-11.103.03-16.91.081-.979 2.063-.955 2.024-1.936-.184-4.45-.569-6.22-.466-10.695.012-.516 1.07-1.716 1.112-2.231.31-3.724.772-7.45-.178-10.637-.686-2.308-2.419-3.027-4.409-4.516-1.756-1.315-3.715-3.453-5.34-4.652-2.078-1.534-3.463-2.769-5.038-5.067-.948-1.383.616-1.504 2.36-1.554 2.241-.066 4.688.13 6.82.463.722.113 2.079 1.355 2.762 1.62 1.644.636 2.72-.19 4.403.334 1.285.4 6.65 3.194 8.093 4.025 1.973 1.135 2.611 2.785 4.67 3.75.371.172 6.734 1.992 7.472 2.176 1.722.43 2.793-.828 4.515-.399 2 .498 5.56 1.505 7.806 2.177 1.265.378 2.065 1.872 3.36 2.13 6.285 1.252 5.162-.84 10.14 4.13 1.465 1.465 3.887 2.641 4.98 4.401 1.543 2.484 1.705 5.528 2.686 8.235.763 2.105 2.469 3.833 2.873 6.07 1.09 6.018-.047 12.276.691 18.347.226 1.855 2.135 3.81 2.336 5.668.76 7.112.889 14.135.022 21.234-.293 2.393-2.31 3.367-2.67 5.75-.6 4 .596 8.094.312 12.128-.134 1.932-1.21 3.949-2.224 5.598-.741 1.2-2.435 1.633-2.979 2.933-1.43 3.413-1.07 8.079-1.733 11.776-.207 7.058-.062 12.533.242 19.586.215 4.972.725 9.434.09 14.37-.224 1.709-1.656 2.647-1.912 4.353-.708 4.715-.1 9.559-.558 14.304-.078.808-1.276 1.743-1.446 2.536-.318 4.337-.622 10.667-2.514 15.549-1.246 3.22-4.275 6.466-7.184 8.33-2.818 1.807-5.847 2.197-9.094 3.024-2.051.52-4.347.27-6.226 1.241-1.126.585-.37.593-1.399 1.328-.593.42-1.619.456-2.179 0-.791-.649-.546-.913-1.469-1.35-1.407-.665-3.24-.612-4.67 0-1.032.443-.655 1.247-1.759 1.461-2.227.435-4.835.997-7.243.933-1.44-.036-2.578.612-2.985-.688ZM425.815 87.84c3.127-.166 3.74-.335 6.524 1.158 2.879 1.542 3.48 2.56 5.24 5.345l2.72 2.622c3.697 3.566 5.442 8.597 6.952 13.312.248 5.12 1.35 14.087-1.21 18.732-1.276 2.319-1.78 4.108-1.997 6.075-.605 5.505-2.168 4.646-3.76 8.814-.432 1.13-.337 2.538-.376 5.221l-.42 28.75c-.09 6.123-1.244 9.044-3.721 14.698-1.455 2.702-2.219 4.445-2.219 7.512 0 3.636-.744 5.311-2.19 8.624l-2.645 6.05c-1.045 2.392-2.003 3.25-2.697 2.93-.694-.318-1.124-1.818-1.112-4.14l.184-35.094.4-37.313c-.155-2.671-.055-3.263-1.81-5.244-.165-4.026-.943-5.848-2.219-9.681-1.61-3.023-1.427-5.228-1.466-8.683-.1-8.644-.203-17.29-.304-25.934-.06-5.305 1.14-3.491 6.126-3.754ZM221.718 236.56c-.964-4.704-.29-8.442-.038-11.98.12-.844 1.824-.056 2.287-.769.691-1.066 1.315-2.527.858-3.713-.274-.71-.758.27-1.167-.373-.565-.885-.366-2.316.286-3.14.951-1.205 2.855-.893 3.504-2.285.887-1.898-.634-4.286 0-6.282.202-.635 1.845.648 2.002 0 .74-3.054-.18-6.316.286-9.422.121-.81.837-1.186.931-1.999.397-3.404.603-6.906 0-10.28-.374-2.095-2.069-3.603-2.36-5.71-1.062-7.646-1.383-15.97-.398-23.627.765-5.943 4.56-15.134 6.787-20.699 1.394-3.48 2.077-2.395 3.33-5.93.383-1.08.648-2.34.286-3.426-.451-1.355-2.052-2.39-1.826-3.8.276-1.727 2.402-1.683 2.97-3.339.77-2.25-.781-4.89 0-7.138.918-2.645 4.083-4.164 4.86-6.853.74-2.567-.054-6.667.672-9.238 1.435-5.08 3.158-8.362 5.617-13.035 1.452-2.759 3.975-5.09 5.109-7.995 1.093-2.799.981-6.505 1.466-8.851-1.786-2.231-5.886.882-8.576-.088-1.365-.492-1.36-2.72-2.71-3.252-2.894-.196-5.66-.263-7.72 1.28-2.762 2.07-2.784 4.495-3.864 7.77-1.614 4.894-.384 10.392-2.398 15.134-.797 1.875-4.046 2.402-5.607 3.712-.826.692-1.21 1.415-2.287 1.415-1.078 0-2.018-.372-2.287-1.415-.548-2.12.106-4.38 0-6.567-.084-1.722-1.007-3.473-.572-5.14.227-.869 2.218-.532 2.287-1.428.855-9.81-.32-19.558-.17-28.933.053-3.291.927-2.804 4.171-2.836 5.464-.057 14.125-.014 20.406-.046 11.019-.055 22.066-.466 33.055-.165 1.635.118 3.765.724 3.879 2.358.231 3.303-1.984 6.488-3.517 9.423-.811 1.551-2.623 2.565-3.219 4.209-1.014 2.786.086 6.087-.984 8.852-.655 1.696-3.985 2.01-4.623 3.712-.906 2.407.658 5.317-.287 7.71-.468 1.187-3.004.509-3.43 1.712-1.439 4.075-.594 8.677-1.715 12.85-.621 2.303-2.368 3.918-2.683 6.282-.859 6.415.557 12.969 0 19.417-.123 1.4-1.603 2.365-2.004 3.712-.942 3.166-1.536 6.588-2.623 9.708-.468 1.348-2.207 2.047-2.572 3.426-.537 2.025.808 4.351 0 6.282-1.018 2.429-4.6 3.422-5.146 5.997-1.543 7.267.9 14.93-.235 22.272-.508 3.285-3.408 5.867-4.003 9.137-.767 4.214.554 9.196-.498 13.346-1.014 4.008-3.923 7.482-5.381 11.348-.341 3.794-4.893 7.276-2.411 10.143 2.993.396 7.961 1.005 11.435-.573 1.599-.724-.253-4.075 1.143-5.138 4.27-3.257 9.168-4.432 13.958-6.853 2.74-1.387 6.184-2.709 8.628-4.568 1.24-.946 1.383-3.193 2.857-3.713.889-.315 1.073 1.84 2 1.998 3.195.543 5.965-.82 9.1 0 1.254.329 1.215 2.013 1.541 3.265.293 1.122.8 2.33.176 3.302-.377.584-1.74-.067-2.004.573-.544 1.32-.332 2.895 0 4.281.262 1.08 1.251 1.75 1.343 2.856.49 5.787.652 11.649 0 17.42-.136 1.21-.825 2.48-2.037 2.604-8.246-.378-15.868.226-24.126.25-.85-.074-.362-1.577-1.145-1.911-2.13-.913-5.969-1.039-8.229-.52-2.628.6-2.848 2.76-5.492 3.286-4.765.952-10.273.02-15.078.746-1.698.257-2.995 1.696-4.661 2.11-2.312.577-5.957 1.192-7.147-.868ZM94.375 249.97c-3.565 1.25-7.724.004-11.502.084-1.165.025-3.06.938-4.18.61-1.22-.356-3.145-2.775-2.381-3.794 2.982-3.972 8.86-4.468 11.584-8.618 1.601-2.44.101-5.728.79-8.565.21-.87 1.739-.79 2.19-1.564.368-.629.476-1.634 0-2.188-1.085-1.266-1.773 1.39-2.2-2.402-.384-3.39-.465-6.833-.15-10.22.198-2.158 1.768-1.702 2.065-2.84.552-2.118-.597-3.688-.028-5.804.255-.949 2.017-.71 2.505-1.564.465-.813.52-2.032 0-2.814-1.067-1.598-3.966-1.573-4.289-3.466-.594-3.482-.276-7.22-.214-10.675.065-3.68-.188-7.37.12-11.119.056-.695 1.633-.665 1.878-1.32.476-1.267.175-2.721 0-4.065-.14-1.077.192-3.282.109-4.366-.127-1.666-.843-2.284-.068-3.764.54-1.031 2.302-.41 2.464-1.563.856-6.09-.972-12.335-.313-18.45.111-1.036 1.744-.871 2.019-1.876.442-1.622.578-3.485-.14-5.004-.34-.717-1.94-.72-2.002-1.51-.703-8.936.52-17.385-.19-26.32-.067-.838-2.125.336-2.163-3.296-.042-3.806-.394-7.354-.342-10.151.04-2.147 4.677-2.205 4.628-4.351-.075-3.272.441-6.963-.313-10.32-.243-1.079-1.652-.9-2.123-1.903-.444-.941-.025-1.88.38-2.84.487-1.157 1.811-1.886 2.124-3.101.573-2.22.516-4.645 0-6.88-.169-.73-1.432-1.445-1.783-2.109-.65-1.228-.357-2.312-1.226-3.398-.6-.749-2.372-.288-3.103-.911-1.88-1.603-2.963-3.386-4.54-4.846-1.482-1.372-3.48-2.405-4.621-4.424-.734-1.297.12-3.541 1.307-4.447.91-.695 2.337-.538 3.349 0 .822.438.806 2.183 1.728 2.31 4.036.562 8.04-1.212 12.02-.338 1.734.38 1.827 2.57 3.444 3.302 1.081.49 3.031-.458 4.015.206 1.445.975 2.67 3.05 3.81 4.208 1.464 1.49 2.726 2.153 3.474 4.262.943 2.663.53 5.395.488 8.165-.036 2.444.362 4.919.137 7.402-.075.835-1.68.442-1.905 1.25-.395 1.42-.113 3.009.626 4.283.537.928 1.992.455 2.341 1.468.816 2.367.92 5.267.313 7.696-.226.904-1.973.321-2.028 1.25-.703 11.759-.879 23.619.313 35.336.202 1.992 3.355 2.702 3.567 4.691 1.181 11.091.105 22.317-.354 33.46-.065 1.585-.851 3.577-1.498 4.76-.723 1.321-.273 2.642-.246 4.1.035 1.877-.19 3.922.096 5.837.164 1.094 2.391 2.135 2.314 3.238-.21 3.04.222 4.477.408 7.474.09 1.443-2.54 2.345-3.375 3.525-.6.849-.965 2.494-.476 3.412.461.866 1.29.426 1.552 1.373.37 1.339.402 2.469-.273 3.685-.435.782-2.04.68-2.191 1.562-.427 2.474.98 5.021.626 7.507-.106.743-1.768.506-1.879 1.25-.556 3.71.63 7.557 0 11.256-.237 1.397-2.404 2.026-2.504 3.44-.057.791 1.817.24 2.191.939.591 1.107-.892 3.401.313 3.752 4.006 1.172 8.963.868 13-.19 2.286-.6 3.254-3.802 5.608-4.025 2.836-.267 4.93 1.604 7.732 2.105 3.697.665 7.74.785 11.366-.19 2.14-.576 3.383-2.844 5.581-3.136 9.515-1.278 18.345-.493 27.945-.543 9.078-.05 20.69-.507 27.43.228 3.844.128-.324 13.709 1.062 20.882.301 1.561 1.637 2.435 2.44 3.88 1.28 2.305 1.776 3.477-1.548 3.463-6.253-.03-12.58.45-19.364.164-1.333-.056-1.269-2.622-2.505-3.129-1.355-.554-2.96.657-4.383.315-2.132-.515-4.535-2.555-6.71-2.814-5.803-.696-11.65.757-17.438-.042-1.313-.181-1.495-2.72-2.817-2.817-13.53-.988-26.494.431-40.038-.306-2.9-.159-3.165-1.17-5.006-1.704-2.606-.751-7.265-1.052-9.72.098-4.573 2.138-4.559 6.182-9.323 7.855Zm162.87-52.836c-2.827-.083-3.015-4.618-2.79-7.398.23-2.845 3.949-2.696 5.275-5.222.967-1.84-.482-5.074.622-6.836 1.187-1.898 4.406-1.828 5.593-3.725.68-1.085-.334-3.165-.304-4.444.075-3.027.755-5.258.616-8.282-.072-1.574-.727-4.416-.429-5.963.41-2.112 1.67-1.6 2.294-3.66.777-2.576-.516-5.508.309-8.07.329-1.013 2.987-.505 2.798-1.552-.231-1.275-2.558-.588-2.79-1.863-.705-3.879-.744-8.443.304-12.244.655-2.377 3.355-4.196 4.04-6.566.717-2.484-.799-5.3 0-7.76.542-1.67 3.303-2.023 3.73-3.725 1.003-4.016.108-8.941 1.153-12.946.55-2.102 1.647-4.484 2.994-5.8.808-.792 1.535-1.366 1.914-2.612.518-1.707-.755-3.143-.463-4.903.26-1.557 1.45-2.556 2.205-3.941.956-1.749 1.354-3.964 2.271-5.731 1.338-2.583 3.138-4.744 4.097-7.493.716-2.05-.822-5.392.095-7.36 1.298-2.79 4.654-2.72 5.933-5.519 1.034-2.26-.775-5.214.312-7.45.789-1.627 2.57-2.346 4.378-2.418 1.327-.053 2.937.864 3.389 2.108.889 2.438.086 5.368 1.092 7.76 1.764 4.208 4.824 6.687 6.521 10.923.884 2.209-.072 5.384.469 7.701.735 3.15 1.25 6.326 2.293 9.393 1.293 3.82 3.147 7.524 4.233 11.403.962 3.436 1.193 7.163 1.934 10.66.544 2.551 1.536 4.894 2.417 7.344.376 1.051 1.65.784 1.953 1.862.533 1.903-1.067 3.972-.621 5.897.53 2.3 3.01 4.632 3.416 6.957.664 3.77-.027 7.377.065 11.204.083 3.498.454 6.746.914 10.099.284 2.063 1.426 5.005 1.48 6.505.192 5.586.44 11.086.501 16.679.095 8.174.095 16.912-.315 25.07-.047.952-1.184 1.44-1.519 2.333-1.268 3.382-2.33 5.253-3.143 8.774-.43 1.856-.443 3.855-1.243 5.586-.49 1.063-2.678 1.935-3.049 3.045-.822 2.472.187 4.958.006 8.042-.154 2.655-1.254 4.18-2.36 6.65-.759 1.686-1.99 4.317-2.459 6.076-.51 1.91.407 4.003-.153 5.898-.296.991-1.65 1.47-1.865 2.483-.537 2.53.466 5.292-.312 7.758-.437 1.397-.74 1.194-2.076 1.795-.947.423-3.433.905-3.575-.125-.602-4.32.616-7.32-.07-11.632-.803-5.044-2.915-8.111-4.189-13.06-.618-2.403.488-6.745-.655-8.947-2.056-3.966-8.642-5.57-8.355-10.026.276-4.312 2.857-7.117 5.485-10.625 1.795-2.402 2.962-6.324 4.08-9.06.822-2.018 1.301-4.381 1.338-6.371.055-2.97-.75-4.264-3.002-6.111-4.704-3.861-12.306-7.392-18.162-10.235-.858-.417-1.864 1.219-1.864 2.173s1.117 1.695 1.229 2.64c.326 2.782-1.36 5.668-.153 8.194 1.273 2.67 6.298 3.446 5.554 6.307-.502 1.915-.973 2.59-2.6 3.526-.987.567-2.082.528-3.236.581-3.461.159-7.02-1.066-10.364-.359-3.631.769-6.88 2.444-10.236 4.114-2.221 1.108-4.493 2.57-6.95 2.494Zm30.61-43.395c-.03-2.738-.097-5.433-.092-8.126.006-2.378.064-4.755.251-7.162.123-1.563 1.555-2.756 1.739-4.313.31-2.574-1.274-5.662-.552-8.138.29-1.004 2.84.003 3.417-.841.19-.277.577-1.888 1.22-3.262.388-.824 1.193-1.564 1.193-1.88 0-.46-.03-3.727.315-6.558.2-1.644.454-3.032.705-3.043.248-.01.5 1.352 1.371 2.485 1.004 1.304 1.344 2.598 2.221 3.977.519.814 1.076 1.772 1.932 2.104 1.09.423 2.394-.172 3.478.265.81.326 1.009 1.598 1.739 2.104.493.343 1.624-.31 1.739.316.515 2.818.07 6.59.518 9.42.109.68 1.61.364 1.644 1.052.229 4.93.343 9.87.326 14.808a269.098 269.098 0 0 1-.354 13.07c-.06 1.241-3.344 1.328-4.26.631-1.773-1.348-2.896-2.914-5.215-3.471-.967-.232-.92-1.761-1.836-2.066-2.035-.677-4.601-.846-6.728-.846-1.388 0-3.391.49-4.77.315-.254-.031.002-.562 0-.841Zm65.998-84.981c.006 2.836.31 5.91.318 8.88.014 3.823-.265 7.247-.251 11.1.014 4.104.32 8.636.32 12.649 0 3.261-.596 9.531-.342 12.24.323 3.483.515 4.087 5.284 4.087 2.307 0 5.434-2.364 7.739-4.753 1.577-1.635 1.34-4.459 1.945-5.68.892-1.794 2.416-3.436 2.734-5.52.407-2.68-.574-4.893 1.215-6.607.705-.678 1.37-8.374 1.37-10.067 0-2.414-2.538-5.994-5.456-9.197-1.995-2.191-4.389-4.158-5.409-5.659-1.87-2.748-3.269-3.954-5.484-4.449-4.047-.902-3.986-.531-3.983 2.976Zm-21.364 151.05c-.755 2.98 1.541 4.195 4.258 5.95 2.712 1.753 5.85 4.046 8.804 6.465 5 4.092 8.402 11.56 11.655 18.914 1.675-1.779.493-10.068 1.432-15.034.2-1.063 1.349-1.831 1.458-2.908.384-3.861.479-7.789 0-11.638-.181-1.436-1.572-2.486-1.943-3.88-.292-1.094-.223-2.288 0-3.396.27-1.353 1.332-2.505 1.455-3.88.368-4.025.607-8.128 0-12.123-.229-1.508-2.542-2.36-2.427-3.88.097-1.258 2.82-1.166 2.915-2.424.264-3.605-.987-7.085-1.433-10.67-1.009-8.06-1.597-16.168-2.43-24.248-.298-2.912-1.463-5.844-.97-8.73 1.52-3.935 2.907-7.978 4.37-11.153.713-.936 1.655.892 2.38 1.819 2.366 3.018 5.51 6.752 6.19 10.524.833 4.624-1.675 8.715-1.14 13.384.156 1.362 2.257 1.118 2.742 2.4 2.319 6.128 4.203 12.463 5.342 18.914 1.3 7.35 1.717 14.847 1.943 22.31.097 3.245-.042 6.585-.973 9.697-1.326 4.445-4.09 7.988-5.462 12.283-1.435 4.493-1.898 5.835 2.862 5.832 1.884-.003 4.083.072 5.538.799 3.896 1.945 5.504 6.432 9.202 8.729.8.495 1.845 1.183 2.945 1.798 5.245 2.934 5.822.907 6.915-3.68 1.44-6.065 1.805-11.535 2.739-17.516.477-3.034.376-6.146.51-9.214.19-4.373.518-8.723.293-13.096-.104-2.04-.092-4.273-1.433-5.818-1.006-1.16-3.974.025-4.37-1.456-.543-2.029 2.389-3.718 2.428-5.82-.803-5.67-1.539-10.743-1.633-16.332-.109-6.588-1.522-3.272-3.71-5.854-1.32-1.56-1.733-2.936-1.94-4.97-.61-5.953.254-12.54-.657-18.453-.407-2.644-1.644-5.252-3.397-7.274-.636-.733-1.8.357-2.235-.51-.728-1.453 1.508-2.447.655-3.83-1.982-3.215-6.129-5.668-9.272-7.76-.942-.627-2.6.8-3.4 0-.8-.8-.78-3.256 0-4.074 5.599-.81 8.48-3.443 11.214-6.595 3.71-4.273 5.524-9.037 7.383-14.379.858-2.462-.24-5.339.047-7.929.532-4.793 3.049-9.146 2.21-13.894-1.218-6.907-4.626-13.095-8.545-18.914-2.176-3.23-5.557-6.093-9.08-7.76-2.94-1.39-5.4-.226-8.521-1.138-3.615-1.056-6.51-3.076-10.197-3.83-2.87-.589-5.883.608-8.74-.05-1.783-.41-2.073-2.413-3.885-2.691-1.248-.192-2.525 1.615-3.784 1.721-8.71.737-15.857-.948-24.524.194-1.294.17-.926 1.611.147 2.352 1.603 1.108 4.038.56 5.828 1.334 3.21 1.39 5.68 3.257 8.06 5.82 1.97 2.118 2.772 4.475 4.561 7.759.736 1.346 2.851-1.24 4.373-1.455 1.92-.274 3.255-.326 4.467 1.188 1.09 1.358-1.165 3.168-2.45 4.34-2.6 2.367-4.37 3.62-6.669 5.192-1.571 1.076-4.355 2.042-5.523 4.143-2.592 4.663.482 9.965 1.48 15.204.365 1.911.783 3.779 1.218 5.674 1.41 6.163.936 11.292 1.794 17.555.279 2.024 1.717 3.788 1.943 5.82.267 2.414-.167 4.192.195 6.594.15 1.023.99 2.107 1.262 3.104 1.21 4.435 2.274 10.005 2.428 14.598.496 15.026-.396 29.747.362 44.763.07 1.367 2.123 1.907 2.405 3.249.438 2.079-.95 4.467-1.65 6.474-2.873 8.217-6.242 14.366-8.015 21.36Z"/>
    <path d="M466.23 46.308h-.424v2.113h.59c.418 0 .74-.09.957-.273.215-.183.325-.448.325-.8 0-.36-.115-.621-.347-.79-.233-.168-.599-.25-1.101-.25Zm.426-1.744c1.27 0 2.238.225 2.904.67.67.445 1.003 1.096 1.003 1.95 0 .572-.158 1.062-.473 1.48-.314.416-.754.723-1.328.921l1.954 3.887h-3.06l-1.577-3.415h-.273v3.415h-2.803v-8.908h3.653Zm6.462 4.64c0-.876-.164-1.71-.495-2.507a6.382 6.382 0 0 0-1.41-2.114 6.55 6.55 0 0 0-2.13-1.44 6.48 6.48 0 0 0-2.512-.487 6.62 6.62 0 0 0-2.522.475 6.106 6.106 0 0 0-2.079 1.407 6.699 6.699 0 0 0-1.445 2.159 6.438 6.438 0 0 0-.506 2.506c0 .872.164 1.703.497 2.492.334.793.81 1.5 1.43 2.122a6.619 6.619 0 0 0 2.125 1.44c.79.333 1.62.498 2.5.498.869 0 1.702-.169 2.5-.506a6.737 6.737 0 0 0 2.164-1.455 6.137 6.137 0 0 0 1.407-2.076c.32-.779.476-1.613.476-2.515Zm-6.569-8.235c1.129 0 2.2.206 3.202.613a8.04 8.04 0 0 1 2.678 1.789 8.165 8.165 0 0 1 1.76 2.66c.41 1.01.617 2.069.617 3.18a8.228 8.228 0 0 1-.606 3.162 7.671 7.671 0 0 1-1.77 2.603 8.866 8.866 0 0 1-2.739 1.826 8.042 8.042 0 0 1-3.142.64c-1.09 0-2.125-.21-3.115-.625A8.334 8.334 0 0 1 460.765 55a8.166 8.166 0 0 1-1.809-2.664 8.027 8.027 0 0 1-.623-3.124c0-1.104.208-2.159.629-3.17a8.469 8.469 0 0 1 1.825-2.715 7.695 7.695 0 0 1 2.607-1.755 8.292 8.292 0 0 1 3.155-.602Z" fill-rule="nonzero"/>
  </g>
</svg>
