<svg width="571" height="330" xmlns="http://www.w3.org/2000/svg">
  <g fill="#FFF">
    <path d="M63.805 149.287c5.216 0 39.069 14.943 39.069 68.618 0 25.65-8.639 47.03-13.73 47.03-2.248 0-3.1-2.244-3.1-6.558 0-9.498 3.347-17.91 3.347-38.18 0-39.14-16.12-54.932-23.338-63.821-2.13-2.632-3.744-4.343-3.744-5.89 0-.63.447-1.199 1.496-1.199m85.326 1.2c0 1.546-1.615 3.257-3.745 5.889-7.214 8.889-23.327 24.68-23.327 63.813 0 20.274 3.333 28.687 3.333 38.188 0 4.314-.852 6.559-3.093 6.559-5.102 0-13.737-21.38-13.737-47.03 0-53.676 33.86-68.619 39.083-68.619 1.042 0 1.486.57 1.486 1.2m-55.769 9.543c0 7.01 5.527 12.685 12.35 12.685 6.845 0 12.38-5.674 12.38-12.684 0-7.017-5.535-12.684-12.376-12.684-6.827 0-12.358 5.667-12.358 12.684"/>
    <path d="M41.509 139.98c-6.462-2.922-11.302-8.779-12.09-14.46 4.797-3.158 12.376-3.401 18.842-.476 6.766 3.06 8.352 8.234 8.391 12.784-3.447 2.986-8.37 5.216-15.143 2.148m18.537-34.153c-4.16-6.39-5.126-14.481-2.552-20.07 6.16-.082 13.156 4.1 17.309 10.482 4.339 6.695 2.774 12.287.168 16.422-4.847.698-10.586-.14-14.925-6.834m9.623 33.841c-5.126-4.346-8.008-10.937-7.25-16.324 5.192-1.626 12.169.128 17.296 4.467 5.37 4.561 5.455 9.68 4.306 13.84-3.916 1.809-8.982 2.56-14.352-1.986m15.684-16.354c-2.205-7.131-.963-15.025 2.964-19.618 5.832 1.564 11.31 7.396 13.515 14.528 2.309 7.471-.673 12.322-4.228 15.526-4.744-.637-9.953-2.964-12.25-10.436m-27.012 52.071c-5.105.996-10.493-.469-13.386-3.537 1.522-3.938 5.986-7.303 11.098-8.295 5.352-1.038 8.5 1.386 10.461 4.103-.805 3.258-2.803 6.68-8.173 7.73m-13.497-15.126c-5.817-.63-11.115-3.974-13.199-8.234 2.94-3.716 8.843-5.853 14.664-5.223 6.096.662 8.667 4.314 9.873 7.876-1.947 3.232-5.237 6.243-11.338 5.58m-.519-43.199c-4.564-3.873-7.124-9.727-6.447-14.513 4.607-1.454 10.811.11 15.376 3.97 4.765 4.053 4.854 8.603 3.83 12.304-3.49 1.611-7.987 2.277-12.759-1.76M75.43 86.346c-1.84-5.942-.794-12.53 2.47-16.35 4.87 1.314 9.437 6.169 11.277 12.105 1.923 6.229-.569 10.263-3.537 12.948-3.955-.537-8.276-2.47-10.206-8.699M-1 240.556c0 .16.104.29.308.29.19 0 .533-.154.906-.287 18.265-6.551 45.233-14.592 83.08-17.04.047-.344.27-2.03.27-3.33 0-2.739-.323-5.595-.41-6.072-38.78 3.559-65.548 14.804-83.134 25.613-.716.444-1.02.544-1.02.827m155.798-102.732c.04-4.546 1.618-9.723 8.384-12.784 6.458-2.925 14.048-2.685 18.842.476-.792 5.682-5.625 11.539-12.083 14.456-6.78 3.068-11.7.838-15.143-2.148m-18.323-25.17c-2.599-4.136-4.17-9.731.176-16.426 4.149-6.38 11.14-10.56 17.306-10.478 2.566 5.588 1.593 13.679-2.553 20.07-4.339 6.694-10.088 7.531-14.929 6.833m-9.057 28.991c-1.142-4.16-1.056-9.28 4.314-13.84 5.134-4.34 12.1-6.093 17.298-4.464.752 5.38-2.126 11.975-7.256 16.317-5.36 4.547-10.44 3.795-14.356 1.987m-13.579-7.901c-3.555-3.204-6.533-8.055-4.224-15.53 2.194-7.128 7.697-12.956 13.518-14.524 3.927 4.593 5.17 12.483 2.964 19.618-2.31 7.472-7.5 9.799-12.262 10.436m31.103 33.91c1.962-2.71 5.095-5.145 10.458-4.103 5.12.992 9.573 4.364 11.098 8.295-2.886 3.068-8.28 4.529-13.393 3.537-5.363-1.049-7.371-4.475-8.163-7.73m10.329-12.977c1.206-3.562 3.78-7.213 9.877-7.876 5.817-.63 11.714 1.515 14.653 5.227-2.08 4.253-7.382 7.6-13.192 8.23-6.104.663-9.401-2.348-11.338-5.58m-.906-35.858c-1.027-3.702-.945-8.252 3.834-12.308 4.565-3.856 10.765-5.424 15.373-3.967.673 4.787-1.887 10.64-6.448 14.51-4.768 4.045-9.276 3.38-12.759 1.765m-28.558-23.764c-2.967-2.685-5.452-6.72-3.526-12.949 1.833-5.935 6.408-10.79 11.252-12.104 3.294 3.824 4.321 10.407 2.488 16.35-1.926 6.23-6.254 8.166-10.214 8.703m85.62 144.678c-17.578-10.808-44.346-22.052-83.131-25.61a50.156 50.156 0 0 0-.409 6.07c0 1.3.226 2.986.269 3.33 37.844 2.452 64.805 10.49 83.084 17.04.376.133.727.287.895.287.215 0 .323-.132.323-.286 0-.286-.323-.387-1.031-.83M105.72 101.3c-5.023-2.338-9.97-6.684-9.97-15.716 0-8.628 4.07-16.926 9.973-20.65 5.904 3.724 9.974 12.019 9.974 20.646 0 9.036-4.94 13.382-9.977 15.72m189.417 30.538c0 5.32 4.382 9.634 9.81 9.634 5.412 0 9.801-4.314 9.801-9.634 0-5.316-4.389-9.623-9.805-9.623-5.424 0-9.81 4.307-9.81 9.623h.004Zm76.562 50.704c0 15.204-5.943 21.537-14.542 21.537-8.674 0-13.532-7.36-13.532-20.27 0-13.174 7.536-24.064 21.494-24.064 2.878 0 4.89.286 6.58.694v22.103Zm.838 24.938v4.94c0 13.55-8.345 18.813-18.702 18.813-9.308 0-16.175-2.803-18.348-3.558v13.407c1.769.476 9.33 2.853 20.116 2.853 19.153 0 31.952-7.904 31.952-34.998V150.47c-2.456-.623-11.45-3.007-21.802-3.007-26.868 0-38.414 18.007-38.414 37.49 0 17.91 9.011 31.95 26.27 31.95 11.381 0 16.851-6.873 18.63-9.422h.298Zm-91.362-8.27c-4.314 2.023-11.216 3.355-17.896 3.355-18.215 0-31.63-13.031-31.63-32.886 0-19.722 13.322-32.907 31.63-32.907 9.075 0 15.533 2.22 17.9 3.343v-14.19c-3.985-1.48-10.447-2.972-19.583-2.972-28.264 0-47.266 19.547-47.266 46.733 0 25.694 17.484 46.705 47.27 46.705 8.735 0 15.308-1.386 19.575-2.982V199.21Zm239.885-16.668c0 15.204-5.95 21.537-14.546 21.537-8.677 0-13.564-7.36-13.564-20.27 0-13.174 7.575-24.064 21.523-24.064a27.44 27.44 0 0 1 6.587.694v22.103Zm17.85 32.879c-.512-3.702-1.994-13.475-1.994-21.888v-43.064c-2.481-.623-11.478-3.007-21.806-3.007-26.882 0-38.413 18.007-38.413 37.49 0 17.91 8.982 31.95 26.255 31.95 12.616 0 18.265-8.155 20.4-12.504h.414c.162 2.065.727 9.082.917 11.026h14.234-.007v-.003Zm-226.03-66.263h-15.853v66.259h15.853v-66.259Zm92.621 66.259v-45.845c0-6.147-.558-17.936-.72-20.61h14.242l.67 9.318h.297c1.653-2.606 6.984-10.818 19.41-10.818 15.004 0 23.342 11.026 23.342 24.766v43.193H446.9v-40.06c0-8.439-4.69-14.815-12.766-14.815-8.327 0-12.766 6.73-12.766 14.814v40.057H405.5Zm156.672-11.384c-.405-.233-1.067-.34-1.959-.34h-1.385v3.315h1.464a4.44 4.44 0 0 0 1.547-.197c.63-.25.948-.727.948-1.44 0-.665-.204-1.113-.615-1.342v.004Zm-1.747-1.443c1.138 0 1.98.107 2.506.322.955.408 1.424 1.17 1.424 2.327 0 .824-.297 1.44-.891 1.815a3.408 3.408 0 0 1-1.325.444 2.25 2.25 0 0 1 1.58.906c.306.41.48.905.497 1.417v.674c0 .214 0 .44.014.68 0 .164.032.33.086.483l.05.107h-1.51l-.022-.09c-.004-.028-.022-.064-.022-.103l-.032-.29v-.727c0-1.06-.297-1.765-.866-2.105-.347-.186-.949-.3-1.8-.3h-1.279v3.615h-1.618v-9.175h3.215-.007Zm-4.927-.465a6.934 6.934 0 0 0-2.087 5.083c0 2.005.695 3.723 2.087 5.13a6.893 6.893 0 0 0 5.095 2.123c1.994 0 3.698-.709 5.098-2.123 1.385-1.403 2.087-3.125 2.087-5.12 0-1.997-.702-3.694-2.087-5.097a6.945 6.945 0 0 0-5.098-2.12 6.902 6.902 0 0 0-5.09 2.12h-.005v.004Zm11.013 11.012a8.034 8.034 0 0 1-5.918 2.459 8.016 8.016 0 0 1-5.914-2.46 8.127 8.127 0 0 1-2.435-5.931c0-2.306.827-4.275 2.449-5.907a8.048 8.048 0 0 1 5.9-2.442 8.055 8.055 0 0 1 5.918 2.442c1.64 1.621 2.455 3.594 2.455 5.903a8.087 8.087 0 0 1-2.455 5.936Z"/>
  </g>
</svg>
