<svg xmlns="http://www.w3.org/2000/svg" viewBox="0 0 36 36">
  <g fill="none" fill-rule="evenodd">
    <path stroke="#FFF" stroke-width=".714" d="M5.68 24.3c2.52 1.907 6.328 3.9 12.463 3.9 6.136 0 9.943-1.993 12.465-3.9M29.572 11.45c-3.08-1.571-6.122-3.043-11.43-3.043-5.306 0-8.335 1.486-11.428 3.043"/>
    <path stroke="#FFF" stroke-width=".714" d="M14.8 8.629 13.464 6A16.25 16.25 0 0 0 5.68 9.114S1.714 14.893 1 26.257c4.021 4.636 10.129 4.672 10.129 4.672L13.5 27.75M22.786 27.75l2.372 3.157s6.107-.014 10.128-4.65C34.572 14.9 30.608 9.114 30.608 9.114S27.036 6.314 22.822 6l-1.3 2.636"/>
    <path fill="#FFF" fill-rule="nonzero" d="M13.079 23.136c1.507 0 2.728-1.394 2.728-3.114s-1.221-3.114-2.728-3.114c-1.507 0-2.729 1.394-2.729 3.114s1.222 3.114 2.729 3.114ZM23.207 23.136c1.506 0 2.728-1.394 2.728-3.114s-1.221-3.114-2.728-3.114c-1.507 0-2.729 1.394-2.729 3.114s1.222 3.114 2.729 3.114Z"/>
  </g>
</svg>
