<svg width="629" height="330" xmlns="http://www.w3.org/2000/svg">
  <path d="M376.376 151.671h16.349v58.388h-16.349v-7.59c-5.838 8.757-13.429 9.341-18.1 9.341-18.1 0-29.777-14.013-29.777-30.945 0-17.516 11.677-30.945 28.61-30.945 4.67 0 13.429.584 18.684 9.342v-7.59h.583Zm-30.36 29.194c0 9.342 6.422 16.348 16.348 16.348a15.94 15.94 0 0 0 16.348-16.348c0-9.342-6.423-16.348-16.348-16.348a15.94 15.94 0 0 0-16.349 16.348Zm78.822-15.18v44.374H408.49v-44.375h-6.423v-14.013h6.423V131.82h16.348v19.851h11.094v14.013h-11.094Zm49.63 0c-4.088-3.504-7.591-4.088-9.343-4.088-4.087 0-6.422 1.752-6.422 4.671 0 1.752.584 3.503 5.254 5.255l4.088 1.168c4.67 1.751 11.677 3.503 14.596 8.174 1.752 2.336 2.92 5.839 2.92 9.926 0 5.255-1.752 10.51-6.423 14.597-4.67 4.087-10.51 6.422-17.516 6.422-12.261 0-18.684-5.838-22.771-9.926l8.758-9.925c3.503 3.503 8.174 7.006 12.845 7.006 4.671 0 8.174-2.335 8.174-6.422 0-3.504-2.919-5.255-5.254-5.84l-3.504-1.167c-4.087-1.752-8.758-3.503-12.261-7.006-2.92-2.92-4.67-6.423-4.67-11.094 0-5.839 2.918-10.51 5.838-13.43 4.67-3.502 10.51-4.086 15.18-4.086 4.088 0 11.094.584 18.684 6.422l-8.174 9.342Zm35.615-6.423c5.84-8.175 14.013-9.342 18.684-9.342 16.933 0 28.61 13.429 28.61 30.945S545.7 211.81 528.184 211.81c-3.504 0-12.262-.584-18.684-9.342v7.59h-15.765v-98.09h16.348v47.294Zm-1.751 21.603c0 9.342 6.422 16.348 16.348 16.348a15.94 15.94 0 0 0 16.349-16.348c0-9.342-6.423-16.348-16.349-16.348s-16.348 7.006-16.348 16.348Zm75.903 20.436-28.026-49.63h19.268l18.1 33.281 16.349-33.28h18.684l-46.71 89.332h-18.684l21.02-39.703Zm-259.823-39.704H283.54v16.349h21.603c-3.503 11.093-11.678 18.684-26.858 18.684-16.933 0-29.194-14.013-29.194-30.946 0-16.932 11.678-31.529 28.61-31.529 9.342 0 18.684 4.671 24.523 12.262l13.429-8.759c-8.758-12.26-22.771-19.267-37.952-19.267-25.69 0-46.71 21.019-46.71 47.293 0 26.275 19.852 47.294 46.71 47.294s46.71-21.02 46.71-47.294c.584-1.751 0-2.919 0-4.087ZM100 64.809c55 0 100 44.999 100 100 0 55-45 100-100 100s-100-45-100-100c0-55.001 45-100 100-100ZM21.428 165.52c0 .243.001.486.004.728-.004 19.281 7.85 39.273 22.855 54.279 15 15 34.997 22.146 54.995 22.858l-.731-.724h.019L21.428 165.52Zm107.153-.712v14.334h34.273l-.141.595c-5.16 21.142-20.77 38.712-41.273 45.788l-82.093-82.093c8.723-23.492 30.066-40.674 55.716-42.663a65.174 65.174 0 0 1 4.937-.188c21.428 0 40.713 10.715 52.858 27.15l.038-.032.02.027 10.715-9.342c-14.294-19.286-37.147-32.142-63.573-32.142a77.858 77.858 0 0 0-12.066.938c-31.749 4.977-57.432 29.338-64.48 60.49l94.284 94.285c27.709-6.92 50.261-28.712 57.946-56.372a77.266 77.266 0 0 0 2.836-20.775H128.58Z" fill="#FFF"/>
</svg>
