<svg viewBox="0 0 36 36" xmlns="http://www.w3.org/2000/svg"><path d="M29.356 23.41c-.713.713-1.723.178-1.96-.178l-1.605-1.605s-.941-.913-.37-1.484c.691-.691-.878-2.26-.878-2.26l-.891-.892c-.357-.356-.714 0-.714 0l-4.621 4.622m11.04 1.797 3.923-3.923m-3.923 3.923 3.923-3.923m0 0c.533-.533.57-1.283 0-2.14-.57-.855-1.427-1.782-1.427-1.782s-1.212-1.284-1.783-.713c-.713.713-1.562.121-2.14-.357-.624-.519-1.782-1.07-1.069-1.783.713-.713.357-1.426 0-1.783l-5.349-5.35c-1.07-1.069-2.354-1.212-4.636-1.782-2.282-.57-4.992-.594-7.132-.713.595.356 2.211 1.426 3.923 2.852 1.711 1.427 3.566 3.686 4.279 4.636.713 1.783.357 2.14-1.07 3.566l-3.017 3.017m0 0L2.968 28.045c-1.07 1.07-1.854 1.712-.713 2.854l2.496 2.496c1.07.713 1.569.214 2.14-.357l7.845-7.845 3.58-3.58m-4.457-4.458 4.457 4.458" stroke="#FFF" stroke-width=".714" fill="none" fill-rule="evenodd"/></svg>