<svg width="609" height="330" xmlns="http://www.w3.org/2000/svg">
  <path d="M558.564 196.983h28.502v-43.775h-28.502v43.775Zm28.416-60.963 21.872.006v81.382c0 13.498-1.42 15.784-4.975 19.468-2.84 2.984-7.389 4.41-15.342 4.41l-32.052-.065-9.88-10.95-.031-4.603h40.403l-.038-11.143-27.56-.016c-8.39 0-12.606-1.56-16.161-4.974-4.544-4.69-6.4-14.95-6.4-34.128 0-19.317 2.275-29.863 6.96-34.686 3.549-3.41 8.098-4.83 15.917-4.83l16.327.135 10.955 9.879.005-9.885Zm-88.4 24.738h.006v-7.26h-26.701v60.662h-21.721v-78.13l21.651-.005v9.933l10.95-9.88h6.356c1-.107 2.065-.134 3.226-.134h9.52c6.678 0 10.938 1.42 13.928 4.41 3.264 3.119 4.544 7.244 4.544 18.752v55.123h-21.726l-.017-53.402-.016-.07ZM384.84 214.16c-7.96 0-12.073-1.28-15.488-4.83-5.109-5.108-7.099-12.218-7.099-34.235 0-22.156 1.99-29.12 7.099-34.374 3.264-3.41 7.529-4.69 15.488-4.69h26.566c7.96 0 12.073 1.28 15.488 4.69 5.11 5.254 7.099 12.218 7.099 34.374 0 22.157-1.99 29.121-7.099 34.235-3.41 3.55-7.529 4.83-15.488 4.83H384.84Zm-.995-17.21h28.502v-43.753h-28.502v43.754Zm-55.558-82.521h25.867l-37.16 47.012 38.72 53.014h-27.438l-29.443-41.661-6.991-.033v41.69h-23.286V114.422h23.286v38.72h6.975l29.47-38.714ZM73.207 230.035h40.684l21.124 26.351-3.63 8.96H78.828l1.29-8.96-12.39-19.36 5.48-6.991Zm28.74-117.784 22.081-.033 99.23 117.397-7.71 35.687H173.02l2.646-10.056-92.724-109.718 19.005-33.277Zm39.397-46.905 45.927 36.337-5.878 6.11 7.959 11.164v11.938l-22.893 18.79-38.505-45.797h-22.415l9.024-16.655 26.781-21.887Zm-95.805 114.6 32.288-27.68 42.861 50.875-12.17 18.634H68.992L41.65 257.16l-6.238 8.136H0v-43.415l33.02-41.93 12.52-.006Z" fill="#FFF" fill-rule="evenodd"/>
</svg>
