<svg width="400" height="330" xmlns="http://www.w3.org/2000/svg">
  <path d="M168.725 71c16.44 0 26.758 4.363 35.531 11.343 12.119-7.266 26.02-11.042 42.578-11.042 21.171 0 36.9 4.921 47.87 15.76 12.794-10.643 28.818-15.493 46.75-15.493 23.713 0 39.316 8.547 48.478 21.291 12.902 17.976 10.594 36.07 8.215 55.2-1.943 15.612-12.5 44.54-18.108 56.1-15.05 30.992-35.156 54.803-73.897 54.803-20.696 0-37.719-6.596-47.674-19.276-14.578 12.768-32.62 19.456-52.049 19.456-14.966 0-28.193-4.32-38.28-12.308-11.131 7.839-26.153 12.21-42.8 12.21-13.905 0-26.416-3.816-36.208-10.87-10.833 7.186-25.03 10.757-41.695 10.362C19.708 257.882.563 240.302.014 214.78c-.724-33.904 27.841-95.956 41.304-117.445 10.075-16.542 25.453-25.442 44.297-25.442 20.453 0 27.867 5.838 31.516 13.272C132.912 71.77 153.831 71 168.725 71Zm78.527 24.101c-34.997 0-48.733 21.402-61.83 51.984-6.156 14.367-13.919 38.92-13.919 54.56 0 21.949 13.369 33.855 34.905 33.855 31.457 0 53.696-25.08 60.047-56.312 1.955-9.618 4.369-27.651-20.07-26.654-12.403.509-19.887 3.252-23.831 15.916-3.977 12.79 10.085 13.39 10.649 13.41h.017c-2.958 13.493-11.63 21.671-19.366 21.671-4.822 0-9.233-2.079-7.741-12.288 1-6.858 4.5-18.24 8.614-29.415l.54-1.456c4.708-12.602 10.098-24.675 13.453-29.385 2.93-4.114 6.867-7.924 12.886-7.924 7.386 0 6.667 3.902 4.934 8.87-4.982 14.2 10.037 14.581 13.708 14.296 13.126-1.025 20.352-9.498 22.132-23.927 2.428-19.66-14.132-27.2-35.128-27.2Zm-77.836-.592c-24.885 0-39.33 3.73-53.47 31.79-11.514 22.85-23.783 57.15-23.783 79.77 0 19.295 15.508 29.342 33.161 29.342 16.079 0 39.257-6.154 39.257-27.114 0-8.646-6.686-12.978-17.146-13.235-9.181-.221-14.541 1.018-21.687 2.804 2.207-8.652 4.932-16.813 6.372-20.71 18.458 3.303 33.53 2.158 38.616-15.228 3.757-12.87-5.682-17.92-27.942-14.788a125.22 125.22 0 0 1 4.385-9.943l.297-.595c1.778-3.53 3.102-5.673 3.467-6.249l.056-.087.045-.07c4.727.334 12.629.052 17.761-.242 12.02-.69 24.146-6.146 24.146-20.448 0-10.321-12.602-14.997-23.535-14.997Zm173.398.773c-35.69-.426-46.98 23.234-58.027 52.25-6.339 16.007-13.805 40.425-13.71 57.724.136 24.096 17.746 29.864 33.38 30.05 15.624.188 33.525-3.521 48.263-30.007 9.033-16.232 17.355-38.012 21.054-56.425 3.238-16.104 10.66-53.097-30.96-53.592Zm-257.262.574c-11.033 0-17.951 4.608-23.63 13.926-12.294 19.625-38.41 78.834-37.858 104.426.317 14.63 11.652 20.396 24.26 20.703 17.383.409 37.402-4.47 39.457-26.28.684-7.286-4.79-15.152-26.563-11.373 9.096-20.353 36.814-72.462 37.226-89.609.153-6.427-2.437-11.793-12.892-11.793Zm252.667 27.81.249.001c5.221.065 5.762 3.835 5.629 7.072-.448 11.109-16.735 55.542-22.528 65.338-2.501 4.246-5.332 7.765-10.424 7.759-4.439 0-6.43-3.151-6.547-6.753-.325-10.026 18.08-60.295 24.376-68.446 2.802-4.32 5.92-5.019 9.494-4.97Z" fill="#FFF"/>
</svg>
