<svg width="297" height="330" xmlns="http://www.w3.org/2000/svg">
  <path d="M0 64.665h45.1v120.92c0 19.136 8.763 30.535 15.692 35.422-7.336 6.514-29.751 12.214-46.46-1.63C4.48 211.217 0 197.8 0 185.177V64.666ZM281.863 165.11v-12.708h13.755v-44.581h-15.105C274.713 81.056 250.86 61 222.334 61c-32.862 0-59.501 26.614-59.501 59.442v104.111c9.362 1.315 20.516-.163 30.006-8.025 9.85-8.161 14.33-21.578 14.33-34.2v-3.835h22.525V133.91h-22.525v-13.469h.054c0-8.336 6.765-15.095 15.111-15.095 8.345 0 15.138 6.759 15.138 15.095v44.669c0 32.828 26.667 59.442 59.528 59.442v-44.347c-8.345 0-15.137-6.759-15.137-15.095Zm-170.814-57.29v65.428c0 3.715-3.084 6.726-6.89 6.726-3.807 0-6.892-3.011-6.892-6.726v-65.427H52.64v76.95c0 13.841 4.7 31.348 26.084 37.049 21.407 5.706 33.826-6.107 33.826-6.107-1.131 7.782-8.468 13.483-20.287 14.704-8.942.923-20.378-2.035-26.082-4.479v40.768c14.536 4.283 29.91 5.666 44.955 2.75 27.306-5.293 44.539-28.093 44.539-58.425v-103.21h-44.626Z" fill="#FFF"/>
</svg>
