<svg xmlns="http://www.w3.org/2000/svg" viewBox="0 0 36 36">
  <g fill="none" fill-rule="evenodd" transform="translate(2.942 1.214)">
    <path stroke="#FFF" stroke-width=".714" d="M21.7 16.786c0 4.698-.794 8.935-2.064 11.984-.635 1.526-1.383 2.736-2.195 3.56-.81.824-1.664 1.242-2.526 1.242-.862 0-1.715-.418-2.526-1.241-.812-.825-1.56-2.036-2.195-3.56-1.27-3.05-2.065-7.287-2.065-11.985 0-4.699.794-8.936 2.065-11.985.635-1.525 1.383-2.736 2.195-3.56C13.2.418 14.053 0 14.915 0c.862 0 1.715.418 2.526 1.24.812.825 1.56 2.036 2.195 3.561 1.27 3.05 2.065 7.286 2.065 11.985Z"/>
    <path stroke="#FFF" stroke-width=".714" d="M18.31 22.663c-4.07 2.349-8.136 3.78-11.412 4.204-1.639.212-3.061.17-4.181-.121-1.118-.29-1.907-.82-2.338-1.567-.43-.747-.495-1.694-.188-2.808.308-1.115.983-2.368 1.986-3.681 2.005-2.625 5.277-5.432 9.346-7.78 4.07-2.35 8.136-3.78 11.412-4.205 1.638-.212 3.061-.17 4.18.12 1.119.292 1.907.822 2.338 1.568.431.746.496 1.694.189 2.808-.308 1.115-.983 2.368-1.986 3.681-2.006 2.625-5.278 5.431-9.347 7.78Z"/>
    <path stroke="#FFF" stroke-width=".714" d="M11.523 22.662c-4.069-2.349-7.341-5.155-9.346-7.78C1.173 13.57.499 12.316.19 11.201c-.308-1.114-.243-2.062.188-2.808S1.6 7.116 2.717 6.826c1.12-.291 2.542-.333 4.18-.121 3.276.424 7.343 1.855 11.412 4.204 4.069 2.35 7.341 5.156 9.346 7.78 1.004 1.314 1.679 2.567 1.986 3.682.308 1.114.243 2.061-.188 2.808-.43.746-1.22 1.276-2.337 1.567-1.12.29-2.543.333-4.182.12-3.275-.424-7.342-1.854-11.41-4.204Z"/>
    <circle cx="14.915" cy="16.786" r="3.571" fill="#FFF" fill-rule="nonzero"/>
  </g>
</svg>
