<svg width="841" height="330" xmlns="http://www.w3.org/2000/svg">
  <g fill="#FFF">
    <path d="M628.077 109.365c.002 3.958-2.055 7.617-5.396 9.596a10.558 10.558 0 0 1-10.798 0c-3.34-1.98-5.397-5.638-5.395-9.596-.002-3.958 2.055-7.616 5.395-9.596a10.558 10.558 0 0 1 10.798 0c3.34 1.98 5.398 5.638 5.396 9.596Zm164.48 48.647h27.476v28.039h-27.476zm-544.929 0h27.476v28.039h-27.476zm-82.412 0h27.476v28.039h-27.476zm-81.162 0h27.476v28.039H84.054zm-84.054 0h27.476v28.039H0z"/>
    <path d="M65.987 102.045h3.26c21.055 0 30.869 11.263 34.97 41.302l6.52-.289-.87-47.657H2.725L1.67 143.058l6.274.289c1.087-11.264 2.39-17.33 5.218-23.396 5-11.265 15.435-17.906 28.26-17.906h4.564v103.688c0 10.975-.652 14.441-3.258 17.04-2.175 2.022-6.523 2.889-11.525 2.889h-5v6.93H85.77v-6.93h-5.03c-4.97 0-9.349-.868-11.491-2.888-2.609-2.6-3.26-6.068-3.26-17.041V102.045m283.413 130.549 34.714-121.124v95.05c0 10.374-.59 14.02-2.944 16.542-1.768 1.962-5.863 2.805-10.404 2.805h-1.766v6.727h49.069v-6.727h-2.554c-4.514 0-8.635-.841-10.4-2.805-2.358-2.523-2.946-6.168-2.946-16.541V125.49c0-10.375.588-14.3 2.946-16.823 1.961-1.682 5.886-2.805 10.4-2.805h2.554v-6.45h-38.076l-28.657 97.854L323.3 99.413h-37.88v6.45h3.532c10.403 0 12.365 2.243 12.365 15.702v77.104c0 12.336-.588 17.384-2.356 21.03-1.961 3.645-6.112 6.168-10.402 6.168h-3.14v6.727h40.43v-6.727h-2.55c-5.103 0-9.226-1.964-11.609-5.889-2.326-3.925-2.915-7.57-2.915-21.31v-87.197l34.514 121.125h6.114m110.863-94.771c-24.337 0-40.234 19.066-40.234 49.068 0 28.88 15.897 48.508 39.62 48.508 23.942 0 39.84-19.628 39.84-48.788 0-28.881-15.898-48.788-39.226-48.788m-.784 6.448c7.038 0 13.121 4.486 16.458 12.057 3.14 7.009 4.513 16.543 4.513 30.282 0 28.317-6.87 42.335-20.802 42.335-13.908 0-20.61-14.02-20.61-42.617 0-13.459 1.4-22.991 4.54-30 3.115-7.29 9.424-12.057 15.9-12.057m72.62-46.263-27.872 1.403v6.168h1.346c8.245 0 10.039 2.804 10.039 15.982v91.124c0 11.776-.392 14.862-1.962 19.907h6.477c4.877-8.131 6.083-9.532 8.047-9.532.953 0 1.905.28 3.31 1.682 9.642 7.85 13.764 9.532 22.596 9.532 21.168 0 36.478-20.468 36.478-49.628 0-27.477-14.16-45.982-35.328-45.982-10.99 0-19.01 5.327-23.131 14.86V98.01m20.356 47.665c12.59 0 19.066 13.46 19.066 39.814 0 27.758-6.673 42.058-19.431 42.058-14.131 0-21.564-14.582-21.564-41.217 0-13.459 1.77-22.71 5.89-29.72 3.7-6.728 10.01-10.935 16.039-10.935m74.413-6.448-28.627 1.682v6.168h2.16c8.213 0 9.982 2.805 9.982 15.702v47.385c0 12.9-1.767 15.984-9.982 15.984h-3.113v6.446h42.733v-6.446h-3.086c-8.272 0-10.065-2.806-10.065-15.984v-70.937m49.652-41.217-28.627 1.403v6.168h2.134c8.242 0 10.008 2.804 10.008 15.982v88.6c0 13.179-1.766 15.983-10.008 15.983h-3.113v6.447h42.757v-6.447h-3.14c-8.273 0-10.01-2.806-10.01-15.983V98.01m91.239 88.04c-.955-29.72-15.086-48.225-36.45-48.225-20.637 0-35.526 20.187-35.526 48.226 0 30 14.693 49.348 37.46 49.348 14.72 0 24.926-7.852 33.367-25.236l-5.887-3.085c-6.87 14.58-13.739 20.469-24.339 20.469-15.504 0-22.149-12.335-22.348-41.496h53.723m-53.525-7.011c.169-21.028 7.007-34.206 18.027-34.206 10.99 0 17.466 12.898 17.272 34.206h-35.3m116.1-43.501c1.658 0 3.277.425 4.857 1.276a9.066 9.066 0 0 1 3.69 3.652c.883 1.583 1.323 3.234 1.323 4.954 0 1.702-.435 3.338-1.305 4.908a9.178 9.178 0 0 1-3.65 3.659c-1.568.868-3.206 1.303-4.917 1.303-1.71 0-3.348-.433-4.916-1.303a9.195 9.195 0 0 1-3.657-3.66c-.874-1.569-1.31-3.205-1.31-4.907 0-1.72.442-3.37 1.329-4.954a9.12 9.12 0 0 1 3.694-3.652c1.587-.851 3.206-1.276 4.862-1.276Zm0 1.644c-1.385 0-2.736.355-4.046 1.067a7.658 7.658 0 0 0-3.08 3.044c-.741 1.32-1.11 2.697-1.11 4.125 0 1.421.364 2.782 1.092 4.086a7.744 7.744 0 0 0 3.052 3.046c1.308.729 2.673 1.092 4.092 1.092 1.423 0 2.784-.363 4.092-1.092a7.683 7.683 0 0 0 3.045-3.046c.724-1.304 1.087-2.665 1.087-4.086 0-1.428-.368-2.804-1.105-4.125a7.602 7.602 0 0 0-3.08-3.044c-1.315-.712-2.66-1.067-4.039-1.067Zm-4.333 13.686v-10.627h3.66c1.246 0 2.154.099 2.712.295a2.614 2.614 0 0 1 1.337 1.029c.333.488.5 1.008.5 1.557 0 .776-.28 1.453-.836 2.028-.553.575-1.291.9-2.21.97.376.156.676.344.903.562.43.418.954 1.12 1.573 2.107l1.298 2.081h-2.103l-.947-1.677c-.742-1.312-1.337-2.134-1.786-2.468-.314-.248-.773-.37-1.375-.37h-1.01v4.515h-1.716v-.002Zm1.718-5.974h2.091c.997 0 1.677-.148 2.042-.446.365-.299.544-.693.544-1.184 0-.316-.087-.6-.262-.848a1.564 1.564 0 0 0-.73-.56c-.31-.122-.887-.182-1.728-.182h-1.957v3.22Z"/>
  </g>
</svg>
