<svg width="524" height="330" xmlns="http://www.w3.org/2000/svg">
  <path d="m0 228.24 54.37-84.236H6.408a39.923 39.923 0 0 1-.53-7.995c-.088-2.675.091-5.36.53-7.995H83.7l1.021 2.665-54.912 84.236h51.237c.444 2.64.622 5.319.53 7.995.11 2.5-.07 5.004-.53 7.464H.536L0 228.24Zm156.205-65.04a20.625 20.625 0 0 0-5.866-16.526 27.67 27.67 0 0 0-17.593-4.8 103.84 103.84 0 0 0-13.33 1.068 75.66 75.66 0 0 0-11.726 2.665 29.61 29.61 0 0 1-3.727-15.995 67.491 67.491 0 0 1 14.928-3.201 80.714 80.714 0 0 1 15.994-1.067 45.947 45.947 0 0 1 30.387 9.062c6.933 5.87 10.66 15.994 10.66 29.319v64.505l-17.062 3.2a129.437 129.437 0 0 1-20.258 1.599 90.046 90.046 0 0 1-17.592-1.598 33.848 33.848 0 0 1-13.33-5.866 26.343 26.343 0 0 1-8.531-10.13 32.47 32.47 0 0 1-3.201-14.927 27.109 27.109 0 0 1 3.727-14.927 26.343 26.343 0 0 1 9.598-10.66 55.137 55.137 0 0 1 13.86-6.397 56.138 56.138 0 0 1 16.526-2.134 61.416 61.416 0 0 1 10.66.53c2.665 0 4.799.532 6.933.532v-4.263l-1.057.01Zm0 19.195a45.81 45.81 0 0 1-7.464-1.021c-3.201 0-5.871-.531-7.995-.531a32.98 32.98 0 0 0-19.195 4.799 16.49 16.49 0 0 0-6.397 13.86 15.571 15.571 0 0 0 7.464 14.928 16.745 16.745 0 0 0 7.463 2.134 37.71 37.71 0 0 0 7.464.531c3.209.09 6.419-.088 9.598-.53l8.526-1.599v-32.52l.536-.051Zm41.582-54.381c1.598 0 2.665-.531 4.263-.531h8.526c1.598 0 2.665.53 4.262.53.29.863.469 1.759.531 2.666 0 1.598.531 2.665.531 4.263 0 1.598.531 3.2.531 4.799a6.457 6.457 0 0 0 .531 2.665l4.8-6.397a33.967 33.967 0 0 1 6.932-5.33 42.7 42.7 0 0 1 20.258-5.33 41.795 41.795 0 0 1 16.525 3.201 33.95 33.95 0 0 1 13.274 9.598 45.692 45.692 0 0 1 8.53 15.995 74.639 74.639 0 0 1 3.202 22.922 57.995 57.995 0 0 1-14.392 41.582c-9.598 10.129-22.974 14.928-40.515 14.928a51.716 51.716 0 0 1-9.062-.531c-3.2-.534-5.864-1.067-7.995-1.598v47.448c-1.598 0-3.2.53-5.33.53h-9.597c-1.598 0-3.201-.53-4.8-.53v-150.88h-1.005Zm19.721 86.37a44.416 44.416 0 0 0 7.995 2.134c3.531.486 7.098.664 10.66.531a36.218 36.218 0 0 0 13.274-2.134 22.974 22.974 0 0 0 10.128-6.933 38.8 38.8 0 0 0 6.933-12.262 55.545 55.545 0 0 0 2.665-17.593 50.49 50.49 0 0 0-5.866-25.588c-4.15-6.483-11.517-10.21-19.195-9.597-3.265.01-6.506.55-9.598 1.598a21.34 21.34 0 0 0-7.995 5.33 26.65 26.65 0 0 0-5.866 9.061 33.22 33.22 0 0 0-2.134 13.274v42.118l-1 .061Zm97.03-70.962h-13.273a7.811 7.811 0 0 1-.531-3.727v-8.526c0-1.598.53-2.665.53-3.727h32.521v103.422c-1.598 0-3.2.53-4.799.53h-9.597c-1.598 0-3.201-.53-4.8-.53l-.05-87.442Zm62.376 41.046c.531 11.195 3.201 19.726 8.526 24.525a33.95 33.95 0 0 0 24.526 7.995 76.868 76.868 0 0 0 27.19-4.799 24.352 24.352 0 0 1 2.665 7.464c.611 2.804.97 5.657 1.072 8.526a56.872 56.872 0 0 1-14.392 4.262 90.379 90.379 0 0 1-17.592 1.598 63.152 63.152 0 0 1-23.995-3.726 56.923 56.923 0 0 1-16.525-11.727 44.467 44.467 0 0 1-9.598-17.062 68.767 68.767 0 0 1-3.201-21.324 89.735 89.735 0 0 1 2.665-21.325 47.99 47.99 0 0 1 9.061-17.062c4.238-4.763 9.292-8.679 14.928-11.726a49.47 49.47 0 0 1 22.392-4.8 39.872 39.872 0 0 1 31.984 13.861 36.707 36.707 0 0 1 7.995 14.928 55.613 55.613 0 0 1 2.665 19.196v5.87c0 2.135-.531 3.728-.531 5.33l-69.835-.004Zm51.18-14.928a34.46 34.46 0 0 0-1.598-10.66 47.223 47.223 0 0 0-4.263-9.062 21.697 21.697 0 0 0-7.463-6.396 22.463 22.463 0 0 0-10.66-2.134 24.046 24.046 0 0 0-18.66 7.463 37.32 37.32 0 0 0-7.995 20.794l50.64-.005Zm41.582-41.577c1.598 0 2.665-.531 4.263-.531h8.526c1.598 0 2.665.53 4.263.53a32.265 32.265 0 0 1 1.067 7.996c.432 2.82.61 5.673.53 8.525a33.592 33.592 0 0 1 11.197-11.726 31.04 31.04 0 0 1 17.592-4.8h3.201a4.033 4.033 0 0 1 2.665.532c0 1.02.531 2.665.531 3.727v4.262a14.805 14.805 0 0 1-.53 4.8c0 1.597-.532 3.2-.532 4.798-1.02 0-2.134-.53-3.2-.53h-2.666a31.04 31.04 0 0 0-10.129 1.597 22.667 22.667 0 0 0-9.061 5.33 25.884 25.884 0 0 0-6.397 10.66 51.154 51.154 0 0 0-2.134 17.062v51.24c-1.598 0-3.201.532-4.8.532h-9.597c-1.598 0-3.727-.531-5.33-.531V128.014l.541-.051ZM352.92 67.24h-19.676l13.86-13.86c-1.02-1.598-2.133-2.665-3.2-4.263a30.836 30.836 0 0 1-4.263-3.727l-13.902 13.845V39.99a18.124 18.124 0 0 0-5.33-.53 16.49 16.49 0 0 0-5.33.53v19.727L300.684 45.32a14.397 14.397 0 0 0-4.263 3.732c-1.021 1.598-2.665 2.665-3.727 4.263l13.861 13.86h-19.257l-.53 5.33c-.121 1.811.058 3.63.53 5.382h19.727l-14.397 14.396a28.656 28.656 0 0 0 7.995 7.995l13.86-13.86v19.726c1.74.44 3.537.619 5.33.531a16.49 16.49 0 0 0 5.33-.53v-19.73l13.86 13.861a14.397 14.397 0 0 0 4.264-3.732 29.866 29.866 0 0 0 3.727-4.263l-13.749-13.85h19.727c.44-1.74.619-3.537.53-5.33a20.115 20.115 0 0 0-.53-5.871l-.051.01Zm-24.526 5.33c-.05 2.348-.41 4.68-1.072 6.933a15.287 15.287 0 0 1-6.933 1.021c-2.348-.05-4.68-.41-6.933-1.072a15.287 15.287 0 0 1-1.02-6.933c.049-2.348.41-4.68 1.071-6.933a15.287 15.287 0 0 1 6.933-1.02c2.348.049 4.68.41 6.933 1.071.615 2.264.973 4.59 1.067 6.933h-.046Z" fill="#FFF"/>
</svg>
